0
SECTION
2
HEADER
9
$INSUNITS
70
4
9
$ACADVER
1
AC1014
9
$HANDSEED
5
FFFF
0
ENDSEC
0
SECTION
2
TABLES
0
TABLE
2
VPORT
5
8
100
AcDbSymbolTable
0
ENDTAB
0
TABLE
2
LTYPE
5
5
100
AcDbSymbolTable
0
LTYPE
5
14
100
AcDbSymbolTableRecord
100
AcDbLinetypeTableRecord
2
BYBLOCK
70
0
0
LTYPE
5
15
100
AcDbSymbolTableRecord
100
AcDbLinetypeTableRecord
2
BYLAYER
70
0
0
ENDTAB
0
TABLE
2
LAYER
5
2
100
AcDbSymbolTable
70
2
0
LAYER
5
50
100
AcDbSymbolTableRecord
100
AcDbLayerTableRecord
2
0
70
0
6
CONTINUOUS
0
ENDTAB
0
TABLE
2
STYLE
5
3
100
AcDbSymbolTable
70
1
0
STYLE
5
11
100
AcDbSymbolTableRecord
100
AcDbTextStyleTableRecord
2
STANDARD
70
0
0
ENDTAB
0
TABLE
2
VIEW
5
6
100
AcDbSymbolTable
70
0
0
ENDTAB
0
TABLE
2
UCS
5
7
100
AcDbSymbolTable
70
0
0
ENDTAB
0
TABLE
2
APPID
5
9
100
AcDbSymbolTable
70
2
0
APPID
5
12
100
AcDbSymbolTableRecord
100
AcDbRegAppTableRecord
2
ACAD
70
0
0
ENDTAB
0
TABLE
2
DIMSTYLE
5
A
100
AcDbSymbolTable
70
1
0
ENDTAB
0
TABLE
2
BLOCK_RECORD
5
1
100
AcDbSymbolTable
70
1
0
BLOCK_RECORD
5
1F
100
AcDbSymbolTableRecord
100
AcDbBlockTableRecord
2
*MODEL_SPACE
0
BLOCK_RECORD
5
1B
100
AcDbSymbolTableRecord
100
AcDbBlockTableRecord
2
*PAPER_SPACE
0
ENDTAB
0
ENDSEC
0
SECTION
2
BLOCKS
0
BLOCK
5
20
100
AcDbEntity
100
AcDbBlockBegin
2
*MODEL_SPACE
0
ENDBLK
5
21
100
AcDbEntity
100
AcDbBlockEnd
0
BLOCK
5
1C
100
AcDbEntity
100
AcDbBlockBegin
2
*PAPER_SPACE
0
ENDBLK
5
1D
100
AcDbEntity
100
AcDbBlockEnd
0
ENDSEC
0
SECTION
2
ENTITIES
0
LWPOLYLINE
5
100
100
AcDbEntity
8
0
100
AcDbPolyline
90
60
70
1
43
0.0
10
25.781924999999895
20
8.1935539999999527
42
0.60633920887140969
10
31.368067927236645
20
8.1935523871284826
42
-0.27948790194510276
10
32.698102000000006
20
9.0000040000000059
10
85.82646553623502
20
9.000004681217689
42
-0.279487901946121
10
87.156500999999906
20
8.1935539999999598
42
0.60633920887121184
10
92.742643927235804
20
8.193552387126859
42
-0.27948790194543183
10
94.07267800000001
20
9.0000040000000059
10
114.93938953623001
20
9.0000046812176961
42
-0.27948790194702233
10
116.26942499999991
20
8.1935539999999421
42
0.60633926721670761
10
121.85556738780159
20
8.1935532746383615
42
-0.27950155811648625
10
123.18567800000002
20
9.0000040000000059
10
172.62746553623003
20
9.0000046812172911
42
-0.27948790194701417
10
173.95750099999955
20
8.1935539999997786
42
0.60633920887121306
10
179.54364392723579
20
8.1935523871268732
42
-0.27948790194542894
10
180.87367799999998
20
9.0000040000000059
10
234.00188953623001
20
9.000004681217689
42
-0.27948790194702111
10
235.3319249999999
20
8.1935539999999598
42
0.60633920887120696
10
240.91806792723577
20
8.1935523871268288
42
-0.27948790194543827
10
242.24810200000002
20
9.0000040000000059
10
259.42706553623003
20
9.000004681217689
42
-0.27948790194701478
10
260.75710099999992
20
8.1935539999999598
42
0.60633920887121528
10
266.34324392723585
20
8.1935523871268821
42
-0.2794879019454275
10
267.67327800000004
20
9.0000040000000059
10
273.449996
20
9.0000039999999881
42
-0.41421356237309503
10
275.699996
20
6.7500040000000094
10
275.699996
20
-82.949995999999999
42
-0.41421356237309503
10
273.449996
20
-85.199995999999985
10
267.67360122802
20
-85.199996643176263
42
-0.27948790194600659
10
266.34356699999978
20
-84.393544000000105
42
0.606339158682077
10
260.75742507277431
20
-84.393544387107511
42
-0.27948790194935003
10
259.427391
20
-85.199995999999985
10
227.96060122802001
20
-85.199996643176263
42
-0.27948790194600659
10
226.63056699999976
20
-84.393544000000105
42
0.60633915868207533
10
221.04442507277435
20
-84.393544387107511
42
-0.27948790194935003
10
219.71439100000003
20
-85.199995999999985
10
180.87260122802002
20
-85.199996643176263
42
-0.27948790194600659
10
179.54256699999976
20
-84.393544000000105
42
0.606339158682077
10
173.95642507277429
20
-84.393544387107511
42
-0.27948790194935003
10
172.62639100000001
20
-85.199995999999985
10
94.072601228020005
20
-85.199996643176249
42
-0.27948790194600825
10
92.742566999999781
20
-84.393544000000105
42
0.6063391586817769
10
87.156425072775562
20
-84.393544387105038
42
-0.27948790194984829
10
85.826391000000001
20
-85.199995999999985
10
46.985601228020997
20
-85.199996643176249
42
-0.27948790194618867
10
45.655566999999763
20
-84.393544000000105
42
0.60633915868177646
10
40.069425072775566
20
-84.393544387105067
42
-0.27948790194984757
10
38.739391000000005
20
-85.199995999999985
10
7.2726012280209993
20
-85.199996643176249
42
-0.27948790194618994
10
5.9425669999997535
20
-84.393544000000105
42
0.60633915868177635
10
0.35642507277555496
20
-84.393544387105067
42
-0.27948790194984746
10
-0.97360900000000195
20
-85.199995999999985
10
-6.7500040000000006
20
-85.199996499771373
42
-0.41421356237268825
10
-9.0000044997713786
20
-82.949996000003125
10
-9.0000039999999988
20
6.7500040000000094
42
-0.41421356237309503
10
-6.7500040000000014
20
9.0000040000000059
10
-2.9731104637650008
20
9.0000046812176908
42
-0.2794879019461215
10
-1.6430750000001066
20
8.1935539999999563
42
0.60633920887141191
10
3.943067927236652
20
8.1935523871284985
42
-0.27948790194509954
10
5.2731020000000006
20
9.0000040000000059
10
24.451889536234997
20
9.0000046812176926
42
-0.27948790194612244
0
CIRCLE
5
101
100
AcDbEntity
8
0
100
AcDbCircle
10
0
20
0
30
0
40
1.9939
210
0
220
0
230
1
0
ENDSEC
0
SECTION
2
OBJECTS
0
DICTIONARY
5
C
100
AcDbDictionary
3
ACAD_GROUP
350
D
3
ACAD_MLINESTYLE
350
17
0
DICTIONARY
5
D
100
AcDbDictionary
0
DICTIONARY
5
1A
330
C
100
AcDbDictionary
0
DICTIONARY
5
17
100
AcDbDictionary
0
ENDSEC
0
EOF
