0
SECTION
2
HEADER
9
$INSUNITS
70
4
9
$ACADVER
1
AC1014
9
$HANDSEED
5
FFFF
0
ENDSEC
0
SECTION
2
TABLES
0
TABLE
2
VPORT
5
8
100
AcDbSymbolTable
0
ENDTAB
0
TABLE
2
LTYPE
5
5
100
AcDbSymbolTable
0
LTYPE
5
14
100
AcDbSymbolTableRecord
100
AcDbLinetypeTableRecord
2
BYBLOCK
70
0
0
LTYPE
5
15
100
AcDbSymbolTableRecord
100
AcDbLinetypeTableRecord
2
BYLAYER
70
0
0
ENDTAB
0
TABLE
2
LAYER
5
2
100
AcDbSymbolTable
70
2
0
LAYER
5
50
100
AcDbSymbolTableRecord
100
AcDbLayerTableRecord
2
0
70
0
6
CONTINUOUS
0
ENDTAB
0
TABLE
2
STYLE
5
3
100
AcDbSymbolTable
70
1
0
STYLE
5
11
100
AcDbSymbolTableRecord
100
AcDbTextStyleTableRecord
2
STANDARD
70
0
0
ENDTAB
0
TABLE
2
VIEW
5
6
100
AcDbSymbolTable
70
0
0
ENDTAB
0
TABLE
2
UCS
5
7
100
AcDbSymbolTable
70
0
0
ENDTAB
0
TABLE
2
APPID
5
9
100
AcDbSymbolTable
70
2
0
APPID
5
12
100
AcDbSymbolTableRecord
100
AcDbRegAppTableRecord
2
ACAD
70
0
0
ENDTAB
0
TABLE
2
DIMSTYLE
5
A
100
AcDbSymbolTable
70
1
0
ENDTAB
0
TABLE
2
BLOCK_RECORD
5
1
100
AcDbSymbolTable
70
1
0
BLOCK_RECORD
5
1F
100
AcDbSymbolTableRecord
100
AcDbBlockTableRecord
2
*MODEL_SPACE
0
BLOCK_RECORD
5
1B
100
AcDbSymbolTableRecord
100
AcDbBlockTableRecord
2
*PAPER_SPACE
0
ENDTAB
0
ENDSEC
0
SECTION
2
BLOCKS
0
BLOCK
5
20
100
AcDbEntity
100
AcDbBlockBegin
2
*MODEL_SPACE
0
ENDBLK
5
21
100
AcDbEntity
100
AcDbBlockEnd
0
BLOCK
5
1C
100
AcDbEntity
100
AcDbBlockBegin
2
*PAPER_SPACE
0
ENDBLK
5
1D
100
AcDbEntity
100
AcDbBlockEnd
0
ENDSEC
0
SECTION
2
ENTITIES
0
LINE
5
100
100
AcDbEntity
8
0
100
AcDbLine
10
44.549996
20
-29.099996000000004
30
0
11
43.373102000000003
21
-29.099996000000004
31
0
0
ARC
5
101
100
AcDbEntity
8
0
100
AcDbCircle
10
43.373102000000003
20
-30.599996000000004
30
0
40
1.4999999999999991
210
0
220
-0
230
1
100
AcDbArc
50
90
51
152.46017345049225
0
ARC
5
102
100
AcDbEntity
8
0
100
AcDbCircle
10
39.249996000000003
20
-28.449997000000003
30
0
40
3.1499987640540001
210
0
220
0
230
1
100
AcDbArc
50
207.53983908514499
51
332.46014268527551
0
ARC
5
103
100
AcDbEntity
8
0
100
AcDbCircle
10
35.126891000000001
20
-30.599996000000004
30
0
40
1.5000002188522041
210
0
220
-0
230
1
100
AcDbArc
50
27.539882492668685
51
90.000038197189085
0
LINE
5
104
100
AcDbEntity
8
0
100
AcDbLine
10
35.126889999999783
20
-29.099995781148337
30
0
11
31.349996000000004
21
-29.099996000000004
31
0
0
ARC
5
105
100
AcDbEntity
8
0
100
AcDbCircle
10
31.349996000000004
20
-31.349996000000004
30
0
40
2.2500000000000009
210
0
220
-0
230
1
100
AcDbArc
50
90
51
180
0
LINE
5
106
100
AcDbEntity
8
0
100
AcDbLine
10
29.099996000000004
20
-31.349996000000004
30
0
11
29.099996000000004
21
-121.04999599999999
31
0
0
ARC
5
107
100
AcDbEntity
8
0
100
AcDbCircle
10
31.349996000000004
20
-121.04999599999999
30
0
40
2.2500000000000009
210
0
220
0
230
1
100
AcDbArc
50
180
51
270
0
LINE
5
108
100
AcDbEntity
8
0
100
AcDbLine
10
31.349996000000004
20
-123.29999599999999
30
0
11
37.126390999999998
21
-123.299995
31
0
0
ARC
5
109
100
AcDbEntity
8
0
100
AcDbCircle
10
37.126392000000003
20
-121.79999600000001
30
0
40
1.4999990000003252
210
0
220
0
230
1
100
AcDbArc
50
269.99996180278799
51
332.46010423967448
0
ARC
5
110
100
AcDbEntity
8
0
100
AcDbCircle
10
41.249496000000001
20
-123.949995
30
0
40
3.149998339729998
210
0
220
-0
230
1
100
AcDbArc
50
27.53986362329973
51
152.46015882274054
0
ARC
5
111
100
AcDbEntity
8
0
100
AcDbCircle
10
45.372601000000003
20
-121.79999600000001
30
0
40
1.5000006431760815
210
0
220
0
230
1
100
AcDbArc
50
207.53983096258048
51
269.99996180312161
0
LINE
5
112
100
AcDbEntity
8
0
100
AcDbLine
10
45.372600000007637
20
-123.29999664317567
30
0
11
47.749991999999999
21
-123.299933
31
0
0
ARC
5
113
100
AcDbEntity
8
0
100
AcDbCircle
10
76.839391000000006
20
-121.79999600000001
30
0
40
1.4999989999999919
210
0
220
0
230
1
100
AcDbArc
50
270
51
332.46013955197685
0
ARC
5
114
100
AcDbEntity
8
0
100
AcDbCircle
10
80.962496000000002
20
-123.949995
30
0
40
3.1499983397300064
210
0
220
-0
230
1
100
AcDbArc
50
27.539863623299677
51
152.46015041739494
0
ARC
5
115
100
AcDbEntity
8
0
100
AcDbCircle
10
85.085600999999997
20
-121.79999600000001
30
0
40
1.5000006431760737
210
0
220
0
230
1
100
AcDbArc
50
207.53983096258074
51
269.9999705125868
0
LINE
5
116
100
AcDbEntity
8
0
100
AcDbLine
10
85.085600228020994
20
-123.29999664317582
30
0
11
98.74999200000002
21
-123.299933
31
0
0
LINE
5
117
100
AcDbEntity
8
0
100
AcDbLine
10
53.349992
20
-123.299933
30
0
11
76.839391000000006
21
-123.299995
31
0
0
LINE
5
118
100
AcDbEntity
8
0
100
AcDbLine
10
104.349992
20
-123.299933
30
0
11
123.926391
21
-123.299995
31
0
0
ARC
5
119
100
AcDbEntity
8
0
100
AcDbCircle
10
123.92639000000001
20
-121.79999500000001
30
0
40
1.5000000000003191
210
0
220
0
230
1
100
AcDbArc
50
270.00003819718569
51
332.46017774823554
0
ARC
5
120
100
AcDbEntity
8
0
100
AcDbCircle
10
128.049496
20
-123.94999400000002
30
0
40
3.1499978773639925
210
0
220
-0
230
1
100
AcDbArc
50
27.539847495175398
51
152.46014063873085
0
ARC
5
121
100
AcDbEntity
8
0
100
AcDbCircle
10
132.17260200000001
20
-121.79999600000001
30
0
40
1.5000015298662759
210
0
220
0
230
1
100
AcDbArc
50
207.53981330155148
51
269.99995285135077
0
LINE
5
122
100
AcDbEntity
8
0
100
AcDbLine
10
132.17260076565
20
-123.29999752986549
30
0
11
164.74999199999999
21
-123.299933
31
0
0
ARC
5
123
100
AcDbEntity
8
0
100
AcDbCircle
10
210.72639100000004
20
-121.79999600000001
30
0
40
1.4999989999999919
210
0
220
0
230
1
100
AcDbArc
50
270
51
332.46013955187641
0
ARC
5
124
100
AcDbEntity
8
0
100
AcDbCircle
10
214.84949599999999
20
-123.94999400000002
30
0
40
3.1499978773640009
210
0
220
-0
230
1
100
AcDbArc
50
27.539847495175618
51
152.4601665455603
0
ARC
5
125
100
AcDbEntity
8
0
100
AcDbCircle
10
218.97260200000002
20
-121.79999500000001
30
0
40
1.5000019922313883
210
0
220
0
230
1
100
AcDbArc
50
207.53984717055951
51
269.99998672038362
0
LINE
5
126
100
AcDbEntity
8
0
100
AcDbLine
10
218.97260165234002
20
-123.29999699223096
30
0
11
241.74999200000002
21
-123.299933
31
0
0
LINE
5
127
100
AcDbEntity
8
0
100
AcDbLine
10
170.34999199999999
20
-123.299933
30
0
11
210.72639100000004
21
-123.299995
31
0
0
ARC
5
128
100
AcDbEntity
8
0
100
AcDbCircle
10
257.814391
20
-121.79999500000001
30
0
40
1.4999999999999858
210
0
220
0
230
1
100
AcDbArc
50
270
51
332.46013955069293
0
ARC
5
129
100
AcDbEntity
8
0
100
AcDbCircle
10
261.93749600000001
20
-123.94999400000002
30
0
40
3.1499978773640009
210
0
220
-0
230
1
100
AcDbArc
50
27.539847495175387
51
152.46015041800968
0
ARC
5
130
100
AcDbEntity
8
0
100
AcDbCircle
10
266.06060200000002
20
-121.79999500000001
30
0
40
1.500001992231357
210
0
220
0
230
1
100
AcDbArc
50
207.53984717056051
51
269.99998672038248
0
LINE
5
131
100
AcDbEntity
8
0
100
AcDbLine
10
266.06060165233998
20
-123.29999699223097
30
0
11
287.29999199999997
21
-123.299933
31
0
0
LINE
5
132
100
AcDbEntity
8
0
100
AcDbLine
10
247.34999200000001
20
-123.299933
30
0
11
257.814391
21
-123.299995
31
0
0
LINE
5
133
100
AcDbEntity
8
0
100
AcDbLine
10
292.899992
20
-123.299933
30
0
11
297.52739100000002
21
-123.299995
31
0
0
ARC
5
134
100
AcDbEntity
8
0
100
AcDbCircle
10
297.52739100000002
20
-121.79999500000001
30
0
40
1.4999999999999858
210
0
220
0
230
1
100
AcDbArc
50
270
51
332.46015577189627
0
ARC
5
135
100
AcDbEntity
8
0
100
AcDbCircle
10
301.65049599999998
20
-123.94999400000002
30
0
40
3.1499978773640009
210
0
220
-0
230
1
100
AcDbArc
50
27.539847495175387
51
152.46014269362416
0
ARC
5
136
100
AcDbEntity
8
0
100
AcDbCircle
10
305.77360199999998
20
-121.79999600000001
30
0
40
1.5000015298662674
210
0
220
0
230
1
100
AcDbArc
50
207.5398133015515
51
269.9999618027702
0
LINE
5
137
100
AcDbEntity
8
0
100
AcDbLine
10
305.77360099999783
20
-123.29999752986568
30
0
11
311.54999600000002
21
-123.299995
31
0
0
ARC
5
138
100
AcDbEntity
8
0
100
AcDbCircle
10
311.54999600000002
20
-121.04999599999999
30
0
40
2.2499990000000025
210
0
220
0
230
1
100
AcDbArc
50
-90
51
0
0
ARC
5
139
100
AcDbEntity
8
0
100
AcDbCircle
10
311.54999600000002
20
-31.349996999999998
30
0
40
2.2500000000002367
210
0
220
-0
230
1
100
AcDbArc
50
2.5456203002431588e-05
51
89.99999999999855
0
LINE
5
140
100
AcDbEntity
8
0
100
AcDbLine
10
311.54999600000008
20
-29.099996999999998
30
0
11
305.773278
21
-29.099996000000004
31
0
0
ARC
5
141
100
AcDbEntity
8
0
100
AcDbCircle
10
305.773278
20
-30.599996000000004
30
0
40
1.4999999999999991
210
0
220
-0
230
1
100
AcDbArc
50
90
51
152.46019111159802
0
ARC
5
142
100
AcDbEntity
8
0
100
AcDbCircle
10
301.650172
20
-28.449997000000003
30
0
40
3.1499996507430108
210
0
220
0
230
1
100
AcDbArc
50
207.53983067511925
51
332.4601342752249
0
ARC
5
143
100
AcDbEntity
8
0
100
AcDbCircle
10
297.52706599999999
20
-30.599997000000002
30
0
40
1.5000006812189859
210
0
220
-0
230
1
100
AcDbArc
50
27.539916361685957
51
90.0000381971537
0
LINE
5
144
100
AcDbEntity
8
0
100
AcDbLine
10
297.52706500000039
20
-29.099996318781333
30
0
11
295.14999599999999
21
-29.099996000000004
31
0
0
LINE
5
145
100
AcDbEntity
8
0
100
AcDbLine
10
313.79999500000002
20
-121.04999599999999
30
0
11
313.79999600000008
21
-31.349996000000004
31
0
0
LINE
5
146
100
AcDbEntity
8
0
100
AcDbLine
10
289.54999600000002
20
-29.099996000000004
30
0
11
280.34810199999998
21
-29.099996000000004
31
0
0
ARC
5
147
100
AcDbEntity
8
0
100
AcDbCircle
10
280.34810199999998
20
-30.599997000000002
30
0
40
1.5000009999999975
210
0
220
-0
230
1
100
AcDbArc
50
90
51
152.46015724256594
0
ARC
5
148
100
AcDbEntity
8
0
100
AcDbCircle
10
276.22499599999998
20
-28.449997000000003
30
0
40
3.1499996507430108
210
0
220
0
230
1
100
AcDbArc
50
207.53983067511925
51
332.46013427521484
0
ARC
5
149
100
AcDbEntity
8
0
100
AcDbCircle
10
272.10189100000002
20
-30.599996000000004
30
0
40
1.4999993321635858
210
0
220
-0
230
1
100
AcDbArc
50
27.53990015375518
51
90.000038197218458
0
LINE
5
150
100
AcDbEntity
8
0
100
AcDbLine
10
272.10188999999963
20
-29.099996667837335
30
0
11
244.14999600000002
21
-29.099996000000004
31
0
0
LINE
5
151
100
AcDbEntity
8
0
100
AcDbLine
10
172.54999600000002
20
-29.099996000000004
30
0
11
161.28567799999999
21
-29.099996000000004
31
0
0
ARC
5
152
100
AcDbEntity
8
0
100
AcDbCircle
10
161.28560100000001
20
-30.599996000000004
30
0
40
1.5000000019763324
210
0
220
-0
230
1
100
AcDbArc
50
89.997058816655169
51
152.46010135653637
0
ARC
5
153
100
AcDbEntity
8
0
100
AcDbCircle
10
157.162496
20
-28.449997000000003
30
0
40
3.1499996507429948
210
0
220
0
230
1
100
AcDbArc
50
207.5398306751195
51
332.46016860570927
0
ARC
5
154
100
AcDbEntity
8
0
100
AcDbCircle
10
153.03939100000002
20
-30.599996000000004
30
0
40
1.4999993321636644
210
0
220
-0
230
1
100
AcDbArc
50
27.539900153754189
51
90.000039704083491
0
ARC
5
155
100
AcDbEntity
8
0
100
AcDbCircle
10
132.17267799999999
20
-30.599996000000004
30
0
40
1.4999999999999991
210
0
220
-0
230
1
100
AcDbArc
50
90
51
152.46013954984548
0
ARC
5
156
100
AcDbEntity
8
0
100
AcDbCircle
10
128.04957200000001
20
-28.449997000000003
30
0
40
3.1499996507430046
210
0
220
0
230
1
100
AcDbArc
50
207.53983067511913
51
332.46015882844114
0
ARC
5
157
100
AcDbEntity
8
0
100
AcDbCircle
10
123.926467
20
-30.599996000000004
30
0
40
1.4999993321636707
210
0
220
-0
230
1
100
AcDbArc
50
27.539900153754413
51
90.000039704082411
0
LINE
5
158
100
AcDbEntity
8
0
100
AcDbLine
10
123.92646596055002
20
-29.099996667837363
30
0
11
101.14999600000002
21
-29.099996000000004
31
0
0
LINE
5
159
100
AcDbEntity
8
0
100
AcDbLine
10
153.03938996055001
20
-29.099996667837363
30
0
11
132.17267799999999
21
-29.099996000000004
31
0
0
LINE
5
160
100
AcDbEntity
8
0
100
AcDbLine
10
238.54999599999999
20
-29.099996000000004
30
0
11
218.97367700000004
21
-29.099996000000004
31
0
0
ARC
5
161
100
AcDbEntity
8
0
100
AcDbCircle
10
218.97367700000004
20
-30.599996000000004
30
0
40
1.4999999999999991
210
0
220
-0
230
1
100
AcDbArc
50
90
51
152.4601395498359
0
ARC
5
162
100
AcDbEntity
8
0
100
AcDbCircle
10
214.850572
20
-28.449997000000003
30
0
40
3.1499996507430108
210
0
220
0
230
1
100
AcDbArc
50
207.53983067511925
51
332.46015041841821
0
ARC
5
163
100
AcDbEntity
8
0
100
AcDbCircle
10
210.72746699999999
20
-30.599996000000004
30
0
40
1.4999993321636487
210
0
220
-0
230
1
100
AcDbArc
50
27.539900153754189
51
90.000039704082411
0
LINE
5
164
100
AcDbEntity
8
0
100
AcDbLine
10
210.72746596055001
20
-29.099996667837363
30
0
11
178.14999599999999
21
-29.099996000000004
31
0
0
ARC
5
165
100
AcDbEntity
8
0
100
AcDbCircle
10
70.798102
20
-30.599996000000004
30
0
40
1.4999999999999991
210
0
220
-0
230
1
100
AcDbArc
50
90
51
152.46013954977474
0
ARC
5
166
100
AcDbEntity
8
0
100
AcDbCircle
10
66.674995999999993
20
-28.449997000000003
30
0
40
3.1499996507430028
210
0
220
0
230
1
100
AcDbArc
50
207.53983067511936
51
332.46015882847507
0
ARC
5
167
100
AcDbEntity
8
0
100
AcDbCircle
10
62.551890000000007
20
-30.599996000000004
30
0
40
1.5000002188527761
210
0
220
-0
230
1
100
AcDbArc
50
27.539882492668806
51
90.000022042676605
0
LINE
5
168
100
AcDbEntity
8
0
100
AcDbLine
10
62.551889422923999
20
-29.09999578114811
30
0
11
50.149996000000002
21
-29.099996000000004
31
0
0
LINE
5
169
100
AcDbEntity
8
0
100
AcDbLine
10
95.549996000000007
20
-29.099996000000004
30
0
11
70.798102
21
-29.099996000000004
31
0
0
CIRCLE
5
170
100
AcDbEntity
8
0
100
AcDbCircle
10
38.100000000000009
20
-38.100000000000009
30
0
40
1.9939
210
0
220
0
230
1
0
ENDSEC
0
SECTION
2
OBJECTS
0
DICTIONARY
5
C
100
AcDbDictionary
3
ACAD_GROUP
350
D
3
ACAD_MLINESTYLE
350
17
0
DICTIONARY
5
D
100
AcDbDictionary
0
DICTIONARY
5
1A
330
C
100
AcDbDictionary
0
DICTIONARY
5
17
100
AcDbDictionary
0
ENDSEC
0
EOF
