0
SECTION
2
HEADER
9
$INSUNITS
70
4
9
$ACADVER
1
AC1014
9
$HANDSEED
5
FFFF
0
ENDSEC
0
SECTION
2
TABLES
0
TABLE
2
VPORT
5
8
100
AcDbSymbolTable
0
ENDTAB
0
TABLE
2
LTYPE
5
5
100
AcDbSymbolTable
0
LTYPE
5
14
100
AcDbSymbolTableRecord
100
AcDbLinetypeTableRecord
2
BYBLOCK
70
0
0
LTYPE
5
15
100
AcDbSymbolTableRecord
100
AcDbLinetypeTableRecord
2
BYLAYER
70
0
0
ENDTAB
0
TABLE
2
LAYER
5
2
100
AcDbSymbolTable
70
2
0
LAYER
5
50
100
AcDbSymbolTableRecord
100
AcDbLayerTableRecord
2
0
70
0
6
CONTINUOUS
0
ENDTAB
0
TABLE
2
STYLE
5
3
100
AcDbSymbolTable
70
1
0
STYLE
5
11
100
AcDbSymbolTableRecord
100
AcDbTextStyleTableRecord
2
STANDARD
70
0
0
ENDTAB
0
TABLE
2
VIEW
5
6
100
AcDbSymbolTable
70
0
0
ENDTAB
0
TABLE
2
UCS
5
7
100
AcDbSymbolTable
70
0
0
ENDTAB
0
TABLE
2
APPID
5
9
100
AcDbSymbolTable
70
2
0
APPID
5
12
100
AcDbSymbolTableRecord
100
AcDbRegAppTableRecord
2
ACAD
70
0
0
ENDTAB
0
TABLE
2
DIMSTYLE
5
A
100
AcDbSymbolTable
70
1
0
ENDTAB
0
TABLE
2
BLOCK_RECORD
5
1
100
AcDbSymbolTable
70
1
0
BLOCK_RECORD
5
1F
100
AcDbSymbolTableRecord
100
AcDbBlockTableRecord
2
*MODEL_SPACE
0
BLOCK_RECORD
5
1B
100
AcDbSymbolTableRecord
100
AcDbBlockTableRecord
2
*PAPER_SPACE
0
ENDTAB
0
ENDSEC
0
SECTION
2
BLOCKS
0
BLOCK
5
20
100
AcDbEntity
100
AcDbBlockBegin
2
*MODEL_SPACE
0
ENDBLK
5
21
100
AcDbEntity
100
AcDbBlockEnd
0
BLOCK
5
1C
100
AcDbEntity
100
AcDbBlockBegin
2
*PAPER_SPACE
0
ENDBLK
5
1D
100
AcDbEntity
100
AcDbBlockEnd
0
ENDSEC
0
SECTION
2
ENTITIES
0
LINE
5
100
100
AcDbEntity
8
0
100
AcDbLine
10
67.759395381460834
20
-85.805864860015348
30
0
11
84.163404381460822
21
-85.805932860015332
31
0
0
ARC
5
101
100
AcDbEntity
8
0
100
AcDbCircle
10
84.164229381460828
20
-85.235757860015354
30
0
40
0.57017559685590424
210
0
220
0
230
1
100
AcDbArc
50
-90.082902591505018
51
0.082863399026824325
0
ARC
5
102
100
AcDbEntity
8
0
100
AcDbCircle
10
88.234000381460817
20
-85.861609860015335
30
0
40
3.5552636939400011
210
0
220
-0
230
1
100
AcDbArc
50
46.54173233131781
51
169.84758472437008
0
ARC
5
103
100
AcDbEntity
8
0
100
AcDbCircle
10
91.16515338146084
20
-82.791039860015331
30
0
40
0.68988858113570006
210
0
220
0
230
1
100
AcDbArc
50
225.2431841202183
51
269.93774113984358
0
LINE
5
104
100
AcDbEntity
8
0
100
AcDbLine
10
91.16440373343076
20
-83.480928033858234
30
0
11
91.434404380610559
21
-83.48092850048792
31
0
0
ARC
5
105
100
AcDbEntity
8
0
100
AcDbCircle
10
91.432882381460828
20
-86.733523860015367
30
0
40
3.252595074522997
210
0
220
-0
230
1
100
AcDbArc
50
16.569901242282985
51
89.97318937288594
0
LINE
5
106
100
AcDbEntity
8
0
100
AcDbLine
10
94.550405381461005
20
-85.80593286001529
30
0
11
128.1593953814608
21
-85.805864860015333
31
0
0
ARC
5
107
100
AcDbEntity
8
0
100
AcDbCircle
10
36.474889381460841
20
-85.24942186001536
30
0
40
0.55651123552448123
210
0
220
0
230
1
100
AcDbArc
50
270.05271311947672
51
359.94744536031942
0
ARC
5
108
100
AcDbEntity
8
0
100
AcDbCircle
10
41.990400381460837
20
-86.021612860015352
30
0
40
5.0186821997809981
210
0
220
-0
230
1
100
AcDbArc
50
8.8449731927393085
51
171.15502072100918
0
ARC
5
109
100
AcDbEntity
8
0
100
AcDbCircle
10
47.505924381460844
20
-85.249408860015336
30
0
40
0.55652424668845635
210
0
220
0
230
1
100
AcDbArc
50
180.05394732229976
51
269.94677334755255
0
LINE
5
110
100
AcDbEntity
8
0
100
AcDbLine
10
47.50540738145407
20
-85.805932866561903
30
0
11
62.159395381460847
21
-85.805864860015348
31
0
0
LINE
5
111
100
AcDbEntity
8
0
100
AcDbLine
10
24.759395381460831
20
-85.805864860015348
30
0
11
36.475401381460827
21
-85.805932860015332
31
0
0
LINE
5
112
100
AcDbEntity
8
0
100
AcDbLine
10
7.9593993814608366
20
8.3940721399846261
30
0
11
5.7004072193058386
21
8.3940665940746264
31
0
0
ARC
5
113
100
AcDbEntity
8
0
100
AcDbCircle
10
2.5844023814608397
20
9.3196301399846249
30
0
40
3.2505621093890018
210
0
220
0
230
1
100
AcDbArc
50
196.54326998099737
51
343.45671998103825
0
LINE
5
114
100
AcDbEntity
8
0
100
AcDbLine
10
-0.5316026185393774
20
8.394067139984557
30
0
11
-5.4906026185391621
21
8.3940671399846245
31
0
0
ARC
5
115
100
AcDbEntity
8
0
100
AcDbCircle
10
-5.4898776185391585
20
6.3933421399846235
30
0
40
2.0007251313586289
210
0
220
0
230
1
100
AcDbArc
50
90.020762192869583
51
179.9792091696313
0
LINE
5
116
100
AcDbEntity
8
0
100
AcDbLine
10
-7.490602618176907
20
6.3940681399844923
30
0
11
-7.490602618539155
21
-46.805932860015353
31
0
0
LINE
5
117
100
AcDbEntity
8
0
100
AcDbLine
10
-7.490602618539155
20
-46.805932860015353
30
0
11
-4.5975978775901583
21
-46.805931860015363
31
0
0
ARC
5
118
100
AcDbEntity
8
0
100
AcDbCircle
10
-4.5975896185391596
20
-47.90593086001536
30
0
40
1.0999990000220068
210
0
220
0
230
1
100
AcDbArc
50
-90.000364609837533
51
90.000430190177454
0
LINE
5
119
100
AcDbEntity
8
0
100
AcDbLine
10
-4.5975966185391615
20
-49.005929860015094
30
0
11
-7.490602618539155
21
-49.005929860015378
31
0
0
LINE
5
120
100
AcDbEntity
8
0
100
AcDbLine
10
-7.490602618539155
20
-49.005929860015378
30
0
11
-7.490602618539155
21
-83.805932860015346
31
0
0
ARC
5
121
100
AcDbEntity
8
0
100
AcDbCircle
10
-5.4915836185391598
20
-83.806914860015354
30
0
40
1.9990192411992889
210
0
220
0
230
1
100
AcDbArc
50
179.9718539689018
51
270.02811739612935
0
ARC
5
122
100
AcDbEntity
8
0
100
AcDbCircle
10
4.5859413814608407
20
-86.733550860015356
30
0
40
3.2526233603190073
210
0
220
0
230
1
100
AcDbArc
50
90.02696895150666
51
163.42973227036671
0
LINE
5
123
100
AcDbEntity
8
0
100
AcDbLine
10
4.5844103814608372
20
-83.480927860014901
30
0
11
8.1594073814608379
21
-83.480927860015356
31
0
0
ARC
5
124
100
AcDbEntity
8
0
100
AcDbCircle
10
8.1631503814608344
20
-82.876747860015342
30
0
40
0.60419159415619461
210
0
220
0
230
1
100
AcDbArc
50
269.64504723901177
51
315.40725713003434
0
ARC
5
125
100
AcDbEntity
8
0
100
AcDbCircle
10
11.059878381460845
20
-85.863106860015364
30
0
40
3.5564386105220041
210
0
220
-0
230
1
100
AcDbArc
50
10.17351570225321
51
133.90968876881848
0
ARC
5
126
100
AcDbEntity
8
0
100
AcDbCircle
10
15.130574381460843
20
-85.235757860015354
30
0
40
0.57017459541109528
210
0
220
0
230
1
100
AcDbArc
50
179.91719775112625
51
270.08370664060038
0
LINE
5
127
100
AcDbEntity
8
0
100
AcDbLine
10
15.131407381436844
20
-85.805931846937895
30
0
11
19.159395381460843
21
-85.805864860015348
31
0
0
LINE
5
128
100
AcDbEntity
8
0
100
AcDbLine
10
-5.4906026175981371
20
-85.805933860505576
30
0
11
1.4683972036528425
21
-85.805931852215338
31
0
0
ARC
5
129
100
AcDbEntity
8
0
100
AcDbCircle
10
178.2859243814608
20
-86.733523860015339
30
0
40
3.252596356098004
210
0
220
0
230
1
100
AcDbArc
50
90.026810636812002
51
163.43009912517496
0
LINE
5
130
100
AcDbEntity
8
0
100
AcDbLine
10
178.28440238146084
20
-83.480927860015029
30
0
11
178.55240338146081
21
-83.480927860015328
31
0
0
ARC
5
131
100
AcDbEntity
8
0
100
AcDbCircle
10
178.55365838146082
20
-82.791076860015323
30
0
40
0.68985214156803987
210
0
220
0
230
1
100
AcDbArc
50
269.89576571757851
51
314.99351015536212
0
ARC
5
132
100
AcDbEntity
8
0
100
AcDbCircle
10
181.4845483814608
20
-85.862253860015329
30
0
40
3.5556305212599888
210
0
220
-0
230
1
100
AcDbArc
50
10.161887770694991
51
133.40256832179594
0
ARC
5
133
100
AcDbEntity
8
0
100
AcDbCircle
10
185.55457738146083
20
-85.235757860015326
30
0
40
0.57017559540994733
210
0
220
0
230
1
100
AcDbArc
50
179.91719789634934
51
270.08290259149965
0
LINE
5
134
100
AcDbEntity
8
0
100
AcDbLine
10
185.55540238145869
20
-85.80593285856942
30
0
11
205.1593953814608
21
-85.805864860015333
31
0
0
LINE
5
135
100
AcDbEntity
8
0
100
AcDbLine
10
133.75939538146079
20
-85.805864860015333
30
0
11
175.1684001471308
21
-85.805932514515334
31
0
0
LINE
5
136
100
AcDbEntity
8
0
100
AcDbLine
10
210.75939538146076
20
-85.805864860015333
30
0
11
222.21339938146076
21
-85.805932860015318
31
0
0
ARC
5
137
100
AcDbEntity
8
0
100
AcDbCircle
10
222.21288238146076
20
-85.249408860015322
30
0
40
0.55652424014142954
210
0
220
0
230
1
100
AcDbArc
50
270.05322665237634
51
359.94604280765054
0
ARC
5
138
100
AcDbEntity
8
0
100
AcDbCircle
10
227.72840638146079
20
-86.021612860015338
30
0
40
5.0186812116730124
210
0
220
-0
230
1
100
AcDbArc
50
8.8449749481575406
51
171.15502790032238
0
ARC
5
139
100
AcDbEntity
8
0
100
AcDbCircle
10
233.24391738146079
20
-85.249421860015332
30
0
40
0.55651223460509458
210
0
220
0
230
1
100
AcDbArc
50
180.05261006969056
51
269.94728679331922
0
LINE
5
140
100
AcDbEntity
8
0
100
AcDbLine
10
233.24340537969462
20
-85.805933859094637
30
0
11
247.70939538146075
21
-85.805864860015333
31
0
0
LINE
5
141
100
AcDbEntity
8
0
100
AcDbLine
10
253.30939538146077
20
-85.805864860015333
30
0
11
254.58739938146078
21
-85.805932860015318
31
0
0
ARC
5
142
100
AcDbEntity
8
0
100
AcDbCircle
10
254.58823238146078
20
-85.235757860015326
30
0
40
0.57017560848740867
210
0
220
0
230
1
100
AcDbArc
50
-90.083706494283632
51
0.082836631206894093
0
ARC
5
143
100
AcDbEntity
8
0
100
AcDbCircle
10
258.65852038146079
20
-85.862290860015321
30
0
40
3.5558930637349957
210
0
220
-0
230
1
100
AcDbArc
50
48.14027764398034
51
169.83825620371402
0
ARC
5
144
100
AcDbEntity
8
0
100
AcDbCircle
10
261.6747023814608
20
-82.572460860015326
30
0
40
0.90847121097236083
210
0
220
0
230
1
100
AcDbArc
50
224.9182553991424
51
270.17034792014732
0
LINE
5
145
100
AcDbEntity
8
0
100
AcDbLine
10
261.67740338238309
20
-83.480928055768132
30
0
11
265.13439729641078
21
-83.480928318215334
31
0
0
ARC
5
146
100
AcDbEntity
8
0
100
AcDbCircle
10
265.13286538146076
20
-86.733550860015342
30
0
40
3.2526229024990099
210
0
220
-0
230
1
100
AcDbArc
50
16.570251607491251
51
89.973014927618763
0
LINE
5
147
100
AcDbEntity
8
0
100
AcDbLine
10
268.25040938146094
20
-85.80593286001529
30
0
11
275.20940938146077
21
-85.805932860015318
31
0
0
ARC
5
148
100
AcDbEntity
8
0
100
AcDbCircle
10
275.2103903814608
20
-83.806914860015326
30
0
40
1.9990182407084158
210
0
220
0
230
1
100
AcDbArc
50
-90.028117383231006
51
0.028146018188010966
0
LINE
5
149
100
AcDbEntity
8
0
100
AcDbLine
10
277.20940938146077
20
-49.005929860015357
30
0
11
274.31640464049076
21
-49.005928860005348
31
0
0
ARC
5
150
100
AcDbEntity
8
0
100
AcDbCircle
10
274.31639638146078
20
-47.905930860015346
30
0
40
1.0999980000219951
210
0
220
-0
230
1
100
AcDbArc
50
89.999635389832008
51
270.00043018947383
0
LINE
5
151
100
AcDbEntity
8
0
100
AcDbLine
10
274.31640338146076
20
-46.805932860015616
30
0
11
277.20940938146077
21
-46.805932860015332
31
0
0
LINE
5
152
100
AcDbEntity
8
0
100
AcDbLine
10
277.20940938146077
20
-46.805932860015332
30
0
11
277.20940938146077
21
6.3940681399846433
31
0
0
ARC
5
153
100
AcDbEntity
8
0
100
AcDbCircle
10
275.20868438146078
20
6.3933421399846413
30
0
40
2.0007251317212567
210
0
220
-0
230
1
100
AcDbArc
50
0.020790830368714139
51
89.979237807131369
0
LINE
5
154
100
AcDbEntity
8
0
100
AcDbLine
10
275.20940938146089
20
8.3940671403470102
30
0
11
268.25040921930076
21
8.3940665940746406
31
0
0
ARC
5
155
100
AcDbEntity
8
0
100
AcDbCircle
10
265.1344043814608
20
9.3196301399846426
30
0
40
3.2505621093890023
210
0
220
0
230
1
100
AcDbArc
50
196.54326998099717
51
343.45671998101295
0
LINE
5
156
100
AcDbEntity
8
0
100
AcDbLine
10
262.0183993814606
20
8.394067139984589
30
0
11
258.55939938146076
21
8.3940721399846385
31
0
0
LINE
5
157
100
AcDbEntity
8
0
100
AcDbLine
10
277.20940838096982
20
-83.805932860957398
30
0
11
277.20940938146077
21
-49.005929860015357
31
0
0
ARC
5
158
100
AcDbEntity
8
0
100
AcDbCircle
10
243.68028338146075
20
7.8221871399846421
30
0
40
0.57188067860437475
210
0
220
0
230
1
100
AcDbArc
50
90.088265968068171
51
179.91183131731458
0
ARC
5
159
100
AcDbEntity
8
0
100
AcDbCircle
10
239.60840338146079
20
8.4497251399846363
30
0
40
3.5556573225850148
210
0
220
0
230
1
100
AcDbArc
50
190.15095671871589
51
349.84902787491092
0
ARC
5
160
100
AcDbEntity
8
0
100
AcDbCircle
10
235.53652338146077
20
7.8221871399846377
30
0
40
0.57188067860391278
210
0
220
-0
230
1
100
AcDbArc
50
0.088265968061677358
51
89.911734031931786
0
LINE
5
161
100
AcDbEntity
8
0
100
AcDbLine
10
235.53740438146076
20
8.3940671399842657
30
0
11
226.11440038146077
21
8.3940671399846387
31
0
0
ARC
5
162
100
AcDbEntity
8
0
100
AcDbCircle
10
226.11528038146076
20
7.8221871399846377
30
0
40
0.5718806770647179
210
0
220
0
230
1
100
AcDbArc
50
90.088165779840665
51
179.91186274615561
0
ARC
5
163
100
AcDbEntity
8
0
100
AcDbCircle
10
220.58440138146079
20
8.5935681399846331
30
0
40
5.0185008966820046
210
0
220
0
230
1
100
AcDbArc
50
188.83166144588114
51
351.1683223068182
0
ARC
5
164
100
AcDbEntity
8
0
100
AcDbCircle
10
215.05352238146077
20
7.8221871399846377
30
0
40
0.57187967860576294
210
0
220
-0
230
1
100
AcDbArc
50
0.08826612241390909
51
89.911834361215696
0
LINE
5
165
100
AcDbEntity
8
0
100
AcDbLine
10
215.05440237851644
20
8.3940661415292706
30
0
11
207.55939938146076
21
8.3940721399846332
31
0
0
LINE
5
166
100
AcDbEntity
8
0
100
AcDbLine
10
252.9593993814608
20
8.3940721399846385
30
0
11
243.67940238146076
21
8.3940671399846423
31
0
0
ARC
5
167
100
AcDbEntity
8
0
100
AcDbCircle
10
185.55628238146082
20
7.8221871399846377
30
0
40
0.57188067706471801
210
0
220
0
230
1
100
AcDbArc
50
90.088165779843507
51
179.91168884730888
0
ARC
5
168
100
AcDbEntity
8
0
100
AcDbCircle
10
181.48433138146083
20
8.4489631399846346
30
0
40
3.5555925340729928
210
0
220
0
230
1
100
AcDbArc
50
226.82306455598774
51
349.86133894870073
0
ARC
5
169
100
AcDbEntity
8
0
100
AcDbCircle
10
178.53596138146082
20
5.338918139984643
30
0
40
0.73015451018854483
210
0
220
-0
230
1
100
AcDbArc
50
45.09471670497058
51
89.80838006497369
0
LINE
5
170
100
AcDbEntity
8
0
100
AcDbLine
10
178.53840330476078
20
6.0690685667871902
30
0
11
178.28440238144961
21
6.0690681619560438
31
0
0
ARC
5
171
100
AcDbEntity
8
0
100
AcDbCircle
10
178.2835033814608
20
9.3184201399846387
30
0
40
3.249352079879003
210
0
220
0
230
1
100
AcDbArc
50
196.52735105568445
51
270.01585205424806
0
LINE
5
172
100
AcDbEntity
8
0
100
AcDbLine
10
175.16840138146065
20
8.3940671399845979
30
0
11
141.55939938146082
21
8.3940721399846296
31
0
0
LINE
5
173
100
AcDbEntity
8
0
100
AcDbLine
10
201.9593993814608
20
8.3940721399846332
30
0
11
185.55540238146079
21
8.3940671399846387
31
0
0
ARC
5
174
100
AcDbEntity
8
0
100
AcDbCircle
10
91.435303381460841
20
9.3184201399846334
30
0
40
3.2493521243629973
210
0
220
0
230
1
100
AcDbArc
50
269.98414794566168
51
343.47264357567218
0
LINE
5
175
100
AcDbEntity
8
0
100
AcDbLine
10
91.434404381460837
20
6.0690681399850455
30
0
11
91.208403381460826
21
6.0690681399846369
31
0
0
ARC
5
176
100
AcDbEntity
8
0
100
AcDbCircle
10
91.209831381460816
20
5.2689361399846346
30
0
40
0.80013327427873138
210
0
220
0
230
1
100
AcDbArc
50
90.102255985606988
51
134.96432883837912
0
ARC
5
177
100
AcDbEntity
8
0
100
AcDbCircle
10
88.234226381460829
20
8.4487361399846339
30
0
40
3.555307930110998
210
0
220
0
230
1
100
AcDbArc
50
190.13577347731257
51
312.68050652902713
0
ARC
5
178
100
AcDbEntity
8
0
100
AcDbCircle
10
84.162524381460813
20
7.8221871399846332
30
0
40
0.57188067860409042
210
0
220
-0
230
1
100
AcDbArc
50
0.088265968061677358
51
89.911834220128995
0
LINE
5
179
100
AcDbEntity
8
0
100
AcDbLine
10
84.163404381463479
20
8.3940671415239123
30
0
11
64.55939938146085
21
8.3940721399846261
31
0
0
LINE
5
180
100
AcDbEntity
8
0
100
AcDbLine
10
135.95939938146083
20
8.3940721399846296
30
0
11
94.55040533749083
21
8.3940668354446313
31
0
0
LINE
5
181
100
AcDbEntity
8
0
100
AcDbLine
10
58.959399381460841
20
8.3940721399846261
30
0
11
54.664404381460834
21
8.3940671399846281
31
0
0
ARC
5
182
100
AcDbEntity
8
0
100
AcDbCircle
10
54.665284381460836
20
7.8221871399846288
30
0
40
0.5718806770647179
210
0
220
0
230
1
100
AcDbArc
50
90.088165779841376
51
179.91174339598038
0
ARC
5
183
100
AcDbEntity
8
0
100
AcDbCircle
10
49.134405381460837
20
8.5935681399846242
30
0
40
5.0185008966820046
210
0
220
0
230
1
100
AcDbArc
50
188.83166144588111
51
351.16833574925511
0
ARC
5
184
100
AcDbEntity
8
0
100
AcDbCircle
10
43.603526381460838
20
7.8221871399846288
30
0
40
0.57187967860574518
210
0
220
-0
230
1
100
AcDbArc
50
0.08826612241390909
51
89.911805042381218
0
ARC
5
185
100
AcDbEntity
8
0
100
AcDbCircle
10
34.182283381460834
20
7.8221871399846288
30
0
40
0.57188067860437486
210
0
220
0
230
1
100
AcDbArc
50
90.088265968069592
51
179.91180256041076
0
ARC
5
186
100
AcDbEntity
8
0
100
AcDbCircle
10
30.110403381460827
20
8.4497251399846274
30
0
40
3.5556573225849979
210
0
220
0
230
1
100
AcDbArc
50
190.15095671871603
51
349.84903242893091
0
ARC
5
187
100
AcDbEntity
8
0
100
AcDbCircle
10
26.038523381460831
20
7.8221871399846288
30
0
40
0.57188067860391278
210
0
220
-0
230
1
100
AcDbArc
50
0.088265968061677358
51
89.911804898037644
0
LINE
5
188
100
AcDbEntity
8
0
100
AcDbLine
10
26.039403674132831
20
8.394067141073478
30
0
11
13.559399381460842
21
8.3940721399846261
31
0
0
LINE
5
189
100
AcDbEntity
8
0
100
AcDbLine
10
43.60440667115283
20
8.3940661410788806
30
0
11
34.181402381460828
21
8.3940671399846281
31
0
0
CIRCLE
5
190
100
AcDbEntity
8
0
100
AcDbCircle
10
1.5094033814608432
20
-0.60593186001537624
30
0
40
1.9939
210
0
220
0
230
1
0
ENDSEC
0
SECTION
2
OBJECTS
0
DICTIONARY
5
C
100
AcDbDictionary
3
ACAD_GROUP
350
D
3
ACAD_MLINESTYLE
350
17
0
DICTIONARY
5
D
100
AcDbDictionary
0
DICTIONARY
5
1A
330
C
100
AcDbDictionary
0
DICTIONARY
5
17
100
AcDbDictionary
0
ENDSEC
0
EOF
