0
SECTION
2
HEADER
9
$INSUNITS
70
4
9
$ACADVER
1
AC1014
9
$HANDSEED
5
FFFF
0
ENDSEC
0
SECTION
2
TABLES
0
TABLE
2
VPORT
5
8
100
AcDbSymbolTable
0
ENDTAB
0
TABLE
2
LTYPE
5
5
100
AcDbSymbolTable
0
LTYPE
5
14
100
AcDbSymbolTableRecord
100
AcDbLinetypeTableRecord
2
BYBLOCK
70
0
0
LTYPE
5
15
100
AcDbSymbolTableRecord
100
AcDbLinetypeTableRecord
2
BYLAYER
70
0
0
ENDTAB
0
TABLE
2
LAYER
5
2
100
AcDbSymbolTable
70
2
0
LAYER
5
50
100
AcDbSymbolTableRecord
100
AcDbLayerTableRecord
2
0
70
0
6
CONTINUOUS
0
ENDTAB
0
TABLE
2
STYLE
5
3
100
AcDbSymbolTable
70
1
0
STYLE
5
11
100
AcDbSymbolTableRecord
100
AcDbTextStyleTableRecord
2
STANDARD
70
0
0
ENDTAB
0
TABLE
2
VIEW
5
6
100
AcDbSymbolTable
70
0
0
ENDTAB
0
TABLE
2
UCS
5
7
100
AcDbSymbolTable
70
0
0
ENDTAB
0
TABLE
2
APPID
5
9
100
AcDbSymbolTable
70
2
0
APPID
5
12
100
AcDbSymbolTableRecord
100
AcDbRegAppTableRecord
2
ACAD
70
0
0
ENDTAB
0
TABLE
2
DIMSTYLE
5
A
100
AcDbSymbolTable
70
1
0
ENDTAB
0
TABLE
2
BLOCK_RECORD
5
1
100
AcDbSymbolTable
70
1
0
BLOCK_RECORD
5
1F
100
AcDbSymbolTableRecord
100
AcDbBlockTableRecord
2
*MODEL_SPACE
0
BLOCK_RECORD
5
1B
100
AcDbSymbolTableRecord
100
AcDbBlockTableRecord
2
*PAPER_SPACE
0
ENDTAB
0
ENDSEC
0
SECTION
2
BLOCKS
0
BLOCK
5
20
100
AcDbEntity
100
AcDbBlockBegin
2
*MODEL_SPACE
0
ENDBLK
5
21
100
AcDbEntity
100
AcDbBlockEnd
0
BLOCK
5
1C
100
AcDbEntity
100
AcDbBlockBegin
2
*PAPER_SPACE
0
ENDBLK
5
1D
100
AcDbEntity
100
AcDbBlockEnd
0
ENDSEC
0
SECTION
2
ENTITIES
0
LWPOLYLINE
5
100
100
AcDbEntity
8
0
100
AcDbPolyline
90
80
70
1
43
0.0
10
-90.683998107909304
20
17.340000152588107
42
0.85662441191049665
10
-80.765998840329999
20
17.340000152588004
42
-0.41331178941887481
10
-80.194999694819998
20
17.910999298096002
10
-50.695999145499997
20
17.910999298100855
42
-0.41331178941331553
10
-50.12499999999514
20
17.340000152588871
42
0.59225105823555291
10
-44.215000152583663
20
15.352000236514662
42
-0.19828682724461
10
-43.651000976559999
20
15.586000442505002
10
-43.42499923706
20
15.586000442504682
42
0.33211544284505251
10
-40.30899810791
20
17.910999298096002
10
40.308998107910305
20
17.910999298096094
42
0.33211544284483219
10
43.424999237061002
20
15.586000442505002
10
43.679000854492003
20
15.586000442505503
42
-0.19761387699277502
10
44.192001342773708
20
15.373000144958757
42
0.59516349448670913
10
50.125
20
17.340000152588004
42
-0.41331178941784746
10
50.695999145507997
20
17.910999298096002
10
80.19499969482402
20
17.910999298095696
42
-0.41331178941786995
10
80.765998840331704
20
17.340000152587958
42
0.85662441191047067
10
90.683998107910014
20
17.340000152588004
42
-0.41331178941784746
10
91.254997253417997
20
17.910999298096002
10
100.67800140380001
20
17.910999298096126
42
-0.41331178941886587
10
101.24900054931013
20
17.340000152588019
42
0.83685711451947231
10
108.24900054931001
20
17.340000152588004
42
-0.41331178941887481
10
108.81999969482001
20
17.910999298096002
10
127.15899658202275
20
17.910999298093845
42
0.74614735775363161
10
133.39100646972
20
17.910999298096002
10
140.35000610351
20
17.910999298091678
42
-0.41400132513134313
10
142.35000610351
20
15.911000251770005
10
142.35000610351
20
-37.289001464839998
10
139.45700073242
20
-37.289001464838456
42
1.0000069358223143
10
139.45700073242
20
-39.488998413079997
10
142.35000610351
20
-39.488998413079997
10
142.35000610351
20
-74.289001464839998
42
-0.41450127852013174
10
140.35000610351
20
-76.289001464839998
10
133.3910064697194
20
-76.289001464840169
42
0.33170015561895122
10
130.27499389648
20
-73.963996887199997
10
126.81800079345001
20
-73.963996887195577
42
-0.2000561912091173
10
126.17199707031278
20
-73.696998596186901
42
0.58727138473718843
10
120.29900360106947
20
-75.718002319329997
42
-0.4150649697354763
10
119.72799682617001
20
-76.289001464839998
10
98.384002685547003
20
-76.289001464835053
42
-0.41367528410882387
10
97.828002929687983
20
-75.733001708980012
42
0.8564230614205689
10
87.910003662113937
20
-75.733001708979998
42
-0.41366558489285959
10
87.353996276855014
20
-76.289001464839998
10
50.695999145507997
20
-76.289001464838393
42
-0.41506106197022935
10
50.124999999999616
20
-75.718002319330083
42
0.59636023814289718
10
44.181999206542422
20
-73.762001037589414
42
-0.19935520028010248
10
43.693000793457003
20
-73.963996887199997
10
43.424999237061002
20
-73.963996887207301
42
0.33170269921052409
10
40.30899810791
20
-76.289001464839998
10
-40.308998107905722
20
-76.289001464838734
42
0.33170269921080525
10
-43.42499923706
20
-73.963996887199997
10
-43.694999694819998
20
-73.963996887197695
42
-0.1975272557166593
10
-44.180000305169365
20
-73.76399993895933
42
0.59674589001610023
10
-50.12499999999001
20
-75.718002319329997
42
-0.41506106197027387
10
-50.695999145500004
20
-76.289001464839998
10
-87.353996276849998
20
-76.289001464835081
42
-0.41366558489074984
10
-87.910003662100024
20
-75.733001708980012
42
0.85642306142065228
10
-97.828002929680025
20
-75.733001708980012
42
-0.41367528410672816
10
-98.384002685539997
20
-76.289001464839998
10
-119.72799682609991
20
-76.289001464902924
42
-0.41506496972967277
10
-120.29900360106241
20
-75.71800231934121
42
0.59929493240867737
10
-126.2659988403002
20
-73.783996582029786
42
-0.20237254919729047
10
-126.6999969482
20
-73.963996887199997
10
-130.27499389639999
20
-73.963996887199741
42
0.33170015562285188
10
-133.39100646969999
20
-76.289001464839998
10
-140.35000610349996
20
-76.289001464910029
42
-0.41450127850986745
10
-142.35000610349999
20
-74.289001464839998
10
-142.35000610349999
20
-39.488998413079997
10
-139.45700073239999
20
-39.488998413081539
42
1.0000069358543286
10
-139.45700073239999
20
-37.289001464839998
10
-142.35000610349999
20
-37.289001464840005
10
-142.35000610346435
20
15.911000251769982
42
-0.41400132512549098
10
-140.35000610349999
20
17.910999298096002
10
-135.39100646965215
20
17.910999298110212
42
0.74614735775397312
10
-129.15899658199999
20
17.910999298096002
10
-108.81999969480007
20
17.910999298046185
42
-0.41331178943930158
10
-108.24900054929989
20
17.340000152588019
42
0.8368571145205167
10
-101.24900054925008
20
17.340000152587926
42
-0.41331178938820201
10
-100.67800140380001
20
17.910999298096002
10
-91.254997253409996
20
17.910999298096698
42
-0.41331178941369301
0
CIRCLE
5
101
100
AcDbEntity
8
0
100
AcDbCircle
10
-133.35000000000002
20
8.9109999999999996
30
0
40
1.9940000000000002
210
0
220
0
230
1
0
ENDSEC
0
SECTION
2
OBJECTS
0
DICTIONARY
5
C
100
AcDbDictionary
3
ACAD_GROUP
350
D
3
ACAD_MLINESTYLE
350
17
0
DICTIONARY
5
D
100
AcDbDictionary
0
DICTIONARY
5
1A
330
C
100
AcDbDictionary
0
DICTIONARY
5
17
100
AcDbDictionary
0
ENDSEC
0
EOF
