M48
; DRILL file {KiCad (5.1.11)-1} date 09/07/22 06:47:25
; FORMAT={-:-/ absolute / metric / decimal}
; #@! TF.CreationDate,2022-09-07T06:47:25+07:00
; #@! TF.GenerationSoftware,Kicad,Pcbnew,(5.1.11)-1
; #@! TF.FileFunction,NonPlated,1,2,NPTH
FMAT,2
METRIC
T1C0.500
T2C0.650
%
G90
G05
T1
X138.476Y-36.75
X138.476Y-51.75
X138.488Y-41.25
X138.488Y-56.25
X139.238Y-36.75
X139.238Y-41.25
X139.238Y-51.75
X139.238Y-56.25
X139.988Y-41.25
X139.988Y-56.25
X140.012Y-36.75
X140.012Y-51.75
X140.762Y-36.75
X140.762Y-41.25
X140.762Y-51.75
X140.762Y-56.25
X141.512Y-36.75
X141.512Y-51.75
X141.524Y-41.25
X141.524Y-56.25
X157.25Y-29.988
X157.25Y-30.738
X157.25Y-31.488
X157.25Y-32.262
X157.25Y-33.024
X157.25Y-44.988
X157.25Y-45.738
X157.25Y-46.488
X157.25Y-47.262
X157.25Y-48.024
X157.25Y-59.988
X157.25Y-60.738
X157.25Y-61.488
X157.25Y-62.262
X157.25Y-63.024
X161.75Y-29.976
X161.75Y-30.738
X161.75Y-31.512
X161.75Y-32.262
X161.75Y-33.012
X161.75Y-44.976
X161.75Y-45.738
X161.75Y-46.512
X161.75Y-47.262
X161.75Y-48.012
X161.75Y-59.976
X161.75Y-60.738
X161.75Y-61.512
X161.75Y-62.262
X161.75Y-63.012
X178.476Y-36.75
X178.476Y-51.75
X178.488Y-41.25
X178.488Y-41.25
X178.488Y-56.25
X179.238Y-36.75
X179.238Y-41.25
X179.238Y-41.25
X179.238Y-51.75
X179.238Y-56.25
X179.988Y-41.25
X179.988Y-41.25
X179.988Y-56.25
X180.012Y-36.75
X180.012Y-51.75
X180.762Y-36.75
X180.762Y-41.25
X180.762Y-41.25
X180.762Y-51.75
X180.762Y-56.25
X181.512Y-36.75
X181.512Y-51.75
X181.524Y-41.25
X181.524Y-41.25
X181.524Y-56.25
T2
X129.11Y-31.25
X129.11Y-46.25
X129.11Y-61.25
X134.89Y-31.25
X134.89Y-46.25
X134.89Y-61.25
X169.11Y-31.25
X169.11Y-46.25
X169.11Y-61.25
X174.89Y-31.25
X174.89Y-46.25
X174.89Y-61.25
T0
M30
