M48
; DRILL file {KiCad (5.1.11)-1} date 09/07/22 06:47:25
; FORMAT={-:-/ absolute / metric / decimal}
; #@! TF.CreationDate,2022-09-07T06:47:25+07:00
; #@! TF.GenerationSoftware,Kicad,Pcbnew,(5.1.11)-1
; #@! TF.FileFunction,Plated,1,2,PTH
FMAT,2
METRIC
T1C0.300
T2C0.600
T3C2.200
%
G90
G05
T1
X129.55Y-33.94
X129.55Y-48.94
X129.55Y-63.94
X132.0Y-35.0
X132.0Y-50.0
X132.0Y-65.0
X134.45Y-33.94
X134.45Y-48.94
X134.45Y-63.94
X169.55Y-33.94
X169.55Y-48.94
X169.55Y-63.94
X172.0Y-35.0
X172.0Y-50.0
X172.0Y-65.0
X174.45Y-33.94
X174.45Y-48.94
X174.45Y-63.94
T3
X124.5Y-31.5
X124.5Y-46.5
X124.5Y-61.5
X154.5Y-31.5
X154.5Y-46.5
X154.5Y-61.5
X164.5Y-31.5
X164.5Y-46.5
X164.5Y-61.5
X194.5Y-31.5
X194.5Y-46.5
X194.5Y-61.5
T2
G00X127.68Y-27.9
M15
G01X127.68Y-27.3
M16
G05
G00X127.68Y-32.33
M15
G01X127.68Y-31.23
M16
G05
G00X127.68Y-42.9
M15
G01X127.68Y-42.3
M16
G05
G00X127.68Y-47.33
M15
G01X127.68Y-46.23
M16
G05
G00X127.68Y-57.9
M15
G01X127.68Y-57.3
M16
G05
G00X127.68Y-62.33
M15
G01X127.68Y-61.23
M16
G05
G00X136.32Y-27.9
M15
G01X136.32Y-27.3
M16
G05
G00X136.32Y-32.33
M15
G01X136.32Y-31.23
M16
G05
G00X136.32Y-42.9
M15
G01X136.32Y-42.3
M16
G05
G00X136.32Y-47.33
M15
G01X136.32Y-46.23
M16
G05
G00X136.32Y-57.9
M15
G01X136.32Y-57.3
M16
G05
G00X136.32Y-62.33
M15
G01X136.32Y-61.23
M16
G05
G00X167.68Y-27.9
M15
G01X167.68Y-27.3
M16
G05
G00X167.68Y-32.33
M15
G01X167.68Y-31.23
M16
G05
G00X167.68Y-42.9
M15
G01X167.68Y-42.3
M16
G05
G00X167.68Y-47.33
M15
G01X167.68Y-46.23
M16
G05
G00X167.68Y-57.9
M15
G01X167.68Y-57.3
M16
G05
G00X167.68Y-62.33
M15
G01X167.68Y-61.23
M16
G05
G00X176.32Y-27.9
M15
G01X176.32Y-27.3
M16
G05
G00X176.32Y-32.33
M15
G01X176.32Y-31.23
M16
G05
G00X176.32Y-42.9
M15
G01X176.32Y-42.3
M16
G05
G00X176.32Y-47.33
M15
G01X176.32Y-46.23
M16
G05
G00X176.32Y-57.9
M15
G01X176.32Y-57.3
M16
G05
G00X176.32Y-62.33
M15
G01X176.32Y-61.23
M16
G05
T0
M30
