M48
; DRILL file {KiCad (5.1.11)-1} date 08/13/22 18:26:08
; FORMAT={-:-/ absolute / metric / decimal}
; #@! TF.CreationDate,2022-08-13T18:26:08+07:00
; #@! TF.GenerationSoftware,Kicad,Pcbnew,(5.1.11)-1
; #@! TF.FileFunction,NonPlated,1,2,NPTH
FMAT,2
METRIC
T1C0.500
T2C0.650
%
G90
G05
T1
X138.476Y-36.75
X138.476Y-51.75
X138.476Y-66.75
X138.476Y-81.75
X138.476Y-96.75
X138.488Y-41.25
X138.488Y-56.25
X138.488Y-71.25
X138.488Y-86.25
X138.488Y-101.25
X139.238Y-36.75
X139.238Y-41.25
X139.238Y-51.75
X139.238Y-56.25
X139.238Y-66.75
X139.238Y-71.25
X139.238Y-81.75
X139.238Y-86.25
X139.238Y-96.75
X139.238Y-101.25
X139.988Y-41.25
X139.988Y-56.25
X139.988Y-71.25
X139.988Y-86.25
X139.988Y-101.25
X140.012Y-36.75
X140.012Y-51.75
X140.012Y-66.75
X140.012Y-81.75
X140.012Y-96.75
X140.762Y-36.75
X140.762Y-41.25
X140.762Y-51.75
X140.762Y-56.25
X140.762Y-66.75
X140.762Y-71.25
X140.762Y-81.75
X140.762Y-86.25
X140.762Y-96.75
X140.762Y-101.25
X141.512Y-36.75
X141.512Y-51.75
X141.512Y-66.75
X141.512Y-81.75
X141.512Y-96.75
X141.524Y-41.25
X141.524Y-56.25
X141.524Y-71.25
X141.524Y-86.25
X141.524Y-101.25
X157.25Y-29.988
X157.25Y-30.738
X157.25Y-31.488
X157.25Y-32.262
X157.25Y-33.024
X157.25Y-44.988
X157.25Y-45.738
X157.25Y-46.488
X157.25Y-47.262
X157.25Y-48.024
X157.25Y-59.988
X157.25Y-60.738
X157.25Y-61.488
X157.25Y-62.262
X157.25Y-63.024
X157.25Y-74.988
X157.25Y-75.738
X157.25Y-76.488
X157.25Y-77.262
X157.25Y-78.024
X157.25Y-89.988
X157.25Y-90.738
X157.25Y-91.488
X157.25Y-92.262
X157.25Y-93.024
X157.25Y-104.988
X157.25Y-105.738
X157.25Y-106.488
X157.25Y-107.262
X157.25Y-108.024
X161.75Y-29.976
X161.75Y-30.738
X161.75Y-31.512
X161.75Y-32.262
X161.75Y-33.012
X161.75Y-44.976
X161.75Y-45.738
X161.75Y-46.512
X161.75Y-47.262
X161.75Y-48.012
X161.75Y-59.976
X161.75Y-60.738
X161.75Y-61.512
X161.75Y-62.262
X161.75Y-63.012
X161.75Y-74.976
X161.75Y-75.738
X161.75Y-76.512
X161.75Y-77.262
X161.75Y-78.012
X161.75Y-89.976
X161.75Y-90.738
X161.75Y-91.512
X161.75Y-92.262
X161.75Y-93.012
X161.75Y-104.976
X161.75Y-105.738
X161.75Y-106.512
X161.75Y-107.262
X161.75Y-108.012
X178.476Y-36.75
X178.476Y-51.75
X178.476Y-66.75
X178.476Y-81.75
X178.476Y-96.75
X178.488Y-41.25
X178.488Y-41.25
X178.488Y-56.25
X178.488Y-71.25
X178.488Y-86.25
X178.488Y-101.25
X179.238Y-36.75
X179.238Y-41.25
X179.238Y-41.25
X179.238Y-51.75
X179.238Y-56.25
X179.238Y-66.75
X179.238Y-71.25
X179.238Y-81.75
X179.238Y-86.25
X179.238Y-96.75
X179.238Y-101.25
X179.988Y-41.25
X179.988Y-41.25
X179.988Y-56.25
X179.988Y-71.25
X179.988Y-86.25
X179.988Y-101.25
X180.012Y-36.75
X180.012Y-51.75
X180.012Y-66.75
X180.012Y-81.75
X180.012Y-96.75
X180.762Y-36.75
X180.762Y-41.25
X180.762Y-41.25
X180.762Y-51.75
X180.762Y-56.25
X180.762Y-66.75
X180.762Y-71.25
X180.762Y-81.75
X180.762Y-86.25
X180.762Y-96.75
X180.762Y-101.25
X181.512Y-36.75
X181.512Y-51.75
X181.512Y-66.75
X181.512Y-81.75
X181.512Y-96.75
X181.524Y-41.25
X181.524Y-41.25
X181.524Y-56.25
X181.524Y-71.25
X181.524Y-86.25
X181.524Y-101.25
T2
X129.11Y-31.25
X129.11Y-46.25
X129.11Y-61.25
X129.11Y-76.25
X129.11Y-91.25
X129.11Y-106.25
X134.89Y-31.25
X134.89Y-46.25
X134.89Y-61.25
X134.89Y-76.25
X134.89Y-91.25
X134.89Y-106.25
X169.11Y-31.25
X169.11Y-46.25
X169.11Y-61.25
X169.11Y-76.25
X169.11Y-91.25
X169.11Y-106.25
X174.89Y-31.25
X174.89Y-46.25
X174.89Y-61.25
X174.89Y-76.25
X174.89Y-91.25
X174.89Y-106.25
T0
M30
