%TF.GenerationSoftware,KiCad,Pcbnew,(5.1.11)-1*%
%TF.CreationDate,2022-08-13T18:26:06+07:00*%
%TF.ProjectId,Eclipse Voyager - Copy,45636c69-7073-4652-9056-6f7961676572,rev?*%
%TF.SameCoordinates,Original*%
%TF.FileFunction,Paste,Top*%
%TF.FilePolarity,Positive*%
%FSLAX46Y46*%
G04 Gerber Fmt 4.6, Leading zero omitted, Abs format (unit mm)*
G04 Created by KiCad (PCBNEW (5.1.11)-1) date 2022-08-13 18:26:06*
%MOMM*%
%LPD*%
G01*
G04 APERTURE LIST*
%ADD10R,0.300000X1.450000*%
%ADD11R,0.600000X1.450000*%
%ADD12R,0.600000X1.550000*%
%ADD13R,1.200000X1.800000*%
%ADD14R,0.800000X0.950000*%
%ADD15R,0.250000X0.550000*%
%ADD16R,0.300000X0.550000*%
G04 APERTURE END LIST*
D10*
%TO.C,USB1*%
X172250000Y-32695000D03*
X171750000Y-32695000D03*
X171250000Y-32695000D03*
X172750000Y-32695000D03*
X170750000Y-32695000D03*
X173250000Y-32695000D03*
X170250000Y-32695000D03*
X173750000Y-32695000D03*
D11*
X174450000Y-32695000D03*
X169550000Y-32695000D03*
X175225000Y-32695000D03*
X168775000Y-32695000D03*
%TD*%
D12*
%TO.C,J1*%
X189000000Y-104725000D03*
X190000000Y-104725000D03*
X188000000Y-104725000D03*
X187000000Y-104725000D03*
D13*
X185700000Y-108600000D03*
X191300000Y-108600000D03*
%TD*%
D12*
%TO.C,J1*%
X149000000Y-104725000D03*
X150000000Y-104725000D03*
X148000000Y-104725000D03*
X147000000Y-104725000D03*
D13*
X145700000Y-108600000D03*
X151300000Y-108600000D03*
%TD*%
D12*
%TO.C,J1*%
X189000000Y-89725000D03*
X190000000Y-89725000D03*
X188000000Y-89725000D03*
X187000000Y-89725000D03*
D13*
X185700000Y-93600000D03*
X191300000Y-93600000D03*
%TD*%
D12*
%TO.C,J1*%
X149000000Y-89725000D03*
X150000000Y-89725000D03*
X148000000Y-89725000D03*
X147000000Y-89725000D03*
D13*
X145700000Y-93600000D03*
X151300000Y-93600000D03*
%TD*%
D12*
%TO.C,J1*%
X189000000Y-74725000D03*
X190000000Y-74725000D03*
X188000000Y-74725000D03*
X187000000Y-74725000D03*
D13*
X185700000Y-78600000D03*
X191300000Y-78600000D03*
%TD*%
D12*
%TO.C,J1*%
X149000000Y-74725000D03*
X150000000Y-74725000D03*
X148000000Y-74725000D03*
X147000000Y-74725000D03*
D13*
X145700000Y-78600000D03*
X151300000Y-78600000D03*
%TD*%
D12*
%TO.C,J1*%
X189000000Y-59725000D03*
X190000000Y-59725000D03*
X188000000Y-59725000D03*
X187000000Y-59725000D03*
D13*
X185700000Y-63600000D03*
X191300000Y-63600000D03*
%TD*%
D12*
%TO.C,J1*%
X149000000Y-59725000D03*
X150000000Y-59725000D03*
X148000000Y-59725000D03*
X147000000Y-59725000D03*
D13*
X145700000Y-63600000D03*
X151300000Y-63600000D03*
%TD*%
D12*
%TO.C,J1*%
X189000000Y-44725000D03*
X190000000Y-44725000D03*
X188000000Y-44725000D03*
X187000000Y-44725000D03*
D13*
X185700000Y-48600000D03*
X191300000Y-48600000D03*
%TD*%
D12*
%TO.C,J1*%
X149000000Y-44725000D03*
X150000000Y-44725000D03*
X148000000Y-44725000D03*
X147000000Y-44725000D03*
D13*
X145700000Y-48600000D03*
X151300000Y-48600000D03*
%TD*%
D12*
%TO.C,J1*%
X189000000Y-29725000D03*
X190000000Y-29725000D03*
X188000000Y-29725000D03*
X187000000Y-29725000D03*
D13*
X185700000Y-33600000D03*
X191300000Y-33600000D03*
%TD*%
%TO.C,L1*%
G36*
G01*
X181700001Y-107600000D02*
X180299999Y-107600000D01*
G75*
G02*
X180050000Y-107350001I0J249999D01*
G01*
X180050000Y-106799999D01*
G75*
G02*
X180299999Y-106550000I249999J0D01*
G01*
X181700001Y-106550000D01*
G75*
G02*
X181950000Y-106799999I0J-249999D01*
G01*
X181950000Y-107350001D01*
G75*
G02*
X181700001Y-107600000I-249999J0D01*
G01*
G37*
G36*
G01*
X181700001Y-104450000D02*
X180299999Y-104450000D01*
G75*
G02*
X180050000Y-104200001I0J249999D01*
G01*
X180050000Y-103649999D01*
G75*
G02*
X180299999Y-103400000I249999J0D01*
G01*
X181700001Y-103400000D01*
G75*
G02*
X181950000Y-103649999I0J-249999D01*
G01*
X181950000Y-104200001D01*
G75*
G02*
X181700001Y-104450000I-249999J0D01*
G01*
G37*
%TD*%
%TO.C,L1*%
G36*
G01*
X141700001Y-107600000D02*
X140299999Y-107600000D01*
G75*
G02*
X140050000Y-107350001I0J249999D01*
G01*
X140050000Y-106799999D01*
G75*
G02*
X140299999Y-106550000I249999J0D01*
G01*
X141700001Y-106550000D01*
G75*
G02*
X141950000Y-106799999I0J-249999D01*
G01*
X141950000Y-107350001D01*
G75*
G02*
X141700001Y-107600000I-249999J0D01*
G01*
G37*
G36*
G01*
X141700001Y-104450000D02*
X140299999Y-104450000D01*
G75*
G02*
X140050000Y-104200001I0J249999D01*
G01*
X140050000Y-103649999D01*
G75*
G02*
X140299999Y-103400000I249999J0D01*
G01*
X141700001Y-103400000D01*
G75*
G02*
X141950000Y-103649999I0J-249999D01*
G01*
X141950000Y-104200001D01*
G75*
G02*
X141700001Y-104450000I-249999J0D01*
G01*
G37*
%TD*%
%TO.C,L1*%
G36*
G01*
X181700001Y-92600000D02*
X180299999Y-92600000D01*
G75*
G02*
X180050000Y-92350001I0J249999D01*
G01*
X180050000Y-91799999D01*
G75*
G02*
X180299999Y-91550000I249999J0D01*
G01*
X181700001Y-91550000D01*
G75*
G02*
X181950000Y-91799999I0J-249999D01*
G01*
X181950000Y-92350001D01*
G75*
G02*
X181700001Y-92600000I-249999J0D01*
G01*
G37*
G36*
G01*
X181700001Y-89450000D02*
X180299999Y-89450000D01*
G75*
G02*
X180050000Y-89200001I0J249999D01*
G01*
X180050000Y-88649999D01*
G75*
G02*
X180299999Y-88400000I249999J0D01*
G01*
X181700001Y-88400000D01*
G75*
G02*
X181950000Y-88649999I0J-249999D01*
G01*
X181950000Y-89200001D01*
G75*
G02*
X181700001Y-89450000I-249999J0D01*
G01*
G37*
%TD*%
%TO.C,L1*%
G36*
G01*
X141700001Y-92600000D02*
X140299999Y-92600000D01*
G75*
G02*
X140050000Y-92350001I0J249999D01*
G01*
X140050000Y-91799999D01*
G75*
G02*
X140299999Y-91550000I249999J0D01*
G01*
X141700001Y-91550000D01*
G75*
G02*
X141950000Y-91799999I0J-249999D01*
G01*
X141950000Y-92350001D01*
G75*
G02*
X141700001Y-92600000I-249999J0D01*
G01*
G37*
G36*
G01*
X141700001Y-89450000D02*
X140299999Y-89450000D01*
G75*
G02*
X140050000Y-89200001I0J249999D01*
G01*
X140050000Y-88649999D01*
G75*
G02*
X140299999Y-88400000I249999J0D01*
G01*
X141700001Y-88400000D01*
G75*
G02*
X141950000Y-88649999I0J-249999D01*
G01*
X141950000Y-89200001D01*
G75*
G02*
X141700001Y-89450000I-249999J0D01*
G01*
G37*
%TD*%
%TO.C,L1*%
G36*
G01*
X181700001Y-77600000D02*
X180299999Y-77600000D01*
G75*
G02*
X180050000Y-77350001I0J249999D01*
G01*
X180050000Y-76799999D01*
G75*
G02*
X180299999Y-76550000I249999J0D01*
G01*
X181700001Y-76550000D01*
G75*
G02*
X181950000Y-76799999I0J-249999D01*
G01*
X181950000Y-77350001D01*
G75*
G02*
X181700001Y-77600000I-249999J0D01*
G01*
G37*
G36*
G01*
X181700001Y-74450000D02*
X180299999Y-74450000D01*
G75*
G02*
X180050000Y-74200001I0J249999D01*
G01*
X180050000Y-73649999D01*
G75*
G02*
X180299999Y-73400000I249999J0D01*
G01*
X181700001Y-73400000D01*
G75*
G02*
X181950000Y-73649999I0J-249999D01*
G01*
X181950000Y-74200001D01*
G75*
G02*
X181700001Y-74450000I-249999J0D01*
G01*
G37*
%TD*%
%TO.C,L1*%
G36*
G01*
X141700001Y-77600000D02*
X140299999Y-77600000D01*
G75*
G02*
X140050000Y-77350001I0J249999D01*
G01*
X140050000Y-76799999D01*
G75*
G02*
X140299999Y-76550000I249999J0D01*
G01*
X141700001Y-76550000D01*
G75*
G02*
X141950000Y-76799999I0J-249999D01*
G01*
X141950000Y-77350001D01*
G75*
G02*
X141700001Y-77600000I-249999J0D01*
G01*
G37*
G36*
G01*
X141700001Y-74450000D02*
X140299999Y-74450000D01*
G75*
G02*
X140050000Y-74200001I0J249999D01*
G01*
X140050000Y-73649999D01*
G75*
G02*
X140299999Y-73400000I249999J0D01*
G01*
X141700001Y-73400000D01*
G75*
G02*
X141950000Y-73649999I0J-249999D01*
G01*
X141950000Y-74200001D01*
G75*
G02*
X141700001Y-74450000I-249999J0D01*
G01*
G37*
%TD*%
%TO.C,L1*%
G36*
G01*
X181700001Y-62600000D02*
X180299999Y-62600000D01*
G75*
G02*
X180050000Y-62350001I0J249999D01*
G01*
X180050000Y-61799999D01*
G75*
G02*
X180299999Y-61550000I249999J0D01*
G01*
X181700001Y-61550000D01*
G75*
G02*
X181950000Y-61799999I0J-249999D01*
G01*
X181950000Y-62350001D01*
G75*
G02*
X181700001Y-62600000I-249999J0D01*
G01*
G37*
G36*
G01*
X181700001Y-59450000D02*
X180299999Y-59450000D01*
G75*
G02*
X180050000Y-59200001I0J249999D01*
G01*
X180050000Y-58649999D01*
G75*
G02*
X180299999Y-58400000I249999J0D01*
G01*
X181700001Y-58400000D01*
G75*
G02*
X181950000Y-58649999I0J-249999D01*
G01*
X181950000Y-59200001D01*
G75*
G02*
X181700001Y-59450000I-249999J0D01*
G01*
G37*
%TD*%
%TO.C,L1*%
G36*
G01*
X141700001Y-62600000D02*
X140299999Y-62600000D01*
G75*
G02*
X140050000Y-62350001I0J249999D01*
G01*
X140050000Y-61799999D01*
G75*
G02*
X140299999Y-61550000I249999J0D01*
G01*
X141700001Y-61550000D01*
G75*
G02*
X141950000Y-61799999I0J-249999D01*
G01*
X141950000Y-62350001D01*
G75*
G02*
X141700001Y-62600000I-249999J0D01*
G01*
G37*
G36*
G01*
X141700001Y-59450000D02*
X140299999Y-59450000D01*
G75*
G02*
X140050000Y-59200001I0J249999D01*
G01*
X140050000Y-58649999D01*
G75*
G02*
X140299999Y-58400000I249999J0D01*
G01*
X141700001Y-58400000D01*
G75*
G02*
X141950000Y-58649999I0J-249999D01*
G01*
X141950000Y-59200001D01*
G75*
G02*
X141700001Y-59450000I-249999J0D01*
G01*
G37*
%TD*%
%TO.C,L1*%
G36*
G01*
X181700001Y-47600000D02*
X180299999Y-47600000D01*
G75*
G02*
X180050000Y-47350001I0J249999D01*
G01*
X180050000Y-46799999D01*
G75*
G02*
X180299999Y-46550000I249999J0D01*
G01*
X181700001Y-46550000D01*
G75*
G02*
X181950000Y-46799999I0J-249999D01*
G01*
X181950000Y-47350001D01*
G75*
G02*
X181700001Y-47600000I-249999J0D01*
G01*
G37*
G36*
G01*
X181700001Y-44450000D02*
X180299999Y-44450000D01*
G75*
G02*
X180050000Y-44200001I0J249999D01*
G01*
X180050000Y-43649999D01*
G75*
G02*
X180299999Y-43400000I249999J0D01*
G01*
X181700001Y-43400000D01*
G75*
G02*
X181950000Y-43649999I0J-249999D01*
G01*
X181950000Y-44200001D01*
G75*
G02*
X181700001Y-44450000I-249999J0D01*
G01*
G37*
%TD*%
%TO.C,L1*%
G36*
G01*
X141700001Y-47600000D02*
X140299999Y-47600000D01*
G75*
G02*
X140050000Y-47350001I0J249999D01*
G01*
X140050000Y-46799999D01*
G75*
G02*
X140299999Y-46550000I249999J0D01*
G01*
X141700001Y-46550000D01*
G75*
G02*
X141950000Y-46799999I0J-249999D01*
G01*
X141950000Y-47350001D01*
G75*
G02*
X141700001Y-47600000I-249999J0D01*
G01*
G37*
G36*
G01*
X141700001Y-44450000D02*
X140299999Y-44450000D01*
G75*
G02*
X140050000Y-44200001I0J249999D01*
G01*
X140050000Y-43649999D01*
G75*
G02*
X140299999Y-43400000I249999J0D01*
G01*
X141700001Y-43400000D01*
G75*
G02*
X141950000Y-43649999I0J-249999D01*
G01*
X141950000Y-44200001D01*
G75*
G02*
X141700001Y-44450000I-249999J0D01*
G01*
G37*
%TD*%
%TO.C,L1*%
G36*
G01*
X181700001Y-32600000D02*
X180299999Y-32600000D01*
G75*
G02*
X180050000Y-32350001I0J249999D01*
G01*
X180050000Y-31799999D01*
G75*
G02*
X180299999Y-31550000I249999J0D01*
G01*
X181700001Y-31550000D01*
G75*
G02*
X181950000Y-31799999I0J-249999D01*
G01*
X181950000Y-32350001D01*
G75*
G02*
X181700001Y-32600000I-249999J0D01*
G01*
G37*
G36*
G01*
X181700001Y-29450000D02*
X180299999Y-29450000D01*
G75*
G02*
X180050000Y-29200001I0J249999D01*
G01*
X180050000Y-28649999D01*
G75*
G02*
X180299999Y-28400000I249999J0D01*
G01*
X181700001Y-28400000D01*
G75*
G02*
X181950000Y-28649999I0J-249999D01*
G01*
X181950000Y-29200001D01*
G75*
G02*
X181700001Y-29450000I-249999J0D01*
G01*
G37*
%TD*%
%TO.C,F1*%
G36*
G01*
X179125000Y-107525000D02*
X177875000Y-107525000D01*
G75*
G02*
X177625000Y-107275000I0J250000D01*
G01*
X177625000Y-106525000D01*
G75*
G02*
X177875000Y-106275000I250000J0D01*
G01*
X179125000Y-106275000D01*
G75*
G02*
X179375000Y-106525000I0J-250000D01*
G01*
X179375000Y-107275000D01*
G75*
G02*
X179125000Y-107525000I-250000J0D01*
G01*
G37*
G36*
G01*
X179125000Y-104725000D02*
X177875000Y-104725000D01*
G75*
G02*
X177625000Y-104475000I0J250000D01*
G01*
X177625000Y-103725000D01*
G75*
G02*
X177875000Y-103475000I250000J0D01*
G01*
X179125000Y-103475000D01*
G75*
G02*
X179375000Y-103725000I0J-250000D01*
G01*
X179375000Y-104475000D01*
G75*
G02*
X179125000Y-104725000I-250000J0D01*
G01*
G37*
%TD*%
%TO.C,F1*%
G36*
G01*
X139125000Y-107525000D02*
X137875000Y-107525000D01*
G75*
G02*
X137625000Y-107275000I0J250000D01*
G01*
X137625000Y-106525000D01*
G75*
G02*
X137875000Y-106275000I250000J0D01*
G01*
X139125000Y-106275000D01*
G75*
G02*
X139375000Y-106525000I0J-250000D01*
G01*
X139375000Y-107275000D01*
G75*
G02*
X139125000Y-107525000I-250000J0D01*
G01*
G37*
G36*
G01*
X139125000Y-104725000D02*
X137875000Y-104725000D01*
G75*
G02*
X137625000Y-104475000I0J250000D01*
G01*
X137625000Y-103725000D01*
G75*
G02*
X137875000Y-103475000I250000J0D01*
G01*
X139125000Y-103475000D01*
G75*
G02*
X139375000Y-103725000I0J-250000D01*
G01*
X139375000Y-104475000D01*
G75*
G02*
X139125000Y-104725000I-250000J0D01*
G01*
G37*
%TD*%
%TO.C,F1*%
G36*
G01*
X179125000Y-92525000D02*
X177875000Y-92525000D01*
G75*
G02*
X177625000Y-92275000I0J250000D01*
G01*
X177625000Y-91525000D01*
G75*
G02*
X177875000Y-91275000I250000J0D01*
G01*
X179125000Y-91275000D01*
G75*
G02*
X179375000Y-91525000I0J-250000D01*
G01*
X179375000Y-92275000D01*
G75*
G02*
X179125000Y-92525000I-250000J0D01*
G01*
G37*
G36*
G01*
X179125000Y-89725000D02*
X177875000Y-89725000D01*
G75*
G02*
X177625000Y-89475000I0J250000D01*
G01*
X177625000Y-88725000D01*
G75*
G02*
X177875000Y-88475000I250000J0D01*
G01*
X179125000Y-88475000D01*
G75*
G02*
X179375000Y-88725000I0J-250000D01*
G01*
X179375000Y-89475000D01*
G75*
G02*
X179125000Y-89725000I-250000J0D01*
G01*
G37*
%TD*%
%TO.C,F1*%
G36*
G01*
X139125000Y-92525000D02*
X137875000Y-92525000D01*
G75*
G02*
X137625000Y-92275000I0J250000D01*
G01*
X137625000Y-91525000D01*
G75*
G02*
X137875000Y-91275000I250000J0D01*
G01*
X139125000Y-91275000D01*
G75*
G02*
X139375000Y-91525000I0J-250000D01*
G01*
X139375000Y-92275000D01*
G75*
G02*
X139125000Y-92525000I-250000J0D01*
G01*
G37*
G36*
G01*
X139125000Y-89725000D02*
X137875000Y-89725000D01*
G75*
G02*
X137625000Y-89475000I0J250000D01*
G01*
X137625000Y-88725000D01*
G75*
G02*
X137875000Y-88475000I250000J0D01*
G01*
X139125000Y-88475000D01*
G75*
G02*
X139375000Y-88725000I0J-250000D01*
G01*
X139375000Y-89475000D01*
G75*
G02*
X139125000Y-89725000I-250000J0D01*
G01*
G37*
%TD*%
%TO.C,F1*%
G36*
G01*
X179125000Y-77525000D02*
X177875000Y-77525000D01*
G75*
G02*
X177625000Y-77275000I0J250000D01*
G01*
X177625000Y-76525000D01*
G75*
G02*
X177875000Y-76275000I250000J0D01*
G01*
X179125000Y-76275000D01*
G75*
G02*
X179375000Y-76525000I0J-250000D01*
G01*
X179375000Y-77275000D01*
G75*
G02*
X179125000Y-77525000I-250000J0D01*
G01*
G37*
G36*
G01*
X179125000Y-74725000D02*
X177875000Y-74725000D01*
G75*
G02*
X177625000Y-74475000I0J250000D01*
G01*
X177625000Y-73725000D01*
G75*
G02*
X177875000Y-73475000I250000J0D01*
G01*
X179125000Y-73475000D01*
G75*
G02*
X179375000Y-73725000I0J-250000D01*
G01*
X179375000Y-74475000D01*
G75*
G02*
X179125000Y-74725000I-250000J0D01*
G01*
G37*
%TD*%
%TO.C,F1*%
G36*
G01*
X139125000Y-77525000D02*
X137875000Y-77525000D01*
G75*
G02*
X137625000Y-77275000I0J250000D01*
G01*
X137625000Y-76525000D01*
G75*
G02*
X137875000Y-76275000I250000J0D01*
G01*
X139125000Y-76275000D01*
G75*
G02*
X139375000Y-76525000I0J-250000D01*
G01*
X139375000Y-77275000D01*
G75*
G02*
X139125000Y-77525000I-250000J0D01*
G01*
G37*
G36*
G01*
X139125000Y-74725000D02*
X137875000Y-74725000D01*
G75*
G02*
X137625000Y-74475000I0J250000D01*
G01*
X137625000Y-73725000D01*
G75*
G02*
X137875000Y-73475000I250000J0D01*
G01*
X139125000Y-73475000D01*
G75*
G02*
X139375000Y-73725000I0J-250000D01*
G01*
X139375000Y-74475000D01*
G75*
G02*
X139125000Y-74725000I-250000J0D01*
G01*
G37*
%TD*%
%TO.C,F1*%
G36*
G01*
X179125000Y-62525000D02*
X177875000Y-62525000D01*
G75*
G02*
X177625000Y-62275000I0J250000D01*
G01*
X177625000Y-61525000D01*
G75*
G02*
X177875000Y-61275000I250000J0D01*
G01*
X179125000Y-61275000D01*
G75*
G02*
X179375000Y-61525000I0J-250000D01*
G01*
X179375000Y-62275000D01*
G75*
G02*
X179125000Y-62525000I-250000J0D01*
G01*
G37*
G36*
G01*
X179125000Y-59725000D02*
X177875000Y-59725000D01*
G75*
G02*
X177625000Y-59475000I0J250000D01*
G01*
X177625000Y-58725000D01*
G75*
G02*
X177875000Y-58475000I250000J0D01*
G01*
X179125000Y-58475000D01*
G75*
G02*
X179375000Y-58725000I0J-250000D01*
G01*
X179375000Y-59475000D01*
G75*
G02*
X179125000Y-59725000I-250000J0D01*
G01*
G37*
%TD*%
%TO.C,F1*%
G36*
G01*
X139125000Y-62525000D02*
X137875000Y-62525000D01*
G75*
G02*
X137625000Y-62275000I0J250000D01*
G01*
X137625000Y-61525000D01*
G75*
G02*
X137875000Y-61275000I250000J0D01*
G01*
X139125000Y-61275000D01*
G75*
G02*
X139375000Y-61525000I0J-250000D01*
G01*
X139375000Y-62275000D01*
G75*
G02*
X139125000Y-62525000I-250000J0D01*
G01*
G37*
G36*
G01*
X139125000Y-59725000D02*
X137875000Y-59725000D01*
G75*
G02*
X137625000Y-59475000I0J250000D01*
G01*
X137625000Y-58725000D01*
G75*
G02*
X137875000Y-58475000I250000J0D01*
G01*
X139125000Y-58475000D01*
G75*
G02*
X139375000Y-58725000I0J-250000D01*
G01*
X139375000Y-59475000D01*
G75*
G02*
X139125000Y-59725000I-250000J0D01*
G01*
G37*
%TD*%
%TO.C,F1*%
G36*
G01*
X179125000Y-47525000D02*
X177875000Y-47525000D01*
G75*
G02*
X177625000Y-47275000I0J250000D01*
G01*
X177625000Y-46525000D01*
G75*
G02*
X177875000Y-46275000I250000J0D01*
G01*
X179125000Y-46275000D01*
G75*
G02*
X179375000Y-46525000I0J-250000D01*
G01*
X179375000Y-47275000D01*
G75*
G02*
X179125000Y-47525000I-250000J0D01*
G01*
G37*
G36*
G01*
X179125000Y-44725000D02*
X177875000Y-44725000D01*
G75*
G02*
X177625000Y-44475000I0J250000D01*
G01*
X177625000Y-43725000D01*
G75*
G02*
X177875000Y-43475000I250000J0D01*
G01*
X179125000Y-43475000D01*
G75*
G02*
X179375000Y-43725000I0J-250000D01*
G01*
X179375000Y-44475000D01*
G75*
G02*
X179125000Y-44725000I-250000J0D01*
G01*
G37*
%TD*%
%TO.C,F1*%
G36*
G01*
X139125000Y-47525000D02*
X137875000Y-47525000D01*
G75*
G02*
X137625000Y-47275000I0J250000D01*
G01*
X137625000Y-46525000D01*
G75*
G02*
X137875000Y-46275000I250000J0D01*
G01*
X139125000Y-46275000D01*
G75*
G02*
X139375000Y-46525000I0J-250000D01*
G01*
X139375000Y-47275000D01*
G75*
G02*
X139125000Y-47525000I-250000J0D01*
G01*
G37*
G36*
G01*
X139125000Y-44725000D02*
X137875000Y-44725000D01*
G75*
G02*
X137625000Y-44475000I0J250000D01*
G01*
X137625000Y-43725000D01*
G75*
G02*
X137875000Y-43475000I250000J0D01*
G01*
X139125000Y-43475000D01*
G75*
G02*
X139375000Y-43725000I0J-250000D01*
G01*
X139375000Y-44475000D01*
G75*
G02*
X139125000Y-44725000I-250000J0D01*
G01*
G37*
%TD*%
%TO.C,F1*%
G36*
G01*
X179125000Y-32525000D02*
X177875000Y-32525000D01*
G75*
G02*
X177625000Y-32275000I0J250000D01*
G01*
X177625000Y-31525000D01*
G75*
G02*
X177875000Y-31275000I250000J0D01*
G01*
X179125000Y-31275000D01*
G75*
G02*
X179375000Y-31525000I0J-250000D01*
G01*
X179375000Y-32275000D01*
G75*
G02*
X179125000Y-32525000I-250000J0D01*
G01*
G37*
G36*
G01*
X179125000Y-29725000D02*
X177875000Y-29725000D01*
G75*
G02*
X177625000Y-29475000I0J250000D01*
G01*
X177625000Y-28725000D01*
G75*
G02*
X177875000Y-28475000I250000J0D01*
G01*
X179125000Y-28475000D01*
G75*
G02*
X179375000Y-28725000I0J-250000D01*
G01*
X179375000Y-29475000D01*
G75*
G02*
X179125000Y-29725000I-250000J0D01*
G01*
G37*
%TD*%
D14*
%TO.C,R2*%
X167375000Y-110000000D03*
X169025000Y-110000000D03*
%TD*%
%TO.C,R2*%
X127375000Y-110000000D03*
X129025000Y-110000000D03*
%TD*%
%TO.C,R2*%
X167375000Y-95000000D03*
X169025000Y-95000000D03*
%TD*%
%TO.C,R2*%
X127375000Y-95000000D03*
X129025000Y-95000000D03*
%TD*%
%TO.C,R2*%
X167375000Y-80000000D03*
X169025000Y-80000000D03*
%TD*%
%TO.C,R2*%
X127375000Y-80000000D03*
X129025000Y-80000000D03*
%TD*%
%TO.C,R2*%
X167375000Y-65000000D03*
X169025000Y-65000000D03*
%TD*%
%TO.C,R2*%
X127375000Y-65000000D03*
X129025000Y-65000000D03*
%TD*%
%TO.C,R2*%
X167375000Y-50000000D03*
X169025000Y-50000000D03*
%TD*%
%TO.C,R2*%
X127375000Y-50000000D03*
X129025000Y-50000000D03*
%TD*%
%TO.C,R2*%
X167375000Y-35000000D03*
X169025000Y-35000000D03*
%TD*%
%TO.C,R1*%
X183325000Y-109000000D03*
X181675000Y-109000000D03*
%TD*%
%TO.C,R1*%
X143325000Y-109000000D03*
X141675000Y-109000000D03*
%TD*%
%TO.C,R1*%
X183325000Y-94000000D03*
X181675000Y-94000000D03*
%TD*%
%TO.C,R1*%
X143325000Y-94000000D03*
X141675000Y-94000000D03*
%TD*%
%TO.C,R1*%
X183325000Y-79000000D03*
X181675000Y-79000000D03*
%TD*%
%TO.C,R1*%
X143325000Y-79000000D03*
X141675000Y-79000000D03*
%TD*%
%TO.C,R1*%
X183325000Y-64000000D03*
X181675000Y-64000000D03*
%TD*%
%TO.C,R1*%
X143325000Y-64000000D03*
X141675000Y-64000000D03*
%TD*%
%TO.C,R1*%
X183325000Y-49000000D03*
X181675000Y-49000000D03*
%TD*%
%TO.C,R1*%
X143325000Y-49000000D03*
X141675000Y-49000000D03*
%TD*%
%TO.C,R1*%
X183325000Y-34000000D03*
X181675000Y-34000000D03*
%TD*%
%TO.C,D1*%
G36*
G01*
X183850000Y-107650000D02*
X183150000Y-107650000D01*
G75*
G02*
X182900000Y-107400000I0J250000D01*
G01*
X182900000Y-106900000D01*
G75*
G02*
X183150000Y-106650000I250000J0D01*
G01*
X183850000Y-106650000D01*
G75*
G02*
X184100000Y-106900000I0J-250000D01*
G01*
X184100000Y-107400000D01*
G75*
G02*
X183850000Y-107650000I-250000J0D01*
G01*
G37*
G36*
G01*
X183850000Y-104350000D02*
X183150000Y-104350000D01*
G75*
G02*
X182900000Y-104100000I0J250000D01*
G01*
X182900000Y-103600000D01*
G75*
G02*
X183150000Y-103350000I250000J0D01*
G01*
X183850000Y-103350000D01*
G75*
G02*
X184100000Y-103600000I0J-250000D01*
G01*
X184100000Y-104100000D01*
G75*
G02*
X183850000Y-104350000I-250000J0D01*
G01*
G37*
%TD*%
%TO.C,D1*%
G36*
G01*
X143850000Y-107650000D02*
X143150000Y-107650000D01*
G75*
G02*
X142900000Y-107400000I0J250000D01*
G01*
X142900000Y-106900000D01*
G75*
G02*
X143150000Y-106650000I250000J0D01*
G01*
X143850000Y-106650000D01*
G75*
G02*
X144100000Y-106900000I0J-250000D01*
G01*
X144100000Y-107400000D01*
G75*
G02*
X143850000Y-107650000I-250000J0D01*
G01*
G37*
G36*
G01*
X143850000Y-104350000D02*
X143150000Y-104350000D01*
G75*
G02*
X142900000Y-104100000I0J250000D01*
G01*
X142900000Y-103600000D01*
G75*
G02*
X143150000Y-103350000I250000J0D01*
G01*
X143850000Y-103350000D01*
G75*
G02*
X144100000Y-103600000I0J-250000D01*
G01*
X144100000Y-104100000D01*
G75*
G02*
X143850000Y-104350000I-250000J0D01*
G01*
G37*
%TD*%
%TO.C,D1*%
G36*
G01*
X183850000Y-92650000D02*
X183150000Y-92650000D01*
G75*
G02*
X182900000Y-92400000I0J250000D01*
G01*
X182900000Y-91900000D01*
G75*
G02*
X183150000Y-91650000I250000J0D01*
G01*
X183850000Y-91650000D01*
G75*
G02*
X184100000Y-91900000I0J-250000D01*
G01*
X184100000Y-92400000D01*
G75*
G02*
X183850000Y-92650000I-250000J0D01*
G01*
G37*
G36*
G01*
X183850000Y-89350000D02*
X183150000Y-89350000D01*
G75*
G02*
X182900000Y-89100000I0J250000D01*
G01*
X182900000Y-88600000D01*
G75*
G02*
X183150000Y-88350000I250000J0D01*
G01*
X183850000Y-88350000D01*
G75*
G02*
X184100000Y-88600000I0J-250000D01*
G01*
X184100000Y-89100000D01*
G75*
G02*
X183850000Y-89350000I-250000J0D01*
G01*
G37*
%TD*%
%TO.C,D1*%
G36*
G01*
X143850000Y-92650000D02*
X143150000Y-92650000D01*
G75*
G02*
X142900000Y-92400000I0J250000D01*
G01*
X142900000Y-91900000D01*
G75*
G02*
X143150000Y-91650000I250000J0D01*
G01*
X143850000Y-91650000D01*
G75*
G02*
X144100000Y-91900000I0J-250000D01*
G01*
X144100000Y-92400000D01*
G75*
G02*
X143850000Y-92650000I-250000J0D01*
G01*
G37*
G36*
G01*
X143850000Y-89350000D02*
X143150000Y-89350000D01*
G75*
G02*
X142900000Y-89100000I0J250000D01*
G01*
X142900000Y-88600000D01*
G75*
G02*
X143150000Y-88350000I250000J0D01*
G01*
X143850000Y-88350000D01*
G75*
G02*
X144100000Y-88600000I0J-250000D01*
G01*
X144100000Y-89100000D01*
G75*
G02*
X143850000Y-89350000I-250000J0D01*
G01*
G37*
%TD*%
%TO.C,D1*%
G36*
G01*
X183850000Y-77650000D02*
X183150000Y-77650000D01*
G75*
G02*
X182900000Y-77400000I0J250000D01*
G01*
X182900000Y-76900000D01*
G75*
G02*
X183150000Y-76650000I250000J0D01*
G01*
X183850000Y-76650000D01*
G75*
G02*
X184100000Y-76900000I0J-250000D01*
G01*
X184100000Y-77400000D01*
G75*
G02*
X183850000Y-77650000I-250000J0D01*
G01*
G37*
G36*
G01*
X183850000Y-74350000D02*
X183150000Y-74350000D01*
G75*
G02*
X182900000Y-74100000I0J250000D01*
G01*
X182900000Y-73600000D01*
G75*
G02*
X183150000Y-73350000I250000J0D01*
G01*
X183850000Y-73350000D01*
G75*
G02*
X184100000Y-73600000I0J-250000D01*
G01*
X184100000Y-74100000D01*
G75*
G02*
X183850000Y-74350000I-250000J0D01*
G01*
G37*
%TD*%
%TO.C,D1*%
G36*
G01*
X143850000Y-77650000D02*
X143150000Y-77650000D01*
G75*
G02*
X142900000Y-77400000I0J250000D01*
G01*
X142900000Y-76900000D01*
G75*
G02*
X143150000Y-76650000I250000J0D01*
G01*
X143850000Y-76650000D01*
G75*
G02*
X144100000Y-76900000I0J-250000D01*
G01*
X144100000Y-77400000D01*
G75*
G02*
X143850000Y-77650000I-250000J0D01*
G01*
G37*
G36*
G01*
X143850000Y-74350000D02*
X143150000Y-74350000D01*
G75*
G02*
X142900000Y-74100000I0J250000D01*
G01*
X142900000Y-73600000D01*
G75*
G02*
X143150000Y-73350000I250000J0D01*
G01*
X143850000Y-73350000D01*
G75*
G02*
X144100000Y-73600000I0J-250000D01*
G01*
X144100000Y-74100000D01*
G75*
G02*
X143850000Y-74350000I-250000J0D01*
G01*
G37*
%TD*%
%TO.C,D1*%
G36*
G01*
X183850000Y-62650000D02*
X183150000Y-62650000D01*
G75*
G02*
X182900000Y-62400000I0J250000D01*
G01*
X182900000Y-61900000D01*
G75*
G02*
X183150000Y-61650000I250000J0D01*
G01*
X183850000Y-61650000D01*
G75*
G02*
X184100000Y-61900000I0J-250000D01*
G01*
X184100000Y-62400000D01*
G75*
G02*
X183850000Y-62650000I-250000J0D01*
G01*
G37*
G36*
G01*
X183850000Y-59350000D02*
X183150000Y-59350000D01*
G75*
G02*
X182900000Y-59100000I0J250000D01*
G01*
X182900000Y-58600000D01*
G75*
G02*
X183150000Y-58350000I250000J0D01*
G01*
X183850000Y-58350000D01*
G75*
G02*
X184100000Y-58600000I0J-250000D01*
G01*
X184100000Y-59100000D01*
G75*
G02*
X183850000Y-59350000I-250000J0D01*
G01*
G37*
%TD*%
%TO.C,D1*%
G36*
G01*
X143850000Y-62650000D02*
X143150000Y-62650000D01*
G75*
G02*
X142900000Y-62400000I0J250000D01*
G01*
X142900000Y-61900000D01*
G75*
G02*
X143150000Y-61650000I250000J0D01*
G01*
X143850000Y-61650000D01*
G75*
G02*
X144100000Y-61900000I0J-250000D01*
G01*
X144100000Y-62400000D01*
G75*
G02*
X143850000Y-62650000I-250000J0D01*
G01*
G37*
G36*
G01*
X143850000Y-59350000D02*
X143150000Y-59350000D01*
G75*
G02*
X142900000Y-59100000I0J250000D01*
G01*
X142900000Y-58600000D01*
G75*
G02*
X143150000Y-58350000I250000J0D01*
G01*
X143850000Y-58350000D01*
G75*
G02*
X144100000Y-58600000I0J-250000D01*
G01*
X144100000Y-59100000D01*
G75*
G02*
X143850000Y-59350000I-250000J0D01*
G01*
G37*
%TD*%
%TO.C,D1*%
G36*
G01*
X183850000Y-47650000D02*
X183150000Y-47650000D01*
G75*
G02*
X182900000Y-47400000I0J250000D01*
G01*
X182900000Y-46900000D01*
G75*
G02*
X183150000Y-46650000I250000J0D01*
G01*
X183850000Y-46650000D01*
G75*
G02*
X184100000Y-46900000I0J-250000D01*
G01*
X184100000Y-47400000D01*
G75*
G02*
X183850000Y-47650000I-250000J0D01*
G01*
G37*
G36*
G01*
X183850000Y-44350000D02*
X183150000Y-44350000D01*
G75*
G02*
X182900000Y-44100000I0J250000D01*
G01*
X182900000Y-43600000D01*
G75*
G02*
X183150000Y-43350000I250000J0D01*
G01*
X183850000Y-43350000D01*
G75*
G02*
X184100000Y-43600000I0J-250000D01*
G01*
X184100000Y-44100000D01*
G75*
G02*
X183850000Y-44350000I-250000J0D01*
G01*
G37*
%TD*%
%TO.C,D1*%
G36*
G01*
X143850000Y-47650000D02*
X143150000Y-47650000D01*
G75*
G02*
X142900000Y-47400000I0J250000D01*
G01*
X142900000Y-46900000D01*
G75*
G02*
X143150000Y-46650000I250000J0D01*
G01*
X143850000Y-46650000D01*
G75*
G02*
X144100000Y-46900000I0J-250000D01*
G01*
X144100000Y-47400000D01*
G75*
G02*
X143850000Y-47650000I-250000J0D01*
G01*
G37*
G36*
G01*
X143850000Y-44350000D02*
X143150000Y-44350000D01*
G75*
G02*
X142900000Y-44100000I0J250000D01*
G01*
X142900000Y-43600000D01*
G75*
G02*
X143150000Y-43350000I250000J0D01*
G01*
X143850000Y-43350000D01*
G75*
G02*
X144100000Y-43600000I0J-250000D01*
G01*
X144100000Y-44100000D01*
G75*
G02*
X143850000Y-44350000I-250000J0D01*
G01*
G37*
%TD*%
%TO.C,D1*%
G36*
G01*
X183850000Y-32650000D02*
X183150000Y-32650000D01*
G75*
G02*
X182900000Y-32400000I0J250000D01*
G01*
X182900000Y-31900000D01*
G75*
G02*
X183150000Y-31650000I250000J0D01*
G01*
X183850000Y-31650000D01*
G75*
G02*
X184100000Y-31900000I0J-250000D01*
G01*
X184100000Y-32400000D01*
G75*
G02*
X183850000Y-32650000I-250000J0D01*
G01*
G37*
G36*
G01*
X183850000Y-29350000D02*
X183150000Y-29350000D01*
G75*
G02*
X182900000Y-29100000I0J250000D01*
G01*
X182900000Y-28600000D01*
G75*
G02*
X183150000Y-28350000I250000J0D01*
G01*
X183850000Y-28350000D01*
G75*
G02*
X184100000Y-28600000I0J-250000D01*
G01*
X184100000Y-29100000D01*
G75*
G02*
X183850000Y-29350000I-250000J0D01*
G01*
G37*
%TD*%
%TO.C,U1*%
G36*
G01*
X170875000Y-110535000D02*
X170875000Y-110235000D01*
G75*
G02*
X171000000Y-110110000I125000J0D01*
G01*
X171000000Y-110110000D01*
G75*
G02*
X171125000Y-110235000I0J-125000D01*
G01*
X171125000Y-110535000D01*
G75*
G02*
X171000000Y-110660000I-125000J0D01*
G01*
X171000000Y-110660000D01*
G75*
G02*
X170875000Y-110535000I0J125000D01*
G01*
G37*
D15*
X171500000Y-110385000D03*
D16*
X172000000Y-110385000D03*
D15*
X172500000Y-110385000D03*
X173000000Y-110385000D03*
X171500000Y-109615000D03*
X173000000Y-109615000D03*
X172500000Y-109615000D03*
X171000000Y-109615000D03*
D16*
X172000000Y-109615000D03*
%TD*%
%TO.C,U1*%
G36*
G01*
X130875000Y-110535000D02*
X130875000Y-110235000D01*
G75*
G02*
X131000000Y-110110000I125000J0D01*
G01*
X131000000Y-110110000D01*
G75*
G02*
X131125000Y-110235000I0J-125000D01*
G01*
X131125000Y-110535000D01*
G75*
G02*
X131000000Y-110660000I-125000J0D01*
G01*
X131000000Y-110660000D01*
G75*
G02*
X130875000Y-110535000I0J125000D01*
G01*
G37*
D15*
X131500000Y-110385000D03*
D16*
X132000000Y-110385000D03*
D15*
X132500000Y-110385000D03*
X133000000Y-110385000D03*
X131500000Y-109615000D03*
X133000000Y-109615000D03*
X132500000Y-109615000D03*
X131000000Y-109615000D03*
D16*
X132000000Y-109615000D03*
%TD*%
%TO.C,U1*%
G36*
G01*
X170875000Y-95535000D02*
X170875000Y-95235000D01*
G75*
G02*
X171000000Y-95110000I125000J0D01*
G01*
X171000000Y-95110000D01*
G75*
G02*
X171125000Y-95235000I0J-125000D01*
G01*
X171125000Y-95535000D01*
G75*
G02*
X171000000Y-95660000I-125000J0D01*
G01*
X171000000Y-95660000D01*
G75*
G02*
X170875000Y-95535000I0J125000D01*
G01*
G37*
D15*
X171500000Y-95385000D03*
D16*
X172000000Y-95385000D03*
D15*
X172500000Y-95385000D03*
X173000000Y-95385000D03*
X171500000Y-94615000D03*
X173000000Y-94615000D03*
X172500000Y-94615000D03*
X171000000Y-94615000D03*
D16*
X172000000Y-94615000D03*
%TD*%
%TO.C,U1*%
G36*
G01*
X130875000Y-95535000D02*
X130875000Y-95235000D01*
G75*
G02*
X131000000Y-95110000I125000J0D01*
G01*
X131000000Y-95110000D01*
G75*
G02*
X131125000Y-95235000I0J-125000D01*
G01*
X131125000Y-95535000D01*
G75*
G02*
X131000000Y-95660000I-125000J0D01*
G01*
X131000000Y-95660000D01*
G75*
G02*
X130875000Y-95535000I0J125000D01*
G01*
G37*
D15*
X131500000Y-95385000D03*
D16*
X132000000Y-95385000D03*
D15*
X132500000Y-95385000D03*
X133000000Y-95385000D03*
X131500000Y-94615000D03*
X133000000Y-94615000D03*
X132500000Y-94615000D03*
X131000000Y-94615000D03*
D16*
X132000000Y-94615000D03*
%TD*%
%TO.C,U1*%
G36*
G01*
X170875000Y-80535000D02*
X170875000Y-80235000D01*
G75*
G02*
X171000000Y-80110000I125000J0D01*
G01*
X171000000Y-80110000D01*
G75*
G02*
X171125000Y-80235000I0J-125000D01*
G01*
X171125000Y-80535000D01*
G75*
G02*
X171000000Y-80660000I-125000J0D01*
G01*
X171000000Y-80660000D01*
G75*
G02*
X170875000Y-80535000I0J125000D01*
G01*
G37*
D15*
X171500000Y-80385000D03*
D16*
X172000000Y-80385000D03*
D15*
X172500000Y-80385000D03*
X173000000Y-80385000D03*
X171500000Y-79615000D03*
X173000000Y-79615000D03*
X172500000Y-79615000D03*
X171000000Y-79615000D03*
D16*
X172000000Y-79615000D03*
%TD*%
%TO.C,U1*%
G36*
G01*
X130875000Y-80535000D02*
X130875000Y-80235000D01*
G75*
G02*
X131000000Y-80110000I125000J0D01*
G01*
X131000000Y-80110000D01*
G75*
G02*
X131125000Y-80235000I0J-125000D01*
G01*
X131125000Y-80535000D01*
G75*
G02*
X131000000Y-80660000I-125000J0D01*
G01*
X131000000Y-80660000D01*
G75*
G02*
X130875000Y-80535000I0J125000D01*
G01*
G37*
D15*
X131500000Y-80385000D03*
D16*
X132000000Y-80385000D03*
D15*
X132500000Y-80385000D03*
X133000000Y-80385000D03*
X131500000Y-79615000D03*
X133000000Y-79615000D03*
X132500000Y-79615000D03*
X131000000Y-79615000D03*
D16*
X132000000Y-79615000D03*
%TD*%
%TO.C,U1*%
G36*
G01*
X170875000Y-65535000D02*
X170875000Y-65235000D01*
G75*
G02*
X171000000Y-65110000I125000J0D01*
G01*
X171000000Y-65110000D01*
G75*
G02*
X171125000Y-65235000I0J-125000D01*
G01*
X171125000Y-65535000D01*
G75*
G02*
X171000000Y-65660000I-125000J0D01*
G01*
X171000000Y-65660000D01*
G75*
G02*
X170875000Y-65535000I0J125000D01*
G01*
G37*
D15*
X171500000Y-65385000D03*
D16*
X172000000Y-65385000D03*
D15*
X172500000Y-65385000D03*
X173000000Y-65385000D03*
X171500000Y-64615000D03*
X173000000Y-64615000D03*
X172500000Y-64615000D03*
X171000000Y-64615000D03*
D16*
X172000000Y-64615000D03*
%TD*%
%TO.C,U1*%
G36*
G01*
X130875000Y-65535000D02*
X130875000Y-65235000D01*
G75*
G02*
X131000000Y-65110000I125000J0D01*
G01*
X131000000Y-65110000D01*
G75*
G02*
X131125000Y-65235000I0J-125000D01*
G01*
X131125000Y-65535000D01*
G75*
G02*
X131000000Y-65660000I-125000J0D01*
G01*
X131000000Y-65660000D01*
G75*
G02*
X130875000Y-65535000I0J125000D01*
G01*
G37*
D15*
X131500000Y-65385000D03*
D16*
X132000000Y-65385000D03*
D15*
X132500000Y-65385000D03*
X133000000Y-65385000D03*
X131500000Y-64615000D03*
X133000000Y-64615000D03*
X132500000Y-64615000D03*
X131000000Y-64615000D03*
D16*
X132000000Y-64615000D03*
%TD*%
%TO.C,U1*%
G36*
G01*
X170875000Y-50535000D02*
X170875000Y-50235000D01*
G75*
G02*
X171000000Y-50110000I125000J0D01*
G01*
X171000000Y-50110000D01*
G75*
G02*
X171125000Y-50235000I0J-125000D01*
G01*
X171125000Y-50535000D01*
G75*
G02*
X171000000Y-50660000I-125000J0D01*
G01*
X171000000Y-50660000D01*
G75*
G02*
X170875000Y-50535000I0J125000D01*
G01*
G37*
D15*
X171500000Y-50385000D03*
D16*
X172000000Y-50385000D03*
D15*
X172500000Y-50385000D03*
X173000000Y-50385000D03*
X171500000Y-49615000D03*
X173000000Y-49615000D03*
X172500000Y-49615000D03*
X171000000Y-49615000D03*
D16*
X172000000Y-49615000D03*
%TD*%
%TO.C,U1*%
G36*
G01*
X130875000Y-50535000D02*
X130875000Y-50235000D01*
G75*
G02*
X131000000Y-50110000I125000J0D01*
G01*
X131000000Y-50110000D01*
G75*
G02*
X131125000Y-50235000I0J-125000D01*
G01*
X131125000Y-50535000D01*
G75*
G02*
X131000000Y-50660000I-125000J0D01*
G01*
X131000000Y-50660000D01*
G75*
G02*
X130875000Y-50535000I0J125000D01*
G01*
G37*
D15*
X131500000Y-50385000D03*
D16*
X132000000Y-50385000D03*
D15*
X132500000Y-50385000D03*
X133000000Y-50385000D03*
X131500000Y-49615000D03*
X133000000Y-49615000D03*
X132500000Y-49615000D03*
X131000000Y-49615000D03*
D16*
X132000000Y-49615000D03*
%TD*%
%TO.C,U1*%
G36*
G01*
X170875000Y-35535000D02*
X170875000Y-35235000D01*
G75*
G02*
X171000000Y-35110000I125000J0D01*
G01*
X171000000Y-35110000D01*
G75*
G02*
X171125000Y-35235000I0J-125000D01*
G01*
X171125000Y-35535000D01*
G75*
G02*
X171000000Y-35660000I-125000J0D01*
G01*
X171000000Y-35660000D01*
G75*
G02*
X170875000Y-35535000I0J125000D01*
G01*
G37*
D15*
X171500000Y-35385000D03*
D16*
X172000000Y-35385000D03*
D15*
X172500000Y-35385000D03*
X173000000Y-35385000D03*
X171500000Y-34615000D03*
X173000000Y-34615000D03*
X172500000Y-34615000D03*
X171000000Y-34615000D03*
D16*
X172000000Y-34615000D03*
%TD*%
D10*
%TO.C,USB1*%
X172250000Y-107695000D03*
X171750000Y-107695000D03*
X171250000Y-107695000D03*
X172750000Y-107695000D03*
X170750000Y-107695000D03*
X173250000Y-107695000D03*
X170250000Y-107695000D03*
X173750000Y-107695000D03*
D11*
X174450000Y-107695000D03*
X169550000Y-107695000D03*
X175225000Y-107695000D03*
X168775000Y-107695000D03*
%TD*%
D10*
%TO.C,USB1*%
X132250000Y-107695000D03*
X131750000Y-107695000D03*
X131250000Y-107695000D03*
X132750000Y-107695000D03*
X130750000Y-107695000D03*
X133250000Y-107695000D03*
X130250000Y-107695000D03*
X133750000Y-107695000D03*
D11*
X134450000Y-107695000D03*
X129550000Y-107695000D03*
X135225000Y-107695000D03*
X128775000Y-107695000D03*
%TD*%
D10*
%TO.C,USB1*%
X172250000Y-92695000D03*
X171750000Y-92695000D03*
X171250000Y-92695000D03*
X172750000Y-92695000D03*
X170750000Y-92695000D03*
X173250000Y-92695000D03*
X170250000Y-92695000D03*
X173750000Y-92695000D03*
D11*
X174450000Y-92695000D03*
X169550000Y-92695000D03*
X175225000Y-92695000D03*
X168775000Y-92695000D03*
%TD*%
D10*
%TO.C,USB1*%
X132250000Y-92695000D03*
X131750000Y-92695000D03*
X131250000Y-92695000D03*
X132750000Y-92695000D03*
X130750000Y-92695000D03*
X133250000Y-92695000D03*
X130250000Y-92695000D03*
X133750000Y-92695000D03*
D11*
X134450000Y-92695000D03*
X129550000Y-92695000D03*
X135225000Y-92695000D03*
X128775000Y-92695000D03*
%TD*%
D10*
%TO.C,USB1*%
X172250000Y-77695000D03*
X171750000Y-77695000D03*
X171250000Y-77695000D03*
X172750000Y-77695000D03*
X170750000Y-77695000D03*
X173250000Y-77695000D03*
X170250000Y-77695000D03*
X173750000Y-77695000D03*
D11*
X174450000Y-77695000D03*
X169550000Y-77695000D03*
X175225000Y-77695000D03*
X168775000Y-77695000D03*
%TD*%
D10*
%TO.C,USB1*%
X132250000Y-77695000D03*
X131750000Y-77695000D03*
X131250000Y-77695000D03*
X132750000Y-77695000D03*
X130750000Y-77695000D03*
X133250000Y-77695000D03*
X130250000Y-77695000D03*
X133750000Y-77695000D03*
D11*
X134450000Y-77695000D03*
X129550000Y-77695000D03*
X135225000Y-77695000D03*
X128775000Y-77695000D03*
%TD*%
D10*
%TO.C,USB1*%
X172250000Y-62695000D03*
X171750000Y-62695000D03*
X171250000Y-62695000D03*
X172750000Y-62695000D03*
X170750000Y-62695000D03*
X173250000Y-62695000D03*
X170250000Y-62695000D03*
X173750000Y-62695000D03*
D11*
X174450000Y-62695000D03*
X169550000Y-62695000D03*
X175225000Y-62695000D03*
X168775000Y-62695000D03*
%TD*%
D10*
%TO.C,USB1*%
X132250000Y-62695000D03*
X131750000Y-62695000D03*
X131250000Y-62695000D03*
X132750000Y-62695000D03*
X130750000Y-62695000D03*
X133250000Y-62695000D03*
X130250000Y-62695000D03*
X133750000Y-62695000D03*
D11*
X134450000Y-62695000D03*
X129550000Y-62695000D03*
X135225000Y-62695000D03*
X128775000Y-62695000D03*
%TD*%
D10*
%TO.C,USB1*%
X172250000Y-47695000D03*
X171750000Y-47695000D03*
X171250000Y-47695000D03*
X172750000Y-47695000D03*
X170750000Y-47695000D03*
X173250000Y-47695000D03*
X170250000Y-47695000D03*
X173750000Y-47695000D03*
D11*
X174450000Y-47695000D03*
X169550000Y-47695000D03*
X175225000Y-47695000D03*
X168775000Y-47695000D03*
%TD*%
D10*
%TO.C,USB1*%
X132250000Y-47695000D03*
X131750000Y-47695000D03*
X131250000Y-47695000D03*
X132750000Y-47695000D03*
X130750000Y-47695000D03*
X133250000Y-47695000D03*
X130250000Y-47695000D03*
X133750000Y-47695000D03*
D11*
X134450000Y-47695000D03*
X129550000Y-47695000D03*
X135225000Y-47695000D03*
X128775000Y-47695000D03*
%TD*%
%TO.C,F1*%
G36*
G01*
X139125000Y-29725000D02*
X137875000Y-29725000D01*
G75*
G02*
X137625000Y-29475000I0J250000D01*
G01*
X137625000Y-28725000D01*
G75*
G02*
X137875000Y-28475000I250000J0D01*
G01*
X139125000Y-28475000D01*
G75*
G02*
X139375000Y-28725000I0J-250000D01*
G01*
X139375000Y-29475000D01*
G75*
G02*
X139125000Y-29725000I-250000J0D01*
G01*
G37*
G36*
G01*
X139125000Y-32525000D02*
X137875000Y-32525000D01*
G75*
G02*
X137625000Y-32275000I0J250000D01*
G01*
X137625000Y-31525000D01*
G75*
G02*
X137875000Y-31275000I250000J0D01*
G01*
X139125000Y-31275000D01*
G75*
G02*
X139375000Y-31525000I0J-250000D01*
G01*
X139375000Y-32275000D01*
G75*
G02*
X139125000Y-32525000I-250000J0D01*
G01*
G37*
%TD*%
D16*
%TO.C,U1*%
X132000000Y-34615000D03*
D15*
X131000000Y-34615000D03*
X132500000Y-34615000D03*
X133000000Y-34615000D03*
X131500000Y-34615000D03*
X133000000Y-35385000D03*
X132500000Y-35385000D03*
D16*
X132000000Y-35385000D03*
D15*
X131500000Y-35385000D03*
G36*
G01*
X130875000Y-35535000D02*
X130875000Y-35235000D01*
G75*
G02*
X131000000Y-35110000I125000J0D01*
G01*
X131000000Y-35110000D01*
G75*
G02*
X131125000Y-35235000I0J-125000D01*
G01*
X131125000Y-35535000D01*
G75*
G02*
X131000000Y-35660000I-125000J0D01*
G01*
X131000000Y-35660000D01*
G75*
G02*
X130875000Y-35535000I0J125000D01*
G01*
G37*
%TD*%
D14*
%TO.C,R2*%
X129025000Y-35000000D03*
X127375000Y-35000000D03*
%TD*%
%TO.C,R1*%
X141675000Y-34000000D03*
X143325000Y-34000000D03*
%TD*%
%TO.C,L1*%
G36*
G01*
X141700001Y-29450000D02*
X140299999Y-29450000D01*
G75*
G02*
X140050000Y-29200001I0J249999D01*
G01*
X140050000Y-28649999D01*
G75*
G02*
X140299999Y-28400000I249999J0D01*
G01*
X141700001Y-28400000D01*
G75*
G02*
X141950000Y-28649999I0J-249999D01*
G01*
X141950000Y-29200001D01*
G75*
G02*
X141700001Y-29450000I-249999J0D01*
G01*
G37*
G36*
G01*
X141700001Y-32600000D02*
X140299999Y-32600000D01*
G75*
G02*
X140050000Y-32350001I0J249999D01*
G01*
X140050000Y-31799999D01*
G75*
G02*
X140299999Y-31550000I249999J0D01*
G01*
X141700001Y-31550000D01*
G75*
G02*
X141950000Y-31799999I0J-249999D01*
G01*
X141950000Y-32350001D01*
G75*
G02*
X141700001Y-32600000I-249999J0D01*
G01*
G37*
%TD*%
%TO.C,D1*%
G36*
G01*
X143850000Y-29350000D02*
X143150000Y-29350000D01*
G75*
G02*
X142900000Y-29100000I0J250000D01*
G01*
X142900000Y-28600000D01*
G75*
G02*
X143150000Y-28350000I250000J0D01*
G01*
X143850000Y-28350000D01*
G75*
G02*
X144100000Y-28600000I0J-250000D01*
G01*
X144100000Y-29100000D01*
G75*
G02*
X143850000Y-29350000I-250000J0D01*
G01*
G37*
G36*
G01*
X143850000Y-32650000D02*
X143150000Y-32650000D01*
G75*
G02*
X142900000Y-32400000I0J250000D01*
G01*
X142900000Y-31900000D01*
G75*
G02*
X143150000Y-31650000I250000J0D01*
G01*
X143850000Y-31650000D01*
G75*
G02*
X144100000Y-31900000I0J-250000D01*
G01*
X144100000Y-32400000D01*
G75*
G02*
X143850000Y-32650000I-250000J0D01*
G01*
G37*
%TD*%
D13*
%TO.C,J1*%
X151300000Y-33600000D03*
X145700000Y-33600000D03*
D12*
X147000000Y-29725000D03*
X148000000Y-29725000D03*
X150000000Y-29725000D03*
X149000000Y-29725000D03*
%TD*%
D11*
%TO.C,USB1*%
X128775000Y-32695000D03*
X135225000Y-32695000D03*
X129550000Y-32695000D03*
X134450000Y-32695000D03*
D10*
X133750000Y-32695000D03*
X130250000Y-32695000D03*
X133250000Y-32695000D03*
X130750000Y-32695000D03*
X132750000Y-32695000D03*
X131250000Y-32695000D03*
X131750000Y-32695000D03*
X132250000Y-32695000D03*
%TD*%
M02*
