%TF.GenerationSoftware,KiCad,Pcbnew,(5.1.11)-1*%
%TF.CreationDate,2022-08-13T18:26:06+07:00*%
%TF.ProjectId,Eclipse Voyager - Copy,45636c69-7073-4652-9056-6f7961676572,rev?*%
%TF.SameCoordinates,Original*%
%TF.FileFunction,Soldermask,Bot*%
%TF.FilePolarity,Negative*%
%FSLAX46Y46*%
G04 Gerber Fmt 4.6, Leading zero omitted, Abs format (unit mm)*
G04 Created by KiCad (PCBNEW (5.1.11)-1) date 2022-08-13 18:26:06*
%MOMM*%
%LPD*%
G01*
G04 APERTURE LIST*
%ADD10O,1.000000X1.600000*%
%ADD11O,1.000000X2.100000*%
%ADD12C,0.650000*%
%ADD13C,0.500000*%
%ADD14C,3.500000*%
%ADD15C,2.600000*%
G04 APERTURE END LIST*
D10*
%TO.C,USB1*%
X167680000Y-27600000D03*
X176320000Y-27600000D03*
D11*
X167680000Y-31780000D03*
X176320000Y-31780000D03*
D12*
X174890000Y-31250000D03*
X169110000Y-31250000D03*
%TD*%
D13*
%TO.C,mouse-bite-3mm-slot*%
X179238000Y-41250000D03*
X178488000Y-41250000D03*
X179988000Y-41250000D03*
X180762000Y-41250000D03*
X181524000Y-41250000D03*
%TD*%
%TO.C,mouse-bite-3mm-slot*%
X178476000Y-96750000D03*
X179238000Y-96750000D03*
X180012000Y-96750000D03*
X181512000Y-96750000D03*
X180762000Y-96750000D03*
%TD*%
%TO.C,mouse-bite-3mm-slot*%
X138476000Y-96750000D03*
X139238000Y-96750000D03*
X140012000Y-96750000D03*
X141512000Y-96750000D03*
X140762000Y-96750000D03*
%TD*%
%TO.C,mouse-bite-3mm-slot*%
X178476000Y-81750000D03*
X179238000Y-81750000D03*
X180012000Y-81750000D03*
X181512000Y-81750000D03*
X180762000Y-81750000D03*
%TD*%
%TO.C,mouse-bite-3mm-slot*%
X138476000Y-81750000D03*
X139238000Y-81750000D03*
X140012000Y-81750000D03*
X141512000Y-81750000D03*
X140762000Y-81750000D03*
%TD*%
%TO.C,mouse-bite-3mm-slot*%
X178476000Y-66750000D03*
X179238000Y-66750000D03*
X180012000Y-66750000D03*
X181512000Y-66750000D03*
X180762000Y-66750000D03*
%TD*%
%TO.C,mouse-bite-3mm-slot*%
X138476000Y-66750000D03*
X139238000Y-66750000D03*
X140012000Y-66750000D03*
X141512000Y-66750000D03*
X140762000Y-66750000D03*
%TD*%
%TO.C,mouse-bite-3mm-slot*%
X178476000Y-51750000D03*
X179238000Y-51750000D03*
X180012000Y-51750000D03*
X181512000Y-51750000D03*
X180762000Y-51750000D03*
%TD*%
%TO.C,mouse-bite-3mm-slot*%
X138476000Y-51750000D03*
X139238000Y-51750000D03*
X140012000Y-51750000D03*
X141512000Y-51750000D03*
X140762000Y-51750000D03*
%TD*%
%TO.C,mouse-bite-3mm-slot*%
X178476000Y-36750000D03*
X179238000Y-36750000D03*
X180012000Y-36750000D03*
X181512000Y-36750000D03*
X180762000Y-36750000D03*
%TD*%
%TO.C,mouse-bite-3mm-slot*%
X179238000Y-101250000D03*
X178488000Y-101250000D03*
X179988000Y-101250000D03*
X180762000Y-101250000D03*
X181524000Y-101250000D03*
%TD*%
%TO.C,mouse-bite-3mm-slot*%
X139238000Y-101250000D03*
X138488000Y-101250000D03*
X139988000Y-101250000D03*
X140762000Y-101250000D03*
X141524000Y-101250000D03*
%TD*%
%TO.C,mouse-bite-3mm-slot*%
X179238000Y-86250000D03*
X178488000Y-86250000D03*
X179988000Y-86250000D03*
X180762000Y-86250000D03*
X181524000Y-86250000D03*
%TD*%
%TO.C,mouse-bite-3mm-slot*%
X139238000Y-86250000D03*
X138488000Y-86250000D03*
X139988000Y-86250000D03*
X140762000Y-86250000D03*
X141524000Y-86250000D03*
%TD*%
%TO.C,mouse-bite-3mm-slot*%
X179238000Y-71250000D03*
X178488000Y-71250000D03*
X179988000Y-71250000D03*
X180762000Y-71250000D03*
X181524000Y-71250000D03*
%TD*%
%TO.C,mouse-bite-3mm-slot*%
X139238000Y-71250000D03*
X138488000Y-71250000D03*
X139988000Y-71250000D03*
X140762000Y-71250000D03*
X141524000Y-71250000D03*
%TD*%
%TO.C,mouse-bite-3mm-slot*%
X179238000Y-56250000D03*
X178488000Y-56250000D03*
X179988000Y-56250000D03*
X180762000Y-56250000D03*
X181524000Y-56250000D03*
%TD*%
%TO.C,mouse-bite-3mm-slot*%
X139238000Y-56250000D03*
X138488000Y-56250000D03*
X139988000Y-56250000D03*
X140762000Y-56250000D03*
X141524000Y-56250000D03*
%TD*%
%TO.C,mouse-bite-3mm-slot*%
X179238000Y-41250000D03*
X178488000Y-41250000D03*
X179988000Y-41250000D03*
X180762000Y-41250000D03*
X181524000Y-41250000D03*
%TD*%
%TO.C,mouse-bite-3mm-slot*%
X141524000Y-41250000D03*
X140762000Y-41250000D03*
X139988000Y-41250000D03*
X138488000Y-41250000D03*
X139238000Y-41250000D03*
%TD*%
%TO.C,mouse-bite-3mm-slot*%
X140762000Y-36750000D03*
X141512000Y-36750000D03*
X140012000Y-36750000D03*
X139238000Y-36750000D03*
X138476000Y-36750000D03*
%TD*%
%TO.C,mouse-bite-3mm-slot*%
X157250000Y-108024000D03*
X157250000Y-107262000D03*
X157250000Y-106488000D03*
X157250000Y-104988000D03*
X157250000Y-105738000D03*
%TD*%
%TO.C,mouse-bite-3mm-slot*%
X157250000Y-93024000D03*
X157250000Y-92262000D03*
X157250000Y-91488000D03*
X157250000Y-89988000D03*
X157250000Y-90738000D03*
%TD*%
%TO.C,mouse-bite-3mm-slot*%
X157250000Y-78024000D03*
X157250000Y-77262000D03*
X157250000Y-76488000D03*
X157250000Y-74988000D03*
X157250000Y-75738000D03*
%TD*%
%TO.C,mouse-bite-3mm-slot*%
X157250000Y-63024000D03*
X157250000Y-62262000D03*
X157250000Y-61488000D03*
X157250000Y-59988000D03*
X157250000Y-60738000D03*
%TD*%
%TO.C,mouse-bite-3mm-slot*%
X157250000Y-48024000D03*
X157250000Y-47262000D03*
X157250000Y-46488000D03*
X157250000Y-44988000D03*
X157250000Y-45738000D03*
%TD*%
%TO.C,mouse-bite-3mm-slot*%
X161750000Y-107262000D03*
X161750000Y-108012000D03*
X161750000Y-106512000D03*
X161750000Y-105738000D03*
X161750000Y-104976000D03*
%TD*%
%TO.C,mouse-bite-3mm-slot*%
X161750000Y-92262000D03*
X161750000Y-93012000D03*
X161750000Y-91512000D03*
X161750000Y-90738000D03*
X161750000Y-89976000D03*
%TD*%
%TO.C,mouse-bite-3mm-slot*%
X161750000Y-77262000D03*
X161750000Y-78012000D03*
X161750000Y-76512000D03*
X161750000Y-75738000D03*
X161750000Y-74976000D03*
%TD*%
%TO.C,mouse-bite-3mm-slot*%
X161750000Y-62262000D03*
X161750000Y-63012000D03*
X161750000Y-61512000D03*
X161750000Y-60738000D03*
X161750000Y-59976000D03*
%TD*%
%TO.C,mouse-bite-3mm-slot*%
X161750000Y-47262000D03*
X161750000Y-48012000D03*
X161750000Y-46512000D03*
X161750000Y-45738000D03*
X161750000Y-44976000D03*
%TD*%
%TO.C,mouse-bite-3mm-slot*%
X161750000Y-29976000D03*
X161750000Y-30738000D03*
X161750000Y-31512000D03*
X161750000Y-33012000D03*
X161750000Y-32262000D03*
%TD*%
%TO.C,mouse-bite-3mm-slot*%
X157250000Y-30738000D03*
X157250000Y-29988000D03*
X157250000Y-31488000D03*
X157250000Y-32262000D03*
X157250000Y-33024000D03*
%TD*%
D14*
%TO.C,H1*%
X194500000Y-106500000D03*
%TD*%
%TO.C,H1*%
X154500000Y-106500000D03*
%TD*%
%TO.C,H1*%
X194500000Y-91500000D03*
%TD*%
%TO.C,H1*%
X154500000Y-91500000D03*
%TD*%
%TO.C,H1*%
X194500000Y-76500000D03*
%TD*%
%TO.C,H1*%
X154500000Y-76500000D03*
%TD*%
%TO.C,H1*%
X194500000Y-61500000D03*
%TD*%
%TO.C,H1*%
X154500000Y-61500000D03*
%TD*%
%TO.C,H1*%
X194500000Y-46500000D03*
%TD*%
%TO.C,H1*%
X154500000Y-46500000D03*
%TD*%
%TO.C,H1*%
X194500000Y-31500000D03*
%TD*%
D15*
%TO.C,H2*%
X164500000Y-106500000D03*
%TD*%
%TO.C,H2*%
X124500000Y-106500000D03*
%TD*%
%TO.C,H2*%
X164500000Y-91500000D03*
%TD*%
%TO.C,H2*%
X124500000Y-91500000D03*
%TD*%
%TO.C,H2*%
X164500000Y-76500000D03*
%TD*%
%TO.C,H2*%
X124500000Y-76500000D03*
%TD*%
%TO.C,H2*%
X164500000Y-61500000D03*
%TD*%
%TO.C,H2*%
X124500000Y-61500000D03*
%TD*%
%TO.C,H2*%
X164500000Y-46500000D03*
%TD*%
%TO.C,H2*%
X124500000Y-46500000D03*
%TD*%
%TO.C,H2*%
X164500000Y-31500000D03*
%TD*%
D10*
%TO.C,USB1*%
X167680000Y-102600000D03*
X176320000Y-102600000D03*
D11*
X167680000Y-106780000D03*
X176320000Y-106780000D03*
D12*
X174890000Y-106250000D03*
X169110000Y-106250000D03*
%TD*%
D10*
%TO.C,USB1*%
X127680000Y-102600000D03*
X136320000Y-102600000D03*
D11*
X127680000Y-106780000D03*
X136320000Y-106780000D03*
D12*
X134890000Y-106250000D03*
X129110000Y-106250000D03*
%TD*%
D10*
%TO.C,USB1*%
X167680000Y-87600000D03*
X176320000Y-87600000D03*
D11*
X167680000Y-91780000D03*
X176320000Y-91780000D03*
D12*
X174890000Y-91250000D03*
X169110000Y-91250000D03*
%TD*%
D10*
%TO.C,USB1*%
X127680000Y-87600000D03*
X136320000Y-87600000D03*
D11*
X127680000Y-91780000D03*
X136320000Y-91780000D03*
D12*
X134890000Y-91250000D03*
X129110000Y-91250000D03*
%TD*%
D10*
%TO.C,USB1*%
X167680000Y-72600000D03*
X176320000Y-72600000D03*
D11*
X167680000Y-76780000D03*
X176320000Y-76780000D03*
D12*
X174890000Y-76250000D03*
X169110000Y-76250000D03*
%TD*%
D10*
%TO.C,USB1*%
X127680000Y-72600000D03*
X136320000Y-72600000D03*
D11*
X127680000Y-76780000D03*
X136320000Y-76780000D03*
D12*
X134890000Y-76250000D03*
X129110000Y-76250000D03*
%TD*%
D10*
%TO.C,USB1*%
X167680000Y-57600000D03*
X176320000Y-57600000D03*
D11*
X167680000Y-61780000D03*
X176320000Y-61780000D03*
D12*
X174890000Y-61250000D03*
X169110000Y-61250000D03*
%TD*%
D10*
%TO.C,USB1*%
X127680000Y-57600000D03*
X136320000Y-57600000D03*
D11*
X127680000Y-61780000D03*
X136320000Y-61780000D03*
D12*
X134890000Y-61250000D03*
X129110000Y-61250000D03*
%TD*%
D10*
%TO.C,USB1*%
X167680000Y-42600000D03*
X176320000Y-42600000D03*
D11*
X167680000Y-46780000D03*
X176320000Y-46780000D03*
D12*
X174890000Y-46250000D03*
X169110000Y-46250000D03*
%TD*%
D10*
%TO.C,USB1*%
X127680000Y-42600000D03*
X136320000Y-42600000D03*
D11*
X127680000Y-46780000D03*
X136320000Y-46780000D03*
D12*
X134890000Y-46250000D03*
X129110000Y-46250000D03*
%TD*%
D15*
%TO.C,H2*%
X124500000Y-31500000D03*
%TD*%
D14*
%TO.C,H1*%
X154500000Y-31500000D03*
%TD*%
D12*
%TO.C,USB1*%
X129110000Y-31250000D03*
X134890000Y-31250000D03*
D11*
X136320000Y-31780000D03*
X127680000Y-31780000D03*
D10*
X136320000Y-27600000D03*
X127680000Y-27600000D03*
%TD*%
M02*
