%TF.GenerationSoftware,KiCad,Pcbnew,(5.1.11)-1*%
%TF.CreationDate,2022-08-13T18:26:06+07:00*%
%TF.ProjectId,Eclipse Voyager - Copy,45636c69-7073-4652-9056-6f7961676572,rev?*%
%TF.SameCoordinates,Original*%
%TF.FileFunction,Profile,NP*%
%FSLAX46Y46*%
G04 Gerber Fmt 4.6, Leading zero omitted, Abs format (unit mm)*
G04 Created by KiCad (PCBNEW (5.1.11)-1) date 2022-08-13 18:26:06*
%MOMM*%
%LPD*%
G01*
G04 APERTURE LIST*
%TA.AperFunction,Profile*%
%ADD10C,0.050000*%
%TD*%
%TA.AperFunction,Profile*%
%ADD11C,0.150000*%
%TD*%
G04 APERTURE END LIST*
D10*
X155000000Y-26500000D02*
X124000000Y-26500000D01*
X195000000Y-41500000D02*
X182800000Y-41500000D01*
X164000000Y-26500000D02*
X195000000Y-26500000D01*
X164000000Y-41500000D02*
X177200000Y-41500000D01*
X195000000Y-101500000D02*
X182800000Y-101500000D01*
X155000000Y-101500000D02*
X142800000Y-101500000D01*
X195000000Y-86500000D02*
X182800000Y-86500000D01*
X155000000Y-86500000D02*
X142800000Y-86500000D01*
X195000000Y-71500000D02*
X182800000Y-71500000D01*
X155000000Y-71500000D02*
X142800000Y-71500000D01*
X195000000Y-56500000D02*
X182800000Y-56500000D01*
X155000000Y-56500000D02*
X142800000Y-56500000D01*
X195000000Y-41500000D02*
X182800000Y-41500000D01*
X178200000Y-100500000D02*
X178200000Y-97500000D01*
X138200000Y-100500000D02*
X138200000Y-97500000D01*
X178200000Y-85500000D02*
X178200000Y-82500000D01*
X138200000Y-85500000D02*
X138200000Y-82500000D01*
X178200000Y-70500000D02*
X178200000Y-67500000D01*
X138200000Y-70500000D02*
X138200000Y-67500000D01*
X178200000Y-55500000D02*
X178200000Y-52500000D01*
X138200000Y-55500000D02*
X138200000Y-52500000D01*
X178200000Y-40500000D02*
X178200000Y-37500000D01*
X181800000Y-100500000D02*
X181800000Y-97500000D01*
X141800000Y-100500000D02*
X141800000Y-97500000D01*
X181800000Y-85500000D02*
X181800000Y-82500000D01*
X141800000Y-85500000D02*
X141800000Y-82500000D01*
X181800000Y-70500000D02*
X181800000Y-67500000D01*
X141800000Y-70500000D02*
X141800000Y-67500000D01*
X181800000Y-55500000D02*
X181800000Y-52500000D01*
X141800000Y-55500000D02*
X141800000Y-52500000D01*
X181800000Y-40500000D02*
X181800000Y-37500000D01*
X124000000Y-111500000D02*
X155000000Y-111500000D01*
X182800000Y-96500000D02*
X195000000Y-96500000D01*
X142800000Y-96500000D02*
X155000000Y-96500000D01*
X182800000Y-81500000D02*
X195000000Y-81500000D01*
X142800000Y-81500000D02*
X155000000Y-81500000D01*
X182800000Y-66500000D02*
X195000000Y-66500000D01*
X142800000Y-66500000D02*
X155000000Y-66500000D01*
X182800000Y-51500000D02*
X195000000Y-51500000D01*
X142800000Y-51500000D02*
X155000000Y-51500000D01*
X182800000Y-36500000D02*
X195000000Y-36500000D01*
X164000000Y-101500000D02*
X177200000Y-101500000D01*
X124000000Y-101500000D02*
X137200000Y-101500000D01*
X164000000Y-86500000D02*
X177200000Y-86500000D01*
X124000000Y-86500000D02*
X137200000Y-86500000D01*
X164000000Y-71500000D02*
X177200000Y-71500000D01*
X124000000Y-71500000D02*
X137200000Y-71500000D01*
X164000000Y-56500000D02*
X177200000Y-56500000D01*
X124000000Y-56500000D02*
X137200000Y-56500000D01*
X164000000Y-41500000D02*
X177200000Y-41500000D01*
X195000000Y-111500000D02*
X164000000Y-111500000D01*
X177200000Y-96500000D02*
X164000000Y-96500000D01*
X137200000Y-96500000D02*
X124000000Y-96500000D01*
X177200000Y-81500000D02*
X164000000Y-81500000D01*
X137200000Y-81500000D02*
X124000000Y-81500000D01*
X177200000Y-66500000D02*
X164000000Y-66500000D01*
X137200000Y-66500000D02*
X124000000Y-66500000D01*
X177200000Y-51500000D02*
X164000000Y-51500000D01*
X137200000Y-51500000D02*
X124000000Y-51500000D01*
X177200000Y-36500000D02*
X164000000Y-36500000D01*
X124000000Y-41500000D02*
X137200000Y-41500000D01*
X142800000Y-36500000D02*
X155000000Y-36500000D01*
X155000000Y-41500000D02*
X142800000Y-41500000D01*
X141800000Y-40500000D02*
X141800000Y-37500000D01*
X138200000Y-40500000D02*
X138200000Y-37500000D01*
X162000000Y-109500000D02*
X162000000Y-109300000D01*
X162000000Y-94500000D02*
X162000000Y-94300000D01*
X162000000Y-79500000D02*
X162000000Y-79300000D01*
X162000000Y-64500000D02*
X162000000Y-64300000D01*
X162000000Y-49500000D02*
X162000000Y-49300000D01*
X158000000Y-108300000D02*
X161000000Y-108300000D01*
X158000000Y-93300000D02*
X161000000Y-93300000D01*
X158000000Y-78300000D02*
X161000000Y-78300000D01*
X158000000Y-63300000D02*
X161000000Y-63300000D01*
X158000000Y-48300000D02*
X161000000Y-48300000D01*
X158000000Y-104700000D02*
X161000000Y-104700000D01*
X158000000Y-89700000D02*
X161000000Y-89700000D01*
X158000000Y-74700000D02*
X161000000Y-74700000D01*
X158000000Y-59700000D02*
X161000000Y-59700000D01*
X158000000Y-44700000D02*
X161000000Y-44700000D01*
X157000000Y-103500000D02*
X157000000Y-103700000D01*
X157000000Y-88500000D02*
X157000000Y-88700000D01*
X157000000Y-73500000D02*
X157000000Y-73700000D01*
X157000000Y-58500000D02*
X157000000Y-58700000D01*
X157000000Y-43500000D02*
X157000000Y-43700000D01*
X162000000Y-103700000D02*
X162000000Y-103500000D01*
X162000000Y-88700000D02*
X162000000Y-88500000D01*
X162000000Y-73700000D02*
X162000000Y-73500000D01*
X162000000Y-58700000D02*
X162000000Y-58500000D01*
X162000000Y-43700000D02*
X162000000Y-43500000D01*
X157000000Y-109300000D02*
X157000000Y-109500000D01*
X157000000Y-94300000D02*
X157000000Y-94500000D01*
X157000000Y-79300000D02*
X157000000Y-79500000D01*
X157000000Y-64300000D02*
X157000000Y-64500000D01*
X157000000Y-49300000D02*
X157000000Y-49500000D01*
X158000000Y-29700000D02*
X161000000Y-29700000D01*
X158000000Y-33300000D02*
X161000000Y-33300000D01*
X162000000Y-34500000D02*
X162000000Y-34300000D01*
X157000000Y-28500000D02*
X157000000Y-28700000D01*
X197000000Y-103500000D02*
X197000000Y-109500000D01*
X197000000Y-88500000D02*
X197000000Y-94500000D01*
X197000000Y-73500000D02*
X197000000Y-79500000D01*
X197000000Y-58500000D02*
X197000000Y-64500000D01*
X197000000Y-43500000D02*
X197000000Y-49500000D01*
X197000000Y-28500000D02*
X197000000Y-34500000D01*
X122000000Y-109500000D02*
X122000000Y-103500000D01*
X122000000Y-94500000D02*
X122000000Y-88500000D01*
X122000000Y-79500000D02*
X122000000Y-73500000D01*
X122000000Y-64500000D02*
X122000000Y-58500000D01*
X122000000Y-49500000D02*
X122000000Y-43500000D01*
X162000000Y-28700000D02*
X162000000Y-28500000D01*
X197000000Y-109500000D02*
G75*
G02*
X195000000Y-111500000I-2000000J0D01*
G01*
X157000000Y-109500000D02*
G75*
G02*
X155000000Y-111500000I-2000000J0D01*
G01*
X197000000Y-94500000D02*
G75*
G02*
X195000000Y-96500000I-2000000J0D01*
G01*
X157000000Y-94500000D02*
G75*
G02*
X155000000Y-96500000I-2000000J0D01*
G01*
X197000000Y-79500000D02*
G75*
G02*
X195000000Y-81500000I-2000000J0D01*
G01*
X157000000Y-79500000D02*
G75*
G02*
X155000000Y-81500000I-2000000J0D01*
G01*
X197000000Y-64500000D02*
G75*
G02*
X195000000Y-66500000I-2000000J0D01*
G01*
X157000000Y-64500000D02*
G75*
G02*
X155000000Y-66500000I-2000000J0D01*
G01*
X197000000Y-49500000D02*
G75*
G02*
X195000000Y-51500000I-2000000J0D01*
G01*
X157000000Y-49500000D02*
G75*
G02*
X155000000Y-51500000I-2000000J0D01*
G01*
X197000000Y-34500000D02*
G75*
G02*
X195000000Y-36500000I-2000000J0D01*
G01*
X164000000Y-111500000D02*
G75*
G02*
X162000000Y-109500000I0J2000000D01*
G01*
X124000000Y-111500000D02*
G75*
G02*
X122000000Y-109500000I0J2000000D01*
G01*
X164000000Y-96500000D02*
G75*
G02*
X162000000Y-94500000I0J2000000D01*
G01*
X124000000Y-96500000D02*
G75*
G02*
X122000000Y-94500000I0J2000000D01*
G01*
X164000000Y-81500000D02*
G75*
G02*
X162000000Y-79500000I0J2000000D01*
G01*
X124000000Y-81500000D02*
G75*
G02*
X122000000Y-79500000I0J2000000D01*
G01*
X164000000Y-66500000D02*
G75*
G02*
X162000000Y-64500000I0J2000000D01*
G01*
X124000000Y-66500000D02*
G75*
G02*
X122000000Y-64500000I0J2000000D01*
G01*
X164000000Y-51500000D02*
G75*
G02*
X162000000Y-49500000I0J2000000D01*
G01*
X124000000Y-51500000D02*
G75*
G02*
X122000000Y-49500000I0J2000000D01*
G01*
X164000000Y-36500000D02*
G75*
G02*
X162000000Y-34500000I0J2000000D01*
G01*
X162000000Y-103500000D02*
G75*
G02*
X164000000Y-101500000I2000000J0D01*
G01*
X122000000Y-103500000D02*
G75*
G02*
X124000000Y-101500000I2000000J0D01*
G01*
X162000000Y-88500000D02*
G75*
G02*
X164000000Y-86500000I2000000J0D01*
G01*
X122000000Y-88500000D02*
G75*
G02*
X124000000Y-86500000I2000000J0D01*
G01*
X162000000Y-73500000D02*
G75*
G02*
X164000000Y-71500000I2000000J0D01*
G01*
X122000000Y-73500000D02*
G75*
G02*
X124000000Y-71500000I2000000J0D01*
G01*
X162000000Y-58500000D02*
G75*
G02*
X164000000Y-56500000I2000000J0D01*
G01*
X122000000Y-58500000D02*
G75*
G02*
X124000000Y-56500000I2000000J0D01*
G01*
X162000000Y-43500000D02*
G75*
G02*
X164000000Y-41500000I2000000J0D01*
G01*
X122000000Y-43500000D02*
G75*
G02*
X124000000Y-41500000I2000000J0D01*
G01*
X162000000Y-28500000D02*
G75*
G02*
X164000000Y-26500000I2000000J0D01*
G01*
X195000000Y-101500000D02*
G75*
G02*
X197000000Y-103500000I0J-2000000D01*
G01*
X155000000Y-101500000D02*
G75*
G02*
X157000000Y-103500000I0J-2000000D01*
G01*
X195000000Y-86500000D02*
G75*
G02*
X197000000Y-88500000I0J-2000000D01*
G01*
X155000000Y-86500000D02*
G75*
G02*
X157000000Y-88500000I0J-2000000D01*
G01*
X195000000Y-71500000D02*
G75*
G02*
X197000000Y-73500000I0J-2000000D01*
G01*
X155000000Y-71500000D02*
G75*
G02*
X157000000Y-73500000I0J-2000000D01*
G01*
X195000000Y-56500000D02*
G75*
G02*
X197000000Y-58500000I0J-2000000D01*
G01*
X155000000Y-56500000D02*
G75*
G02*
X157000000Y-58500000I0J-2000000D01*
G01*
X195000000Y-41500000D02*
G75*
G02*
X197000000Y-43500000I0J-2000000D01*
G01*
X155000000Y-41500000D02*
G75*
G02*
X157000000Y-43500000I0J-2000000D01*
G01*
X195000000Y-26500000D02*
G75*
G02*
X197000000Y-28500000I0J-2000000D01*
G01*
X157000000Y-34500000D02*
G75*
G02*
X155000000Y-36500000I-2000000J0D01*
G01*
X155000000Y-26500000D02*
G75*
G02*
X157000000Y-28500000I0J-2000000D01*
G01*
X124000000Y-36500000D02*
G75*
G02*
X122000000Y-34500000I0J2000000D01*
G01*
X122000000Y-28500000D02*
G75*
G02*
X124000000Y-26500000I2000000J0D01*
G01*
X122000000Y-34500000D02*
X122000000Y-28500000D01*
X137200000Y-36500000D02*
X124000000Y-36500000D01*
X157000000Y-34300000D02*
X157000000Y-34500000D01*
D11*
%TO.C,mouse-bite-3mm-slot*%
X177200000Y-41500000D02*
G75*
G03*
X178200000Y-40500000I0J1000000D01*
G01*
X182800000Y-41500000D02*
G75*
G02*
X181800000Y-40500000I0J1000000D01*
G01*
X177200000Y-96500000D02*
G75*
G02*
X178200000Y-97500000I0J-1000000D01*
G01*
X182800000Y-96500000D02*
G75*
G03*
X181800000Y-97500000I0J-1000000D01*
G01*
X137200000Y-96500000D02*
G75*
G02*
X138200000Y-97500000I0J-1000000D01*
G01*
X142800000Y-96500000D02*
G75*
G03*
X141800000Y-97500000I0J-1000000D01*
G01*
X177200000Y-81500000D02*
G75*
G02*
X178200000Y-82500000I0J-1000000D01*
G01*
X182800000Y-81500000D02*
G75*
G03*
X181800000Y-82500000I0J-1000000D01*
G01*
X137200000Y-81500000D02*
G75*
G02*
X138200000Y-82500000I0J-1000000D01*
G01*
X142800000Y-81500000D02*
G75*
G03*
X141800000Y-82500000I0J-1000000D01*
G01*
X177200000Y-66500000D02*
G75*
G02*
X178200000Y-67500000I0J-1000000D01*
G01*
X182800000Y-66500000D02*
G75*
G03*
X181800000Y-67500000I0J-1000000D01*
G01*
X137200000Y-66500000D02*
G75*
G02*
X138200000Y-67500000I0J-1000000D01*
G01*
X142800000Y-66500000D02*
G75*
G03*
X141800000Y-67500000I0J-1000000D01*
G01*
X177200000Y-51500000D02*
G75*
G02*
X178200000Y-52500000I0J-1000000D01*
G01*
X182800000Y-51500000D02*
G75*
G03*
X181800000Y-52500000I0J-1000000D01*
G01*
X137200000Y-51500000D02*
G75*
G02*
X138200000Y-52500000I0J-1000000D01*
G01*
X142800000Y-51500000D02*
G75*
G03*
X141800000Y-52500000I0J-1000000D01*
G01*
X177200000Y-36500000D02*
G75*
G02*
X178200000Y-37500000I0J-1000000D01*
G01*
X182800000Y-36500000D02*
G75*
G03*
X181800000Y-37500000I0J-1000000D01*
G01*
X177200000Y-101500000D02*
G75*
G03*
X178200000Y-100500000I0J1000000D01*
G01*
X182800000Y-101500000D02*
G75*
G02*
X181800000Y-100500000I0J1000000D01*
G01*
X137200000Y-101500000D02*
G75*
G03*
X138200000Y-100500000I0J1000000D01*
G01*
X142800000Y-101500000D02*
G75*
G02*
X141800000Y-100500000I0J1000000D01*
G01*
X177200000Y-86500000D02*
G75*
G03*
X178200000Y-85500000I0J1000000D01*
G01*
X182800000Y-86500000D02*
G75*
G02*
X181800000Y-85500000I0J1000000D01*
G01*
X137200000Y-86500000D02*
G75*
G03*
X138200000Y-85500000I0J1000000D01*
G01*
X142800000Y-86500000D02*
G75*
G02*
X141800000Y-85500000I0J1000000D01*
G01*
X177200000Y-71500000D02*
G75*
G03*
X178200000Y-70500000I0J1000000D01*
G01*
X182800000Y-71500000D02*
G75*
G02*
X181800000Y-70500000I0J1000000D01*
G01*
X137200000Y-71500000D02*
G75*
G03*
X138200000Y-70500000I0J1000000D01*
G01*
X142800000Y-71500000D02*
G75*
G02*
X141800000Y-70500000I0J1000000D01*
G01*
X177200000Y-56500000D02*
G75*
G03*
X178200000Y-55500000I0J1000000D01*
G01*
X182800000Y-56500000D02*
G75*
G02*
X181800000Y-55500000I0J1000000D01*
G01*
X137200000Y-56500000D02*
G75*
G03*
X138200000Y-55500000I0J1000000D01*
G01*
X142800000Y-56500000D02*
G75*
G02*
X141800000Y-55500000I0J1000000D01*
G01*
X177200000Y-41500000D02*
G75*
G03*
X178200000Y-40500000I0J1000000D01*
G01*
X182800000Y-41500000D02*
G75*
G02*
X181800000Y-40500000I0J1000000D01*
G01*
X142800000Y-41500000D02*
G75*
G02*
X141800000Y-40500000I0J1000000D01*
G01*
X137200000Y-41500000D02*
G75*
G03*
X138200000Y-40500000I0J1000000D01*
G01*
X142800000Y-36500000D02*
G75*
G03*
X141800000Y-37500000I0J-1000000D01*
G01*
X137200000Y-36500000D02*
G75*
G02*
X138200000Y-37500000I0J-1000000D01*
G01*
X157000000Y-109300000D02*
G75*
G02*
X158000000Y-108300000I1000000J0D01*
G01*
X157000000Y-103700000D02*
G75*
G03*
X158000000Y-104700000I1000000J0D01*
G01*
X157000000Y-94300000D02*
G75*
G02*
X158000000Y-93300000I1000000J0D01*
G01*
X157000000Y-88700000D02*
G75*
G03*
X158000000Y-89700000I1000000J0D01*
G01*
X157000000Y-79300000D02*
G75*
G02*
X158000000Y-78300000I1000000J0D01*
G01*
X157000000Y-73700000D02*
G75*
G03*
X158000000Y-74700000I1000000J0D01*
G01*
X157000000Y-64300000D02*
G75*
G02*
X158000000Y-63300000I1000000J0D01*
G01*
X157000000Y-58700000D02*
G75*
G03*
X158000000Y-59700000I1000000J0D01*
G01*
X157000000Y-49300000D02*
G75*
G02*
X158000000Y-48300000I1000000J0D01*
G01*
X157000000Y-43700000D02*
G75*
G03*
X158000000Y-44700000I1000000J0D01*
G01*
X162000000Y-109300000D02*
G75*
G03*
X161000000Y-108300000I-1000000J0D01*
G01*
X162000000Y-103700000D02*
G75*
G02*
X161000000Y-104700000I-1000000J0D01*
G01*
X162000000Y-94300000D02*
G75*
G03*
X161000000Y-93300000I-1000000J0D01*
G01*
X162000000Y-88700000D02*
G75*
G02*
X161000000Y-89700000I-1000000J0D01*
G01*
X162000000Y-79300000D02*
G75*
G03*
X161000000Y-78300000I-1000000J0D01*
G01*
X162000000Y-73700000D02*
G75*
G02*
X161000000Y-74700000I-1000000J0D01*
G01*
X162000000Y-64300000D02*
G75*
G03*
X161000000Y-63300000I-1000000J0D01*
G01*
X162000000Y-58700000D02*
G75*
G02*
X161000000Y-59700000I-1000000J0D01*
G01*
X162000000Y-49300000D02*
G75*
G03*
X161000000Y-48300000I-1000000J0D01*
G01*
X162000000Y-43700000D02*
G75*
G02*
X161000000Y-44700000I-1000000J0D01*
G01*
X162000000Y-28700000D02*
G75*
G02*
X161000000Y-29700000I-1000000J0D01*
G01*
X162000000Y-34300000D02*
G75*
G03*
X161000000Y-33300000I-1000000J0D01*
G01*
X157000000Y-28700000D02*
G75*
G03*
X158000000Y-29700000I1000000J0D01*
G01*
X157000000Y-34300000D02*
G75*
G02*
X158000000Y-33300000I1000000J0D01*
G01*
%TD*%
M02*
