%TF.GenerationSoftware,KiCad,Pcbnew,(5.1.11)-1*%
%TF.CreationDate,2022-09-03T23:45:10+07:00*%
%TF.ProjectId,Plate,506c6174-652e-46b6-9963-61645f706362,rev?*%
%TF.SameCoordinates,Original*%
%TF.FileFunction,Soldermask,Bot*%
%TF.FilePolarity,Negative*%
%FSLAX46Y46*%
G04 Gerber Fmt 4.6, Leading zero omitted, Abs format (unit mm)*
G04 Created by KiCad (PCBNEW (5.1.11)-1) date 2022-09-03 23:45:10*
%MOMM*%
%LPD*%
G01*
G04 APERTURE LIST*
%ADD10C,3.000000*%
G04 APERTURE END LIST*
D10*
X5406250Y-92725000D02*
G75*
G02*
X4906250Y-92225000I0J500000D01*
G01*
X195406250Y-79225000D02*
G75*
G02*
X195906250Y-78725000I500000J0D01*
G01*
X195406250Y-92225000D02*
X195406250Y-79225000D01*
X195906250Y-92725000D02*
G75*
G02*
X195406250Y-92225000I0J500000D01*
G01*
X208906250Y-92725000D02*
X195906250Y-92725000D01*
X209406250Y-92225000D02*
G75*
G02*
X208906250Y-92725000I-500000J0D01*
G01*
X209406250Y-79225000D02*
X209406250Y-92225000D01*
X208906250Y-78725000D02*
G75*
G02*
X209406250Y-79225000I0J-500000D01*
G01*
X203525000Y-78725000D02*
X208906250Y-78725000D01*
X203525000Y-77225000D02*
X203525000Y-78725000D01*
X203025000Y-76725000D02*
G75*
G02*
X203525000Y-77225000I0J-500000D01*
G01*
X197025000Y-76725000D02*
X203025000Y-76725000D01*
X196525000Y-77225000D02*
G75*
G02*
X197025000Y-76725000I500000J0D01*
G01*
X196525000Y-78725000D02*
X196525000Y-77225000D01*
X195906250Y-78725000D02*
X196525000Y-78725000D01*
X177968750Y-91725000D02*
G75*
G02*
X177468750Y-91225000I0J500000D01*
G01*
X183968750Y-91725000D02*
X177968750Y-91725000D01*
X184468750Y-91225000D02*
G75*
G02*
X183968750Y-91725000I-500000J0D01*
G01*
X184468750Y-77225000D02*
X184468750Y-91225000D01*
X183968750Y-76725000D02*
G75*
G02*
X184468750Y-77225000I0J-500000D01*
G01*
X177968750Y-76725000D02*
X183968750Y-76725000D01*
X177468750Y-77225000D02*
G75*
G02*
X177968750Y-76725000I500000J0D01*
G01*
X177468750Y-91225000D02*
X177468750Y-77225000D01*
X89225000Y-91225000D02*
G75*
G02*
X88725000Y-91725000I-500000J0D01*
G01*
X89225000Y-77225000D02*
X89225000Y-91225000D01*
X88725000Y-76725000D02*
G75*
G02*
X89225000Y-77225000I0J-500000D01*
G01*
X77968750Y-76725000D02*
X88725000Y-76725000D01*
X77468750Y-77225000D02*
G75*
G02*
X77968750Y-76725000I500000J0D01*
G01*
X77468750Y-91225000D02*
X77468750Y-77225000D01*
X77968750Y-91725000D02*
G75*
G02*
X77468750Y-91225000I0J500000D01*
G01*
X88725000Y-91725000D02*
X77968750Y-91725000D01*
X173975000Y-3024999D02*
G75*
G02*
X174475000Y-2524999I500000J0D01*
G01*
X173975000Y-16024999D02*
X173975000Y-3025000D01*
X174474999Y-16525000D02*
G75*
G02*
X173975000Y-16024999I1J500000D01*
G01*
X187475000Y-16525000D02*
X174475000Y-16525000D01*
X187975001Y-16024999D02*
G75*
G02*
X187475000Y-16525000I-500001J0D01*
G01*
X187975000Y-3025000D02*
X187975000Y-16024999D01*
X187475001Y-2524999D02*
G75*
G02*
X187975000Y-3025000I-1J-500000D01*
G01*
X174475000Y-2524999D02*
X187475000Y-2524999D01*
X212075000Y-3024999D02*
G75*
G02*
X212575000Y-2524999I500000J0D01*
G01*
X212075000Y-16024999D02*
X212075000Y-3025000D01*
X212574999Y-16525000D02*
G75*
G02*
X212075000Y-16024999I1J500000D01*
G01*
X225575000Y-16525000D02*
X212575000Y-16525000D01*
X226075001Y-16024999D02*
G75*
G02*
X225575000Y-16525000I-500001J0D01*
G01*
X226075000Y-3025000D02*
X226075000Y-16024999D01*
X225575001Y-2524999D02*
G75*
G02*
X226075000Y-3025000I-1J-500000D01*
G01*
X212575000Y-2524999D02*
X225575000Y-2524999D01*
X7287500Y-22075000D02*
G75*
G02*
X7787500Y-21575000I500000J0D01*
G01*
X7287500Y-35075000D02*
X7287500Y-22074999D01*
X7787500Y-35575000D02*
G75*
G02*
X7287500Y-35075000I0J500000D01*
G01*
X20787500Y-35575000D02*
X7787500Y-35575000D01*
X21287500Y-35075000D02*
G75*
G02*
X20787500Y-35575000I-500000J0D01*
G01*
X21287500Y-22075000D02*
X21287500Y-35075000D01*
X20787500Y-21575000D02*
G75*
G02*
X21287500Y-22075000I0J-500000D01*
G01*
X7787500Y-21575000D02*
X20787500Y-21575000D01*
X193025000Y-3024999D02*
G75*
G02*
X193525000Y-2524999I500000J0D01*
G01*
X193025000Y-16024999D02*
X193025000Y-3025000D01*
X193524999Y-16525000D02*
G75*
G02*
X193025000Y-16024999I1J500000D01*
G01*
X206525000Y-16525000D02*
X193525000Y-16525000D01*
X207025001Y-16024999D02*
G75*
G02*
X206525000Y-16525000I-500001J0D01*
G01*
X207025000Y-3025000D02*
X207025000Y-16024999D01*
X206525001Y-2524999D02*
G75*
G02*
X207025000Y-3025000I-1J-500000D01*
G01*
X193525000Y-2524999D02*
X206525000Y-2524999D01*
X231125000Y-3024999D02*
G75*
G02*
X231625000Y-2524999I500000J0D01*
G01*
X231125000Y-16024999D02*
X231125000Y-3025000D01*
X231624999Y-16525000D02*
G75*
G02*
X231125000Y-16024999I1J500000D01*
G01*
X244625000Y-16525000D02*
X231625000Y-16525000D01*
X245125001Y-16024999D02*
G75*
G02*
X244625000Y-16525000I-500001J0D01*
G01*
X245125000Y-3025000D02*
X245125000Y-16024999D01*
X244625001Y-2524999D02*
G75*
G02*
X245125000Y-3025000I-1J-500000D01*
G01*
X231625000Y-2524999D02*
X244625000Y-2524999D01*
X282725001Y-2524999D02*
G75*
G02*
X283225000Y-3025000I-1J-500000D01*
G01*
X250675000Y-2525000D02*
X282725000Y-2524999D01*
X250175000Y-3025000D02*
G75*
G02*
X250675000Y-2525000I500000J0D01*
G01*
X250175000Y-16024999D02*
X250175000Y-3025000D01*
X250674999Y-16525000D02*
G75*
G02*
X250175000Y-16024999I1J500000D01*
G01*
X251262000Y-16524999D02*
X250675000Y-16525000D01*
X251262000Y-18025000D02*
X251262000Y-16524999D01*
X251762000Y-18525000D02*
G75*
G02*
X251262000Y-18025000I0J500000D01*
G01*
X257762000Y-18525000D02*
X251762000Y-18525000D01*
X258262000Y-18025000D02*
G75*
G02*
X257762000Y-18525000I-500000J0D01*
G01*
X258262000Y-16524999D02*
X258262000Y-18025000D01*
X275138000Y-16524999D02*
X258262000Y-16524999D01*
X275138000Y-18025000D02*
X275138000Y-16524999D01*
X275638001Y-18524999D02*
G75*
G02*
X275138000Y-18025000I-1J500000D01*
G01*
X281638000Y-18525000D02*
X275638000Y-18525000D01*
X282138000Y-18025000D02*
G75*
G02*
X281638000Y-18525000I-500000J0D01*
G01*
X282138000Y-16524999D02*
X282138000Y-18025000D01*
X282725000Y-16525000D02*
X282138000Y-16524999D01*
X283225001Y-16024999D02*
G75*
G02*
X282725000Y-16525000I-500001J0D01*
G01*
X283225000Y-3025000D02*
X283225000Y-16024999D01*
X154925000Y-3024999D02*
G75*
G02*
X155425000Y-2524999I500000J0D01*
G01*
X154925000Y-16024999D02*
X154925000Y-3025000D01*
X155424999Y-16525000D02*
G75*
G02*
X154925000Y-16024999I1J500000D01*
G01*
X168425000Y-16525000D02*
X155425000Y-16525000D01*
X168925001Y-16024999D02*
G75*
G02*
X168425000Y-16525000I-500001J0D01*
G01*
X168925000Y-3025000D02*
X168925000Y-16024999D01*
X168425001Y-2524999D02*
G75*
G02*
X168925000Y-3025000I-1J-500000D01*
G01*
X155425000Y-2524999D02*
X168425000Y-2524999D01*
X135875000Y-3024999D02*
G75*
G02*
X136375000Y-2524999I500000J0D01*
G01*
X135875000Y-16024999D02*
X135875000Y-3025000D01*
X136374999Y-16525000D02*
G75*
G02*
X135875000Y-16024999I1J500000D01*
G01*
X149375000Y-16525000D02*
X136375000Y-16525000D01*
X149875001Y-16024999D02*
G75*
G02*
X149375000Y-16525000I-500001J0D01*
G01*
X149875000Y-3025000D02*
X149875000Y-16024999D01*
X149375001Y-2524999D02*
G75*
G02*
X149875000Y-3025000I-1J-500000D01*
G01*
X136375000Y-2524999D02*
X149375000Y-2524999D01*
X116825000Y-3024999D02*
G75*
G02*
X117325000Y-2524999I500000J0D01*
G01*
X116825000Y-16024999D02*
X116825000Y-3025000D01*
X117324999Y-16525000D02*
G75*
G02*
X116825000Y-16024999I1J500000D01*
G01*
X130324999Y-16525000D02*
X117325000Y-16525000D01*
X130825000Y-16024999D02*
G75*
G02*
X130324999Y-16525000I-500001J0D01*
G01*
X130824999Y-3025000D02*
X130824999Y-16024999D01*
X130325000Y-2524999D02*
G75*
G02*
X130824999Y-3025000I-1J-500000D01*
G01*
X117325000Y-2524999D02*
X130324999Y-2524999D01*
X97775000Y-3024999D02*
G75*
G02*
X98275000Y-2524999I500000J0D01*
G01*
X97775000Y-16024999D02*
X97775000Y-3025000D01*
X98274999Y-16525000D02*
G75*
G02*
X97775000Y-16024999I1J500000D01*
G01*
X111275000Y-16525000D02*
X98275000Y-16525000D01*
X111775001Y-16024999D02*
G75*
G02*
X111275000Y-16525000I-500001J0D01*
G01*
X111775000Y-3025000D02*
X111775000Y-16024999D01*
X111275000Y-2525000D02*
G75*
G02*
X111775000Y-3025000I0J-500000D01*
G01*
X98275000Y-2524999D02*
X111275000Y-2524999D01*
X40624999Y-3025000D02*
G75*
G02*
X41125000Y-2524999I500001J0D01*
G01*
X40625000Y-16024999D02*
X40624999Y-3025000D01*
X41125000Y-16524999D02*
G75*
G02*
X40625000Y-16024999I0J500000D01*
G01*
X54125000Y-16525000D02*
X41125000Y-16524999D01*
X54625000Y-16025000D02*
G75*
G02*
X54125000Y-16525000I-500000J0D01*
G01*
X54625000Y-3025000D02*
X54625000Y-16024999D01*
X54125001Y-2524999D02*
G75*
G02*
X54625000Y-3025000I-1J-500000D01*
G01*
X41125000Y-2524999D02*
X54125000Y-2525000D01*
X78725000Y-3024999D02*
G75*
G02*
X79225000Y-2524999I500000J0D01*
G01*
X78725000Y-16024999D02*
X78725000Y-3025000D01*
X79225000Y-16524999D02*
G75*
G02*
X78725000Y-16024999I0J500000D01*
G01*
X92225000Y-16525000D02*
X79225000Y-16524999D01*
X92725001Y-16024999D02*
G75*
G02*
X92225000Y-16525000I-500001J0D01*
G01*
X92725000Y-3025000D02*
X92725000Y-16024999D01*
X92225000Y-2525000D02*
G75*
G02*
X92725000Y-3025000I0J-500000D01*
G01*
X79225000Y-2524999D02*
X92225000Y-2524999D01*
X59675000Y-3024999D02*
G75*
G02*
X60175000Y-2524999I500000J0D01*
G01*
X59675000Y-16024999D02*
X59675000Y-3025000D01*
X60174999Y-16525000D02*
G75*
G02*
X59675000Y-16024999I1J500000D01*
G01*
X73175000Y-16525000D02*
X60175000Y-16524999D01*
X73675001Y-16024999D02*
G75*
G02*
X73175000Y-16525000I-500001J0D01*
G01*
X73675000Y-3025000D02*
X73675000Y-16024999D01*
X73175000Y-2525000D02*
G75*
G02*
X73675000Y-3025000I0J-500000D01*
G01*
X60175000Y-2524999D02*
X73175000Y-2525000D01*
X21575000Y-3024999D02*
G75*
G02*
X22075000Y-2524999I500000J0D01*
G01*
X21575000Y-16024999D02*
X21574999Y-3025000D01*
X22075000Y-16524999D02*
G75*
G02*
X21575000Y-16024999I0J500000D01*
G01*
X35075000Y-16525000D02*
X22075000Y-16524999D01*
X35575001Y-16024999D02*
G75*
G02*
X35075000Y-16525000I-500001J0D01*
G01*
X35575000Y-3025000D02*
X35575000Y-16024999D01*
X35075000Y-2525000D02*
G75*
G02*
X35575000Y-3025000I0J-500000D01*
G01*
X22075000Y-2524999D02*
X35075000Y-2525000D01*
X102537500Y-60175000D02*
G75*
G02*
X103037500Y-59675000I500000J0D01*
G01*
X102537500Y-73175000D02*
X102537500Y-60175000D01*
X103037500Y-73675000D02*
G75*
G02*
X102537500Y-73175000I0J500000D01*
G01*
X116037500Y-73675000D02*
X103037500Y-73675000D01*
X116537500Y-73175000D02*
G75*
G02*
X116037500Y-73675000I-500000J0D01*
G01*
X116537500Y-60175000D02*
X116537500Y-73175000D01*
X116037500Y-59675000D02*
G75*
G02*
X116537500Y-60175000I0J-500000D01*
G01*
X103037500Y-59675000D02*
X116037500Y-59675000D01*
X2524999Y-3025000D02*
G75*
G02*
X3025000Y-2524999I500001J0D01*
G01*
X2525000Y-16024999D02*
X2524999Y-3025000D01*
X3025000Y-16524999D02*
G75*
G02*
X2525000Y-16024999I0J500000D01*
G01*
X16024999Y-16525000D02*
X3025000Y-16525000D01*
X16525000Y-16024999D02*
G75*
G02*
X16024999Y-16525000I-500001J0D01*
G01*
X16525000Y-3025000D02*
X16525000Y-16024999D01*
X16024999Y-2524999D02*
G75*
G02*
X16525000Y-3025000I0J-500001D01*
G01*
X3025000Y-2524999D02*
X16024999Y-2524999D01*
X178737500Y-60175000D02*
G75*
G02*
X179237500Y-59675000I500000J0D01*
G01*
X178737500Y-73175000D02*
X178737500Y-60175000D01*
X179237500Y-73675000D02*
G75*
G02*
X178737500Y-73175000I0J500000D01*
G01*
X192237500Y-73675000D02*
X179237500Y-73675000D01*
X192737501Y-73174999D02*
G75*
G02*
X192237500Y-73675000I-500001J0D01*
G01*
X192737500Y-60175000D02*
X192737500Y-73175000D01*
X192237500Y-59675000D02*
G75*
G02*
X192737500Y-60175000I0J-500000D01*
G01*
X179237500Y-59675000D02*
X192237500Y-59675000D01*
X64437500Y-60175000D02*
G75*
G02*
X64937500Y-59675000I500000J0D01*
G01*
X64437500Y-73175000D02*
X64437500Y-60175000D01*
X64937500Y-73675000D02*
G75*
G02*
X64437500Y-73175000I0J500000D01*
G01*
X77937500Y-73675000D02*
X64937500Y-73675000D01*
X78437500Y-73175000D02*
G75*
G02*
X77937500Y-73675000I-500000J0D01*
G01*
X78437500Y-60175000D02*
X78437500Y-73175000D01*
X77937500Y-59675000D02*
G75*
G02*
X78437500Y-60175000I0J-500000D01*
G01*
X64937500Y-59675000D02*
X77937500Y-59675000D01*
X140637500Y-60175000D02*
G75*
G02*
X141137500Y-59675000I500000J0D01*
G01*
X140637500Y-73175000D02*
X140637500Y-60175000D01*
X141137500Y-73675000D02*
G75*
G02*
X140637500Y-73175000I0J500000D01*
G01*
X154137500Y-73675000D02*
X141137500Y-73675000D01*
X154637501Y-73174999D02*
G75*
G02*
X154137500Y-73675000I-500001J0D01*
G01*
X154637500Y-60175000D02*
X154637500Y-73175000D01*
X154137500Y-59675000D02*
G75*
G02*
X154637500Y-60175000I0J-500000D01*
G01*
X141137500Y-59675000D02*
X154137500Y-59675000D01*
X58887500Y-59675000D02*
G75*
G02*
X59387500Y-60175000I0J-500000D01*
G01*
X45887500Y-59675000D02*
X58887500Y-59675000D01*
X45387500Y-60175000D02*
G75*
G02*
X45887500Y-59675000I500000J0D01*
G01*
X45387500Y-73175000D02*
X45387500Y-60175000D01*
X45887500Y-73675000D02*
G75*
G02*
X45387500Y-73175000I0J500000D01*
G01*
X58887500Y-73675000D02*
X45887500Y-73675000D01*
X59387500Y-73175000D02*
G75*
G02*
X58887500Y-73675000I-500000J0D01*
G01*
X59387500Y-60175000D02*
X59387500Y-73175000D01*
X159687500Y-60175000D02*
G75*
G02*
X160187500Y-59675000I500000J0D01*
G01*
X159687500Y-73175000D02*
X159687500Y-60175000D01*
X160187500Y-73675000D02*
G75*
G02*
X159687500Y-73175000I0J500000D01*
G01*
X173187500Y-73675000D02*
X160187500Y-73675000D01*
X173687501Y-73174999D02*
G75*
G02*
X173187500Y-73675000I-500001J0D01*
G01*
X173687500Y-60175000D02*
X173687500Y-73175000D01*
X173187500Y-59675000D02*
G75*
G02*
X173687500Y-60175000I0J-500000D01*
G01*
X160187500Y-59675000D02*
X173187500Y-59675000D01*
X121587500Y-60175000D02*
G75*
G02*
X122087500Y-59675000I500000J0D01*
G01*
X121587500Y-73175000D02*
X121587500Y-60175000D01*
X122087500Y-73675000D02*
G75*
G02*
X121587500Y-73175000I0J500000D01*
G01*
X135087500Y-73675000D02*
X122087500Y-73675000D01*
X135587500Y-73175000D02*
G75*
G02*
X135087500Y-73675000I-500000J0D01*
G01*
X135587500Y-60175000D02*
X135587500Y-73175000D01*
X135087500Y-59675000D02*
G75*
G02*
X135587500Y-60175000I0J-500000D01*
G01*
X122087500Y-59675000D02*
X135087500Y-59675000D01*
X197787500Y-60175000D02*
G75*
G02*
X198287500Y-59675000I500000J0D01*
G01*
X197787500Y-73175000D02*
X197787500Y-60175000D01*
X198287500Y-73675000D02*
G75*
G02*
X197787500Y-73175000I0J500000D01*
G01*
X211287500Y-73675000D02*
X198287500Y-73675000D01*
X211787501Y-73174999D02*
G75*
G02*
X211287500Y-73675000I-500001J0D01*
G01*
X211787500Y-60175000D02*
X211787500Y-73175000D01*
X211287500Y-59675000D02*
G75*
G02*
X211787500Y-60175000I0J-500000D01*
G01*
X198287500Y-59675000D02*
X211287500Y-59675000D01*
X83487499Y-60174999D02*
G75*
G02*
X83987500Y-59675000I500000J-1D01*
G01*
X83487499Y-73175000D02*
X83487499Y-60175000D01*
X83987500Y-73675001D02*
G75*
G02*
X83487499Y-73175000I0J500001D01*
G01*
X96987500Y-73675000D02*
X83987500Y-73675000D01*
X97487500Y-73175000D02*
G75*
G02*
X96987500Y-73675000I-500000J0D01*
G01*
X97487500Y-60175000D02*
X97487500Y-73175000D01*
X96987500Y-59675000D02*
G75*
G02*
X97487500Y-60175000I0J-500000D01*
G01*
X83987500Y-59675000D02*
X96987500Y-59675000D01*
X216837500Y-60175000D02*
G75*
G02*
X217337500Y-59675000I500000J0D01*
G01*
X216837500Y-73175000D02*
X216837500Y-60175000D01*
X217337500Y-73675000D02*
G75*
G02*
X216837500Y-73175000I0J500000D01*
G01*
X230337500Y-73675000D02*
X217337500Y-73675000D01*
X230837501Y-73174999D02*
G75*
G02*
X230337500Y-73675000I-500001J0D01*
G01*
X230837500Y-60175000D02*
X230837500Y-73175000D01*
X230337500Y-59675000D02*
G75*
G02*
X230837500Y-60175000I0J-500000D01*
G01*
X217337500Y-59675000D02*
X230337500Y-59675000D01*
X280843750Y-92225000D02*
G75*
G02*
X280343750Y-92725000I-500000J0D01*
G01*
X280843750Y-79225000D02*
X280843750Y-92225000D01*
X280343750Y-78725000D02*
G75*
G02*
X280843750Y-79225000I0J-500000D01*
G01*
X264962499Y-78725000D02*
X280343750Y-78725000D01*
X264462499Y-79225000D02*
G75*
G02*
X264962499Y-78725000I500000J0D01*
G01*
X264462499Y-92225000D02*
X264462499Y-79225000D01*
X264962499Y-92725000D02*
G75*
G02*
X264462499Y-92225000I0J500000D01*
G01*
X280343750Y-92725000D02*
X264962499Y-92725000D01*
X149375000Y-78725000D02*
G75*
G02*
X149875000Y-79225000I0J-500000D01*
G01*
X124468750Y-78725000D02*
X149375000Y-78725000D01*
X123968750Y-79225000D02*
G75*
G02*
X124468750Y-78725000I500000J0D01*
G01*
X123968750Y-92225000D02*
X123968750Y-79225000D01*
X124468750Y-92725000D02*
G75*
G02*
X123968750Y-92225000I0J500000D01*
G01*
X149375000Y-92725000D02*
X124468750Y-92725000D01*
X149875000Y-92225000D02*
G75*
G02*
X149375000Y-92725000I-500000J0D01*
G01*
X149875000Y-79225000D02*
X149875000Y-92225000D01*
X256531250Y-78725000D02*
G75*
G02*
X257031250Y-79225000I0J-500000D01*
G01*
X241150000Y-78725000D02*
X256531250Y-78725000D01*
X240650000Y-79225000D02*
G75*
G02*
X241150000Y-78725000I500000J0D01*
G01*
X240650000Y-92225000D02*
X240650000Y-79225000D01*
X241150001Y-92724999D02*
G75*
G02*
X240650000Y-92225000I-1J500000D01*
G01*
X256531250Y-92725000D02*
X241150000Y-92725000D01*
X257031251Y-92224999D02*
G75*
G02*
X256531250Y-92725000I-500001J0D01*
G01*
X257031250Y-79225000D02*
X257031250Y-92225000D01*
X232718750Y-78725000D02*
G75*
G02*
X233218750Y-79225000I0J-500000D01*
G01*
X217337500Y-78725000D02*
X232718750Y-78725000D01*
X216837500Y-79225000D02*
G75*
G02*
X217337500Y-78725000I500000J0D01*
G01*
X216837500Y-92225000D02*
X216837500Y-79225000D01*
X217337500Y-92725000D02*
G75*
G02*
X216837500Y-92225000I0J500000D01*
G01*
X232718750Y-92725000D02*
X217337500Y-92725000D01*
X233218751Y-92224999D02*
G75*
G02*
X232718750Y-92725000I-500001J0D01*
G01*
X233218750Y-79225000D02*
X233218750Y-92225000D01*
X28718750Y-79225000D02*
G75*
G02*
X29218750Y-78725000I500000J0D01*
G01*
X28718750Y-92225000D02*
X28718750Y-79225000D01*
X29218750Y-92725000D02*
G75*
G02*
X28718750Y-92225000I0J500000D01*
G01*
X44600000Y-92725000D02*
X29218750Y-92725000D01*
X45100000Y-92225000D02*
G75*
G02*
X44600000Y-92725000I-500000J0D01*
G01*
X45099999Y-79225000D02*
X45100000Y-92225000D01*
X44599999Y-78725000D02*
G75*
G02*
X45099999Y-79225000I0J-500000D01*
G01*
X29218750Y-78725000D02*
X44600000Y-78725000D01*
X4906250Y-79225000D02*
G75*
G02*
X5406250Y-78725000I500000J0D01*
G01*
X4906250Y-92225000D02*
X4906250Y-79225000D01*
X20787500Y-92725000D02*
X5406249Y-92725000D01*
X21287499Y-92224999D02*
G75*
G02*
X20787500Y-92725000I-500000J-1D01*
G01*
X21287500Y-79225000D02*
X21287500Y-92225000D01*
X20787500Y-78725000D02*
G75*
G02*
X21287500Y-79225000I0J-500000D01*
G01*
X5406250Y-78725000D02*
X20787500Y-78725000D01*
X52531250Y-79225000D02*
G75*
G02*
X53031250Y-78725000I500000J0D01*
G01*
X52531250Y-92225000D02*
X52531250Y-79225000D01*
X53031250Y-92725000D02*
G75*
G02*
X52531250Y-92225000I0J500000D01*
G01*
X68412500Y-92725000D02*
X53031250Y-92725000D01*
X68912500Y-92224998D02*
G75*
G02*
X68412500Y-92725000I-500001J-1D01*
G01*
X68912500Y-79225000D02*
X68912500Y-92225000D01*
X68412500Y-78725000D02*
G75*
G02*
X68912500Y-79225000I0J-500000D01*
G01*
X53031250Y-78725000D02*
X68412500Y-78725000D01*
X267994250Y-60066129D02*
X267994250Y-73044085D01*
X267994251Y-60066129D02*
G75*
G02*
X268482742Y-59675000I488002J-108870D01*
G01*
X282725000Y-59675000D02*
X268482742Y-59675000D01*
X282725000Y-59675000D02*
G75*
G02*
X283225000Y-60175000I0J-500000D01*
G01*
X283225000Y-73175000D02*
X283225000Y-60175000D01*
X283225000Y-73175000D02*
G75*
G02*
X282725000Y-73675000I-500000J0D01*
G01*
X274994250Y-73675000D02*
X282725000Y-73675000D01*
X274994250Y-75175000D02*
X274994250Y-73675000D01*
X274994250Y-75175000D02*
G75*
G02*
X274494250Y-75675000I-500000J0D01*
G01*
X268494250Y-75675000D02*
X274494250Y-75675000D01*
X268494250Y-75675000D02*
G75*
G02*
X267994250Y-75175000I0J500000D01*
G01*
X267994250Y-73305914D02*
X267994250Y-75175000D01*
X267994250Y-73305913D02*
G75*
G02*
X267994250Y-73044085I482557J130913D01*
G01*
X243031250Y-60175000D02*
G75*
G02*
X243531250Y-59675000I500000J0D01*
G01*
X243031250Y-73175000D02*
X243031250Y-60175000D01*
X243531250Y-73675000D02*
G75*
G02*
X243031250Y-73175000I0J500000D01*
G01*
X244118250Y-73675000D02*
X243531250Y-73675000D01*
X244118250Y-75175000D02*
X244118250Y-73675000D01*
X244618250Y-75675000D02*
G75*
G02*
X244118250Y-75175000I0J500000D01*
G01*
X250618250Y-75675000D02*
X244618250Y-75675000D01*
X251118250Y-75175000D02*
G75*
G02*
X250618250Y-75675000I-500000J0D01*
G01*
X251118250Y-73675000D02*
X251118250Y-75175000D01*
X266056249Y-73675000D02*
X251118250Y-73675000D01*
X266556249Y-73175000D02*
G75*
G02*
X266056249Y-73675000I-500000J0D01*
G01*
X266556249Y-60175000D02*
X266556249Y-73175000D01*
X266056249Y-59675000D02*
G75*
G02*
X266556249Y-60175000I0J-500000D01*
G01*
X243531250Y-59675000D02*
X266056249Y-59675000D01*
X40337499Y-73174999D02*
G75*
G02*
X39837500Y-73675000I-500000J-1D01*
G01*
X40337500Y-60175000D02*
X40337499Y-73175000D01*
X39837500Y-59675000D02*
G75*
G02*
X40337500Y-60175000I0J-500000D01*
G01*
X5406250Y-59675000D02*
X39837500Y-59675000D01*
X4906249Y-60174999D02*
G75*
G02*
X5406250Y-59675000I500000J-1D01*
G01*
X4906250Y-73175000D02*
X4906250Y-60175000D01*
X5406250Y-73675000D02*
G75*
G02*
X4906250Y-73175000I0J500000D01*
G01*
X5993250Y-73675000D02*
X5406250Y-73675000D01*
X5993250Y-75175000D02*
X5993250Y-73675000D01*
X6493250Y-75675000D02*
G75*
G02*
X5993250Y-75175000I0J500000D01*
G01*
X12493250Y-75675000D02*
X6493250Y-75675000D01*
X12993250Y-75175000D02*
G75*
G02*
X12493250Y-75675000I-500000J0D01*
G01*
X12993250Y-73675000D02*
X12993249Y-75175000D01*
X29869250Y-73675000D02*
X12993250Y-73675000D01*
X29869250Y-75175000D02*
X29869250Y-73675000D01*
X30369250Y-75675000D02*
G75*
G02*
X29869250Y-75175000I0J500000D01*
G01*
X36369250Y-75675000D02*
X30369250Y-75675000D01*
X36869250Y-75175000D02*
G75*
G02*
X36369250Y-75675000I-500000J0D01*
G01*
X36869250Y-73675000D02*
X36869250Y-75175000D01*
X39837500Y-73675000D02*
X36869250Y-73675000D01*
X272756750Y-42125000D02*
G75*
G02*
X273256750Y-41625000I500000J0D01*
G01*
X272756750Y-56125000D02*
X272756750Y-42125000D01*
X273256750Y-56625000D02*
G75*
G02*
X272756750Y-56125000I0J500000D01*
G01*
X279256750Y-56625000D02*
X273256750Y-56625000D01*
X279756750Y-56125000D02*
G75*
G02*
X279256750Y-56625000I-500000J0D01*
G01*
X279756750Y-42125000D02*
X279756750Y-56125000D01*
X279256750Y-41625000D02*
G75*
G02*
X279756750Y-42125000I0J-500000D01*
G01*
X273256750Y-41625000D02*
X279256750Y-41625000D01*
X182712500Y-40625000D02*
X169712500Y-40625000D01*
X182712500Y-40625000D02*
G75*
G02*
X183212500Y-41125000I0J-500000D01*
G01*
X183212500Y-54125000D02*
X183212500Y-41125000D01*
X183212500Y-54125000D02*
G75*
G02*
X182712500Y-54625000I-500000J0D01*
G01*
X169712500Y-54625000D02*
X182712500Y-54625000D01*
X169712500Y-54625000D02*
G75*
G02*
X169212500Y-54125000I0J500000D01*
G01*
X169212500Y-41125000D02*
X169212500Y-54125000D01*
X169212500Y-41125000D02*
G75*
G02*
X169712500Y-40625000I500000J0D01*
G01*
X163662500Y-40625000D02*
G75*
G02*
X164162500Y-41125000I0J-500000D01*
G01*
X150662500Y-40625000D02*
X163662500Y-40624999D01*
X150162500Y-41125000D02*
G75*
G02*
X150662500Y-40625000I500000J0D01*
G01*
X150162500Y-54125000D02*
X150162500Y-41125000D01*
X150662500Y-54625000D02*
G75*
G02*
X150162500Y-54125000I0J500000D01*
G01*
X163662500Y-54625000D02*
X150662500Y-54625000D01*
X164162500Y-54125000D02*
G75*
G02*
X163662500Y-54625000I-500000J0D01*
G01*
X164162500Y-41125000D02*
X164162500Y-54125000D01*
X255380750Y-41625000D02*
G75*
G02*
X255880750Y-42125000I0J-500000D01*
G01*
X249380750Y-41625000D02*
X255380750Y-41625000D01*
X248880750Y-42125000D02*
G75*
G02*
X249380750Y-41625000I500000J0D01*
G01*
X248880750Y-56125000D02*
X248880750Y-42125000D01*
X249380750Y-56625000D02*
G75*
G02*
X248880750Y-56125000I0J500000D01*
G01*
X255380750Y-56625000D02*
X249380750Y-56625000D01*
X255880750Y-56125000D02*
G75*
G02*
X255380750Y-56625000I-500000J0D01*
G01*
X255880750Y-42125000D02*
X255880750Y-56125000D01*
X201762500Y-40625000D02*
G75*
G02*
X202262500Y-41125000I0J-500000D01*
G01*
X188762500Y-40625000D02*
X201762500Y-40624999D01*
X188262500Y-41125000D02*
G75*
G02*
X188762500Y-40625000I500000J0D01*
G01*
X188262500Y-54125000D02*
X188262500Y-41125000D01*
X188762500Y-54625000D02*
G75*
G02*
X188262500Y-54125000I0J500000D01*
G01*
X201762500Y-54625000D02*
X188762500Y-54625000D01*
X202262500Y-54125000D02*
G75*
G02*
X201762500Y-54625000I-500000J0D01*
G01*
X202262500Y-41125000D02*
X202262500Y-54125000D01*
X207312500Y-41125000D02*
G75*
G02*
X207812500Y-40625000I500000J0D01*
G01*
X207312500Y-54125000D02*
X207312500Y-41125000D01*
X207812500Y-54625000D02*
G75*
G02*
X207312500Y-54125000I0J500000D01*
G01*
X220812500Y-54625000D02*
X207812500Y-54625000D01*
X221312500Y-54125000D02*
G75*
G02*
X220812500Y-54625000I-500000J0D01*
G01*
X221312500Y-41125000D02*
X221312500Y-54125000D01*
X220812500Y-40625000D02*
G75*
G02*
X221312500Y-41125000I0J-500000D01*
G01*
X207812500Y-40625000D02*
X220812500Y-40624999D01*
X239862500Y-40625000D02*
X226862500Y-40625000D01*
X239862500Y-40625000D02*
G75*
G02*
X240362500Y-41125000I0J-500000D01*
G01*
X240362500Y-54125000D02*
X240362500Y-41125000D01*
X240362500Y-54125000D02*
G75*
G02*
X239862500Y-54625000I-500000J0D01*
G01*
X226862500Y-54625000D02*
X239862500Y-54625000D01*
X226862500Y-54625000D02*
G75*
G02*
X226362500Y-54125000I0J500000D01*
G01*
X226362500Y-41125000D02*
X226362500Y-54125000D01*
X226362500Y-41125000D02*
G75*
G02*
X226862500Y-40625000I500000J0D01*
G01*
X257318750Y-41125000D02*
G75*
G02*
X257818750Y-40625000I500000J0D01*
G01*
X257318750Y-54125000D02*
X257318750Y-41125000D01*
X257818750Y-54625000D02*
G75*
G02*
X257318750Y-54125000I0J500000D01*
G01*
X270818750Y-54625000D02*
X257818750Y-54625000D01*
X271318750Y-54125000D02*
G75*
G02*
X270818750Y-54625000I-500000J0D01*
G01*
X271318750Y-41125000D02*
X271318750Y-54125000D01*
X270818750Y-40625000D02*
G75*
G02*
X271318750Y-41125000I0J-500000D01*
G01*
X257818750Y-40625000D02*
X270818750Y-40624999D01*
X131112500Y-41125000D02*
G75*
G02*
X131612500Y-40625000I500000J0D01*
G01*
X131112500Y-54125000D02*
X131112500Y-41125000D01*
X131612500Y-54625000D02*
G75*
G02*
X131112500Y-54125000I0J500000D01*
G01*
X144612500Y-54625000D02*
X131612500Y-54625000D01*
X145112500Y-54125000D02*
G75*
G02*
X144612500Y-54625000I-500000J0D01*
G01*
X145112500Y-41125000D02*
X145112500Y-54125000D01*
X144612500Y-40625000D02*
G75*
G02*
X145112500Y-41125000I0J-500000D01*
G01*
X131612500Y-40625000D02*
X144612500Y-40624999D01*
X49362500Y-40625000D02*
G75*
G02*
X49862500Y-41125000I0J-500000D01*
G01*
X36362500Y-40625000D02*
X49362500Y-40625000D01*
X35862500Y-41125000D02*
G75*
G02*
X36362500Y-40625000I500000J0D01*
G01*
X35862500Y-54125000D02*
X35862500Y-41125000D01*
X36362500Y-54625000D02*
G75*
G02*
X35862500Y-54125000I0J500000D01*
G01*
X49362500Y-54625000D02*
X36362500Y-54625000D01*
X49862500Y-54125000D02*
G75*
G02*
X49362500Y-54625000I-500000J0D01*
G01*
X49862500Y-41125000D02*
X49862500Y-54125000D01*
X4906250Y-41125000D02*
G75*
G02*
X5406250Y-40625000I500000J0D01*
G01*
X4906250Y-54125000D02*
X4906250Y-41125000D01*
X5406249Y-54624999D02*
G75*
G02*
X4906250Y-54125000I0J499999D01*
G01*
X23168750Y-54625000D02*
X5406249Y-54624999D01*
X23668750Y-54125000D02*
G75*
G02*
X23168750Y-54625000I-500000J0D01*
G01*
X23668750Y-41125000D02*
X23668750Y-54125000D01*
X23168750Y-40625000D02*
G75*
G02*
X23668750Y-41125000I0J-500000D01*
G01*
X5406250Y-40625000D02*
X23168750Y-40625000D01*
X93012499Y-41124999D02*
G75*
G02*
X93512500Y-40625000I500000J-1D01*
G01*
X93012499Y-54125000D02*
X93012499Y-41125000D01*
X93512499Y-54625000D02*
G75*
G02*
X93012499Y-54125000I0J500000D01*
G01*
X106512500Y-54625000D02*
X93512500Y-54625000D01*
X107012500Y-54125000D02*
G75*
G02*
X106512500Y-54625000I-500000J0D01*
G01*
X107012500Y-41125000D02*
X107012500Y-54125000D01*
X106512500Y-40625000D02*
G75*
G02*
X107012500Y-41125000I0J-500000D01*
G01*
X93512500Y-40625000D02*
X106512500Y-40624999D01*
X54912500Y-41125000D02*
G75*
G02*
X55412500Y-40625000I500000J0D01*
G01*
X54912500Y-54125000D02*
X54912500Y-41125000D01*
X55412500Y-54625000D02*
G75*
G02*
X54912500Y-54125000I0J500000D01*
G01*
X68412500Y-54625000D02*
X55412500Y-54625000D01*
X68912500Y-54125000D02*
G75*
G02*
X68412500Y-54625000I-500000J0D01*
G01*
X68912500Y-41125000D02*
X68912500Y-54125000D01*
X68412500Y-40625000D02*
G75*
G02*
X68912500Y-41125000I0J-500000D01*
G01*
X55412500Y-40625000D02*
X68412500Y-40625000D01*
X73962500Y-41125000D02*
G75*
G02*
X74462500Y-40625000I500000J0D01*
G01*
X73962500Y-54125000D02*
X73962500Y-41125000D01*
X74462500Y-54625000D02*
G75*
G02*
X73962500Y-54125000I0J500000D01*
G01*
X87462500Y-54625000D02*
X74462500Y-54625000D01*
X87962500Y-54125000D02*
G75*
G02*
X87462500Y-54625000I-500000J0D01*
G01*
X87962500Y-41125000D02*
X87962500Y-54125000D01*
X87462500Y-40625000D02*
G75*
G02*
X87962500Y-41125000I0J-500000D01*
G01*
X74462500Y-40625000D02*
X87462500Y-40624999D01*
X112062500Y-41125000D02*
G75*
G02*
X112562500Y-40625000I500000J0D01*
G01*
X112062500Y-54125000D02*
X112062500Y-41125000D01*
X112562500Y-54625000D02*
G75*
G02*
X112062500Y-54125000I0J500000D01*
G01*
X125562500Y-54625000D02*
X112562500Y-54625000D01*
X126062500Y-54125000D02*
G75*
G02*
X125562500Y-54625000I-500000J0D01*
G01*
X126062500Y-41125000D02*
X126062500Y-54125000D01*
X125562500Y-40625000D02*
G75*
G02*
X126062500Y-41125000I0J-500000D01*
G01*
X112562500Y-40625000D02*
X125562500Y-40624999D01*
X264462499Y-22075000D02*
G75*
G02*
X264962499Y-21575000I500000J0D01*
G01*
X264462499Y-35075000D02*
X264462499Y-22074999D01*
X264962499Y-35575000D02*
G75*
G02*
X264462499Y-35075000I0J500000D01*
G01*
X277962500Y-35575000D02*
X264962499Y-35575000D01*
X278462501Y-35074999D02*
G75*
G02*
X277962500Y-35575000I-500001J0D01*
G01*
X278462500Y-22075000D02*
X278462500Y-35075000D01*
X277962500Y-21575000D02*
G75*
G02*
X278462500Y-22075000I0J-500000D01*
G01*
X264962499Y-21575000D02*
X277962500Y-21574999D01*
X240650000Y-22075000D02*
G75*
G02*
X241150000Y-21575000I500000J0D01*
G01*
X240650000Y-35075000D02*
X240650000Y-22074999D01*
X241150001Y-35574999D02*
G75*
G02*
X240650000Y-35075000I-1J500000D01*
G01*
X254150000Y-35575000D02*
X241150000Y-35575000D01*
X254650000Y-35075000D02*
G75*
G02*
X254150000Y-35575000I-500000J0D01*
G01*
X254650000Y-22075000D02*
X254650000Y-35075000D01*
X254150001Y-21574999D02*
G75*
G02*
X254650000Y-22075000I-1J-500000D01*
G01*
X241150000Y-21575000D02*
X254150000Y-21574999D01*
X221600000Y-22075000D02*
G75*
G02*
X222100000Y-21575000I500000J0D01*
G01*
X221600000Y-35075000D02*
X221600000Y-22074999D01*
X222100001Y-35574999D02*
G75*
G02*
X221600000Y-35075000I-1J500000D01*
G01*
X235100000Y-35575000D02*
X222100000Y-35575000D01*
X235600000Y-35075000D02*
G75*
G02*
X235100000Y-35575000I-500000J0D01*
G01*
X235600000Y-22075000D02*
X235600000Y-35075000D01*
X235100001Y-21574999D02*
G75*
G02*
X235600000Y-22075000I-1J-500000D01*
G01*
X222100000Y-21575000D02*
X235100000Y-21574999D01*
X183500000Y-22075000D02*
G75*
G02*
X184000000Y-21575000I500000J0D01*
G01*
X183500000Y-35075000D02*
X183500000Y-22074999D01*
X184000001Y-35574999D02*
G75*
G02*
X183500000Y-35075000I-1J500000D01*
G01*
X197000000Y-35575000D02*
X184000000Y-35575000D01*
X197500000Y-35075000D02*
G75*
G02*
X197000000Y-35575000I-500000J0D01*
G01*
X197500000Y-22075000D02*
X197500000Y-35075000D01*
X197000001Y-21574999D02*
G75*
G02*
X197500000Y-22075000I-1J-500000D01*
G01*
X184000000Y-21575000D02*
X197000000Y-21574999D01*
X202550000Y-22075000D02*
G75*
G02*
X203050000Y-21575000I500000J0D01*
G01*
X202550000Y-35075000D02*
X202550000Y-22074999D01*
X203050001Y-35574999D02*
G75*
G02*
X202550000Y-35075000I-1J500000D01*
G01*
X216050000Y-35575000D02*
X203050000Y-35575000D01*
X216550000Y-35075000D02*
G75*
G02*
X216050000Y-35575000I-500000J0D01*
G01*
X216550000Y-22075000D02*
X216550000Y-35075000D01*
X216050001Y-21574999D02*
G75*
G02*
X216550000Y-22075000I-1J-500000D01*
G01*
X203050000Y-21575000D02*
X216050000Y-21574999D01*
X164450000Y-22075000D02*
G75*
G02*
X164950000Y-21575000I500000J0D01*
G01*
X164450000Y-35075000D02*
X164450000Y-22074999D01*
X164950001Y-35574999D02*
G75*
G02*
X164450000Y-35075000I-1J500000D01*
G01*
X177950000Y-35575000D02*
X164950000Y-35575000D01*
X178450000Y-35075000D02*
G75*
G02*
X177950000Y-35575000I-500000J0D01*
G01*
X178450000Y-22075000D02*
X178450000Y-35075000D01*
X177950001Y-21574999D02*
G75*
G02*
X178450000Y-22075000I-1J-500000D01*
G01*
X164950000Y-21575000D02*
X177950000Y-21574999D01*
X145400001Y-22074999D02*
G75*
G02*
X145900000Y-21575000I499999J0D01*
G01*
X145400000Y-35075000D02*
X145400000Y-22074999D01*
X145900000Y-35575000D02*
G75*
G02*
X145400000Y-35075000I0J500000D01*
G01*
X158900000Y-35575000D02*
X145900000Y-35575000D01*
X159400000Y-35075000D02*
G75*
G02*
X158900000Y-35575000I-500000J0D01*
G01*
X159400000Y-22075000D02*
X159400000Y-35075000D01*
X158900001Y-21574999D02*
G75*
G02*
X159400000Y-22075000I-1J-500000D01*
G01*
X145900000Y-21575000D02*
X158900000Y-21574999D01*
X88250000Y-22075000D02*
G75*
G02*
X88750000Y-21575000I500000J0D01*
G01*
X88250000Y-35075000D02*
X88250000Y-22074999D01*
X88750000Y-35575000D02*
G75*
G02*
X88250000Y-35075000I0J500000D01*
G01*
X101750000Y-35575000D02*
X88750000Y-35575000D01*
X102250001Y-35074999D02*
G75*
G02*
X101750000Y-35575000I-500001J0D01*
G01*
X102250000Y-22075000D02*
X102250000Y-35075000D01*
X101750000Y-21575000D02*
G75*
G02*
X102250000Y-22075000I0J-500000D01*
G01*
X88750000Y-21575000D02*
X101750000Y-21574999D01*
X126350000Y-22075000D02*
G75*
G02*
X126850000Y-21575000I500000J0D01*
G01*
X126350000Y-35075000D02*
X126350000Y-22074999D01*
X126850001Y-35574999D02*
G75*
G02*
X126350000Y-35075000I-1J500000D01*
G01*
X139850000Y-35575000D02*
X126850000Y-35575000D01*
X140350000Y-35075000D02*
G75*
G02*
X139850000Y-35575000I-500000J0D01*
G01*
X140350000Y-22075000D02*
X140350000Y-35075000D01*
X139850001Y-21574999D02*
G75*
G02*
X140350000Y-22075000I-1J-500000D01*
G01*
X126850000Y-21575000D02*
X139850000Y-21574999D01*
X69200000Y-22075000D02*
G75*
G02*
X69700000Y-21575000I500000J0D01*
G01*
X69200000Y-35075000D02*
X69200000Y-22074999D01*
X69700000Y-35575000D02*
G75*
G02*
X69200000Y-35075000I0J500000D01*
G01*
X82700000Y-35575000D02*
X69700000Y-35575000D01*
X83200000Y-35075000D02*
G75*
G02*
X82700000Y-35575000I-500000J0D01*
G01*
X83200000Y-22075000D02*
X83200000Y-35075000D01*
X82700001Y-21574999D02*
G75*
G02*
X83200000Y-22075000I-1J-500000D01*
G01*
X69700000Y-21575000D02*
X82700000Y-21574999D01*
X50150000Y-22075000D02*
G75*
G02*
X50650000Y-21575000I500000J0D01*
G01*
X50150000Y-35075000D02*
X50150000Y-22074999D01*
X50650000Y-35575000D02*
G75*
G02*
X50150000Y-35075000I0J500000D01*
G01*
X63650000Y-35575000D02*
X50650000Y-35575000D01*
X64150000Y-35075000D02*
G75*
G02*
X63650000Y-35575000I-500000J0D01*
G01*
X64150000Y-22075000D02*
X64150000Y-35075000D01*
X63650000Y-21575000D02*
G75*
G02*
X64150000Y-22075000I0J-500000D01*
G01*
X50650000Y-21575000D02*
X63650000Y-21575000D01*
X44600000Y-21575000D02*
X31600000Y-21575000D01*
X44599999Y-21575000D02*
G75*
G02*
X45099999Y-22075000I0J-500000D01*
G01*
X45099999Y-35075000D02*
X45099999Y-22075000D01*
X45099999Y-35074999D02*
G75*
G02*
X44600000Y-35575000I-500000J-1D01*
G01*
X31600000Y-35575000D02*
X44600000Y-35575000D01*
X31600000Y-35575000D02*
G75*
G02*
X31100000Y-35075000I0J500000D01*
G01*
X31100000Y-22075000D02*
X31100000Y-35075000D01*
X31100000Y-22075000D02*
G75*
G02*
X31600000Y-21575000I500000J0D01*
G01*
X107300000Y-22075000D02*
G75*
G02*
X107800000Y-21575000I500000J0D01*
G01*
X107300000Y-35075000D02*
X107300000Y-22074999D01*
X107800000Y-35575000D02*
G75*
G02*
X107300000Y-35075000I0J500000D01*
G01*
X120800000Y-35575000D02*
X107800000Y-35575000D01*
X121299999Y-35074999D02*
G75*
G02*
X120800000Y-35575000I-500000J-1D01*
G01*
X121300000Y-22075000D02*
X121299999Y-35075000D01*
X120800000Y-21575000D02*
G75*
G02*
X121300000Y-22075000I0J-500000D01*
G01*
X107800000Y-21575000D02*
X120800000Y-21574999D01*
M02*
