%TF.GenerationSoftware,KiCad,Pcbnew,(5.1.11)-1*%
%TF.CreationDate,2022-08-13T18:33:08+07:00*%
%TF.ProjectId,Eclipse Voyager,45636c69-7073-4652-9056-6f7961676572,rev?*%
%TF.SameCoordinates,Original*%
%TF.FileFunction,Copper,L1,Top*%
%TF.FilePolarity,Positive*%
%FSLAX46Y46*%
G04 Gerber Fmt 4.6, Leading zero omitted, Abs format (unit mm)*
G04 Created by KiCad (PCBNEW (5.1.11)-1) date 2022-08-13 18:33:08*
%MOMM*%
%LPD*%
G01*
G04 APERTURE LIST*
%TA.AperFunction,ConnectorPad*%
%ADD10C,3.500000*%
%TD*%
%TA.AperFunction,ComponentPad*%
%ADD11C,2.600000*%
%TD*%
%TA.AperFunction,ComponentPad*%
%ADD12C,3.500000*%
%TD*%
%TA.AperFunction,SMDPad,CuDef*%
%ADD13R,0.300000X0.550000*%
%TD*%
%TA.AperFunction,SMDPad,CuDef*%
%ADD14R,0.250000X0.550000*%
%TD*%
%TA.AperFunction,SMDPad,CuDef*%
%ADD15R,0.800000X0.950000*%
%TD*%
%TA.AperFunction,SMDPad,CuDef*%
%ADD16R,1.200000X1.800000*%
%TD*%
%TA.AperFunction,SMDPad,CuDef*%
%ADD17R,0.600000X1.550000*%
%TD*%
%TA.AperFunction,SMDPad,CuDef*%
%ADD18R,0.600000X1.450000*%
%TD*%
%TA.AperFunction,SMDPad,CuDef*%
%ADD19R,0.300000X1.450000*%
%TD*%
%TA.AperFunction,ComponentPad*%
%ADD20O,1.000000X2.100000*%
%TD*%
%TA.AperFunction,ComponentPad*%
%ADD21O,1.000000X1.600000*%
%TD*%
%TA.AperFunction,ViaPad*%
%ADD22C,0.500000*%
%TD*%
%TA.AperFunction,ViaPad*%
%ADD23C,0.600000*%
%TD*%
%TA.AperFunction,Conductor*%
%ADD24C,0.400000*%
%TD*%
%TA.AperFunction,Conductor*%
%ADD25C,0.200000*%
%TD*%
%TA.AperFunction,Conductor*%
%ADD26C,0.152400*%
%TD*%
%TA.AperFunction,Conductor*%
%ADD27C,0.100000*%
%TD*%
G04 APERTURE END LIST*
%TO.P,F1,2*%
%TO.N,+5V*%
%TA.AperFunction,SMDPad,CuDef*%
G36*
G01*
X139125000Y-29725000D02*
X137875000Y-29725000D01*
G75*
G02*
X137625000Y-29475000I0J250000D01*
G01*
X137625000Y-28725000D01*
G75*
G02*
X137875000Y-28475000I250000J0D01*
G01*
X139125000Y-28475000D01*
G75*
G02*
X139375000Y-28725000I0J-250000D01*
G01*
X139375000Y-29475000D01*
G75*
G02*
X139125000Y-29725000I-250000J0D01*
G01*
G37*
%TD.AperFunction*%
%TO.P,F1,1*%
%TO.N,VBUS*%
%TA.AperFunction,SMDPad,CuDef*%
G36*
G01*
X139125000Y-32525000D02*
X137875000Y-32525000D01*
G75*
G02*
X137625000Y-32275000I0J250000D01*
G01*
X137625000Y-31525000D01*
G75*
G02*
X137875000Y-31275000I250000J0D01*
G01*
X139125000Y-31275000D01*
G75*
G02*
X139375000Y-31525000I0J-250000D01*
G01*
X139375000Y-32275000D01*
G75*
G02*
X139125000Y-32525000I-250000J0D01*
G01*
G37*
%TD.AperFunction*%
%TD*%
D10*
%TO.P,H2,1*%
%TO.N,N/C*%
X124500000Y-31500000D03*
D11*
X124500000Y-31500000D03*
%TD*%
D12*
%TO.P,H1,1*%
%TO.N,GNDPWR*%
X154500000Y-31500000D03*
%TD*%
D13*
%TO.P,U1,8*%
%TO.N,GNDPWR*%
X132000000Y-34615000D03*
D14*
%TO.P,U1,10*%
%TO.N,D+*%
X131000000Y-34615000D03*
%TO.P,U1,7*%
X132500000Y-34615000D03*
%TO.P,U1,6*%
%TO.N,D-*%
X133000000Y-34615000D03*
%TO.P,U1,9*%
X131500000Y-34615000D03*
%TO.P,U1,5*%
X133000000Y-35385000D03*
%TO.P,U1,4*%
%TO.N,D+*%
X132500000Y-35385000D03*
D13*
%TO.P,U1,3*%
%TO.N,GNDPWR*%
X132000000Y-35385000D03*
D14*
%TO.P,U1,2*%
%TO.N,D-*%
X131500000Y-35385000D03*
%TO.P,U1,1*%
%TO.N,D+*%
%TA.AperFunction,SMDPad,CuDef*%
G36*
G01*
X130875000Y-35535000D02*
X130875000Y-35235000D01*
G75*
G02*
X131000000Y-35110000I125000J0D01*
G01*
X131000000Y-35110000D01*
G75*
G02*
X131125000Y-35235000I0J-125000D01*
G01*
X131125000Y-35535000D01*
G75*
G02*
X131000000Y-35660000I-125000J0D01*
G01*
X131000000Y-35660000D01*
G75*
G02*
X130875000Y-35535000I0J125000D01*
G01*
G37*
%TD.AperFunction*%
%TD*%
D15*
%TO.P,R2,2*%
%TO.N,Net-(R2-Pad2)*%
X129025000Y-35000000D03*
%TO.P,R2,1*%
%TO.N,GNDPWR*%
X127375000Y-35000000D03*
%TD*%
%TO.P,R1,2*%
%TO.N,Net-(R1-Pad2)*%
X141675000Y-34000000D03*
%TO.P,R1,1*%
%TO.N,GNDPWR*%
X143325000Y-34000000D03*
%TD*%
%TO.P,L1,2*%
%TO.N,GND*%
%TA.AperFunction,SMDPad,CuDef*%
G36*
G01*
X141700001Y-29450000D02*
X140299999Y-29450000D01*
G75*
G02*
X140050000Y-29200001I0J249999D01*
G01*
X140050000Y-28649999D01*
G75*
G02*
X140299999Y-28400000I249999J0D01*
G01*
X141700001Y-28400000D01*
G75*
G02*
X141950000Y-28649999I0J-249999D01*
G01*
X141950000Y-29200001D01*
G75*
G02*
X141700001Y-29450000I-249999J0D01*
G01*
G37*
%TD.AperFunction*%
%TO.P,L1,1*%
%TO.N,GNDPWR*%
%TA.AperFunction,SMDPad,CuDef*%
G36*
G01*
X141700001Y-32600000D02*
X140299999Y-32600000D01*
G75*
G02*
X140050000Y-32350001I0J249999D01*
G01*
X140050000Y-31799999D01*
G75*
G02*
X140299999Y-31550000I249999J0D01*
G01*
X141700001Y-31550000D01*
G75*
G02*
X141950000Y-31799999I0J-249999D01*
G01*
X141950000Y-32350001D01*
G75*
G02*
X141700001Y-32600000I-249999J0D01*
G01*
G37*
%TD.AperFunction*%
%TD*%
%TO.P,D1,2*%
%TO.N,+5V*%
%TA.AperFunction,SMDPad,CuDef*%
G36*
G01*
X143850000Y-29350000D02*
X143150000Y-29350000D01*
G75*
G02*
X142900000Y-29100000I0J250000D01*
G01*
X142900000Y-28600000D01*
G75*
G02*
X143150000Y-28350000I250000J0D01*
G01*
X143850000Y-28350000D01*
G75*
G02*
X144100000Y-28600000I0J-250000D01*
G01*
X144100000Y-29100000D01*
G75*
G02*
X143850000Y-29350000I-250000J0D01*
G01*
G37*
%TD.AperFunction*%
%TO.P,D1,1*%
%TO.N,GNDPWR*%
%TA.AperFunction,SMDPad,CuDef*%
G36*
G01*
X143850000Y-32650000D02*
X143150000Y-32650000D01*
G75*
G02*
X142900000Y-32400000I0J250000D01*
G01*
X142900000Y-31900000D01*
G75*
G02*
X143150000Y-31650000I250000J0D01*
G01*
X143850000Y-31650000D01*
G75*
G02*
X144100000Y-31900000I0J-250000D01*
G01*
X144100000Y-32400000D01*
G75*
G02*
X143850000Y-32650000I-250000J0D01*
G01*
G37*
%TD.AperFunction*%
%TD*%
D16*
%TO.P,J1,*%
%TO.N,*%
X151300000Y-33600000D03*
X145700000Y-33600000D03*
D17*
%TO.P,J1,1*%
%TO.N,+5V*%
X147000000Y-29725000D03*
%TO.P,J1,2*%
%TO.N,D-*%
X148000000Y-29725000D03*
%TO.P,J1,4*%
%TO.N,GND*%
X150000000Y-29725000D03*
%TO.P,J1,3*%
%TO.N,D+*%
X149000000Y-29725000D03*
%TD*%
D18*
%TO.P,USB1,12*%
%TO.N,GNDPWR*%
X128775000Y-32695000D03*
%TO.P,USB1,1*%
X135225000Y-32695000D03*
%TO.P,USB1,11*%
%TO.N,VBUS*%
X129550000Y-32695000D03*
%TO.P,USB1,2*%
X134450000Y-32695000D03*
D19*
%TO.P,USB1,3*%
%TO.N,Net-(USB1-Pad3)*%
X133750000Y-32695000D03*
%TO.P,USB1,10*%
%TO.N,Net-(R2-Pad2)*%
X130250000Y-32695000D03*
%TO.P,USB1,4*%
%TO.N,Net-(R1-Pad2)*%
X133250000Y-32695000D03*
%TO.P,USB1,9*%
%TO.N,Net-(USB1-Pad9)*%
X130750000Y-32695000D03*
%TO.P,USB1,5*%
%TO.N,D-*%
X132750000Y-32695000D03*
%TO.P,USB1,8*%
%TO.N,D+*%
X131250000Y-32695000D03*
%TO.P,USB1,7*%
%TO.N,D-*%
X131750000Y-32695000D03*
%TO.P,USB1,6*%
%TO.N,D+*%
X132250000Y-32695000D03*
D20*
%TO.P,USB1,13*%
%TO.N,GNDPWR*%
X136320000Y-31780000D03*
X127680000Y-31780000D03*
D21*
X136320000Y-27600000D03*
X127680000Y-27600000D03*
%TD*%
D22*
%TO.N,GNDPWR*%
X132000000Y-35000000D03*
D23*
%TO.N,VBUS*%
X134450000Y-33939999D03*
X129550000Y-33939999D03*
%TD*%
D24*
%TO.N,+5V*%
X142150000Y-30200000D02*
X143500000Y-28850000D01*
X139400000Y-30200000D02*
X142150000Y-30200000D01*
X138500000Y-29300000D02*
X139400000Y-30200000D01*
X144375000Y-29725000D02*
X143500000Y-28850000D01*
X147000000Y-29725000D02*
X144375000Y-29725000D01*
D25*
%TO.N,GNDPWR*%
X132000000Y-34615000D02*
X132000000Y-35000000D01*
X132000000Y-35000000D02*
X132000000Y-35385000D01*
D24*
%TO.N,GND*%
X150000000Y-27500000D02*
X150000000Y-29725000D01*
X142425000Y-27500000D02*
X150000000Y-27500000D01*
X141000000Y-28925000D02*
X142425000Y-27500000D01*
D25*
%TO.N,Net-(R1-Pad2)*%
X140975000Y-34700000D02*
X141675000Y-34000000D01*
X133250000Y-33800000D02*
X134150000Y-34700000D01*
X134150000Y-34700000D02*
X140975000Y-34700000D01*
X133250000Y-32695000D02*
X133250000Y-33800000D01*
%TO.N,Net-(R2-Pad2)*%
X130250000Y-32695000D02*
X130250000Y-34600000D01*
X130250000Y-34600000D02*
X129850000Y-35000000D01*
X129850000Y-35000000D02*
X129025000Y-35000000D01*
D24*
%TO.N,VBUS*%
X129550000Y-33939999D02*
X129550000Y-33939999D01*
X134450000Y-32695000D02*
X134450000Y-33939999D01*
X134450000Y-33939999D02*
X134450000Y-33939999D01*
X129550000Y-33939999D02*
X129550000Y-32695000D01*
X134450000Y-33939999D02*
X138060001Y-33939999D01*
X138500000Y-33500000D02*
X138500000Y-31700000D01*
X138060001Y-33939999D02*
X138500000Y-33500000D01*
D25*
%TO.N,D-*%
X131750000Y-33890000D02*
X131750000Y-32695000D01*
X131500000Y-34140000D02*
X131750000Y-33890000D01*
X131500000Y-34615000D02*
X131500000Y-34140000D01*
X132750000Y-33890000D02*
X132750000Y-32695000D01*
X133000000Y-34140000D02*
X132750000Y-33890000D01*
X133000000Y-34615000D02*
X133000000Y-34140000D01*
X131500000Y-34615000D02*
X131500000Y-35385000D01*
X133000000Y-34615000D02*
X133000000Y-35385000D01*
X132750000Y-31437539D02*
X132750000Y-32695000D01*
X132385451Y-31072990D02*
X132750000Y-31437539D01*
X132114549Y-31072990D02*
X132385451Y-31072990D01*
X131750000Y-31437539D02*
X132114549Y-31072990D01*
X131750000Y-32695000D02*
X131750000Y-31437539D01*
X148000000Y-30887501D02*
X148000000Y-29725000D01*
X148275000Y-31162501D02*
X148000000Y-30887501D01*
X148275000Y-35006800D02*
X148275000Y-31162501D01*
X147896800Y-35385000D02*
X148275000Y-35006800D01*
X133000000Y-35385000D02*
X147896800Y-35385000D01*
%TO.N,D+*%
X131000000Y-33860002D02*
X131000000Y-34615000D01*
X131250000Y-33610002D02*
X131000000Y-33860002D01*
X131250000Y-32695000D02*
X131250000Y-33610002D01*
X132250000Y-33955699D02*
X132250000Y-32695000D01*
X132500000Y-34205699D02*
X132250000Y-33955699D01*
X132500000Y-34615000D02*
X132500000Y-34205699D01*
X131000000Y-34615000D02*
X131000000Y-35385000D01*
X132500000Y-34615000D02*
X132500000Y-35385000D01*
X132500000Y-35385000D02*
X132500000Y-36000000D01*
X131000000Y-36000000D02*
X132500000Y-36000000D01*
X131000000Y-35385000D02*
X131000000Y-36000000D01*
X149000000Y-30887501D02*
X149000000Y-29725000D01*
X148725000Y-35193200D02*
X148725000Y-31162501D01*
X148093200Y-35825000D02*
X148725000Y-35193200D01*
X133675000Y-35825000D02*
X148093200Y-35825000D01*
X148725000Y-31162501D02*
X149000000Y-30887501D01*
X133500000Y-36000000D02*
X133675000Y-35825000D01*
X132500000Y-36000000D02*
X133500000Y-36000000D01*
%TD*%
D26*
%TO.N,GNDPWR*%
X155338978Y-26788054D02*
X155665040Y-26886498D01*
X155965768Y-27046399D01*
X156229717Y-27261670D01*
X156446823Y-27524106D01*
X156608819Y-27823712D01*
X156709538Y-28149082D01*
X156746398Y-28499778D01*
X156746400Y-28500321D01*
X156746401Y-34487583D01*
X156711946Y-34838978D01*
X156613504Y-35165035D01*
X156453601Y-35465770D01*
X156238330Y-35729717D01*
X155975894Y-35946823D01*
X155676288Y-36108819D01*
X155350917Y-36209538D01*
X155000221Y-36246398D01*
X154999680Y-36246400D01*
X133717735Y-36246400D01*
X133733479Y-36233479D01*
X133743766Y-36220944D01*
X133811110Y-36153600D01*
X148077068Y-36153600D01*
X148093200Y-36155189D01*
X148109332Y-36153600D01*
X148109335Y-36153600D01*
X148157617Y-36148845D01*
X148219558Y-36130055D01*
X148276643Y-36099542D01*
X148326679Y-36058479D01*
X148336966Y-36045944D01*
X148945950Y-35436961D01*
X148958479Y-35426679D01*
X148971034Y-35411381D01*
X148999542Y-35376644D01*
X149019758Y-35338822D01*
X149030055Y-35319558D01*
X149048845Y-35257617D01*
X149053600Y-35209335D01*
X149053600Y-35209333D01*
X149055189Y-35193201D01*
X149053600Y-35177069D01*
X149053600Y-32700000D01*
X150470294Y-32700000D01*
X150470294Y-34500000D01*
X150474708Y-34544813D01*
X150487779Y-34587905D01*
X150509006Y-34627618D01*
X150537573Y-34662427D01*
X150572382Y-34690994D01*
X150612095Y-34712221D01*
X150655187Y-34725292D01*
X150700000Y-34729706D01*
X151900000Y-34729706D01*
X151944813Y-34725292D01*
X151987905Y-34712221D01*
X152027618Y-34690994D01*
X152062427Y-34662427D01*
X152090994Y-34627618D01*
X152112221Y-34587905D01*
X152125292Y-34544813D01*
X152129706Y-34500000D01*
X152129706Y-32700000D01*
X152125292Y-32655187D01*
X152112221Y-32612095D01*
X152090994Y-32572382D01*
X152062427Y-32537573D01*
X152027618Y-32509006D01*
X151987905Y-32487779D01*
X151944813Y-32474708D01*
X151900000Y-32470294D01*
X150700000Y-32470294D01*
X150655187Y-32474708D01*
X150612095Y-32487779D01*
X150572382Y-32509006D01*
X150537573Y-32537573D01*
X150509006Y-32572382D01*
X150487779Y-32612095D01*
X150474708Y-32655187D01*
X150470294Y-32700000D01*
X149053600Y-32700000D01*
X149053600Y-31298611D01*
X149220945Y-31131266D01*
X149233479Y-31120980D01*
X149260117Y-31088521D01*
X149274542Y-31070945D01*
X149305055Y-31013859D01*
X149306658Y-31008574D01*
X149323845Y-30951918D01*
X149328600Y-30903636D01*
X149328600Y-30903633D01*
X149330189Y-30887501D01*
X149328600Y-30871369D01*
X149328600Y-30726889D01*
X149344813Y-30725292D01*
X149387905Y-30712221D01*
X149427618Y-30690994D01*
X149462427Y-30662427D01*
X149490994Y-30627618D01*
X149500000Y-30610769D01*
X149509006Y-30627618D01*
X149537573Y-30662427D01*
X149572382Y-30690994D01*
X149612095Y-30712221D01*
X149655187Y-30725292D01*
X149700000Y-30729706D01*
X150300000Y-30729706D01*
X150344813Y-30725292D01*
X150387905Y-30712221D01*
X150427618Y-30690994D01*
X150462427Y-30662427D01*
X150490994Y-30627618D01*
X150512221Y-30587905D01*
X150525292Y-30544813D01*
X150529706Y-30500000D01*
X150529706Y-28950000D01*
X150525292Y-28905187D01*
X150512221Y-28862095D01*
X150490994Y-28822382D01*
X150462427Y-28787573D01*
X150428600Y-28759812D01*
X150428600Y-27521048D01*
X150430673Y-27500000D01*
X150422398Y-27415980D01*
X150397890Y-27335189D01*
X150358092Y-27260731D01*
X150304532Y-27195468D01*
X150239269Y-27141908D01*
X150164811Y-27102110D01*
X150084020Y-27077602D01*
X150021048Y-27071400D01*
X150000000Y-27069327D01*
X149978952Y-27071400D01*
X142446045Y-27071400D01*
X142424999Y-27069327D01*
X142403953Y-27071400D01*
X142403952Y-27071400D01*
X142340980Y-27077602D01*
X142260189Y-27102110D01*
X142185731Y-27141908D01*
X142120468Y-27195468D01*
X142107049Y-27211819D01*
X141148575Y-28170294D01*
X140299999Y-28170294D01*
X140206413Y-28179511D01*
X140116424Y-28206809D01*
X140033489Y-28251139D01*
X139960796Y-28310796D01*
X139901139Y-28383489D01*
X139856809Y-28466424D01*
X139829511Y-28556413D01*
X139820294Y-28649999D01*
X139820294Y-29200001D01*
X139829511Y-29293587D01*
X139856809Y-29383576D01*
X139901139Y-29466511D01*
X139960796Y-29539204D01*
X140033489Y-29598861D01*
X140116424Y-29643191D01*
X140206413Y-29670489D01*
X140299999Y-29679706D01*
X141700001Y-29679706D01*
X141793587Y-29670489D01*
X141883576Y-29643191D01*
X141966511Y-29598861D01*
X142039204Y-29539204D01*
X142098861Y-29466511D01*
X142143191Y-29383576D01*
X142170489Y-29293587D01*
X142179706Y-29200001D01*
X142179706Y-28649999D01*
X142170489Y-28556413D01*
X142143191Y-28466424D01*
X142115853Y-28415279D01*
X142602532Y-27928600D01*
X149571400Y-27928600D01*
X149571401Y-28759811D01*
X149537573Y-28787573D01*
X149509006Y-28822382D01*
X149500000Y-28839231D01*
X149490994Y-28822382D01*
X149462427Y-28787573D01*
X149427618Y-28759006D01*
X149387905Y-28737779D01*
X149344813Y-28724708D01*
X149300000Y-28720294D01*
X148700000Y-28720294D01*
X148655187Y-28724708D01*
X148612095Y-28737779D01*
X148572382Y-28759006D01*
X148537573Y-28787573D01*
X148509006Y-28822382D01*
X148500000Y-28839231D01*
X148490994Y-28822382D01*
X148462427Y-28787573D01*
X148427618Y-28759006D01*
X148387905Y-28737779D01*
X148344813Y-28724708D01*
X148300000Y-28720294D01*
X147700000Y-28720294D01*
X147655187Y-28724708D01*
X147612095Y-28737779D01*
X147572382Y-28759006D01*
X147537573Y-28787573D01*
X147509006Y-28822382D01*
X147500000Y-28839231D01*
X147490994Y-28822382D01*
X147462427Y-28787573D01*
X147427618Y-28759006D01*
X147387905Y-28737779D01*
X147344813Y-28724708D01*
X147300000Y-28720294D01*
X146700000Y-28720294D01*
X146655187Y-28724708D01*
X146612095Y-28737779D01*
X146572382Y-28759006D01*
X146537573Y-28787573D01*
X146509006Y-28822382D01*
X146487779Y-28862095D01*
X146474708Y-28905187D01*
X146470294Y-28950000D01*
X146470294Y-29296400D01*
X144552532Y-29296400D01*
X144329706Y-29073574D01*
X144329706Y-28600000D01*
X144320489Y-28506414D01*
X144293191Y-28416424D01*
X144248861Y-28333490D01*
X144189203Y-28260797D01*
X144116510Y-28201139D01*
X144033576Y-28156809D01*
X143943586Y-28129511D01*
X143850000Y-28120294D01*
X143150000Y-28120294D01*
X143056414Y-28129511D01*
X142966424Y-28156809D01*
X142883490Y-28201139D01*
X142810797Y-28260797D01*
X142751139Y-28333490D01*
X142706809Y-28416424D01*
X142679511Y-28506414D01*
X142670294Y-28600000D01*
X142670294Y-29073574D01*
X141972469Y-29771400D01*
X139577532Y-29771400D01*
X139532145Y-29726013D01*
X139568191Y-29658576D01*
X139595489Y-29568586D01*
X139604706Y-29475000D01*
X139604706Y-28725000D01*
X139595489Y-28631414D01*
X139568191Y-28541424D01*
X139523861Y-28458490D01*
X139464203Y-28385797D01*
X139391510Y-28326139D01*
X139308576Y-28281809D01*
X139218586Y-28254511D01*
X139125000Y-28245294D01*
X137875000Y-28245294D01*
X137781414Y-28254511D01*
X137691424Y-28281809D01*
X137608490Y-28326139D01*
X137535797Y-28385797D01*
X137476139Y-28458490D01*
X137431809Y-28541424D01*
X137404511Y-28631414D01*
X137395294Y-28725000D01*
X137395294Y-29475000D01*
X137404511Y-29568586D01*
X137431809Y-29658576D01*
X137476139Y-29741510D01*
X137535797Y-29814203D01*
X137608490Y-29873861D01*
X137691424Y-29918191D01*
X137781414Y-29945489D01*
X137875000Y-29954706D01*
X138548575Y-29954706D01*
X139082049Y-30488181D01*
X139095468Y-30504532D01*
X139160731Y-30558092D01*
X139235189Y-30597890D01*
X139315980Y-30622398D01*
X139378952Y-30628600D01*
X139378953Y-30628600D01*
X139399999Y-30630673D01*
X139421045Y-30628600D01*
X142128952Y-30628600D01*
X142150000Y-30630673D01*
X142171048Y-30628600D01*
X142234020Y-30622398D01*
X142314811Y-30597890D01*
X142389269Y-30558092D01*
X142454532Y-30504532D01*
X142467955Y-30488176D01*
X143376426Y-29579706D01*
X143623575Y-29579706D01*
X144057049Y-30013181D01*
X144070468Y-30029532D01*
X144135731Y-30083092D01*
X144210189Y-30122890D01*
X144266471Y-30139963D01*
X144290979Y-30147398D01*
X144375000Y-30155673D01*
X144396048Y-30153600D01*
X146470294Y-30153600D01*
X146470294Y-30500000D01*
X146474708Y-30544813D01*
X146487779Y-30587905D01*
X146509006Y-30627618D01*
X146537573Y-30662427D01*
X146572382Y-30690994D01*
X146612095Y-30712221D01*
X146655187Y-30725292D01*
X146700000Y-30729706D01*
X147300000Y-30729706D01*
X147344813Y-30725292D01*
X147387905Y-30712221D01*
X147427618Y-30690994D01*
X147462427Y-30662427D01*
X147490994Y-30627618D01*
X147500000Y-30610769D01*
X147509006Y-30627618D01*
X147537573Y-30662427D01*
X147572382Y-30690994D01*
X147612095Y-30712221D01*
X147655187Y-30725292D01*
X147671400Y-30726889D01*
X147671400Y-30871369D01*
X147669811Y-30887501D01*
X147671400Y-30903633D01*
X147671400Y-30903635D01*
X147676155Y-30951917D01*
X147687032Y-30987772D01*
X147694945Y-31013858D01*
X147725458Y-31070944D01*
X147734375Y-31081809D01*
X147766521Y-31120980D01*
X147779056Y-31131267D01*
X147946401Y-31298612D01*
X147946400Y-34870690D01*
X147760690Y-35056400D01*
X133347627Y-35056400D01*
X133337221Y-35022095D01*
X133328600Y-35005966D01*
X133328600Y-34994034D01*
X133337221Y-34977905D01*
X133350292Y-34934813D01*
X133354706Y-34890000D01*
X133354706Y-34369416D01*
X133906238Y-34920949D01*
X133916521Y-34933479D01*
X133929051Y-34943762D01*
X133929053Y-34943764D01*
X133966556Y-34974542D01*
X133997069Y-34990851D01*
X134023642Y-35005055D01*
X134085583Y-35023845D01*
X134133865Y-35028600D01*
X134133867Y-35028600D01*
X134149999Y-35030189D01*
X134166131Y-35028600D01*
X140958868Y-35028600D01*
X140975000Y-35030189D01*
X140991132Y-35028600D01*
X140991135Y-35028600D01*
X141039417Y-35023845D01*
X141101358Y-35005055D01*
X141158443Y-34974542D01*
X141208479Y-34933479D01*
X141218766Y-34920944D01*
X141435004Y-34704706D01*
X142075000Y-34704706D01*
X142119813Y-34700292D01*
X142162905Y-34687221D01*
X142202618Y-34665994D01*
X142237427Y-34637427D01*
X142265994Y-34602618D01*
X142287221Y-34562905D01*
X142300292Y-34519813D01*
X142304706Y-34475000D01*
X142304706Y-33525000D01*
X142300292Y-33480187D01*
X142287221Y-33437095D01*
X142265994Y-33397382D01*
X142237427Y-33362573D01*
X142202618Y-33334006D01*
X142162905Y-33312779D01*
X142119813Y-33299708D01*
X142075000Y-33295294D01*
X141275000Y-33295294D01*
X141230187Y-33299708D01*
X141187095Y-33312779D01*
X141147382Y-33334006D01*
X141112573Y-33362573D01*
X141084006Y-33397382D01*
X141062779Y-33437095D01*
X141049708Y-33480187D01*
X141045294Y-33525000D01*
X141045294Y-34164996D01*
X140838890Y-34371400D01*
X134755819Y-34371400D01*
X134760011Y-34368599D01*
X138038953Y-34368599D01*
X138060001Y-34370672D01*
X138081049Y-34368599D01*
X138144021Y-34362397D01*
X138224812Y-34337889D01*
X138299270Y-34298091D01*
X138364533Y-34244531D01*
X138377956Y-34228175D01*
X138788182Y-33817950D01*
X138804532Y-33804532D01*
X138858092Y-33739269D01*
X138889153Y-33681157D01*
X138897890Y-33664812D01*
X138922398Y-33584021D01*
X138930673Y-33500000D01*
X138928600Y-33478952D01*
X138928600Y-32754706D01*
X139125000Y-32754706D01*
X139218586Y-32745489D01*
X139308576Y-32718191D01*
X139342608Y-32700000D01*
X144870294Y-32700000D01*
X144870294Y-34500000D01*
X144874708Y-34544813D01*
X144887779Y-34587905D01*
X144909006Y-34627618D01*
X144937573Y-34662427D01*
X144972382Y-34690994D01*
X145012095Y-34712221D01*
X145055187Y-34725292D01*
X145100000Y-34729706D01*
X146300000Y-34729706D01*
X146344813Y-34725292D01*
X146387905Y-34712221D01*
X146427618Y-34690994D01*
X146462427Y-34662427D01*
X146490994Y-34627618D01*
X146512221Y-34587905D01*
X146525292Y-34544813D01*
X146529706Y-34500000D01*
X146529706Y-32700000D01*
X146525292Y-32655187D01*
X146512221Y-32612095D01*
X146490994Y-32572382D01*
X146462427Y-32537573D01*
X146427618Y-32509006D01*
X146387905Y-32487779D01*
X146344813Y-32474708D01*
X146300000Y-32470294D01*
X145100000Y-32470294D01*
X145055187Y-32474708D01*
X145012095Y-32487779D01*
X144972382Y-32509006D01*
X144937573Y-32537573D01*
X144909006Y-32572382D01*
X144887779Y-32612095D01*
X144874708Y-32655187D01*
X144870294Y-32700000D01*
X139342608Y-32700000D01*
X139391510Y-32673861D01*
X139464203Y-32614203D01*
X139523861Y-32541510D01*
X139568191Y-32458576D01*
X139595489Y-32368586D01*
X139604706Y-32275000D01*
X139604706Y-31525000D01*
X139595489Y-31431414D01*
X139568191Y-31341424D01*
X139523861Y-31258490D01*
X139464203Y-31185797D01*
X139391510Y-31126139D01*
X139308576Y-31081809D01*
X139218586Y-31054511D01*
X139125000Y-31045294D01*
X137875000Y-31045294D01*
X137781414Y-31054511D01*
X137691424Y-31081809D01*
X137608490Y-31126139D01*
X137535797Y-31185797D01*
X137476139Y-31258490D01*
X137431809Y-31341424D01*
X137404511Y-31431414D01*
X137395294Y-31525000D01*
X137395294Y-32275000D01*
X137404511Y-32368586D01*
X137431809Y-32458576D01*
X137476139Y-32541510D01*
X137535797Y-32614203D01*
X137608490Y-32673861D01*
X137691424Y-32718191D01*
X137781414Y-32745489D01*
X137875000Y-32754706D01*
X138071400Y-32754706D01*
X138071400Y-33322468D01*
X137882470Y-33511399D01*
X134960353Y-33511399D01*
X134962221Y-33507905D01*
X134975292Y-33464813D01*
X134979706Y-33420000D01*
X134979706Y-31970000D01*
X134975292Y-31925187D01*
X134962221Y-31882095D01*
X134940994Y-31842382D01*
X134912427Y-31807573D01*
X134907586Y-31803600D01*
X134944525Y-31803600D01*
X135051479Y-31782326D01*
X135152228Y-31740594D01*
X135242900Y-31680009D01*
X135320009Y-31602900D01*
X135380594Y-31512228D01*
X135422326Y-31411479D01*
X135443600Y-31304525D01*
X135443600Y-31195475D01*
X135422326Y-31088521D01*
X135380594Y-30987772D01*
X135320009Y-30897100D01*
X135242900Y-30819991D01*
X135152228Y-30759406D01*
X135051479Y-30717674D01*
X134944525Y-30696400D01*
X134835475Y-30696400D01*
X134728521Y-30717674D01*
X134627772Y-30759406D01*
X134537100Y-30819991D01*
X134459991Y-30897100D01*
X134399406Y-30987772D01*
X134357674Y-31088521D01*
X134336400Y-31195475D01*
X134336400Y-31304525D01*
X134357674Y-31411479D01*
X134399406Y-31512228D01*
X134459991Y-31602900D01*
X134537100Y-31680009D01*
X134627323Y-31740294D01*
X134150000Y-31740294D01*
X134105187Y-31744708D01*
X134062095Y-31757779D01*
X134025000Y-31777607D01*
X133987905Y-31757779D01*
X133944813Y-31744708D01*
X133900000Y-31740294D01*
X133600000Y-31740294D01*
X133555187Y-31744708D01*
X133512095Y-31757779D01*
X133500000Y-31764244D01*
X133487905Y-31757779D01*
X133444813Y-31744708D01*
X133400000Y-31740294D01*
X133100000Y-31740294D01*
X133078600Y-31742402D01*
X133078600Y-31453670D01*
X133080189Y-31437538D01*
X133078600Y-31421404D01*
X133073845Y-31373122D01*
X133055055Y-31311181D01*
X133025792Y-31256434D01*
X133024542Y-31254095D01*
X132993764Y-31216592D01*
X132993762Y-31216590D01*
X132983479Y-31204060D01*
X132970950Y-31193778D01*
X132629217Y-30852046D01*
X132618930Y-30839511D01*
X132568894Y-30798448D01*
X132511809Y-30767935D01*
X132449868Y-30749145D01*
X132401586Y-30744390D01*
X132401583Y-30744390D01*
X132385451Y-30742801D01*
X132369319Y-30744390D01*
X132130680Y-30744390D01*
X132114548Y-30742801D01*
X132098416Y-30744390D01*
X132098414Y-30744390D01*
X132050132Y-30749145D01*
X131988191Y-30767935D01*
X131950990Y-30787820D01*
X131931105Y-30798448D01*
X131904855Y-30819991D01*
X131881070Y-30839511D01*
X131870787Y-30852041D01*
X131529052Y-31193777D01*
X131516522Y-31204060D01*
X131506239Y-31216590D01*
X131506236Y-31216593D01*
X131475458Y-31254096D01*
X131444945Y-31311182D01*
X131426156Y-31373123D01*
X131419811Y-31437539D01*
X131421401Y-31453681D01*
X131421401Y-31742402D01*
X131400000Y-31740294D01*
X131100000Y-31740294D01*
X131055187Y-31744708D01*
X131012095Y-31757779D01*
X131000000Y-31764244D01*
X130987905Y-31757779D01*
X130944813Y-31744708D01*
X130900000Y-31740294D01*
X130600000Y-31740294D01*
X130555187Y-31744708D01*
X130512095Y-31757779D01*
X130500000Y-31764244D01*
X130487905Y-31757779D01*
X130444813Y-31744708D01*
X130400000Y-31740294D01*
X130100000Y-31740294D01*
X130055187Y-31744708D01*
X130012095Y-31757779D01*
X129975000Y-31777607D01*
X129937905Y-31757779D01*
X129894813Y-31744708D01*
X129850000Y-31740294D01*
X129372677Y-31740294D01*
X129462900Y-31680009D01*
X129540009Y-31602900D01*
X129600594Y-31512228D01*
X129642326Y-31411479D01*
X129663600Y-31304525D01*
X129663600Y-31195475D01*
X129642326Y-31088521D01*
X129600594Y-30987772D01*
X129540009Y-30897100D01*
X129462900Y-30819991D01*
X129372228Y-30759406D01*
X129271479Y-30717674D01*
X129164525Y-30696400D01*
X129055475Y-30696400D01*
X128948521Y-30717674D01*
X128847772Y-30759406D01*
X128757100Y-30819991D01*
X128679991Y-30897100D01*
X128619406Y-30987772D01*
X128577674Y-31088521D01*
X128556400Y-31195475D01*
X128556400Y-31304525D01*
X128577674Y-31411479D01*
X128619406Y-31512228D01*
X128679991Y-31602900D01*
X128757100Y-31680009D01*
X128847772Y-31740594D01*
X128948521Y-31782326D01*
X129055475Y-31803600D01*
X129092414Y-31803600D01*
X129087573Y-31807573D01*
X129059006Y-31842382D01*
X129037779Y-31882095D01*
X129024708Y-31925187D01*
X129020294Y-31970000D01*
X129020294Y-33420000D01*
X129024708Y-33464813D01*
X129037779Y-33507905D01*
X129059006Y-33547618D01*
X129087573Y-33582427D01*
X129121400Y-33610188D01*
X129121400Y-33629988D01*
X129081560Y-33689613D01*
X129041713Y-33785812D01*
X129021400Y-33887936D01*
X129021400Y-33992062D01*
X129041713Y-34094186D01*
X129081560Y-34190385D01*
X129139409Y-34276962D01*
X129157741Y-34295294D01*
X128625000Y-34295294D01*
X128580187Y-34299708D01*
X128537095Y-34312779D01*
X128497382Y-34334006D01*
X128462573Y-34362573D01*
X128434006Y-34397382D01*
X128412779Y-34437095D01*
X128399708Y-34480187D01*
X128395294Y-34525000D01*
X128395294Y-35475000D01*
X128399708Y-35519813D01*
X128412779Y-35562905D01*
X128434006Y-35602618D01*
X128462573Y-35637427D01*
X128497382Y-35665994D01*
X128537095Y-35687221D01*
X128580187Y-35700292D01*
X128625000Y-35704706D01*
X129425000Y-35704706D01*
X129469813Y-35700292D01*
X129512905Y-35687221D01*
X129552618Y-35665994D01*
X129587427Y-35637427D01*
X129615994Y-35602618D01*
X129637221Y-35562905D01*
X129650292Y-35519813D01*
X129654706Y-35475000D01*
X129654706Y-35328600D01*
X129833868Y-35328600D01*
X129850000Y-35330189D01*
X129866132Y-35328600D01*
X129866135Y-35328600D01*
X129914417Y-35323845D01*
X129976358Y-35305055D01*
X130033443Y-35274542D01*
X130083479Y-35233479D01*
X130093766Y-35220944D01*
X130470949Y-34843762D01*
X130483479Y-34833479D01*
X130493764Y-34820947D01*
X130524542Y-34783444D01*
X130547038Y-34741357D01*
X130555055Y-34726358D01*
X130573845Y-34664417D01*
X130578600Y-34616135D01*
X130578600Y-34616123D01*
X130580188Y-34600001D01*
X130578600Y-34583879D01*
X130578600Y-33647598D01*
X130600000Y-33649706D01*
X130747496Y-33649706D01*
X130725458Y-33676559D01*
X130709424Y-33706557D01*
X130694945Y-33733645D01*
X130676155Y-33795586D01*
X130672279Y-33834945D01*
X130669811Y-33860002D01*
X130671400Y-33876134D01*
X130671400Y-34235965D01*
X130662779Y-34252095D01*
X130649708Y-34295187D01*
X130645294Y-34340000D01*
X130645294Y-34890000D01*
X130649708Y-34934813D01*
X130662779Y-34977905D01*
X130671400Y-34994035D01*
X130671401Y-35102202D01*
X130652109Y-35165800D01*
X130645293Y-35235000D01*
X130645293Y-35535000D01*
X130652109Y-35604200D01*
X130671400Y-35667798D01*
X130671401Y-35983856D01*
X130669811Y-36000000D01*
X130676155Y-36064417D01*
X130694945Y-36126358D01*
X130725458Y-36183443D01*
X130766521Y-36233479D01*
X130782265Y-36246400D01*
X124012407Y-36246400D01*
X123661022Y-36211946D01*
X123334965Y-36113504D01*
X123034230Y-35953601D01*
X122770283Y-35738330D01*
X122553177Y-35475894D01*
X122391181Y-35176288D01*
X122290462Y-34850917D01*
X122253602Y-34500221D01*
X122253600Y-34499680D01*
X122253600Y-31305125D01*
X122521400Y-31305125D01*
X122521400Y-31694875D01*
X122597436Y-32077136D01*
X122746587Y-32437219D01*
X122963121Y-32761284D01*
X123238716Y-33036879D01*
X123562781Y-33253413D01*
X123922864Y-33402564D01*
X124305125Y-33478600D01*
X124694875Y-33478600D01*
X125077136Y-33402564D01*
X125437219Y-33253413D01*
X125761284Y-33036879D01*
X126036879Y-32761284D01*
X126253413Y-32437219D01*
X126402564Y-32077136D01*
X126478600Y-31694875D01*
X126478600Y-31305125D01*
X126402564Y-30922864D01*
X126253413Y-30562781D01*
X126036879Y-30238716D01*
X125761284Y-29963121D01*
X125437219Y-29746587D01*
X125077136Y-29597436D01*
X124694875Y-29521400D01*
X124305125Y-29521400D01*
X123922864Y-29597436D01*
X123562781Y-29746587D01*
X123238716Y-29963121D01*
X122963121Y-30238716D01*
X122746587Y-30562781D01*
X122597436Y-30922864D01*
X122521400Y-31305125D01*
X122253600Y-31305125D01*
X122253600Y-28512407D01*
X122288054Y-28161022D01*
X122386498Y-27834960D01*
X122546399Y-27534232D01*
X122761670Y-27270283D01*
X123024106Y-27053177D01*
X123323712Y-26891181D01*
X123649082Y-26790462D01*
X123999778Y-26753602D01*
X124000320Y-26753600D01*
X154987593Y-26753600D01*
X155338978Y-26788054D01*
%TA.AperFunction,Conductor*%
D27*
G36*
X155338978Y-26788054D02*
G01*
X155665040Y-26886498D01*
X155965768Y-27046399D01*
X156229717Y-27261670D01*
X156446823Y-27524106D01*
X156608819Y-27823712D01*
X156709538Y-28149082D01*
X156746398Y-28499778D01*
X156746400Y-28500321D01*
X156746401Y-34487583D01*
X156711946Y-34838978D01*
X156613504Y-35165035D01*
X156453601Y-35465770D01*
X156238330Y-35729717D01*
X155975894Y-35946823D01*
X155676288Y-36108819D01*
X155350917Y-36209538D01*
X155000221Y-36246398D01*
X154999680Y-36246400D01*
X133717735Y-36246400D01*
X133733479Y-36233479D01*
X133743766Y-36220944D01*
X133811110Y-36153600D01*
X148077068Y-36153600D01*
X148093200Y-36155189D01*
X148109332Y-36153600D01*
X148109335Y-36153600D01*
X148157617Y-36148845D01*
X148219558Y-36130055D01*
X148276643Y-36099542D01*
X148326679Y-36058479D01*
X148336966Y-36045944D01*
X148945950Y-35436961D01*
X148958479Y-35426679D01*
X148971034Y-35411381D01*
X148999542Y-35376644D01*
X149019758Y-35338822D01*
X149030055Y-35319558D01*
X149048845Y-35257617D01*
X149053600Y-35209335D01*
X149053600Y-35209333D01*
X149055189Y-35193201D01*
X149053600Y-35177069D01*
X149053600Y-32700000D01*
X150470294Y-32700000D01*
X150470294Y-34500000D01*
X150474708Y-34544813D01*
X150487779Y-34587905D01*
X150509006Y-34627618D01*
X150537573Y-34662427D01*
X150572382Y-34690994D01*
X150612095Y-34712221D01*
X150655187Y-34725292D01*
X150700000Y-34729706D01*
X151900000Y-34729706D01*
X151944813Y-34725292D01*
X151987905Y-34712221D01*
X152027618Y-34690994D01*
X152062427Y-34662427D01*
X152090994Y-34627618D01*
X152112221Y-34587905D01*
X152125292Y-34544813D01*
X152129706Y-34500000D01*
X152129706Y-32700000D01*
X152125292Y-32655187D01*
X152112221Y-32612095D01*
X152090994Y-32572382D01*
X152062427Y-32537573D01*
X152027618Y-32509006D01*
X151987905Y-32487779D01*
X151944813Y-32474708D01*
X151900000Y-32470294D01*
X150700000Y-32470294D01*
X150655187Y-32474708D01*
X150612095Y-32487779D01*
X150572382Y-32509006D01*
X150537573Y-32537573D01*
X150509006Y-32572382D01*
X150487779Y-32612095D01*
X150474708Y-32655187D01*
X150470294Y-32700000D01*
X149053600Y-32700000D01*
X149053600Y-31298611D01*
X149220945Y-31131266D01*
X149233479Y-31120980D01*
X149260117Y-31088521D01*
X149274542Y-31070945D01*
X149305055Y-31013859D01*
X149306658Y-31008574D01*
X149323845Y-30951918D01*
X149328600Y-30903636D01*
X149328600Y-30903633D01*
X149330189Y-30887501D01*
X149328600Y-30871369D01*
X149328600Y-30726889D01*
X149344813Y-30725292D01*
X149387905Y-30712221D01*
X149427618Y-30690994D01*
X149462427Y-30662427D01*
X149490994Y-30627618D01*
X149500000Y-30610769D01*
X149509006Y-30627618D01*
X149537573Y-30662427D01*
X149572382Y-30690994D01*
X149612095Y-30712221D01*
X149655187Y-30725292D01*
X149700000Y-30729706D01*
X150300000Y-30729706D01*
X150344813Y-30725292D01*
X150387905Y-30712221D01*
X150427618Y-30690994D01*
X150462427Y-30662427D01*
X150490994Y-30627618D01*
X150512221Y-30587905D01*
X150525292Y-30544813D01*
X150529706Y-30500000D01*
X150529706Y-28950000D01*
X150525292Y-28905187D01*
X150512221Y-28862095D01*
X150490994Y-28822382D01*
X150462427Y-28787573D01*
X150428600Y-28759812D01*
X150428600Y-27521048D01*
X150430673Y-27500000D01*
X150422398Y-27415980D01*
X150397890Y-27335189D01*
X150358092Y-27260731D01*
X150304532Y-27195468D01*
X150239269Y-27141908D01*
X150164811Y-27102110D01*
X150084020Y-27077602D01*
X150021048Y-27071400D01*
X150000000Y-27069327D01*
X149978952Y-27071400D01*
X142446045Y-27071400D01*
X142424999Y-27069327D01*
X142403953Y-27071400D01*
X142403952Y-27071400D01*
X142340980Y-27077602D01*
X142260189Y-27102110D01*
X142185731Y-27141908D01*
X142120468Y-27195468D01*
X142107049Y-27211819D01*
X141148575Y-28170294D01*
X140299999Y-28170294D01*
X140206413Y-28179511D01*
X140116424Y-28206809D01*
X140033489Y-28251139D01*
X139960796Y-28310796D01*
X139901139Y-28383489D01*
X139856809Y-28466424D01*
X139829511Y-28556413D01*
X139820294Y-28649999D01*
X139820294Y-29200001D01*
X139829511Y-29293587D01*
X139856809Y-29383576D01*
X139901139Y-29466511D01*
X139960796Y-29539204D01*
X140033489Y-29598861D01*
X140116424Y-29643191D01*
X140206413Y-29670489D01*
X140299999Y-29679706D01*
X141700001Y-29679706D01*
X141793587Y-29670489D01*
X141883576Y-29643191D01*
X141966511Y-29598861D01*
X142039204Y-29539204D01*
X142098861Y-29466511D01*
X142143191Y-29383576D01*
X142170489Y-29293587D01*
X142179706Y-29200001D01*
X142179706Y-28649999D01*
X142170489Y-28556413D01*
X142143191Y-28466424D01*
X142115853Y-28415279D01*
X142602532Y-27928600D01*
X149571400Y-27928600D01*
X149571401Y-28759811D01*
X149537573Y-28787573D01*
X149509006Y-28822382D01*
X149500000Y-28839231D01*
X149490994Y-28822382D01*
X149462427Y-28787573D01*
X149427618Y-28759006D01*
X149387905Y-28737779D01*
X149344813Y-28724708D01*
X149300000Y-28720294D01*
X148700000Y-28720294D01*
X148655187Y-28724708D01*
X148612095Y-28737779D01*
X148572382Y-28759006D01*
X148537573Y-28787573D01*
X148509006Y-28822382D01*
X148500000Y-28839231D01*
X148490994Y-28822382D01*
X148462427Y-28787573D01*
X148427618Y-28759006D01*
X148387905Y-28737779D01*
X148344813Y-28724708D01*
X148300000Y-28720294D01*
X147700000Y-28720294D01*
X147655187Y-28724708D01*
X147612095Y-28737779D01*
X147572382Y-28759006D01*
X147537573Y-28787573D01*
X147509006Y-28822382D01*
X147500000Y-28839231D01*
X147490994Y-28822382D01*
X147462427Y-28787573D01*
X147427618Y-28759006D01*
X147387905Y-28737779D01*
X147344813Y-28724708D01*
X147300000Y-28720294D01*
X146700000Y-28720294D01*
X146655187Y-28724708D01*
X146612095Y-28737779D01*
X146572382Y-28759006D01*
X146537573Y-28787573D01*
X146509006Y-28822382D01*
X146487779Y-28862095D01*
X146474708Y-28905187D01*
X146470294Y-28950000D01*
X146470294Y-29296400D01*
X144552532Y-29296400D01*
X144329706Y-29073574D01*
X144329706Y-28600000D01*
X144320489Y-28506414D01*
X144293191Y-28416424D01*
X144248861Y-28333490D01*
X144189203Y-28260797D01*
X144116510Y-28201139D01*
X144033576Y-28156809D01*
X143943586Y-28129511D01*
X143850000Y-28120294D01*
X143150000Y-28120294D01*
X143056414Y-28129511D01*
X142966424Y-28156809D01*
X142883490Y-28201139D01*
X142810797Y-28260797D01*
X142751139Y-28333490D01*
X142706809Y-28416424D01*
X142679511Y-28506414D01*
X142670294Y-28600000D01*
X142670294Y-29073574D01*
X141972469Y-29771400D01*
X139577532Y-29771400D01*
X139532145Y-29726013D01*
X139568191Y-29658576D01*
X139595489Y-29568586D01*
X139604706Y-29475000D01*
X139604706Y-28725000D01*
X139595489Y-28631414D01*
X139568191Y-28541424D01*
X139523861Y-28458490D01*
X139464203Y-28385797D01*
X139391510Y-28326139D01*
X139308576Y-28281809D01*
X139218586Y-28254511D01*
X139125000Y-28245294D01*
X137875000Y-28245294D01*
X137781414Y-28254511D01*
X137691424Y-28281809D01*
X137608490Y-28326139D01*
X137535797Y-28385797D01*
X137476139Y-28458490D01*
X137431809Y-28541424D01*
X137404511Y-28631414D01*
X137395294Y-28725000D01*
X137395294Y-29475000D01*
X137404511Y-29568586D01*
X137431809Y-29658576D01*
X137476139Y-29741510D01*
X137535797Y-29814203D01*
X137608490Y-29873861D01*
X137691424Y-29918191D01*
X137781414Y-29945489D01*
X137875000Y-29954706D01*
X138548575Y-29954706D01*
X139082049Y-30488181D01*
X139095468Y-30504532D01*
X139160731Y-30558092D01*
X139235189Y-30597890D01*
X139315980Y-30622398D01*
X139378952Y-30628600D01*
X139378953Y-30628600D01*
X139399999Y-30630673D01*
X139421045Y-30628600D01*
X142128952Y-30628600D01*
X142150000Y-30630673D01*
X142171048Y-30628600D01*
X142234020Y-30622398D01*
X142314811Y-30597890D01*
X142389269Y-30558092D01*
X142454532Y-30504532D01*
X142467955Y-30488176D01*
X143376426Y-29579706D01*
X143623575Y-29579706D01*
X144057049Y-30013181D01*
X144070468Y-30029532D01*
X144135731Y-30083092D01*
X144210189Y-30122890D01*
X144266471Y-30139963D01*
X144290979Y-30147398D01*
X144375000Y-30155673D01*
X144396048Y-30153600D01*
X146470294Y-30153600D01*
X146470294Y-30500000D01*
X146474708Y-30544813D01*
X146487779Y-30587905D01*
X146509006Y-30627618D01*
X146537573Y-30662427D01*
X146572382Y-30690994D01*
X146612095Y-30712221D01*
X146655187Y-30725292D01*
X146700000Y-30729706D01*
X147300000Y-30729706D01*
X147344813Y-30725292D01*
X147387905Y-30712221D01*
X147427618Y-30690994D01*
X147462427Y-30662427D01*
X147490994Y-30627618D01*
X147500000Y-30610769D01*
X147509006Y-30627618D01*
X147537573Y-30662427D01*
X147572382Y-30690994D01*
X147612095Y-30712221D01*
X147655187Y-30725292D01*
X147671400Y-30726889D01*
X147671400Y-30871369D01*
X147669811Y-30887501D01*
X147671400Y-30903633D01*
X147671400Y-30903635D01*
X147676155Y-30951917D01*
X147687032Y-30987772D01*
X147694945Y-31013858D01*
X147725458Y-31070944D01*
X147734375Y-31081809D01*
X147766521Y-31120980D01*
X147779056Y-31131267D01*
X147946401Y-31298612D01*
X147946400Y-34870690D01*
X147760690Y-35056400D01*
X133347627Y-35056400D01*
X133337221Y-35022095D01*
X133328600Y-35005966D01*
X133328600Y-34994034D01*
X133337221Y-34977905D01*
X133350292Y-34934813D01*
X133354706Y-34890000D01*
X133354706Y-34369416D01*
X133906238Y-34920949D01*
X133916521Y-34933479D01*
X133929051Y-34943762D01*
X133929053Y-34943764D01*
X133966556Y-34974542D01*
X133997069Y-34990851D01*
X134023642Y-35005055D01*
X134085583Y-35023845D01*
X134133865Y-35028600D01*
X134133867Y-35028600D01*
X134149999Y-35030189D01*
X134166131Y-35028600D01*
X140958868Y-35028600D01*
X140975000Y-35030189D01*
X140991132Y-35028600D01*
X140991135Y-35028600D01*
X141039417Y-35023845D01*
X141101358Y-35005055D01*
X141158443Y-34974542D01*
X141208479Y-34933479D01*
X141218766Y-34920944D01*
X141435004Y-34704706D01*
X142075000Y-34704706D01*
X142119813Y-34700292D01*
X142162905Y-34687221D01*
X142202618Y-34665994D01*
X142237427Y-34637427D01*
X142265994Y-34602618D01*
X142287221Y-34562905D01*
X142300292Y-34519813D01*
X142304706Y-34475000D01*
X142304706Y-33525000D01*
X142300292Y-33480187D01*
X142287221Y-33437095D01*
X142265994Y-33397382D01*
X142237427Y-33362573D01*
X142202618Y-33334006D01*
X142162905Y-33312779D01*
X142119813Y-33299708D01*
X142075000Y-33295294D01*
X141275000Y-33295294D01*
X141230187Y-33299708D01*
X141187095Y-33312779D01*
X141147382Y-33334006D01*
X141112573Y-33362573D01*
X141084006Y-33397382D01*
X141062779Y-33437095D01*
X141049708Y-33480187D01*
X141045294Y-33525000D01*
X141045294Y-34164996D01*
X140838890Y-34371400D01*
X134755819Y-34371400D01*
X134760011Y-34368599D01*
X138038953Y-34368599D01*
X138060001Y-34370672D01*
X138081049Y-34368599D01*
X138144021Y-34362397D01*
X138224812Y-34337889D01*
X138299270Y-34298091D01*
X138364533Y-34244531D01*
X138377956Y-34228175D01*
X138788182Y-33817950D01*
X138804532Y-33804532D01*
X138858092Y-33739269D01*
X138889153Y-33681157D01*
X138897890Y-33664812D01*
X138922398Y-33584021D01*
X138930673Y-33500000D01*
X138928600Y-33478952D01*
X138928600Y-32754706D01*
X139125000Y-32754706D01*
X139218586Y-32745489D01*
X139308576Y-32718191D01*
X139342608Y-32700000D01*
X144870294Y-32700000D01*
X144870294Y-34500000D01*
X144874708Y-34544813D01*
X144887779Y-34587905D01*
X144909006Y-34627618D01*
X144937573Y-34662427D01*
X144972382Y-34690994D01*
X145012095Y-34712221D01*
X145055187Y-34725292D01*
X145100000Y-34729706D01*
X146300000Y-34729706D01*
X146344813Y-34725292D01*
X146387905Y-34712221D01*
X146427618Y-34690994D01*
X146462427Y-34662427D01*
X146490994Y-34627618D01*
X146512221Y-34587905D01*
X146525292Y-34544813D01*
X146529706Y-34500000D01*
X146529706Y-32700000D01*
X146525292Y-32655187D01*
X146512221Y-32612095D01*
X146490994Y-32572382D01*
X146462427Y-32537573D01*
X146427618Y-32509006D01*
X146387905Y-32487779D01*
X146344813Y-32474708D01*
X146300000Y-32470294D01*
X145100000Y-32470294D01*
X145055187Y-32474708D01*
X145012095Y-32487779D01*
X144972382Y-32509006D01*
X144937573Y-32537573D01*
X144909006Y-32572382D01*
X144887779Y-32612095D01*
X144874708Y-32655187D01*
X144870294Y-32700000D01*
X139342608Y-32700000D01*
X139391510Y-32673861D01*
X139464203Y-32614203D01*
X139523861Y-32541510D01*
X139568191Y-32458576D01*
X139595489Y-32368586D01*
X139604706Y-32275000D01*
X139604706Y-31525000D01*
X139595489Y-31431414D01*
X139568191Y-31341424D01*
X139523861Y-31258490D01*
X139464203Y-31185797D01*
X139391510Y-31126139D01*
X139308576Y-31081809D01*
X139218586Y-31054511D01*
X139125000Y-31045294D01*
X137875000Y-31045294D01*
X137781414Y-31054511D01*
X137691424Y-31081809D01*
X137608490Y-31126139D01*
X137535797Y-31185797D01*
X137476139Y-31258490D01*
X137431809Y-31341424D01*
X137404511Y-31431414D01*
X137395294Y-31525000D01*
X137395294Y-32275000D01*
X137404511Y-32368586D01*
X137431809Y-32458576D01*
X137476139Y-32541510D01*
X137535797Y-32614203D01*
X137608490Y-32673861D01*
X137691424Y-32718191D01*
X137781414Y-32745489D01*
X137875000Y-32754706D01*
X138071400Y-32754706D01*
X138071400Y-33322468D01*
X137882470Y-33511399D01*
X134960353Y-33511399D01*
X134962221Y-33507905D01*
X134975292Y-33464813D01*
X134979706Y-33420000D01*
X134979706Y-31970000D01*
X134975292Y-31925187D01*
X134962221Y-31882095D01*
X134940994Y-31842382D01*
X134912427Y-31807573D01*
X134907586Y-31803600D01*
X134944525Y-31803600D01*
X135051479Y-31782326D01*
X135152228Y-31740594D01*
X135242900Y-31680009D01*
X135320009Y-31602900D01*
X135380594Y-31512228D01*
X135422326Y-31411479D01*
X135443600Y-31304525D01*
X135443600Y-31195475D01*
X135422326Y-31088521D01*
X135380594Y-30987772D01*
X135320009Y-30897100D01*
X135242900Y-30819991D01*
X135152228Y-30759406D01*
X135051479Y-30717674D01*
X134944525Y-30696400D01*
X134835475Y-30696400D01*
X134728521Y-30717674D01*
X134627772Y-30759406D01*
X134537100Y-30819991D01*
X134459991Y-30897100D01*
X134399406Y-30987772D01*
X134357674Y-31088521D01*
X134336400Y-31195475D01*
X134336400Y-31304525D01*
X134357674Y-31411479D01*
X134399406Y-31512228D01*
X134459991Y-31602900D01*
X134537100Y-31680009D01*
X134627323Y-31740294D01*
X134150000Y-31740294D01*
X134105187Y-31744708D01*
X134062095Y-31757779D01*
X134025000Y-31777607D01*
X133987905Y-31757779D01*
X133944813Y-31744708D01*
X133900000Y-31740294D01*
X133600000Y-31740294D01*
X133555187Y-31744708D01*
X133512095Y-31757779D01*
X133500000Y-31764244D01*
X133487905Y-31757779D01*
X133444813Y-31744708D01*
X133400000Y-31740294D01*
X133100000Y-31740294D01*
X133078600Y-31742402D01*
X133078600Y-31453670D01*
X133080189Y-31437538D01*
X133078600Y-31421404D01*
X133073845Y-31373122D01*
X133055055Y-31311181D01*
X133025792Y-31256434D01*
X133024542Y-31254095D01*
X132993764Y-31216592D01*
X132993762Y-31216590D01*
X132983479Y-31204060D01*
X132970950Y-31193778D01*
X132629217Y-30852046D01*
X132618930Y-30839511D01*
X132568894Y-30798448D01*
X132511809Y-30767935D01*
X132449868Y-30749145D01*
X132401586Y-30744390D01*
X132401583Y-30744390D01*
X132385451Y-30742801D01*
X132369319Y-30744390D01*
X132130680Y-30744390D01*
X132114548Y-30742801D01*
X132098416Y-30744390D01*
X132098414Y-30744390D01*
X132050132Y-30749145D01*
X131988191Y-30767935D01*
X131950990Y-30787820D01*
X131931105Y-30798448D01*
X131904855Y-30819991D01*
X131881070Y-30839511D01*
X131870787Y-30852041D01*
X131529052Y-31193777D01*
X131516522Y-31204060D01*
X131506239Y-31216590D01*
X131506236Y-31216593D01*
X131475458Y-31254096D01*
X131444945Y-31311182D01*
X131426156Y-31373123D01*
X131419811Y-31437539D01*
X131421401Y-31453681D01*
X131421401Y-31742402D01*
X131400000Y-31740294D01*
X131100000Y-31740294D01*
X131055187Y-31744708D01*
X131012095Y-31757779D01*
X131000000Y-31764244D01*
X130987905Y-31757779D01*
X130944813Y-31744708D01*
X130900000Y-31740294D01*
X130600000Y-31740294D01*
X130555187Y-31744708D01*
X130512095Y-31757779D01*
X130500000Y-31764244D01*
X130487905Y-31757779D01*
X130444813Y-31744708D01*
X130400000Y-31740294D01*
X130100000Y-31740294D01*
X130055187Y-31744708D01*
X130012095Y-31757779D01*
X129975000Y-31777607D01*
X129937905Y-31757779D01*
X129894813Y-31744708D01*
X129850000Y-31740294D01*
X129372677Y-31740294D01*
X129462900Y-31680009D01*
X129540009Y-31602900D01*
X129600594Y-31512228D01*
X129642326Y-31411479D01*
X129663600Y-31304525D01*
X129663600Y-31195475D01*
X129642326Y-31088521D01*
X129600594Y-30987772D01*
X129540009Y-30897100D01*
X129462900Y-30819991D01*
X129372228Y-30759406D01*
X129271479Y-30717674D01*
X129164525Y-30696400D01*
X129055475Y-30696400D01*
X128948521Y-30717674D01*
X128847772Y-30759406D01*
X128757100Y-30819991D01*
X128679991Y-30897100D01*
X128619406Y-30987772D01*
X128577674Y-31088521D01*
X128556400Y-31195475D01*
X128556400Y-31304525D01*
X128577674Y-31411479D01*
X128619406Y-31512228D01*
X128679991Y-31602900D01*
X128757100Y-31680009D01*
X128847772Y-31740594D01*
X128948521Y-31782326D01*
X129055475Y-31803600D01*
X129092414Y-31803600D01*
X129087573Y-31807573D01*
X129059006Y-31842382D01*
X129037779Y-31882095D01*
X129024708Y-31925187D01*
X129020294Y-31970000D01*
X129020294Y-33420000D01*
X129024708Y-33464813D01*
X129037779Y-33507905D01*
X129059006Y-33547618D01*
X129087573Y-33582427D01*
X129121400Y-33610188D01*
X129121400Y-33629988D01*
X129081560Y-33689613D01*
X129041713Y-33785812D01*
X129021400Y-33887936D01*
X129021400Y-33992062D01*
X129041713Y-34094186D01*
X129081560Y-34190385D01*
X129139409Y-34276962D01*
X129157741Y-34295294D01*
X128625000Y-34295294D01*
X128580187Y-34299708D01*
X128537095Y-34312779D01*
X128497382Y-34334006D01*
X128462573Y-34362573D01*
X128434006Y-34397382D01*
X128412779Y-34437095D01*
X128399708Y-34480187D01*
X128395294Y-34525000D01*
X128395294Y-35475000D01*
X128399708Y-35519813D01*
X128412779Y-35562905D01*
X128434006Y-35602618D01*
X128462573Y-35637427D01*
X128497382Y-35665994D01*
X128537095Y-35687221D01*
X128580187Y-35700292D01*
X128625000Y-35704706D01*
X129425000Y-35704706D01*
X129469813Y-35700292D01*
X129512905Y-35687221D01*
X129552618Y-35665994D01*
X129587427Y-35637427D01*
X129615994Y-35602618D01*
X129637221Y-35562905D01*
X129650292Y-35519813D01*
X129654706Y-35475000D01*
X129654706Y-35328600D01*
X129833868Y-35328600D01*
X129850000Y-35330189D01*
X129866132Y-35328600D01*
X129866135Y-35328600D01*
X129914417Y-35323845D01*
X129976358Y-35305055D01*
X130033443Y-35274542D01*
X130083479Y-35233479D01*
X130093766Y-35220944D01*
X130470949Y-34843762D01*
X130483479Y-34833479D01*
X130493764Y-34820947D01*
X130524542Y-34783444D01*
X130547038Y-34741357D01*
X130555055Y-34726358D01*
X130573845Y-34664417D01*
X130578600Y-34616135D01*
X130578600Y-34616123D01*
X130580188Y-34600001D01*
X130578600Y-34583879D01*
X130578600Y-33647598D01*
X130600000Y-33649706D01*
X130747496Y-33649706D01*
X130725458Y-33676559D01*
X130709424Y-33706557D01*
X130694945Y-33733645D01*
X130676155Y-33795586D01*
X130672279Y-33834945D01*
X130669811Y-33860002D01*
X130671400Y-33876134D01*
X130671400Y-34235965D01*
X130662779Y-34252095D01*
X130649708Y-34295187D01*
X130645294Y-34340000D01*
X130645294Y-34890000D01*
X130649708Y-34934813D01*
X130662779Y-34977905D01*
X130671400Y-34994035D01*
X130671401Y-35102202D01*
X130652109Y-35165800D01*
X130645293Y-35235000D01*
X130645293Y-35535000D01*
X130652109Y-35604200D01*
X130671400Y-35667798D01*
X130671401Y-35983856D01*
X130669811Y-36000000D01*
X130676155Y-36064417D01*
X130694945Y-36126358D01*
X130725458Y-36183443D01*
X130766521Y-36233479D01*
X130782265Y-36246400D01*
X124012407Y-36246400D01*
X123661022Y-36211946D01*
X123334965Y-36113504D01*
X123034230Y-35953601D01*
X122770283Y-35738330D01*
X122553177Y-35475894D01*
X122391181Y-35176288D01*
X122290462Y-34850917D01*
X122253602Y-34500221D01*
X122253600Y-34499680D01*
X122253600Y-31305125D01*
X122521400Y-31305125D01*
X122521400Y-31694875D01*
X122597436Y-32077136D01*
X122746587Y-32437219D01*
X122963121Y-32761284D01*
X123238716Y-33036879D01*
X123562781Y-33253413D01*
X123922864Y-33402564D01*
X124305125Y-33478600D01*
X124694875Y-33478600D01*
X125077136Y-33402564D01*
X125437219Y-33253413D01*
X125761284Y-33036879D01*
X126036879Y-32761284D01*
X126253413Y-32437219D01*
X126402564Y-32077136D01*
X126478600Y-31694875D01*
X126478600Y-31305125D01*
X126402564Y-30922864D01*
X126253413Y-30562781D01*
X126036879Y-30238716D01*
X125761284Y-29963121D01*
X125437219Y-29746587D01*
X125077136Y-29597436D01*
X124694875Y-29521400D01*
X124305125Y-29521400D01*
X123922864Y-29597436D01*
X123562781Y-29746587D01*
X123238716Y-29963121D01*
X122963121Y-30238716D01*
X122746587Y-30562781D01*
X122597436Y-30922864D01*
X122521400Y-31305125D01*
X122253600Y-31305125D01*
X122253600Y-28512407D01*
X122288054Y-28161022D01*
X122386498Y-27834960D01*
X122546399Y-27534232D01*
X122761670Y-27270283D01*
X123024106Y-27053177D01*
X123323712Y-26891181D01*
X123649082Y-26790462D01*
X123999778Y-26753602D01*
X124000320Y-26753600D01*
X154987593Y-26753600D01*
X155338978Y-26788054D01*
G37*
%TD.AperFunction*%
D26*
X131975458Y-34139142D02*
X131996303Y-34164542D01*
X132016521Y-34189178D01*
X132029056Y-34199465D01*
X132147473Y-34317882D01*
X132145294Y-34340000D01*
X132145294Y-34890000D01*
X132149708Y-34934813D01*
X132162779Y-34977905D01*
X132171400Y-34994035D01*
X132171401Y-35005965D01*
X132162779Y-35022095D01*
X132149708Y-35065187D01*
X132145294Y-35110000D01*
X132145294Y-35660000D01*
X132146417Y-35671400D01*
X131853583Y-35671400D01*
X131854706Y-35660000D01*
X131854706Y-35110000D01*
X131850292Y-35065187D01*
X131837221Y-35022095D01*
X131828600Y-35005966D01*
X131828600Y-34994034D01*
X131837221Y-34977905D01*
X131850292Y-34934813D01*
X131854706Y-34890000D01*
X131854706Y-34340000D01*
X131850292Y-34295187D01*
X131840804Y-34263907D01*
X131970950Y-34133761D01*
X131972084Y-34132830D01*
X131975458Y-34139142D01*
%TA.AperFunction,Conductor*%
D27*
G36*
X131975458Y-34139142D02*
G01*
X131996303Y-34164542D01*
X132016521Y-34189178D01*
X132029056Y-34199465D01*
X132147473Y-34317882D01*
X132145294Y-34340000D01*
X132145294Y-34890000D01*
X132149708Y-34934813D01*
X132162779Y-34977905D01*
X132171400Y-34994035D01*
X132171401Y-35005965D01*
X132162779Y-35022095D01*
X132149708Y-35065187D01*
X132145294Y-35110000D01*
X132145294Y-35660000D01*
X132146417Y-35671400D01*
X131853583Y-35671400D01*
X131854706Y-35660000D01*
X131854706Y-35110000D01*
X131850292Y-35065187D01*
X131837221Y-35022095D01*
X131828600Y-35005966D01*
X131828600Y-34994034D01*
X131837221Y-34977905D01*
X131850292Y-34934813D01*
X131854706Y-34890000D01*
X131854706Y-34340000D01*
X131850292Y-34295187D01*
X131840804Y-34263907D01*
X131970950Y-34133761D01*
X131972084Y-34132830D01*
X131975458Y-34139142D01*
G37*
%TD.AperFunction*%
%TD*%
M02*
