%TF.GenerationSoftware,KiCad,Pcbnew,(5.1.11)-1*%
%TF.CreationDate,2022-08-13T18:33:08+07:00*%
%TF.ProjectId,Eclipse Voyager,45636c69-7073-4652-9056-6f7961676572,rev?*%
%TF.SameCoordinates,Original*%
%TF.FileFunction,Soldermask,Top*%
%TF.FilePolarity,Negative*%
%FSLAX46Y46*%
G04 Gerber Fmt 4.6, Leading zero omitted, Abs format (unit mm)*
G04 Created by KiCad (PCBNEW (5.1.11)-1) date 2022-08-13 18:33:08*
%MOMM*%
%LPD*%
G01*
G04 APERTURE LIST*
%ADD10C,3.500000*%
%ADD11C,2.600000*%
%ADD12R,0.300000X0.550000*%
%ADD13R,0.250000X0.550000*%
%ADD14R,0.800000X0.950000*%
%ADD15R,1.200000X1.800000*%
%ADD16R,0.600000X1.550000*%
%ADD17R,0.600000X1.450000*%
%ADD18R,0.300000X1.450000*%
%ADD19C,0.650000*%
%ADD20O,1.000000X2.100000*%
%ADD21O,1.000000X1.600000*%
G04 APERTURE END LIST*
%TO.C,F1*%
G36*
G01*
X139125000Y-29725000D02*
X137875000Y-29725000D01*
G75*
G02*
X137625000Y-29475000I0J250000D01*
G01*
X137625000Y-28725000D01*
G75*
G02*
X137875000Y-28475000I250000J0D01*
G01*
X139125000Y-28475000D01*
G75*
G02*
X139375000Y-28725000I0J-250000D01*
G01*
X139375000Y-29475000D01*
G75*
G02*
X139125000Y-29725000I-250000J0D01*
G01*
G37*
G36*
G01*
X139125000Y-32525000D02*
X137875000Y-32525000D01*
G75*
G02*
X137625000Y-32275000I0J250000D01*
G01*
X137625000Y-31525000D01*
G75*
G02*
X137875000Y-31275000I250000J0D01*
G01*
X139125000Y-31275000D01*
G75*
G02*
X139375000Y-31525000I0J-250000D01*
G01*
X139375000Y-32275000D01*
G75*
G02*
X139125000Y-32525000I-250000J0D01*
G01*
G37*
%TD*%
D10*
%TO.C,H2*%
X124500000Y-31500000D03*
D11*
X124500000Y-31500000D03*
%TD*%
D10*
%TO.C,H1*%
X154500000Y-31500000D03*
%TD*%
D12*
%TO.C,U1*%
X132000000Y-34615000D03*
D13*
X131000000Y-34615000D03*
X132500000Y-34615000D03*
X133000000Y-34615000D03*
X131500000Y-34615000D03*
X133000000Y-35385000D03*
X132500000Y-35385000D03*
D12*
X132000000Y-35385000D03*
D13*
X131500000Y-35385000D03*
G36*
G01*
X130875000Y-35535000D02*
X130875000Y-35235000D01*
G75*
G02*
X131000000Y-35110000I125000J0D01*
G01*
X131000000Y-35110000D01*
G75*
G02*
X131125000Y-35235000I0J-125000D01*
G01*
X131125000Y-35535000D01*
G75*
G02*
X131000000Y-35660000I-125000J0D01*
G01*
X131000000Y-35660000D01*
G75*
G02*
X130875000Y-35535000I0J125000D01*
G01*
G37*
%TD*%
D14*
%TO.C,R2*%
X129025000Y-35000000D03*
X127375000Y-35000000D03*
%TD*%
%TO.C,R1*%
X141675000Y-34000000D03*
X143325000Y-34000000D03*
%TD*%
%TO.C,L1*%
G36*
G01*
X141700001Y-29450000D02*
X140299999Y-29450000D01*
G75*
G02*
X140050000Y-29200001I0J249999D01*
G01*
X140050000Y-28649999D01*
G75*
G02*
X140299999Y-28400000I249999J0D01*
G01*
X141700001Y-28400000D01*
G75*
G02*
X141950000Y-28649999I0J-249999D01*
G01*
X141950000Y-29200001D01*
G75*
G02*
X141700001Y-29450000I-249999J0D01*
G01*
G37*
G36*
G01*
X141700001Y-32600000D02*
X140299999Y-32600000D01*
G75*
G02*
X140050000Y-32350001I0J249999D01*
G01*
X140050000Y-31799999D01*
G75*
G02*
X140299999Y-31550000I249999J0D01*
G01*
X141700001Y-31550000D01*
G75*
G02*
X141950000Y-31799999I0J-249999D01*
G01*
X141950000Y-32350001D01*
G75*
G02*
X141700001Y-32600000I-249999J0D01*
G01*
G37*
%TD*%
%TO.C,D1*%
G36*
G01*
X143850000Y-29350000D02*
X143150000Y-29350000D01*
G75*
G02*
X142900000Y-29100000I0J250000D01*
G01*
X142900000Y-28600000D01*
G75*
G02*
X143150000Y-28350000I250000J0D01*
G01*
X143850000Y-28350000D01*
G75*
G02*
X144100000Y-28600000I0J-250000D01*
G01*
X144100000Y-29100000D01*
G75*
G02*
X143850000Y-29350000I-250000J0D01*
G01*
G37*
G36*
G01*
X143850000Y-32650000D02*
X143150000Y-32650000D01*
G75*
G02*
X142900000Y-32400000I0J250000D01*
G01*
X142900000Y-31900000D01*
G75*
G02*
X143150000Y-31650000I250000J0D01*
G01*
X143850000Y-31650000D01*
G75*
G02*
X144100000Y-31900000I0J-250000D01*
G01*
X144100000Y-32400000D01*
G75*
G02*
X143850000Y-32650000I-250000J0D01*
G01*
G37*
%TD*%
D15*
%TO.C,J1*%
X151300000Y-33600000D03*
X145700000Y-33600000D03*
D16*
X147000000Y-29725000D03*
X148000000Y-29725000D03*
X150000000Y-29725000D03*
X149000000Y-29725000D03*
%TD*%
D17*
%TO.C,USB1*%
X128775000Y-32695000D03*
X135225000Y-32695000D03*
X129550000Y-32695000D03*
X134450000Y-32695000D03*
D18*
X133750000Y-32695000D03*
X130250000Y-32695000D03*
X133250000Y-32695000D03*
X130750000Y-32695000D03*
X132750000Y-32695000D03*
X131250000Y-32695000D03*
X131750000Y-32695000D03*
X132250000Y-32695000D03*
D19*
X129110000Y-31250000D03*
X134890000Y-31250000D03*
D20*
X136320000Y-31780000D03*
X127680000Y-31780000D03*
D21*
X136320000Y-27600000D03*
X127680000Y-27600000D03*
%TD*%
M02*
