%TF.GenerationSoftware,KiCad,Pcbnew,(5.1.11)-1*%
%TF.CreationDate,2022-08-13T18:33:08+07:00*%
%TF.ProjectId,Eclipse Voyager,45636c69-7073-4652-9056-6f7961676572,rev?*%
%TF.SameCoordinates,Original*%
%TF.FileFunction,Copper,L2,Bot*%
%TF.FilePolarity,Positive*%
%FSLAX46Y46*%
G04 Gerber Fmt 4.6, Leading zero omitted, Abs format (unit mm)*
G04 Created by KiCad (PCBNEW (5.1.11)-1) date 2022-08-13 18:33:08*
%MOMM*%
%LPD*%
G01*
G04 APERTURE LIST*
%TA.AperFunction,ComponentPad*%
%ADD10C,2.600000*%
%TD*%
%TA.AperFunction,ComponentPad*%
%ADD11C,3.500000*%
%TD*%
%TA.AperFunction,ComponentPad*%
%ADD12O,1.000000X2.100000*%
%TD*%
%TA.AperFunction,ComponentPad*%
%ADD13O,1.000000X1.600000*%
%TD*%
%TA.AperFunction,ViaPad*%
%ADD14C,0.500000*%
%TD*%
%TA.AperFunction,ViaPad*%
%ADD15C,0.600000*%
%TD*%
%TA.AperFunction,Conductor*%
%ADD16C,0.400000*%
%TD*%
%TA.AperFunction,Conductor*%
%ADD17C,0.152400*%
%TD*%
%TA.AperFunction,Conductor*%
%ADD18C,0.100000*%
%TD*%
G04 APERTURE END LIST*
D10*
%TO.P,H2,1*%
%TO.N,N/C*%
X124500000Y-31500000D03*
%TD*%
D11*
%TO.P,H1,1*%
%TO.N,GNDPWR*%
X154500000Y-31500000D03*
%TD*%
D12*
%TO.P,USB1,13*%
%TO.N,GNDPWR*%
X136320000Y-31780000D03*
X127680000Y-31780000D03*
D13*
X136320000Y-27600000D03*
X127680000Y-27600000D03*
%TD*%
D14*
%TO.N,GNDPWR*%
X132000000Y-35000000D03*
D15*
%TO.N,VBUS*%
X134450000Y-33939999D03*
X129550000Y-33939999D03*
%TD*%
D16*
%TO.N,VBUS*%
X134450000Y-33939999D02*
X129550000Y-33939999D01*
%TD*%
D17*
%TO.N,GNDPWR*%
X155338978Y-26788054D02*
X155665040Y-26886498D01*
X155965768Y-27046399D01*
X156229717Y-27261670D01*
X156446823Y-27524106D01*
X156608819Y-27823712D01*
X156709538Y-28149082D01*
X156746398Y-28499778D01*
X156746400Y-28500321D01*
X156746401Y-34487583D01*
X156711946Y-34838978D01*
X156613504Y-35165035D01*
X156453601Y-35465770D01*
X156238330Y-35729717D01*
X155975894Y-35946823D01*
X155676288Y-36108819D01*
X155350917Y-36209538D01*
X155000221Y-36246398D01*
X154999680Y-36246400D01*
X124012407Y-36246400D01*
X123661022Y-36211946D01*
X123334965Y-36113504D01*
X123034230Y-35953601D01*
X122770283Y-35738330D01*
X122553177Y-35475894D01*
X122391181Y-35176288D01*
X122290462Y-34850917D01*
X122253602Y-34500221D01*
X122253600Y-34499680D01*
X122253600Y-33887936D01*
X129021400Y-33887936D01*
X129021400Y-33992062D01*
X129041713Y-34094186D01*
X129081560Y-34190385D01*
X129139409Y-34276962D01*
X129213037Y-34350590D01*
X129299614Y-34408439D01*
X129395813Y-34448286D01*
X129497937Y-34468599D01*
X129602063Y-34468599D01*
X129704187Y-34448286D01*
X129800386Y-34408439D01*
X129860011Y-34368599D01*
X134139989Y-34368599D01*
X134199614Y-34408439D01*
X134295813Y-34448286D01*
X134397937Y-34468599D01*
X134502063Y-34468599D01*
X134604187Y-34448286D01*
X134700386Y-34408439D01*
X134786963Y-34350590D01*
X134860591Y-34276962D01*
X134918440Y-34190385D01*
X134958287Y-34094186D01*
X134978600Y-33992062D01*
X134978600Y-33887936D01*
X134958287Y-33785812D01*
X134918440Y-33689613D01*
X134860591Y-33603036D01*
X134786963Y-33529408D01*
X134700386Y-33471559D01*
X134604187Y-33431712D01*
X134502063Y-33411399D01*
X134397937Y-33411399D01*
X134295813Y-33431712D01*
X134199614Y-33471559D01*
X134139989Y-33511399D01*
X129860011Y-33511399D01*
X129800386Y-33471559D01*
X129704187Y-33431712D01*
X129602063Y-33411399D01*
X129497937Y-33411399D01*
X129395813Y-33431712D01*
X129299614Y-33471559D01*
X129213037Y-33529408D01*
X129139409Y-33603036D01*
X129081560Y-33689613D01*
X129041713Y-33785812D01*
X129021400Y-33887936D01*
X122253600Y-33887936D01*
X122253600Y-31349446D01*
X122971400Y-31349446D01*
X122971400Y-31650554D01*
X123030143Y-31945876D01*
X123145372Y-32224064D01*
X123312659Y-32474426D01*
X123525574Y-32687341D01*
X123775936Y-32854628D01*
X124054124Y-32969857D01*
X124349446Y-33028600D01*
X124650554Y-33028600D01*
X124945876Y-32969857D01*
X125224064Y-32854628D01*
X125474426Y-32687341D01*
X125687341Y-32474426D01*
X125854628Y-32224064D01*
X125969857Y-31945876D01*
X126028600Y-31650554D01*
X126028600Y-31349446D01*
X125997974Y-31195475D01*
X128556400Y-31195475D01*
X128556400Y-31304525D01*
X128577674Y-31411479D01*
X128619406Y-31512228D01*
X128679991Y-31602900D01*
X128757100Y-31680009D01*
X128847772Y-31740594D01*
X128948521Y-31782326D01*
X129055475Y-31803600D01*
X129164525Y-31803600D01*
X129271479Y-31782326D01*
X129372228Y-31740594D01*
X129462900Y-31680009D01*
X129540009Y-31602900D01*
X129600594Y-31512228D01*
X129642326Y-31411479D01*
X129663600Y-31304525D01*
X129663600Y-31195475D01*
X134336400Y-31195475D01*
X134336400Y-31304525D01*
X134357674Y-31411479D01*
X134399406Y-31512228D01*
X134459991Y-31602900D01*
X134537100Y-31680009D01*
X134627772Y-31740594D01*
X134728521Y-31782326D01*
X134835475Y-31803600D01*
X134944525Y-31803600D01*
X135051479Y-31782326D01*
X135152228Y-31740594D01*
X135242900Y-31680009D01*
X135320009Y-31602900D01*
X135380594Y-31512228D01*
X135422326Y-31411479D01*
X135443600Y-31304525D01*
X135443600Y-31195475D01*
X135422326Y-31088521D01*
X135380594Y-30987772D01*
X135320009Y-30897100D01*
X135242900Y-30819991D01*
X135152228Y-30759406D01*
X135051479Y-30717674D01*
X134944525Y-30696400D01*
X134835475Y-30696400D01*
X134728521Y-30717674D01*
X134627772Y-30759406D01*
X134537100Y-30819991D01*
X134459991Y-30897100D01*
X134399406Y-30987772D01*
X134357674Y-31088521D01*
X134336400Y-31195475D01*
X129663600Y-31195475D01*
X129642326Y-31088521D01*
X129600594Y-30987772D01*
X129540009Y-30897100D01*
X129462900Y-30819991D01*
X129372228Y-30759406D01*
X129271479Y-30717674D01*
X129164525Y-30696400D01*
X129055475Y-30696400D01*
X128948521Y-30717674D01*
X128847772Y-30759406D01*
X128757100Y-30819991D01*
X128679991Y-30897100D01*
X128619406Y-30987772D01*
X128577674Y-31088521D01*
X128556400Y-31195475D01*
X125997974Y-31195475D01*
X125969857Y-31054124D01*
X125854628Y-30775936D01*
X125687341Y-30525574D01*
X125474426Y-30312659D01*
X125224064Y-30145372D01*
X124945876Y-30030143D01*
X124650554Y-29971400D01*
X124349446Y-29971400D01*
X124054124Y-30030143D01*
X123775936Y-30145372D01*
X123525574Y-30312659D01*
X123312659Y-30525574D01*
X123145372Y-30775936D01*
X123030143Y-31054124D01*
X122971400Y-31349446D01*
X122253600Y-31349446D01*
X122253600Y-28512407D01*
X122288054Y-28161022D01*
X122386498Y-27834960D01*
X122546399Y-27534232D01*
X122761670Y-27270283D01*
X123024106Y-27053177D01*
X123323712Y-26891181D01*
X123649082Y-26790462D01*
X123999778Y-26753602D01*
X124000320Y-26753600D01*
X154987593Y-26753600D01*
X155338978Y-26788054D01*
%TA.AperFunction,Conductor*%
D18*
G36*
X155338978Y-26788054D02*
G01*
X155665040Y-26886498D01*
X155965768Y-27046399D01*
X156229717Y-27261670D01*
X156446823Y-27524106D01*
X156608819Y-27823712D01*
X156709538Y-28149082D01*
X156746398Y-28499778D01*
X156746400Y-28500321D01*
X156746401Y-34487583D01*
X156711946Y-34838978D01*
X156613504Y-35165035D01*
X156453601Y-35465770D01*
X156238330Y-35729717D01*
X155975894Y-35946823D01*
X155676288Y-36108819D01*
X155350917Y-36209538D01*
X155000221Y-36246398D01*
X154999680Y-36246400D01*
X124012407Y-36246400D01*
X123661022Y-36211946D01*
X123334965Y-36113504D01*
X123034230Y-35953601D01*
X122770283Y-35738330D01*
X122553177Y-35475894D01*
X122391181Y-35176288D01*
X122290462Y-34850917D01*
X122253602Y-34500221D01*
X122253600Y-34499680D01*
X122253600Y-33887936D01*
X129021400Y-33887936D01*
X129021400Y-33992062D01*
X129041713Y-34094186D01*
X129081560Y-34190385D01*
X129139409Y-34276962D01*
X129213037Y-34350590D01*
X129299614Y-34408439D01*
X129395813Y-34448286D01*
X129497937Y-34468599D01*
X129602063Y-34468599D01*
X129704187Y-34448286D01*
X129800386Y-34408439D01*
X129860011Y-34368599D01*
X134139989Y-34368599D01*
X134199614Y-34408439D01*
X134295813Y-34448286D01*
X134397937Y-34468599D01*
X134502063Y-34468599D01*
X134604187Y-34448286D01*
X134700386Y-34408439D01*
X134786963Y-34350590D01*
X134860591Y-34276962D01*
X134918440Y-34190385D01*
X134958287Y-34094186D01*
X134978600Y-33992062D01*
X134978600Y-33887936D01*
X134958287Y-33785812D01*
X134918440Y-33689613D01*
X134860591Y-33603036D01*
X134786963Y-33529408D01*
X134700386Y-33471559D01*
X134604187Y-33431712D01*
X134502063Y-33411399D01*
X134397937Y-33411399D01*
X134295813Y-33431712D01*
X134199614Y-33471559D01*
X134139989Y-33511399D01*
X129860011Y-33511399D01*
X129800386Y-33471559D01*
X129704187Y-33431712D01*
X129602063Y-33411399D01*
X129497937Y-33411399D01*
X129395813Y-33431712D01*
X129299614Y-33471559D01*
X129213037Y-33529408D01*
X129139409Y-33603036D01*
X129081560Y-33689613D01*
X129041713Y-33785812D01*
X129021400Y-33887936D01*
X122253600Y-33887936D01*
X122253600Y-31349446D01*
X122971400Y-31349446D01*
X122971400Y-31650554D01*
X123030143Y-31945876D01*
X123145372Y-32224064D01*
X123312659Y-32474426D01*
X123525574Y-32687341D01*
X123775936Y-32854628D01*
X124054124Y-32969857D01*
X124349446Y-33028600D01*
X124650554Y-33028600D01*
X124945876Y-32969857D01*
X125224064Y-32854628D01*
X125474426Y-32687341D01*
X125687341Y-32474426D01*
X125854628Y-32224064D01*
X125969857Y-31945876D01*
X126028600Y-31650554D01*
X126028600Y-31349446D01*
X125997974Y-31195475D01*
X128556400Y-31195475D01*
X128556400Y-31304525D01*
X128577674Y-31411479D01*
X128619406Y-31512228D01*
X128679991Y-31602900D01*
X128757100Y-31680009D01*
X128847772Y-31740594D01*
X128948521Y-31782326D01*
X129055475Y-31803600D01*
X129164525Y-31803600D01*
X129271479Y-31782326D01*
X129372228Y-31740594D01*
X129462900Y-31680009D01*
X129540009Y-31602900D01*
X129600594Y-31512228D01*
X129642326Y-31411479D01*
X129663600Y-31304525D01*
X129663600Y-31195475D01*
X134336400Y-31195475D01*
X134336400Y-31304525D01*
X134357674Y-31411479D01*
X134399406Y-31512228D01*
X134459991Y-31602900D01*
X134537100Y-31680009D01*
X134627772Y-31740594D01*
X134728521Y-31782326D01*
X134835475Y-31803600D01*
X134944525Y-31803600D01*
X135051479Y-31782326D01*
X135152228Y-31740594D01*
X135242900Y-31680009D01*
X135320009Y-31602900D01*
X135380594Y-31512228D01*
X135422326Y-31411479D01*
X135443600Y-31304525D01*
X135443600Y-31195475D01*
X135422326Y-31088521D01*
X135380594Y-30987772D01*
X135320009Y-30897100D01*
X135242900Y-30819991D01*
X135152228Y-30759406D01*
X135051479Y-30717674D01*
X134944525Y-30696400D01*
X134835475Y-30696400D01*
X134728521Y-30717674D01*
X134627772Y-30759406D01*
X134537100Y-30819991D01*
X134459991Y-30897100D01*
X134399406Y-30987772D01*
X134357674Y-31088521D01*
X134336400Y-31195475D01*
X129663600Y-31195475D01*
X129642326Y-31088521D01*
X129600594Y-30987772D01*
X129540009Y-30897100D01*
X129462900Y-30819991D01*
X129372228Y-30759406D01*
X129271479Y-30717674D01*
X129164525Y-30696400D01*
X129055475Y-30696400D01*
X128948521Y-30717674D01*
X128847772Y-30759406D01*
X128757100Y-30819991D01*
X128679991Y-30897100D01*
X128619406Y-30987772D01*
X128577674Y-31088521D01*
X128556400Y-31195475D01*
X125997974Y-31195475D01*
X125969857Y-31054124D01*
X125854628Y-30775936D01*
X125687341Y-30525574D01*
X125474426Y-30312659D01*
X125224064Y-30145372D01*
X124945876Y-30030143D01*
X124650554Y-29971400D01*
X124349446Y-29971400D01*
X124054124Y-30030143D01*
X123775936Y-30145372D01*
X123525574Y-30312659D01*
X123312659Y-30525574D01*
X123145372Y-30775936D01*
X123030143Y-31054124D01*
X122971400Y-31349446D01*
X122253600Y-31349446D01*
X122253600Y-28512407D01*
X122288054Y-28161022D01*
X122386498Y-27834960D01*
X122546399Y-27534232D01*
X122761670Y-27270283D01*
X123024106Y-27053177D01*
X123323712Y-26891181D01*
X123649082Y-26790462D01*
X123999778Y-26753602D01*
X124000320Y-26753600D01*
X154987593Y-26753600D01*
X155338978Y-26788054D01*
G37*
%TD.AperFunction*%
%TD*%
M02*
