0
SECTION
2
HEADER
9
$INSUNITS
70
4
9
$ACADVER
1
AC1014
9
$HANDSEED
5
FFFF
0
ENDSEC
0
SECTION
2
TABLES
0
TABLE
2
VPORT
5
8
100
AcDbSymbolTable
0
ENDTAB
0
TABLE
2
LTYPE
5
5
100
AcDbSymbolTable
0
LTYPE
5
14
100
AcDbSymbolTableRecord
100
AcDbLinetypeTableRecord
2
BYBLOCK
70
0
0
LTYPE
5
15
100
AcDbSymbolTableRecord
100
AcDbLinetypeTableRecord
2
BYLAYER
70
0
0
ENDTAB
0
TABLE
2
LAYER
5
2
100
AcDbSymbolTable
70
2
0
LAYER
5
50
100
AcDbSymbolTableRecord
100
AcDbLayerTableRecord
2
0
70
0
6
CONTINUOUS
0
ENDTAB
0
TABLE
2
STYLE
5
3
100
AcDbSymbolTable
70
1
0
STYLE
5
11
100
AcDbSymbolTableRecord
100
AcDbTextStyleTableRecord
2
STANDARD
70
0
0
ENDTAB
0
TABLE
2
VIEW
5
6
100
AcDbSymbolTable
70
0
0
ENDTAB
0
TABLE
2
UCS
5
7
100
AcDbSymbolTable
70
0
0
ENDTAB
0
TABLE
2
APPID
5
9
100
AcDbSymbolTable
70
2
0
APPID
5
12
100
AcDbSymbolTableRecord
100
AcDbRegAppTableRecord
2
ACAD
70
0
0
ENDTAB
0
TABLE
2
DIMSTYLE
5
A
100
AcDbSymbolTable
70
1
0
ENDTAB
0
TABLE
2
BLOCK_RECORD
5
1
100
AcDbSymbolTable
70
1
0
BLOCK_RECORD
5
1F
100
AcDbSymbolTableRecord
100
AcDbBlockTableRecord
2
*MODEL_SPACE
0
BLOCK_RECORD
5
1B
100
AcDbSymbolTableRecord
100
AcDbBlockTableRecord
2
*PAPER_SPACE
0
ENDTAB
0
ENDSEC
0
SECTION
2
BLOCKS
0
BLOCK
5
20
100
AcDbEntity
100
AcDbBlockBegin
2
*MODEL_SPACE
0
ENDBLK
5
21
100
AcDbEntity
100
AcDbBlockEnd
0
BLOCK
5
1C
100
AcDbEntity
100
AcDbBlockBegin
2
*PAPER_SPACE
0
ENDBLK
5
1D
100
AcDbEntity
100
AcDbBlockEnd
0
ENDSEC
0
SECTION
2
ENTITIES
0
LWPOLYLINE
5
100
100
AcDbEntity
8
0
100
AcDbPolyline
90
8
70
1
43
0.0
10
3.2875000000000005
20
-21.575000000000006
10
3.7875000000000005
20
-21.575000000000003
42
-0.41421356237309503
10
4.2875000000000005
20
-22.074999999999999
10
4.2874999999999988
20
-35.075000000000003
42
-0.41421356237309503
10
3.7875000000000005
20
-35.575000000000003
10
3.2875000000000005
20
-35.575000000000003
42
-0.41421356237309503
10
2.7875000000000005
20
-35.075000000000003
10
2.7875000000000068
20
-22.074999999999996
42
-0.41421356237309243
0
LWPOLYLINE
5
101
100
AcDbEntity
8
0
100
AcDbPolyline
90
8
70
1
43
0.0
10
107.80000000000001
20
-21.575000000000006
10
120.8
20
-21.574999999999992
42
-0.41421356237309503
10
121.30000000000001
20
-22.074999999999999
10
121.29999999999998
20
-35.075000000000003
42
-0.41421356237309503
10
120.8
20
-35.575000000000003
10
107.80000000000001
20
-35.57500000000001
42
-0.41421356237309503
10
107.30000000000001
20
-35.075000000000003
10
107.30000000000003
20
-22.074999999999996
42
-0.41421356237309243
0
LWPOLYLINE
5
102
100
AcDbEntity
8
0
100
AcDbPolyline
90
8
70
1
43
0.0
10
31.600000000000001
20
-21.575000000000003
42
0.41421356237309503
10
31.100000000000001
20
-22.074999999999999
10
31.100000000000001
20
-35.075000000000003
42
0.41421356237309503
10
31.600000000000001
20
-35.575000000000003
10
44.600000000000001
20
-35.575000000000003
42
0.41421356237309503
10
45.099999999999994
20
-35.075000000000003
10
45.099999999999994
20
-22.074999999999999
42
0.41421356237309503
10
44.600000000000001
20
-21.575000000000006
0
LWPOLYLINE
5
103
100
AcDbEntity
8
0
100
AcDbPolyline
90
8
70
1
43
0.0
10
50.650000000000006
20
-21.575000000000006
10
63.650000000000006
20
-21.575000000000003
42
-0.41421356237309503
10
64.150000000000006
20
-22.074999999999999
10
64.150000000000006
20
-35.075000000000003
42
-0.41421356237309503
10
63.650000000000006
20
-35.575000000000003
10
50.650000000000006
20
-35.575000000000003
42
-0.41421356237309503
10
50.150000000000006
20
-35.075000000000003
10
50.150000000000006
20
-22.074999999999996
42
-0.41421356237309243
0
LWPOLYLINE
5
104
100
AcDbEntity
8
0
100
AcDbPolyline
90
8
70
1
43
0.0
10
69.700000000000003
20
-21.575000000000006
10
82.700000000000017
20
-21.574999999999992
42
-0.41421356237309503
10
83.200000000000017
20
-22.074999999999999
10
83.200000000000003
20
-35.075000000000003
42
-0.41421356237309503
10
82.700000000000017
20
-35.575000000000003
10
69.700000000000003
20
-35.575000000000003
42
-0.41421356237309503
10
69.200000000000003
20
-35.075000000000003
10
69.200000000000017
20
-22.074999999999996
42
-0.41421356237309243
0
LWPOLYLINE
5
105
100
AcDbEntity
8
0
100
AcDbPolyline
90
8
70
1
43
0.0
10
126.85000000000001
20
-21.575000000000006
10
139.84999999999999
20
-21.574999999999992
42
-0.41421356237309503
10
140.34999999999999
20
-22.074999999999999
10
140.34999999999999
20
-35.075000000000003
42
-0.41421356237309503
10
139.84999999999999
20
-35.575000000000003
10
126.85000000000001
20
-35.57500000000001
42
-0.41421356237309503
10
126.34999999999999
20
-35.075000000000003
10
126.35000000000002
20
-22.074999999999996
42
-0.41421356237309243
0
LWPOLYLINE
5
106
100
AcDbEntity
8
0
100
AcDbPolyline
90
8
70
1
43
0.0
10
24.787500000000001
20
-21.575000000000006
10
25.287500000000005
20
-21.575000000000003
42
-0.41421356237309503
10
25.787500000000001
20
-22.074999999999999
10
25.787500000000001
20
-35.075000000000003
42
-0.41421356237309503
10
25.287500000000005
20
-35.575000000000003
10
24.787500000000001
20
-35.575000000000003
42
-0.41421356237309503
10
24.287500000000005
20
-35.075000000000003
10
24.287500000000009
20
-22.074999999999996
42
-0.41421356237309243
0
LWPOLYLINE
5
107
100
AcDbEntity
8
0
100
AcDbPolyline
90
8
70
1
43
0.0
10
88.75
20
-21.575000000000006
10
101.75
20
-21.574999999999992
42
-0.41421356237309503
10
102.25000000000001
20
-22.074999999999999
10
102.25000000000001
20
-35.075000000000003
42
-0.41421356237309503
10
101.75
20
-35.575000000000003
10
88.75
20
-35.57500000000001
42
-0.41421356237309503
10
88.25
20
-35.075000000000003
10
88.250000000000014
20
-22.074999999999996
42
-0.41421356237309243
0
LWPOLYLINE
5
108
100
AcDbEntity
8
0
100
AcDbPolyline
90
8
70
1
43
0.0
10
145.90000000000001
20
-21.575000000000006
10
158.90000000000001
20
-21.574999999999992
42
-0.41421356237309503
10
159.40000000000001
20
-22.074999999999999
10
159.40000000000001
20
-35.075000000000003
42
-0.41421356237309503
10
158.90000000000001
20
-35.575000000000003
10
145.90000000000001
20
-35.57500000000001
42
-0.41421356237309503
10
145.40000000000001
20
-35.075000000000003
10
145.40000000000003
20
-22.074999999999996
42
-0.41421356237309243
0
LWPOLYLINE
5
109
100
AcDbEntity
8
0
100
AcDbPolyline
90
8
70
1
43
0.0
10
164.95000000000002
20
-21.575000000000006
10
177.94999999999999
20
-21.574999999999992
42
-0.41421356237309503
10
178.44999999999999
20
-22.074999999999999
10
178.44999999999999
20
-35.075000000000003
42
-0.41421356237309503
10
177.94999999999999
20
-35.575000000000003
10
164.95000000000002
20
-35.57500000000001
42
-0.41421356237309503
10
164.44999999999999
20
-35.075000000000003
10
164.44999999999999
20
-22.074999999999996
42
-0.41421356237309243
0
LWPOLYLINE
5
110
100
AcDbEntity
8
0
100
AcDbPolyline
90
8
70
1
43
0.0
10
203.05000000000004
20
-21.575000000000006
10
216.05000000000004
20
-21.574999999999992
42
-0.41421356237309503
10
216.55000000000004
20
-22.074999999999999
10
216.55000000000004
20
-35.075000000000003
42
-0.41421356237309503
10
216.05000000000004
20
-35.575000000000003
10
203.05000000000004
20
-35.57500000000001
42
-0.41421356237309503
10
202.55000000000001
20
-35.075000000000003
10
202.55000000000001
20
-22.074999999999996
42
-0.41421356237309243
0
LWPOLYLINE
5
111
100
AcDbEntity
8
0
100
AcDbPolyline
90
8
70
1
43
0.0
10
184.00000000000003
20
-21.575000000000006
10
197.00000000000003
20
-21.574999999999992
42
-0.41421356237309503
10
197.50000000000003
20
-22.074999999999999
10
197.50000000000003
20
-35.075000000000003
42
-0.41421356237309503
10
197.00000000000003
20
-35.575000000000003
10
184.00000000000003
20
-35.57500000000001
42
-0.41421356237309503
10
183.5
20
-35.075000000000003
10
183.5
20
-22.074999999999996
42
-0.41421356237309243
0
LWPOLYLINE
5
112
100
AcDbEntity
8
0
100
AcDbPolyline
90
8
70
1
43
0.0
10
222.10000000000002
20
-21.575000000000006
10
235.10000000000002
20
-21.574999999999992
42
-0.41421356237309503
10
235.60000000000002
20
-22.074999999999999
10
235.60000000000002
20
-35.075000000000003
42
-0.41421356237309503
10
235.10000000000002
20
-35.575000000000003
10
222.10000000000002
20
-35.57500000000001
42
-0.41421356237309503
10
221.59999999999999
20
-35.075000000000003
10
221.59999999999999
20
-22.074999999999996
42
-0.41421356237309243
0
LWPOLYLINE
5
113
100
AcDbEntity
8
0
100
AcDbPolyline
90
8
70
1
43
0.0
10
260.46249999999998
20
-21.575000000000006
10
260.96249999999998
20
-21.574999999999992
42
-0.41421356237309503
10
261.46249999999998
20
-22.074999999999999
10
261.46249999999998
20
-35.075000000000003
42
-0.41421356237309503
10
260.96249999999998
20
-35.575000000000003
10
260.46249999999998
20
-35.57500000000001
42
-0.41421356237309503
10
259.96249999999998
20
-35.075000000000003
10
259.96249999999998
20
-22.074999999999996
42
-0.41421356237309243
0
LWPOLYLINE
5
114
100
AcDbEntity
8
0
100
AcDbPolyline
90
8
70
1
43
0.0
10
241.15000000000003
20
-21.575000000000006
10
254.15000000000003
20
-21.574999999999992
42
-0.41421356237309503
10
254.65000000000003
20
-22.074999999999999
10
254.65000000000003
20
-35.075000000000003
42
-0.41421356237309503
10
254.15000000000003
20
-35.575000000000003
10
241.15000000000003
20
-35.57500000000001
42
-0.41421356237309503
10
240.65000000000001
20
-35.075000000000003
10
240.65000000000001
20
-22.074999999999996
42
-0.41421356237309243
0
LWPOLYLINE
5
115
100
AcDbEntity
8
0
100
AcDbPolyline
90
8
70
1
43
0.0
10
264.96249999999998
20
-21.575000000000006
10
277.96249999999998
20
-21.574999999999992
42
-0.41421356237309503
10
278.46250000000003
20
-22.074999999999999
10
278.46250000000003
20
-35.075000000000003
42
-0.41421356237309503
10
277.96249999999998
20
-35.575000000000003
10
264.96249999999998
20
-35.57500000000001
42
-0.41421356237309503
10
264.46249999999998
20
-35.075000000000003
10
264.46249999999998
20
-22.074999999999996
42
-0.41421356237309243
0
LWPOLYLINE
5
116
100
AcDbEntity
8
0
100
AcDbPolyline
90
8
70
1
43
0.0
10
282.96249999999998
20
-22.074999999999996
10
282.96249999999998
20
-35.075000000000003
42
-0.41421356237309503
10
282.46249999999998
20
-35.575000000000003
10
281.96249999999998
20
-35.57500000000001
42
-0.41421356237309503
10
281.46249999999998
20
-35.075000000000003
10
281.46249999999998
20
-22.074999999999996
42
-0.41421356237309243
10
281.96249999999998
20
-21.575000000000003
10
282.46249999999998
20
-21.574999999999992
42
-0.41421356237309243
0
LWPOLYLINE
5
117
100
AcDbEntity
8
0
100
AcDbPolyline
90
8
70
1
43
0.0
10
5.6687500000000002
20
-40.625
10
6.1687500000000011
20
-40.625
42
-0.41421356237309503
10
6.6687500000000011
20
-41.125
10
6.6687499999999993
20
-54.125000000000007
42
-0.41421356237309503
10
6.1687500000000011
20
-54.625
10
5.6687500000000002
20
-54.625
42
-0.41421356237309503
10
5.1687499999999993
20
-54.125000000000007
10
5.168750000000002
20
-41.125
42
-0.41421356237309503
0
LWPOLYLINE
5
118
100
AcDbEntity
8
0
100
AcDbPolyline
90
8
70
1
43
0.0
10
112.56250000000001
20
-40.625
10
125.5625
20
-40.624999999999993
42
-0.41421356237309503
10
126.06250000000001
20
-41.125
10
126.0625
20
-54.125000000000007
42
-0.41421356237309503
10
125.5625
20
-54.625
10
112.56250000000001
20
-54.625000000000014
42
-0.41421356237309503
10
112.0625
20
-54.125000000000007
10
112.0625
20
-41.125
42
-0.41421356237309503
0
LWPOLYLINE
5
119
100
AcDbEntity
8
0
100
AcDbPolyline
90
8
70
1
43
0.0
10
74.462500000000006
20
-40.625
10
87.46250000000002
20
-40.624999999999993
42
-0.41421356237309503
10
87.96250000000002
20
-41.125
10
87.962500000000006
20
-54.125000000000007
42
-0.41421356237309503
10
87.46250000000002
20
-54.625
10
74.462500000000006
20
-54.625
42
-0.41421356237309503
10
73.962500000000006
20
-54.125000000000007
10
73.962500000000006
20
-41.125
42
-0.41421356237309503
0
LWPOLYLINE
5
120
100
AcDbEntity
8
0
100
AcDbPolyline
90
8
70
1
43
0.0
10
55.412500000000009
20
-40.625
10
68.412499999999994
20
-40.625
42
-0.41421356237309503
10
68.912499999999994
20
-41.125
10
68.912499999999994
20
-54.125000000000007
42
-0.41421356237309503
10
68.412499999999994
20
-54.625
10
55.412500000000009
20
-54.625
42
-0.41421356237309503
10
54.912500000000009
20
-54.125000000000007
10
54.912500000000009
20
-41.125
42
-0.41421356237309503
0
LWPOLYLINE
5
121
100
AcDbEntity
8
0
100
AcDbPolyline
90
8
70
1
43
0.0
10
93.512500000000003
20
-40.625
10
106.51250000000002
20
-40.624999999999993
42
-0.41421356237309503
10
107.01250000000002
20
-41.125
10
107.01250000000002
20
-54.125000000000007
42
-0.41421356237309503
10
106.51250000000002
20
-54.625
10
93.512500000000003
20
-54.625000000000014
42
-0.41421356237309503
10
93.012499999999989
20
-54.125000000000007
10
93.012499999999989
20
-41.125
42
-0.41421356237309503
0
LWPOLYLINE
5
122
100
AcDbEntity
8
0
100
AcDbPolyline
90
8
70
1
43
0.0
10
10.168749999999999
20
-40.625
10
23.168749999999999
20
-40.625
42
-0.41421356237309503
10
23.668749999999999
20
-41.125
10
23.668749999999999
20
-54.125000000000007
42
-0.41421356237309503
10
23.168749999999999
20
-54.625
10
10.168749999999999
20
-54.625
42
-0.41421356237309503
10
9.6687499999999993
20
-54.125000000000007
10
9.6687500000000011
20
-41.125
42
-0.41421356237309503
0
LWPOLYLINE
5
123
100
AcDbEntity
8
0
100
AcDbPolyline
90
8
70
1
43
0.0
10
27.168749999999999
20
-40.625
10
27.668750000000003
20
-40.625
42
-0.41421356237309503
10
28.168749999999999
20
-41.125
10
28.168749999999999
20
-54.125000000000007
42
-0.41421356237309503
10
27.668750000000003
20
-54.625
10
27.168749999999999
20
-54.625
42
-0.41421356237309503
10
26.668750000000003
20
-54.125000000000007
10
26.668750000000003
20
-41.125
42
-0.41421356237309503
0
LWPOLYLINE
5
124
100
AcDbEntity
8
0
100
AcDbPolyline
90
8
70
1
43
0.0
10
49.862499999999997
20
-41.125
10
49.862499999999997
20
-54.125000000000007
42
-0.41421356237309503
10
49.362500000000004
20
-54.625
10
36.362499999999997
20
-54.625
42
-0.41421356237309503
10
35.862500000000004
20
-54.125000000000007
10
35.862500000000004
20
-41.125
42
-0.41421356237309503
10
36.362499999999997
20
-40.625
10
49.362500000000004
20
-40.625
42
-0.41421356237309503
0
LWPOLYLINE
5
125
100
AcDbEntity
8
0
100
AcDbPolyline
90
8
70
1
43
0.0
10
131.61250000000001
20
-40.625
10
144.61250000000001
20
-40.624999999999993
42
-0.41421356237309503
10
145.11250000000001
20
-41.125
10
145.11250000000001
20
-54.125000000000007
42
-0.41421356237309503
10
144.61250000000001
20
-54.625
10
131.61250000000001
20
-54.625000000000014
42
-0.41421356237309503
10
131.11250000000001
20
-54.125000000000007
10
131.11250000000001
20
-41.125
42
-0.41421356237309503
0
LWPOLYLINE
5
126
100
AcDbEntity
8
0
100
AcDbPolyline
90
8
70
1
43
0.0
10
257.81875000000002
20
-40.625
10
270.81875000000002
20
-40.624999999999993
42
-0.41421356237309503
10
271.31875000000002
20
-41.125
10
271.31875000000002
20
-54.125000000000007
42
-0.41421356237309503
10
270.81875000000002
20
-54.625
10
257.81875000000002
20
-54.625000000000014
42
-0.41421356237309503
10
257.31875000000002
20
-54.125000000000007
10
257.31875000000002
20
-41.125
42
-0.41421356237309503
0
LWPOLYLINE
5
127
100
AcDbEntity
8
0
100
AcDbPolyline
90
8
70
1
43
0.0
10
226.86250000000001
20
-40.625
42
0.41421356237309503
10
226.36250000000001
20
-41.125
10
226.36250000000001
20
-54.125000000000007
42
0.41421356237309503
10
226.86250000000001
20
-54.625000000000014
10
239.86250000000001
20
-54.625
42
0.41421356237309503
10
240.36250000000001
20
-54.125000000000007
10
240.36250000000001
20
-41.125
42
0.41421356237309503
10
239.86250000000001
20
-40.625
0
LWPOLYLINE
5
128
100
AcDbEntity
8
0
100
AcDbPolyline
90
8
70
1
43
0.0
10
207.8125
20
-40.625
10
220.8125
20
-40.624999999999993
42
-0.41421356237309503
10
221.3125
20
-41.125
10
221.3125
20
-54.125000000000007
42
-0.41421356237309503
10
220.8125
20
-54.625
10
207.8125
20
-54.625000000000014
42
-0.41421356237309503
10
207.3125
20
-54.125000000000007
10
207.3125
20
-41.125
42
-0.41421356237309503
0
LWPOLYLINE
5
129
100
AcDbEntity
8
0
100
AcDbPolyline
90
8
70
1
43
0.0
10
202.26249999999999
20
-41.125
10
202.26249999999999
20
-54.125000000000007
42
-0.41421356237309503
10
201.76249999999999
20
-54.625
10
188.76249999999999
20
-54.625000000000014
42
-0.41421356237309503
10
188.26249999999999
20
-54.125000000000007
10
188.26249999999999
20
-41.125
42
-0.41421356237309503
10
188.76249999999999
20
-40.625
10
201.76249999999999
20
-40.624999999999993
42
-0.41421356237309503
0
LWPOLYLINE
5
130
100
AcDbEntity
8
0
100
AcDbPolyline
90
8
70
1
43
0.0
10
255.88075000000003
20
-42.125
10
255.88075000000003
20
-56.125000000000007
42
-0.41421356237309503
10
255.38075000000003
20
-56.625000000000007
10
249.38075000000001
20
-56.625000000000014
42
-0.41421356237309503
10
248.88075000000001
20
-56.125000000000007
10
248.88075000000001
20
-42.125
42
-0.41421356237309503
10
249.38075000000001
20
-41.625000000000007
10
255.38075000000003
20
-41.625
42
-0.41421356237309503
0
LWPOLYLINE
5
131
100
AcDbEntity
8
0
100
AcDbPolyline
90
8
70
1
43
0.0
10
164.16250000000002
20
-41.125
10
164.16250000000002
20
-54.125000000000007
42
-0.41421356237309503
10
163.66250000000002
20
-54.625
10
150.66249999999999
20
-54.625000000000014
42
-0.41421356237309503
10
150.16249999999999
20
-54.125000000000007
10
150.16249999999999
20
-41.125
42
-0.41421356237309503
10
150.66249999999999
20
-40.625
10
163.66250000000002
20
-40.624999999999993
42
-0.41421356237309503
0
LWPOLYLINE
5
132
100
AcDbEntity
8
0
100
AcDbPolyline
90
8
70
1
43
0.0
10
169.71250000000001
20
-40.625
42
0.41421356237309503
10
169.21250000000001
20
-41.125
10
169.21250000000001
20
-54.125000000000007
42
0.41421356237309503
10
169.71250000000001
20
-54.625
10
182.71250000000003
20
-54.625
42
0.41421356237309503
10
183.21250000000003
20
-54.125000000000007
10
183.21250000000003
20
-41.125
42
0.41421356237309503
10
182.71250000000003
20
-40.625
0
LWPOLYLINE
5
133
100
AcDbEntity
8
0
100
AcDbPolyline
90
8
70
1
43
0.0
10
273.25675000000001
20
-41.625000000000007
10
279.25675000000001
20
-41.625
42
-0.41421356237309503
10
279.75675000000001
20
-42.125
10
279.75675000000001
20
-56.125000000000007
42
-0.41421356237309503
10
279.25675000000001
20
-56.625000000000007
10
273.25675000000001
20
-56.625000000000014
42
-0.41421356237309503
10
272.75675000000001
20
-56.125000000000007
10
272.75675000000001
20
-42.125
42
-0.41421356237309503
0
LWPOLYLINE
5
134
100
AcDbEntity
8
0
100
AcDbPolyline
90
20
70
1
43
0.0
10
39.837499999999999
20
-73.674999999999997
10
36.869250000000001
20
-73.674999999999997
10
36.869250000000001
20
-75.174999999999997
42
-0.41421356237309503
10
36.369250000000001
20
-75.674999999999997
10
30.369250000000001
20
-75.674999999999997
42
-0.41421356237309503
10
29.869250000000001
20
-75.174999999999997
10
29.869250000000001
20
-73.674999999999997
10
12.99325
20
-73.674999999999997
10
12.993249999999998
20
-75.174999999999997
42
-0.41421356237309503
10
12.49325
20
-75.674999999999997
10
6.4932500000000006
20
-75.674999999999997
42
-0.41421356237309503
10
5.9932499999999997
20
-75.174999999999997
10
5.9932499999999997
20
-73.674999999999997
10
5.40625
20
-73.674999999999997
42
-0.41421356237309503
10
4.90625
20
-73.174999999999997
10
4.9062500000000018
20
-60.174999999999997
42
-0.41421356237309503
10
5.40625
20
-59.675000000000004
10
39.837499999999999
20
-59.674999999999997
42
-0.41421356237309503
10
40.337500000000006
20
-60.174999999999997
10
40.337499999999991
20
-73.174999999999997
42
-0.41421356237309503
0
LWPOLYLINE
5
135
100
AcDbEntity
8
0
100
AcDbPolyline
90
8
70
1
43
0.0
10
239.03125000000003
20
-59.675000000000004
10
239.53125
20
-59.674999999999997
42
-0.41421356237309503
10
240.03125
20
-60.174999999999997
10
240.03125
20
-73.174999999999997
42
-0.41421356237309503
10
239.53125
20
-73.674999999999997
10
239.03125000000003
20
-73.675000000000011
42
-0.41421356237309503
10
238.53125000000003
20
-73.174999999999997
10
238.53125000000003
20
-60.174999999999997
42
-0.41421356237309503
0
LWPOLYLINE
5
136
100
AcDbEntity
8
0
100
AcDbPolyline
90
14
70
1
43
0.0
10
243.53125000000003
20
-59.675000000000004
10
266.05624999999998
20
-59.674999999999997
42
-0.41421356237309503
10
266.55624999999998
20
-60.174999999999997
10
266.55624999999998
20
-73.174999999999997
42
-0.41421356237309503
10
266.05624999999998
20
-73.674999999999997
10
251.11824999999999
20
-73.674999999999997
10
251.11824999999999
20
-75.174999999999997
42
-0.41421356237309503
10
250.61824999999999
20
-75.674999999999997
10
244.61825000000002
20
-75.675000000000011
42
-0.41421356237309503
10
244.11824999999999
20
-75.174999999999997
10
244.11824999999999
20
-73.674999999999997
10
243.53125000000003
20
-73.675000000000011
42
-0.41421356237309503
10
243.03125
20
-73.174999999999997
10
243.03125
20
-60.174999999999997
42
-0.41421356237309503
0
LWPOLYLINE
5
137
100
AcDbEntity
8
0
100
AcDbPolyline
90
13
70
1
43
0.0
10
267.99425000000002
20
-73.044085800020198
42
0.13323824514700014
10
267.99425000000002
20
-73.30591419997981
10
267.99425000000002
20
-75.174999999999997
42
0.41421356237309503
10
268.49425000000002
20
-75.675000000000011
10
274.49425000000008
20
-75.674999999999997
42
0.41421356237309503
10
274.99425000000008
20
-75.174999999999997
10
274.99425000000008
20
-73.674999999999997
10
282.72500000000002
20
-73.674999999999997
42
0.41421356237309503
10
283.22500000000002
20
-73.174999999999997
10
283.22500000000002
20
-60.174999999999997
42
0.41421356237309503
10
282.72500000000002
20
-59.675000000000004
10
268.48274221945775
20
-59.675000000000004
42
0.35156536776833586
10
267.99425000000002
20
-60.066129172489909
0
LWPOLYLINE
5
138
100
AcDbEntity
8
0
100
AcDbPolyline
90
8
70
1
43
0.0
10
53.031250000000007
20
-78.724999999999994
10
68.412499999999994
20
-78.724999999999994
42
-0.41421356237309503
10
68.912499999999994
20
-79.224999999999994
10
68.912500000000009
20
-92.224999999999994
42
-0.41421356237309503
10
68.412499999999994
20
-92.725000000000009
10
53.031250000000007
20
-92.725000000000009
42
-0.41421356237309503
10
52.531250000000007
20
-92.224999999999994
10
52.531250000000007
20
-79.224999999999994
42
-0.41421356237309503
0
LWPOLYLINE
5
139
100
AcDbEntity
8
0
100
AcDbPolyline
90
8
70
1
43
0.0
10
5.40625
20
-78.724999999999994
10
20.787500000000001
20
-78.724999999999994
42
-0.41421356237309503
10
21.287500000000001
20
-79.224999999999994
10
21.287500000000009
20
-92.224999999999994
42
-0.41421356237309503
10
20.787500000000001
20
-92.725000000000009
10
5.4062499999999991
20
-92.725000000000009
42
-0.41421356237309437
10
4.90625
20
-92.224999999999994
10
4.9062500000000018
20
-79.224999999999994
42
-0.41421356237309503
0
LWPOLYLINE
5
140
100
AcDbEntity
8
0
100
AcDbPolyline
90
8
70
1
43
0.0
10
29.21875
20
-78.724999999999994
10
44.600000000000001
20
-78.724999999999994
42
-0.41421356237309503
10
45.099999999999994
20
-79.224999999999994
10
45.100000000000009
20
-92.224999999999994
42
-0.41421356237309503
10
44.600000000000001
20
-92.725000000000009
10
29.21875
20
-92.725000000000009
42
-0.41421356237309503
10
28.71875
20
-92.224999999999994
10
28.71875
20
-79.224999999999994
42
-0.41421356237309503
0
LWPOLYLINE
5
141
100
AcDbEntity
8
0
100
AcDbPolyline
90
8
70
1
43
0.0
10
233.21875000000003
20
-79.224999999999994
10
233.21875000000003
20
-92.224999999999994
42
-0.41421356237309503
10
232.71875
20
-92.725000000000009
10
217.33750000000001
20
-92.725000000000009
42
-0.41421356237309503
10
216.83750000000001
20
-92.224999999999994
10
216.83750000000001
20
-79.224999999999994
42
-0.41421356237309503
10
217.33750000000001
20
-78.724999999999994
10
232.71875
20
-78.724999999999994
42
-0.41421356237309503
0
LWPOLYLINE
5
142
100
AcDbEntity
8
0
100
AcDbPolyline
90
8
70
1
43
0.0
10
257.03125000000006
20
-79.224999999999994
10
257.03125000000006
20
-92.224999999999994
42
-0.41421356237309503
10
256.53125
20
-92.725000000000009
10
241.15000000000003
20
-92.725000000000009
42
-0.41421356237309503
10
240.65000000000001
20
-92.224999999999994
10
240.65000000000001
20
-79.224999999999994
42
-0.41421356237309503
10
241.15000000000003
20
-78.724999999999994
10
256.53125
20
-78.724999999999994
42
-0.41421356237309503
0
LWPOLYLINE
5
143
100
AcDbEntity
8
0
100
AcDbPolyline
90
8
70
1
43
0.0
10
149.875
20
-79.224999999999994
10
149.875
20
-92.224999999999994
42
-0.41421356237309503
10
149.375
20
-92.725000000000009
10
124.46875
20
-92.725000000000009
42
-0.41421356237309503
10
123.96875
20
-92.224999999999994
10
123.96875000000001
20
-79.224999999999994
42
-0.41421356237309503
10
124.46875
20
-78.724999999999994
10
149.375
20
-78.724999999999994
42
-0.41421356237309503
0
LWPOLYLINE
5
144
100
AcDbEntity
8
0
100
AcDbPolyline
90
8
70
1
43
0.0
10
280.34375
20
-92.725000000000009
10
264.96249999999998
20
-92.725000000000009
42
-0.41421356237309503
10
264.46249999999998
20
-92.224999999999994
10
264.46249999999998
20
-79.224999999999994
42
-0.41421356237309503
10
264.96249999999998
20
-78.724999999999994
10
280.34375
20
-78.724999999999994
42
-0.41421356237309503
10
280.84375
20
-79.224999999999994
10
280.84375
20
-92.224999999999994
42
-0.41421356237309503
0
LWPOLYLINE
5
145
100
AcDbEntity
8
0
100
AcDbPolyline
90
8
70
1
43
0.0
10
217.33750000000001
20
-59.675000000000004
10
230.33750000000001
20
-59.674999999999997
42
-0.41421356237309503
10
230.83750000000003
20
-60.174999999999997
10
230.83750000000003
20
-73.174999999999997
42
-0.41421356237309503
10
230.33750000000001
20
-73.674999999999997
10
217.33750000000001
20
-73.675000000000011
42
-0.41421356237309503
10
216.83750000000001
20
-73.174999999999997
10
216.83750000000001
20
-60.174999999999997
42
-0.41421356237309503
0
LWPOLYLINE
5
146
100
AcDbEntity
8
0
100
AcDbPolyline
90
8
70
1
43
0.0
10
83.987499999999997
20
-59.675000000000004
10
96.987500000000011
20
-59.674999999999997
42
-0.41421356237309503
10
97.487500000000011
20
-60.174999999999997
10
97.487500000000011
20
-73.174999999999997
42
-0.41421356237309503
10
96.987500000000011
20
-73.674999999999997
10
83.987499999999997
20
-73.675000000000011
42
-0.41421356237309503
10
83.487499999999983
20
-73.174999999999997
10
83.487499999999983
20
-60.174999999999997
42
-0.41421356237309503
0
LWPOLYLINE
5
147
100
AcDbEntity
8
0
100
AcDbPolyline
90
8
70
1
43
0.0
10
198.28749999999999
20
-59.675000000000004
10
211.28749999999999
20
-59.674999999999997
42
-0.41421356237309503
10
211.78750000000002
20
-60.174999999999997
10
211.78750000000002
20
-73.174999999999997
42
-0.41421356237309503
10
211.28749999999999
20
-73.674999999999997
10
198.28749999999999
20
-73.675000000000011
42
-0.41421356237309503
10
197.78749999999999
20
-73.174999999999997
10
197.78749999999999
20
-60.174999999999997
42
-0.41421356237309503
0
LWPOLYLINE
5
148
100
AcDbEntity
8
0
100
AcDbPolyline
90
8
70
1
43
0.0
10
122.08750000000002
20
-59.675000000000004
10
135.08750000000001
20
-59.674999999999997
42
-0.41421356237309503
10
135.58750000000001
20
-60.174999999999997
10
135.58750000000001
20
-73.174999999999997
42
-0.41421356237309503
10
135.08750000000001
20
-73.674999999999997
10
122.08750000000002
20
-73.675000000000011
42
-0.41421356237309503
10
121.58750000000001
20
-73.174999999999997
10
121.58750000000001
20
-60.174999999999997
42
-0.41421356237309503
0
LWPOLYLINE
5
149
100
AcDbEntity
8
0
100
AcDbPolyline
90
8
70
1
43
0.0
10
160.1875
20
-59.675000000000004
10
173.1875
20
-59.674999999999997
42
-0.41421356237309503
10
173.68750000000003
20
-60.174999999999997
10
173.68750000000003
20
-73.174999999999997
42
-0.41421356237309503
10
173.1875
20
-73.674999999999997
10
160.1875
20
-73.675000000000011
42
-0.41421356237309503
10
159.6875
20
-73.174999999999997
10
159.6875
20
-60.174999999999997
42
-0.41421356237309503
0
LWPOLYLINE
5
150
100
AcDbEntity
8
0
100
AcDbPolyline
90
8
70
1
43
0.0
10
59.387500000000003
20
-60.174999999999997
10
59.387500000000003
20
-73.174999999999997
42
-0.41421356237309503
10
58.88750000000001
20
-73.674999999999997
10
45.887500000000003
20
-73.674999999999997
42
-0.41421356237309503
10
45.387500000000003
20
-73.174999999999997
10
45.387500000000003
20
-60.174999999999997
42
-0.41421356237309503
10
45.887500000000003
20
-59.675000000000004
10
58.88750000000001
20
-59.675000000000004
42
-0.41421356237309503
0
LWPOLYLINE
5
151
100
AcDbEntity
8
0
100
AcDbPolyline
90
8
70
1
43
0.0
10
141.13749999999999
20
-59.675000000000004
10
154.13749999999999
20
-59.674999999999997
42
-0.41421356237309503
10
154.63750000000002
20
-60.174999999999997
10
154.63750000000002
20
-73.174999999999997
42
-0.41421356237309503
10
154.13749999999999
20
-73.674999999999997
10
141.13749999999999
20
-73.675000000000011
42
-0.41421356237309503
10
140.63749999999999
20
-73.174999999999997
10
140.63749999999999
20
-60.174999999999997
42
-0.41421356237309503
0
LWPOLYLINE
5
152
100
AcDbEntity
8
0
100
AcDbPolyline
90
8
70
1
43
0.0
10
64.9375
20
-59.675000000000004
10
77.9375
20
-59.675000000000004
42
-0.41421356237309503
10
78.4375
20
-60.174999999999997
10
78.4375
20
-73.174999999999997
42
-0.41421356237309503
10
77.9375
20
-73.674999999999997
10
64.9375
20
-73.674999999999997
42
-0.41421356237309503
10
64.4375
20
-73.174999999999997
10
64.4375
20
-60.174999999999997
42
-0.41421356237309503
0
LWPOLYLINE
5
153
100
AcDbEntity
8
0
100
AcDbPolyline
90
8
70
1
43
0.0
10
179.23750000000001
20
-59.675000000000004
10
192.23750000000001
20
-59.674999999999997
42
-0.41421356237309503
10
192.73750000000004
20
-60.174999999999997
10
192.73750000000004
20
-73.174999999999997
42
-0.41421356237309503
10
192.23750000000001
20
-73.674999999999997
10
179.23750000000001
20
-73.675000000000011
42
-0.41421356237309503
10
178.73750000000001
20
-73.174999999999997
10
178.73750000000001
20
-60.174999999999997
42
-0.41421356237309503
0
LWPOLYLINE
5
154
100
AcDbEntity
8
0
100
AcDbPolyline
90
8
70
1
43
0.0
10
3.0249999999999999
20
-2.524999999999995
10
16.024999999999999
20
-2.5249999999999995
42
-0.41421356237309503
10
16.525000000000002
20
-3.0249999999999999
10
16.525000000000002
20
-16.024999999999999
42
-0.41421356237309503
10
16.024999999999999
20
-16.525000000000002
10
3.0249999999999999
20
-16.525000000000002
42
-0.41421356237309503
10
2.5249999999999999
20
-16.024999999999999
10
2.524999999999995
20
-3.0250000000000021
42
-0.41421356237309631
0
LWPOLYLINE
5
155
100
AcDbEntity
8
0
100
AcDbPolyline
90
8
70
1
43
0.0
10
103.03750000000001
20
-59.675000000000004
10
116.03749999999999
20
-59.674999999999997
42
-0.41421356237309503
10
116.53750000000001
20
-60.174999999999997
10
116.53749999999999
20
-73.174999999999997
42
-0.41421356237309503
10
116.03749999999999
20
-73.674999999999997
10
103.03750000000001
20
-73.675000000000011
42
-0.41421356237309503
10
102.53749999999999
20
-73.174999999999997
10
102.53749999999999
20
-60.174999999999997
42
-0.41421356237309503
0
LWPOLYLINE
5
156
100
AcDbEntity
8
0
100
AcDbPolyline
90
8
70
1
43
0.0
10
22.074999999999999
20
-2.524999999999995
10
35.075000000000003
20
-2.5250000000000017
42
-0.41421356237309503
10
35.575000000000003
20
-3.0249999999999999
10
35.575000000000003
20
-16.024999999999999
42
-0.41421356237309503
10
35.075000000000003
20
-16.525000000000002
10
22.074999999999999
20
-16.524999999999999
42
-0.41421356237309503
10
21.575000000000003
20
-16.024999999999999
10
21.574999999999996
20
-3.0250000000000021
42
-0.41421356237309631
0
LWPOLYLINE
5
157
100
AcDbEntity
8
0
100
AcDbPolyline
90
8
70
1
43
0.0
10
60.174999999999997
20
-2.524999999999995
10
73.174999999999997
20
-2.5250000000000017
42
-0.41421356237309503
10
73.674999999999997
20
-3.0249999999999999
10
73.674999999999997
20
-16.024999999999999
42
-0.41421356237309503
10
73.174999999999997
20
-16.525000000000002
10
60.174999999999997
20
-16.524999999999999
42
-0.41421356237309503
10
59.675000000000004
20
-16.024999999999999
10
59.674999999999997
20
-3.0250000000000021
42
-0.41421356237309631
0
LWPOLYLINE
5
158
100
AcDbEntity
8
0
100
AcDbPolyline
90
8
70
1
43
0.0
10
79.224999999999994
20
-2.524999999999995
10
92.224999999999994
20
-2.5249999999999928
42
-0.41421356237309503
10
92.725000000000009
20
-3.0249999999999999
10
92.725000000000009
20
-16.024999999999999
42
-0.41421356237309503
10
92.224999999999994
20
-16.525000000000002
10
79.224999999999994
20
-16.524999999999999
42
-0.41421356237309503
10
78.724999999999994
20
-16.024999999999999
10
78.724999999999994
20
-3.0250000000000021
42
-0.41421356237309631
0
LWPOLYLINE
5
159
100
AcDbEntity
8
0
100
AcDbPolyline
90
8
70
1
43
0.0
10
41.125
20
-2.524999999999995
10
54.125000000000007
20
-2.5250000000000017
42
-0.41421356237309503
10
54.625
20
-3.0249999999999999
10
54.625
20
-16.024999999999999
42
-0.41421356237309503
10
54.125000000000007
20
-16.525000000000002
10
41.125
20
-16.524999999999999
42
-0.41421356237309503
10
40.625
20
-16.024999999999999
10
40.624999999999993
20
-3.0250000000000021
42
-0.41421356237309631
0
LWPOLYLINE
5
160
100
AcDbEntity
8
0
100
AcDbPolyline
90
8
70
1
43
0.0
10
98.275000000000006
20
-2.524999999999995
10
111.27500000000001
20
-2.5249999999999928
42
-0.41421356237309503
10
111.77500000000002
20
-3.0249999999999999
10
111.77500000000002
20
-16.024999999999999
42
-0.41421356237309503
10
111.27500000000001
20
-16.525000000000002
10
98.275000000000006
20
-16.525000000000006
42
-0.41421356237309503
10
97.775000000000006
20
-16.024999999999999
10
97.775000000000006
20
-3.0250000000000021
42
-0.41421356237309631
0
LWPOLYLINE
5
161
100
AcDbEntity
8
0
100
AcDbPolyline
90
8
70
1
43
0.0
10
117.32500000000002
20
-2.524999999999995
10
130.32499999999999
20
-2.5249999999999928
42
-0.41421356237309503
10
130.82499999999999
20
-3.0249999999999999
10
130.82499999999999
20
-16.024999999999999
42
-0.41421356237309503
10
130.32499999999999
20
-16.525000000000002
10
117.32500000000002
20
-16.525000000000006
42
-0.41421356237309503
10
116.82500000000002
20
-16.024999999999999
10
116.82500000000002
20
-3.0250000000000021
42
-0.41421356237309631
0
LWPOLYLINE
5
162
100
AcDbEntity
8
0
100
AcDbPolyline
90
8
70
1
43
0.0
10
136.375
20
-2.524999999999995
10
149.375
20
-2.5249999999999928
42
-0.41421356237309503
10
149.875
20
-3.0249999999999999
10
149.875
20
-16.024999999999999
42
-0.41421356237309503
10
149.375
20
-16.525000000000002
10
136.375
20
-16.525000000000006
42
-0.41421356237309503
10
135.875
20
-16.024999999999999
10
135.875
20
-3.0250000000000021
42
-0.41421356237309631
0
LWPOLYLINE
5
163
100
AcDbEntity
8
0
100
AcDbPolyline
90
8
70
1
43
0.0
10
155.42500000000001
20
-2.524999999999995
10
168.42500000000001
20
-2.5249999999999928
42
-0.41421356237309503
10
168.92500000000001
20
-3.0249999999999999
10
168.92500000000001
20
-16.024999999999999
42
-0.41421356237309503
10
168.42500000000001
20
-16.525000000000002
10
155.42500000000001
20
-16.525000000000006
42
-0.41421356237309503
10
154.92500000000001
20
-16.024999999999999
10
154.92500000000001
20
-3.0250000000000021
42
-0.41421356237309631
0
LWPOLYLINE
5
164
100
AcDbEntity
8
0
100
AcDbPolyline
90
20
70
1
43
0.0
10
283.22500000000002
20
-3.0250000000000021
10
283.22500000000002
20
-16.024999999999999
42
-0.41421356237309503
10
282.72500000000002
20
-16.525000000000002
10
282.13799999999998
20
-16.524999999999999
10
282.13799999999998
20
-18.025000000000002
42
-0.4142135623730937
10
281.63799999999998
20
-18.524999999999999
10
275.63800000000003
20
-18.525000000000006
42
-0.41421356237309503
10
275.13799999999998
20
-18.024999999999999
10
275.13799999999998
20
-16.524999999999999
10
258.26200000000006
20
-16.524999999999999
10
258.26200000000006
20
-18.025000000000002
42
-0.4142135623730937
10
257.76200000000006
20
-18.524999999999999
10
251.762
20
-18.525000000000006
42
-0.41421356237309503
10
251.262
20
-18.024999999999999
10
251.262
20
-16.524999999999999
10
250.67500000000001
20
-16.525000000000006
42
-0.41421356237309503
10
250.17500000000001
20
-16.024999999999999
10
250.17500000000001
20
-3.0250000000000021
42
-0.41421356237309631
10
250.67500000000001
20
-2.5249999999999999
10
282.72500000000002
20
-2.5249999999999928
42
-0.41421356237309631
0
LWPOLYLINE
5
165
100
AcDbEntity
8
0
100
AcDbPolyline
90
8
70
1
43
0.0
10
231.625
20
-2.524999999999995
10
244.62500000000003
20
-2.5249999999999928
42
-0.41421356237309503
10
245.12500000000003
20
-3.0249999999999999
10
245.12500000000003
20
-16.024999999999999
42
-0.41421356237309503
10
244.62500000000003
20
-16.525000000000002
10
231.625
20
-16.525000000000006
42
-0.41421356237309503
10
231.125
20
-16.024999999999999
10
231.125
20
-3.0250000000000021
42
-0.41421356237309631
0
LWPOLYLINE
5
166
100
AcDbEntity
8
0
100
AcDbPolyline
90
8
70
1
43
0.0
10
193.52500000000003
20
-2.524999999999995
10
206.52500000000003
20
-2.5249999999999928
42
-0.41421356237309503
10
207.02500000000003
20
-3.0249999999999999
10
207.02500000000003
20
-16.024999999999999
42
-0.41421356237309503
10
206.52500000000003
20
-16.525000000000002
10
193.52500000000003
20
-16.525000000000006
42
-0.41421356237309503
10
193.02500000000003
20
-16.024999999999999
10
193.02500000000003
20
-3.0250000000000021
42
-0.41421356237309631
0
LWPOLYLINE
5
167
100
AcDbEntity
8
0
100
AcDbPolyline
90
8
70
1
43
0.0
10
7.7875000000000005
20
-21.575000000000006
10
20.787500000000001
20
-21.575000000000003
42
-0.41421356237309503
10
21.287500000000001
20
-22.074999999999999
10
21.287500000000001
20
-35.075000000000003
42
-0.41421356237309503
10
20.787500000000001
20
-35.575000000000003
10
7.7875000000000005
20
-35.575000000000003
42
-0.41421356237309503
10
7.2874999999999996
20
-35.075000000000003
10
7.2875000000000068
20
-22.074999999999996
42
-0.41421356237309243
0
LWPOLYLINE
5
168
100
AcDbEntity
8
0
100
AcDbPolyline
90
8
70
1
43
0.0
10
212.57499999999999
20
-2.524999999999995
10
225.57500000000002
20
-2.5249999999999928
42
-0.41421356237309503
10
226.07500000000002
20
-3.0249999999999999
10
226.07500000000002
20
-16.024999999999999
42
-0.41421356237309503
10
225.57500000000002
20
-16.525000000000002
10
212.57499999999999
20
-16.525000000000006
42
-0.41421356237309503
10
212.07499999999999
20
-16.024999999999999
10
212.07499999999999
20
-3.0250000000000021
42
-0.41421356237309631
0
LWPOLYLINE
5
169
100
AcDbEntity
8
0
100
AcDbPolyline
90
8
70
1
43
0.0
10
174.47500000000002
20
-2.524999999999995
10
187.47499999999999
20
-2.5249999999999928
42
-0.41421356237309503
10
187.97499999999999
20
-3.0249999999999999
10
187.97499999999999
20
-16.024999999999999
42
-0.41421356237309503
10
187.47499999999999
20
-16.525000000000002
10
174.47500000000002
20
-16.525000000000006
42
-0.41421356237309503
10
173.97500000000002
20
-16.024999999999999
10
173.97500000000002
20
-3.0250000000000021
42
-0.41421356237309631
0
LWPOLYLINE
5
170
100
AcDbEntity
8
0
100
AcDbPolyline
90
8
70
1
43
0.0
10
88.725000000000009
20
-91.724999999999994
10
77.96875
20
-91.724999999999994
42
-0.41421356237309503
10
77.46875
20
-91.225000000000009
10
77.46875
20
-77.224999999999994
42
-0.41421356237309503
10
77.96875
20
-76.724999999999994
10
88.725000000000009
20
-76.725000000000009
42
-0.41421356237309503
10
89.224999999999994
20
-77.224999999999994
10
89.224999999999994
20
-91.225000000000009
42
-0.41421356237309503
0
LWPOLYLINE
5
171
100
AcDbEntity
8
0
100
AcDbPolyline
90
8
70
1
43
0.0
10
177.46875
20
-91.225000000000009
10
177.46875
20
-77.224999999999994
42
-0.41421356237309503
10
177.96875
20
-76.724999999999994
10
183.96875
20
-76.724999999999994
42
-0.41421356237309503
10
184.46875000000003
20
-77.224999999999994
10
184.46875
20
-91.225000000000009
42
-0.41421356237309503
10
183.96875
20
-91.724999999999994
10
177.96875
20
-91.725000000000009
42
-0.41421356237309503
0
LWPOLYLINE
5
172
100
AcDbEntity
8
0
100
AcDbPolyline
90
14
70
1
43
0.0
10
195.90625000000003
20
-78.724999999999994
10
196.52500000000001
20
-78.724999999999994
10
196.52500000000001
20
-77.224999999999994
42
-0.41421356237309503
10
197.02500000000001
20
-76.724999999999994
10
203.02500000000003
20
-76.724999999999994
42
-0.41421356237309503
10
203.52500000000003
20
-77.224999999999994
10
203.52500000000003
20
-78.724999999999994
10
208.90625
20
-78.724999999999994
42
-0.41421356237309503
10
209.40625
20
-79.224999999999994
10
209.40625
20
-92.224999999999994
42
-0.41421356237309503
10
208.90625
20
-92.725000000000009
10
195.90625000000003
20
-92.725000000000009
42
-0.41421356237309503
10
195.40625000000003
20
-92.224999999999994
10
195.40625000000003
20
-79.224999999999994
42
-0.41421356237309503
0
LWPOLYLINE
5
173
100
AcDbEntity
8
0
100
AcDbPolyline
90
36
70
1
43
0.0
10
5.3290705182007514e-14
20
-2.249999999999881
10
1.7763568394002505e-14
20
-92.999999999999901
42
0.41421356237308815
10
2.250000000000032
20
-95.249999999999943
10
283.50000000000011
20
-95.249999999999986
42
0.41421356237308582
10
285.75000000000017
20
-92.999999999999901
10
285.75000000000006
20
-2.249999999999881
42
0.41421356237310197
10
283.50000000000011
20
1.1546319456101628e-13
10
237.2000000000001
20
-8.8817841970012523e-15
42
0.41421356237310542
10
236.70000000000022
20
-0.49999999999990941
10
236.70000000000005
20
-0.74999999999989519
42
-0.41421356237314183
10
236.20000000000005
20
-1.2499999999999023
10
234.2000000000001
20
-1.2499999999998668
42
-0.4142135623731783
10
233.70000000000005
20
-0.74999999999989519
42
0.41421356237309503
10
233.2000000000001
20
-0.24999999999992362
10
220.2000000000001
20
-0.24999999999988809
42
0.41421356237314705
10
219.70000000000013
20
-0.74999999999989519
42
-0.41421356237314705
10
219.20000000000005
20
-1.2499999999999023
10
217.20000000000005
20
-1.2499999999999378
42
-0.41421356237307422
10
216.70000000000005
20
-0.74999999999989519
10
216.70000000000005
20
-0.49999999999990941
42
0.41421356237307422
10
216.20000000000002
20
9.7699626167013776e-14
10
69.549999999999997
20
9.7699626167013776e-14
42
0.41421356237309503
10
69.049999999999997
20
-0.49999999999990941
10
69.050000000000011
20
-0.74999999999989519
42
-0.41421356237311585
10
68.550000000000011
20
-1.2499999999999023
10
66.550000000000011
20
-1.2499999999998845
42
-0.41421356237307422
10
66.050000000000026
20
-0.74999999999989519
42
0.41421356237309503
10
65.55000000000004
20
-0.24999999999990585
10
52.550000000000011
20
-0.24999999999988809
42
0.41421356237309503
10
52.050000000000011
20
-0.74999999999989519
42
-0.41421356237310025
10
51.550000000000011
20
-1.2499999999999023
10
49.549999999999997
20
-1.2499999999998757
42
-0.41421356237310025
10
49.050000000000026
20
-0.74999999999989519
10
49.050000000000026
20
-0.49999999999990941
42
0.41421356237309503
10
48.550000000000026
20
9.7699626167013776e-14
10
2.250000000000032
20
9.7699626167013776e-14
42
0.41421356237309503
0
ENDSEC
0
SECTION
2
OBJECTS
0
DICTIONARY
5
C
100
AcDbDictionary
3
ACAD_GROUP
350
D
3
ACAD_MLINESTYLE
350
17
0
DICTIONARY
5
D
100
AcDbDictionary
0
DICTIONARY
5
1A
330
C
100
AcDbDictionary
0
DICTIONARY
5
17
100
AcDbDictionary
0
ENDSEC
0
EOF
