%TF.GenerationSoftware,KiCad,Pcbnew,(5.1.11)-1*%
%TF.CreationDate,2022-09-07T08:58:02+07:00*%
%TF.ProjectId,Eclipse60,45636c69-7073-4653-9630-2e6b69636164,rev?*%
%TF.SameCoordinates,Original*%
%TF.FileFunction,Profile,NP*%
%FSLAX46Y46*%
G04 Gerber Fmt 4.6, Leading zero omitted, Abs format (unit mm)*
G04 Created by KiCad (PCBNEW (5.1.11)-1) date 2022-09-07 08:58:02*
%MOMM*%
%LPD*%
G01*
G04 APERTURE LIST*
%TA.AperFunction,Profile*%
%ADD10C,0.200000*%
%TD*%
G04 APERTURE END LIST*
D10*
X78169426Y-122493545D02*
G75*
G02*
X83755566Y-122493544I2793070J-1456450D01*
G01*
X218972602Y-123299997D02*
G75*
G02*
X217642566Y-122493544I0J1500002D01*
G01*
X85085600Y-123299997D02*
G75*
G02*
X83755566Y-122493544I1J1500001D01*
G01*
X259144426Y-122493543D02*
G75*
G02*
X264730566Y-122493544I2793070J-1456451D01*
G01*
X125256425Y-122493543D02*
G75*
G02*
X123926391Y-123299995I-1330035J693548D01*
G01*
X125256426Y-122493543D02*
G75*
G02*
X130842566Y-122493544I2793070J-1456451D01*
G01*
X212056426Y-122493543D02*
G75*
G02*
X217642566Y-122493544I2793070J-1456451D01*
G01*
X257814391Y-123299995D02*
X218972601Y-123299996D01*
X259144425Y-122493543D02*
G75*
G02*
X257814391Y-123299995I-1330034J693548D01*
G01*
X76839391Y-123299995D02*
X45372601Y-123299996D01*
X37126391Y-123299995D02*
X31349996Y-123299996D01*
X29099996Y-31349996D02*
G75*
G02*
X31349996Y-29099996I2250000J0D01*
G01*
X78169424Y-122493544D02*
G75*
G02*
X76839391Y-123299995I-1330033J693548D01*
G01*
X45372600Y-123299997D02*
G75*
G02*
X44042566Y-122493544I1J1500001D01*
G01*
X210726391Y-123299995D02*
X132172601Y-123299996D01*
X123926391Y-123299995D02*
X85085601Y-123299996D01*
X31349996Y-29099996D02*
X35126890Y-29099996D01*
X29099996Y-121049996D02*
X29099997Y-31349996D01*
X31349996Y-123299996D02*
G75*
G02*
X29099996Y-121049996I0J2250000D01*
G01*
X38456425Y-122493545D02*
G75*
G02*
X37126391Y-123299995I-1330033J693549D01*
G01*
X132172601Y-123299998D02*
G75*
G02*
X130842566Y-122493544I1J1500002D01*
G01*
X212056424Y-122493544D02*
G75*
G02*
X210726391Y-123299995I-1330033J693548D01*
G01*
X38456426Y-122493545D02*
G75*
G02*
X44042566Y-122493544I2793070J-1456450D01*
G01*
X266060602Y-123299997D02*
G75*
G02*
X264730566Y-122493544I0J1500002D01*
G01*
X297527391Y-123299995D02*
X266060601Y-123299996D01*
X298857425Y-122493543D02*
G75*
G02*
X297527391Y-123299995I-1330034J693548D01*
G01*
X42043067Y-29906448D02*
G75*
G02*
X36456925Y-29906447I-2793071J1456451D01*
G01*
X62551889Y-29099996D02*
G75*
G02*
X63881924Y-29906447I1J-1500000D01*
G01*
X43373102Y-29099996D02*
X62551889Y-29099996D01*
X35126890Y-29099996D02*
G75*
G02*
X36456925Y-29906447I1J-1500000D01*
G01*
X42043068Y-29906448D02*
G75*
G02*
X43373102Y-29099996I1330034J-693548D01*
G01*
X297527065Y-29099996D02*
G75*
G02*
X298857100Y-29906447I1J-1500001D01*
G01*
X217643643Y-29906449D02*
G75*
G02*
X212057500Y-29906447I-2793071J1456452D01*
G01*
X130842644Y-29906448D02*
G75*
G02*
X132172678Y-29099996I1330034J-693548D01*
G01*
X132172678Y-29099996D02*
X153039389Y-29099996D01*
X311549996Y-123299995D02*
X305773601Y-123299996D01*
X313799996Y-31349996D02*
X313799996Y-121049996D01*
X217643643Y-29906448D02*
G75*
G02*
X218973677Y-29099996I1330034J-693548D01*
G01*
X130842643Y-29906449D02*
G75*
G02*
X125256500Y-29906447I-2793071J1456452D01*
G01*
X279018067Y-29906448D02*
G75*
G02*
X280348102Y-29099996I1330035J-693549D01*
G01*
X313799995Y-121049996D02*
G75*
G02*
X311549996Y-123299995I-2249999J0D01*
G01*
X311549995Y-29099997D02*
G75*
G02*
X313799996Y-31349996I1J-2250000D01*
G01*
X305773278Y-29099996D02*
X311549996Y-29099997D01*
X304443243Y-29906449D02*
G75*
G02*
X298857100Y-29906447I-2793071J1456452D01*
G01*
X272101890Y-29099997D02*
G75*
G02*
X273431924Y-29906447I1J-1499999D01*
G01*
X70798102Y-29099996D02*
X123926465Y-29099996D01*
X280348102Y-29099996D02*
X297527065Y-29099996D01*
X279018067Y-29906449D02*
G75*
G02*
X273431924Y-29906447I-2793071J1456452D01*
G01*
X218973677Y-29099996D02*
X272101889Y-29099996D01*
X210727466Y-29099997D02*
G75*
G02*
X212057500Y-29906447I1J-1499999D01*
G01*
X159955567Y-29906447D02*
G75*
G02*
X161285678Y-29099996I1330034J-693549D01*
G01*
X69468068Y-29906448D02*
G75*
G02*
X70798102Y-29099996I1330034J-693548D01*
G01*
X153039390Y-29099997D02*
G75*
G02*
X154369424Y-29906447I1J-1499999D01*
G01*
X69468067Y-29906449D02*
G75*
G02*
X63881924Y-29906447I-2793071J1456452D01*
G01*
X161285678Y-29099996D02*
X210727465Y-29099996D01*
X123926466Y-29099997D02*
G75*
G02*
X125256500Y-29906447I1J-1499999D01*
G01*
X304443244Y-29906448D02*
G75*
G02*
X305773278Y-29099996I1330034J-693548D01*
G01*
X159955568Y-29906448D02*
G75*
G02*
X154369424Y-29906447I-2793072J1456451D01*
G01*
X298857426Y-122493543D02*
G75*
G02*
X304443566Y-122493544I2793070J-1456451D01*
G01*
X305773601Y-123299998D02*
G75*
G02*
X304443566Y-122493544I1J1500002D01*
G01*
M02*
