%TF.GenerationSoftware,KiCad,Pcbnew,(5.1.11)-1*%
%TF.CreationDate,2022-10-09T01:18:40+07:00*%
%TF.ProjectId,Eclipse60,45636c69-7073-4653-9630-2e6b69636164,rev?*%
%TF.SameCoordinates,Original*%
%TF.FileFunction,Paste,Bot*%
%TF.FilePolarity,Positive*%
%FSLAX46Y46*%
G04 Gerber Fmt 4.6, Leading zero omitted, Abs format (unit mm)*
G04 Created by KiCad (PCBNEW (5.1.11)-1) date 2022-10-09 01:18:40*
%MOMM*%
%LPD*%
G01*
G04 APERTURE LIST*
%ADD10R,1.800000X1.200000*%
%ADD11R,1.550000X0.600000*%
%ADD12R,0.950000X0.800000*%
%ADD13R,1.800000X1.100000*%
%ADD14R,0.800000X0.950000*%
%ADD15R,1.500000X1.000000*%
%ADD16R,0.400000X1.900000*%
%ADD17R,0.750000X0.800000*%
%ADD18R,0.800000X0.750000*%
G04 APERTURE END LIST*
D10*
%TO.C,J1*%
X99242750Y-70496000D03*
X99242750Y-64896000D03*
D11*
X95367750Y-66196000D03*
X95367750Y-67196000D03*
X95367750Y-69196000D03*
X95367750Y-68196000D03*
%TD*%
D10*
%TO.C,J2*%
X55613750Y-51984375D03*
X55613750Y-46384375D03*
D11*
X51738750Y-47684375D03*
X51738750Y-48684375D03*
X51738750Y-50684375D03*
X51738750Y-49684375D03*
%TD*%
%TO.C,D16*%
G36*
G01*
X219635000Y-117800000D02*
X218515000Y-117800000D01*
G75*
G02*
X218275000Y-117560000I0J240000D01*
G01*
X218275000Y-116840000D01*
G75*
G02*
X218515000Y-116600000I240000J0D01*
G01*
X219635000Y-116600000D01*
G75*
G02*
X219875000Y-116840000I0J-240000D01*
G01*
X219875000Y-117560000D01*
G75*
G02*
X219635000Y-117800000I-240000J0D01*
G01*
G37*
G36*
G01*
X219635000Y-115000000D02*
X218515000Y-115000000D01*
G75*
G02*
X218275000Y-114760000I0J240000D01*
G01*
X218275000Y-114040000D01*
G75*
G02*
X218515000Y-113800000I240000J0D01*
G01*
X219635000Y-113800000D01*
G75*
G02*
X219875000Y-114040000I0J-240000D01*
G01*
X219875000Y-114760000D01*
G75*
G02*
X219635000Y-115000000I-240000J0D01*
G01*
G37*
%TD*%
D12*
%TO.C,R5*%
X40125000Y-45609375D03*
X40125000Y-47259375D03*
%TD*%
%TO.C,D72*%
G36*
G01*
X300375000Y-118660000D02*
X300375000Y-117540000D01*
G75*
G02*
X300615000Y-117300000I240000J0D01*
G01*
X301335000Y-117300000D01*
G75*
G02*
X301575000Y-117540000I0J-240000D01*
G01*
X301575000Y-118660000D01*
G75*
G02*
X301335000Y-118900000I-240000J0D01*
G01*
X300615000Y-118900000D01*
G75*
G02*
X300375000Y-118660000I0J240000D01*
G01*
G37*
G36*
G01*
X303175000Y-118660000D02*
X303175000Y-117540000D01*
G75*
G02*
X303415000Y-117300000I240000J0D01*
G01*
X304135000Y-117300000D01*
G75*
G02*
X304375000Y-117540000I0J-240000D01*
G01*
X304375000Y-118660000D01*
G75*
G02*
X304135000Y-118900000I-240000J0D01*
G01*
X303415000Y-118900000D01*
G75*
G02*
X303175000Y-118660000I0J240000D01*
G01*
G37*
%TD*%
%TO.C,D70*%
G36*
G01*
X293453750Y-117800000D02*
X292333750Y-117800000D01*
G75*
G02*
X292093750Y-117560000I0J240000D01*
G01*
X292093750Y-116840000D01*
G75*
G02*
X292333750Y-116600000I240000J0D01*
G01*
X293453750Y-116600000D01*
G75*
G02*
X293693750Y-116840000I0J-240000D01*
G01*
X293693750Y-117560000D01*
G75*
G02*
X293453750Y-117800000I-240000J0D01*
G01*
G37*
G36*
G01*
X293453750Y-115000000D02*
X292333750Y-115000000D01*
G75*
G02*
X292093750Y-114760000I0J240000D01*
G01*
X292093750Y-114040000D01*
G75*
G02*
X292333750Y-113800000I240000J0D01*
G01*
X293453750Y-113800000D01*
G75*
G02*
X293693750Y-114040000I0J-240000D01*
G01*
X293693750Y-114760000D01*
G75*
G02*
X293453750Y-115000000I-240000J0D01*
G01*
G37*
%TD*%
%TO.C,D69*%
G36*
G01*
X175109000Y-117800000D02*
X173989000Y-117800000D01*
G75*
G02*
X173749000Y-117560000I0J240000D01*
G01*
X173749000Y-116840000D01*
G75*
G02*
X173989000Y-116600000I240000J0D01*
G01*
X175109000Y-116600000D01*
G75*
G02*
X175349000Y-116840000I0J-240000D01*
G01*
X175349000Y-117560000D01*
G75*
G02*
X175109000Y-117800000I-240000J0D01*
G01*
G37*
G36*
G01*
X175109000Y-115000000D02*
X173989000Y-115000000D01*
G75*
G02*
X173749000Y-114760000I0J240000D01*
G01*
X173749000Y-114040000D01*
G75*
G02*
X173989000Y-113800000I240000J0D01*
G01*
X175109000Y-113800000D01*
G75*
G02*
X175349000Y-114040000I0J-240000D01*
G01*
X175349000Y-114760000D01*
G75*
G02*
X175109000Y-115000000I-240000J0D01*
G01*
G37*
%TD*%
%TO.C,D68*%
G36*
G01*
X241066420Y-117800000D02*
X239946420Y-117800000D01*
G75*
G02*
X239706420Y-117560000I0J240000D01*
G01*
X239706420Y-116840000D01*
G75*
G02*
X239946420Y-116600000I240000J0D01*
G01*
X241066420Y-116600000D01*
G75*
G02*
X241306420Y-116840000I0J-240000D01*
G01*
X241306420Y-117560000D01*
G75*
G02*
X241066420Y-117800000I-240000J0D01*
G01*
G37*
G36*
G01*
X241066420Y-115000000D02*
X239946420Y-115000000D01*
G75*
G02*
X239706420Y-114760000I0J240000D01*
G01*
X239706420Y-114040000D01*
G75*
G02*
X239946420Y-113800000I240000J0D01*
G01*
X241066420Y-113800000D01*
G75*
G02*
X241306420Y-114040000I0J-240000D01*
G01*
X241306420Y-114760000D01*
G75*
G02*
X241066420Y-115000000I-240000J0D01*
G01*
G37*
%TD*%
%TO.C,D67*%
G36*
G01*
X100572500Y-117800000D02*
X99452500Y-117800000D01*
G75*
G02*
X99212500Y-117560000I0J240000D01*
G01*
X99212500Y-116840000D01*
G75*
G02*
X99452500Y-116600000I240000J0D01*
G01*
X100572500Y-116600000D01*
G75*
G02*
X100812500Y-116840000I0J-240000D01*
G01*
X100812500Y-117560000D01*
G75*
G02*
X100572500Y-117800000I-240000J0D01*
G01*
G37*
G36*
G01*
X100572500Y-115000000D02*
X99452500Y-115000000D01*
G75*
G02*
X99212500Y-114760000I0J240000D01*
G01*
X99212500Y-114040000D01*
G75*
G02*
X99452500Y-113800000I240000J0D01*
G01*
X100572500Y-113800000D01*
G75*
G02*
X100812500Y-114040000I0J-240000D01*
G01*
X100812500Y-114760000D01*
G75*
G02*
X100572500Y-115000000I-240000J0D01*
G01*
G37*
%TD*%
%TO.C,D66*%
G36*
G01*
X56947500Y-117800000D02*
X55827500Y-117800000D01*
G75*
G02*
X55587500Y-117560000I0J240000D01*
G01*
X55587500Y-116840000D01*
G75*
G02*
X55827500Y-116600000I240000J0D01*
G01*
X56947500Y-116600000D01*
G75*
G02*
X57187500Y-116840000I0J-240000D01*
G01*
X57187500Y-117560000D01*
G75*
G02*
X56947500Y-117800000I-240000J0D01*
G01*
G37*
G36*
G01*
X56947500Y-115000000D02*
X55827500Y-115000000D01*
G75*
G02*
X55587500Y-114760000I0J240000D01*
G01*
X55587500Y-114040000D01*
G75*
G02*
X55827500Y-113800000I240000J0D01*
G01*
X56947500Y-113800000D01*
G75*
G02*
X57187500Y-114040000I0J-240000D01*
G01*
X57187500Y-114760000D01*
G75*
G02*
X56947500Y-115000000I-240000J0D01*
G01*
G37*
%TD*%
%TO.C,D65*%
G36*
G01*
X52947500Y-117800000D02*
X51827500Y-117800000D01*
G75*
G02*
X51587500Y-117560000I0J240000D01*
G01*
X51587500Y-116840000D01*
G75*
G02*
X51827500Y-116600000I240000J0D01*
G01*
X52947500Y-116600000D01*
G75*
G02*
X53187500Y-116840000I0J-240000D01*
G01*
X53187500Y-117560000D01*
G75*
G02*
X52947500Y-117800000I-240000J0D01*
G01*
G37*
G36*
G01*
X52947500Y-115000000D02*
X51827500Y-115000000D01*
G75*
G02*
X51587500Y-114760000I0J240000D01*
G01*
X51587500Y-114040000D01*
G75*
G02*
X51827500Y-113800000I240000J0D01*
G01*
X52947500Y-113800000D01*
G75*
G02*
X53187500Y-114040000I0J-240000D01*
G01*
X53187500Y-114760000D01*
G75*
G02*
X52947500Y-115000000I-240000J0D01*
G01*
G37*
%TD*%
%TO.C,D63*%
G36*
G01*
X308459000Y-98750000D02*
X307339000Y-98750000D01*
G75*
G02*
X307099000Y-98510000I0J240000D01*
G01*
X307099000Y-97790000D01*
G75*
G02*
X307339000Y-97550000I240000J0D01*
G01*
X308459000Y-97550000D01*
G75*
G02*
X308699000Y-97790000I0J-240000D01*
G01*
X308699000Y-98510000D01*
G75*
G02*
X308459000Y-98750000I-240000J0D01*
G01*
G37*
G36*
G01*
X308459000Y-95950000D02*
X307339000Y-95950000D01*
G75*
G02*
X307099000Y-95710000I0J240000D01*
G01*
X307099000Y-94990000D01*
G75*
G02*
X307339000Y-94750000I240000J0D01*
G01*
X308459000Y-94750000D01*
G75*
G02*
X308699000Y-94990000I0J-240000D01*
G01*
X308699000Y-95710000D01*
G75*
G02*
X308459000Y-95950000I-240000J0D01*
G01*
G37*
%TD*%
%TO.C,D30*%
G36*
G01*
X286310000Y-60650000D02*
X285190000Y-60650000D01*
G75*
G02*
X284950000Y-60410000I0J240000D01*
G01*
X284950000Y-59690000D01*
G75*
G02*
X285190000Y-59450000I240000J0D01*
G01*
X286310000Y-59450000D01*
G75*
G02*
X286550000Y-59690000I0J-240000D01*
G01*
X286550000Y-60410000D01*
G75*
G02*
X286310000Y-60650000I-240000J0D01*
G01*
G37*
G36*
G01*
X286310000Y-57850000D02*
X285190000Y-57850000D01*
G75*
G02*
X284950000Y-57610000I0J240000D01*
G01*
X284950000Y-56890000D01*
G75*
G02*
X285190000Y-56650000I240000J0D01*
G01*
X286310000Y-56650000D01*
G75*
G02*
X286550000Y-56890000I0J-240000D01*
G01*
X286550000Y-57610000D01*
G75*
G02*
X286310000Y-57850000I-240000J0D01*
G01*
G37*
%TD*%
D13*
%TO.C,SW1*%
X57868750Y-56490625D03*
X51668750Y-60190625D03*
X57868750Y-60190625D03*
X51668750Y-56490625D03*
%TD*%
D14*
%TO.C,R4*%
X55593750Y-63103125D03*
X53943750Y-63103125D03*
%TD*%
%TO.C,RGB18*%
G36*
G01*
X294593750Y-102234375D02*
X294593750Y-101734375D01*
G75*
G02*
X294843750Y-101484375I250000J0D01*
G01*
X295843750Y-101484375D01*
G75*
G02*
X296093750Y-101734375I0J-250000D01*
G01*
X296093750Y-102234375D01*
G75*
G02*
X295843750Y-102484375I-250000J0D01*
G01*
X294843750Y-102484375D01*
G75*
G02*
X294593750Y-102234375I0J250000D01*
G01*
G37*
D15*
X295343750Y-105184375D03*
X290443750Y-101984375D03*
X290443750Y-105184375D03*
%TD*%
%TO.C,RGB17*%
G36*
G01*
X266018750Y-102234375D02*
X266018750Y-101734375D01*
G75*
G02*
X266268750Y-101484375I250000J0D01*
G01*
X267268750Y-101484375D01*
G75*
G02*
X267518750Y-101734375I0J-250000D01*
G01*
X267518750Y-102234375D01*
G75*
G02*
X267268750Y-102484375I-250000J0D01*
G01*
X266268750Y-102484375D01*
G75*
G02*
X266018750Y-102234375I0J250000D01*
G01*
G37*
X266768750Y-105184375D03*
X261868750Y-101984375D03*
X261868750Y-105184375D03*
%TD*%
%TO.C,RGB16*%
G36*
G01*
X242206250Y-102234375D02*
X242206250Y-101734375D01*
G75*
G02*
X242456250Y-101484375I250000J0D01*
G01*
X243456250Y-101484375D01*
G75*
G02*
X243706250Y-101734375I0J-250000D01*
G01*
X243706250Y-102234375D01*
G75*
G02*
X243456250Y-102484375I-250000J0D01*
G01*
X242456250Y-102484375D01*
G75*
G02*
X242206250Y-102234375I0J250000D01*
G01*
G37*
X242956250Y-105184375D03*
X238056250Y-101984375D03*
X238056250Y-105184375D03*
%TD*%
%TO.C,RGB15*%
G36*
G01*
X218393750Y-102234375D02*
X218393750Y-101734375D01*
G75*
G02*
X218643750Y-101484375I250000J0D01*
G01*
X219643750Y-101484375D01*
G75*
G02*
X219893750Y-101734375I0J-250000D01*
G01*
X219893750Y-102234375D01*
G75*
G02*
X219643750Y-102484375I-250000J0D01*
G01*
X218643750Y-102484375D01*
G75*
G02*
X218393750Y-102234375I0J250000D01*
G01*
G37*
X219143750Y-105184375D03*
X214243750Y-101984375D03*
X214243750Y-105184375D03*
%TD*%
%TO.C,RGB14*%
G36*
G01*
X182675000Y-102234375D02*
X182675000Y-101734375D01*
G75*
G02*
X182925000Y-101484375I250000J0D01*
G01*
X183925000Y-101484375D01*
G75*
G02*
X184175000Y-101734375I0J-250000D01*
G01*
X184175000Y-102234375D01*
G75*
G02*
X183925000Y-102484375I-250000J0D01*
G01*
X182925000Y-102484375D01*
G75*
G02*
X182675000Y-102234375I0J250000D01*
G01*
G37*
X183425000Y-105184375D03*
X178525000Y-101984375D03*
X178525000Y-105184375D03*
%TD*%
%TO.C,RGB13*%
G36*
G01*
X151718750Y-102234375D02*
X151718750Y-101734375D01*
G75*
G02*
X151968750Y-101484375I250000J0D01*
G01*
X152968750Y-101484375D01*
G75*
G02*
X153218750Y-101734375I0J-250000D01*
G01*
X153218750Y-102234375D01*
G75*
G02*
X152968750Y-102484375I-250000J0D01*
G01*
X151968750Y-102484375D01*
G75*
G02*
X151718750Y-102234375I0J250000D01*
G01*
G37*
X152468750Y-105184375D03*
X147568750Y-101984375D03*
X147568750Y-105184375D03*
%TD*%
%TO.C,RGB12*%
G36*
G01*
X123143750Y-102234375D02*
X123143750Y-101734375D01*
G75*
G02*
X123393750Y-101484375I250000J0D01*
G01*
X124393750Y-101484375D01*
G75*
G02*
X124643750Y-101734375I0J-250000D01*
G01*
X124643750Y-102234375D01*
G75*
G02*
X124393750Y-102484375I-250000J0D01*
G01*
X123393750Y-102484375D01*
G75*
G02*
X123143750Y-102234375I0J250000D01*
G01*
G37*
X123893750Y-105184375D03*
X118993750Y-101984375D03*
X118993750Y-105184375D03*
%TD*%
%TO.C,RGB11*%
G36*
G01*
X85043750Y-102234375D02*
X85043750Y-101734375D01*
G75*
G02*
X85293750Y-101484375I250000J0D01*
G01*
X86293750Y-101484375D01*
G75*
G02*
X86543750Y-101734375I0J-250000D01*
G01*
X86543750Y-102234375D01*
G75*
G02*
X86293750Y-102484375I-250000J0D01*
G01*
X85293750Y-102484375D01*
G75*
G02*
X85043750Y-102234375I0J250000D01*
G01*
G37*
X85793750Y-105184375D03*
X80893750Y-101984375D03*
X80893750Y-105184375D03*
%TD*%
%TO.C,RGB10*%
G36*
G01*
X51706250Y-102234375D02*
X51706250Y-101734375D01*
G75*
G02*
X51956250Y-101484375I250000J0D01*
G01*
X52956250Y-101484375D01*
G75*
G02*
X53206250Y-101734375I0J-250000D01*
G01*
X53206250Y-102234375D01*
G75*
G02*
X52956250Y-102484375I-250000J0D01*
G01*
X51956250Y-102484375D01*
G75*
G02*
X51706250Y-102234375I0J250000D01*
G01*
G37*
X52456250Y-105184375D03*
X47556250Y-101984375D03*
X47556250Y-105184375D03*
%TD*%
%TO.C,RGB9*%
X297725000Y-44834375D03*
X297725000Y-48034375D03*
X292825000Y-44834375D03*
G36*
G01*
X293575000Y-47784375D02*
X293575000Y-48284375D01*
G75*
G02*
X293325000Y-48534375I-250000J0D01*
G01*
X292325000Y-48534375D01*
G75*
G02*
X292075000Y-48284375I0J250000D01*
G01*
X292075000Y-47784375D01*
G75*
G02*
X292325000Y-47534375I250000J0D01*
G01*
X293325000Y-47534375D01*
G75*
G02*
X293575000Y-47784375I0J-250000D01*
G01*
G37*
%TD*%
%TO.C,RGB8*%
X272721875Y-44834375D03*
X272721875Y-48034375D03*
X267821875Y-44834375D03*
G36*
G01*
X268571875Y-47784375D02*
X268571875Y-48284375D01*
G75*
G02*
X268321875Y-48534375I-250000J0D01*
G01*
X267321875Y-48534375D01*
G75*
G02*
X267071875Y-48284375I0J250000D01*
G01*
X267071875Y-47784375D01*
G75*
G02*
X267321875Y-47534375I250000J0D01*
G01*
X268321875Y-47534375D01*
G75*
G02*
X268571875Y-47784375I0J-250000D01*
G01*
G37*
%TD*%
%TO.C,RGB7*%
X242956250Y-44834375D03*
X242956250Y-48034375D03*
X238056250Y-44834375D03*
G36*
G01*
X238806250Y-47784375D02*
X238806250Y-48284375D01*
G75*
G02*
X238556250Y-48534375I-250000J0D01*
G01*
X237556250Y-48534375D01*
G75*
G02*
X237306250Y-48284375I0J250000D01*
G01*
X237306250Y-47784375D01*
G75*
G02*
X237556250Y-47534375I250000J0D01*
G01*
X238556250Y-47534375D01*
G75*
G02*
X238806250Y-47784375I0J-250000D01*
G01*
G37*
%TD*%
%TO.C,RGB6*%
X210809375Y-44834375D03*
X210809375Y-48034375D03*
X205909375Y-44834375D03*
G36*
G01*
X206659375Y-47784375D02*
X206659375Y-48284375D01*
G75*
G02*
X206409375Y-48534375I-250000J0D01*
G01*
X205409375Y-48534375D01*
G75*
G02*
X205159375Y-48284375I0J250000D01*
G01*
X205159375Y-47784375D01*
G75*
G02*
X205409375Y-47534375I250000J0D01*
G01*
X206409375Y-47534375D01*
G75*
G02*
X206659375Y-47784375I0J-250000D01*
G01*
G37*
%TD*%
%TO.C,RGB5*%
X179853125Y-44834375D03*
X179853125Y-48034375D03*
X174953125Y-44834375D03*
G36*
G01*
X175703125Y-47784375D02*
X175703125Y-48284375D01*
G75*
G02*
X175453125Y-48534375I-250000J0D01*
G01*
X174453125Y-48534375D01*
G75*
G02*
X174203125Y-48284375I0J250000D01*
G01*
X174203125Y-47784375D01*
G75*
G02*
X174453125Y-47534375I250000J0D01*
G01*
X175453125Y-47534375D01*
G75*
G02*
X175703125Y-47784375I0J-250000D01*
G01*
G37*
%TD*%
%TO.C,RGB4*%
X146515625Y-44834375D03*
X146515625Y-48034375D03*
X141615625Y-44834375D03*
G36*
G01*
X142365625Y-47784375D02*
X142365625Y-48284375D01*
G75*
G02*
X142115625Y-48534375I-250000J0D01*
G01*
X141115625Y-48534375D01*
G75*
G02*
X140865625Y-48284375I0J250000D01*
G01*
X140865625Y-47784375D01*
G75*
G02*
X141115625Y-47534375I250000J0D01*
G01*
X142115625Y-47534375D01*
G75*
G02*
X142365625Y-47784375I0J-250000D01*
G01*
G37*
%TD*%
%TO.C,RGB3*%
X115559375Y-44834375D03*
X115559375Y-48034375D03*
X110659375Y-44834375D03*
G36*
G01*
X111409375Y-47784375D02*
X111409375Y-48284375D01*
G75*
G02*
X111159375Y-48534375I-250000J0D01*
G01*
X110159375Y-48534375D01*
G75*
G02*
X109909375Y-48284375I0J250000D01*
G01*
X109909375Y-47784375D01*
G75*
G02*
X110159375Y-47534375I250000J0D01*
G01*
X111159375Y-47534375D01*
G75*
G02*
X111409375Y-47784375I0J-250000D01*
G01*
G37*
%TD*%
%TO.C,RGB2*%
X82221875Y-44834375D03*
X82221875Y-48034375D03*
X77321875Y-44834375D03*
G36*
G01*
X78071875Y-47784375D02*
X78071875Y-48284375D01*
G75*
G02*
X77821875Y-48534375I-250000J0D01*
G01*
X76821875Y-48534375D01*
G75*
G02*
X76571875Y-48284375I0J250000D01*
G01*
X76571875Y-47784375D01*
G75*
G02*
X76821875Y-47534375I250000J0D01*
G01*
X77821875Y-47534375D01*
G75*
G02*
X78071875Y-47784375I0J-250000D01*
G01*
G37*
%TD*%
%TO.C,RGB1*%
X47075000Y-44834375D03*
X47075000Y-48034375D03*
X42175000Y-44834375D03*
G36*
G01*
X42925000Y-47784375D02*
X42925000Y-48284375D01*
G75*
G02*
X42675000Y-48534375I-250000J0D01*
G01*
X41675000Y-48534375D01*
G75*
G02*
X41425000Y-48284375I0J250000D01*
G01*
X41425000Y-47784375D01*
G75*
G02*
X41675000Y-47534375I250000J0D01*
G01*
X42675000Y-47534375D01*
G75*
G02*
X42925000Y-47784375I0J-250000D01*
G01*
G37*
%TD*%
%TO.C,U1*%
G36*
G01*
X53248000Y-78303172D02*
X53336388Y-78214784D01*
G75*
G02*
X53424776Y-78214784I44194J-44194D01*
G01*
X53955106Y-78745114D01*
G75*
G02*
X53955106Y-78833502I-44194J-44194D01*
G01*
X53866718Y-78921890D01*
G75*
G02*
X53778330Y-78921890I-44194J44194D01*
G01*
X53248000Y-78391560D01*
G75*
G02*
X53248000Y-78303172I44194J44194D01*
G01*
G37*
G36*
G01*
X53601554Y-77949619D02*
X53689942Y-77861231D01*
G75*
G02*
X53778330Y-77861231I44194J-44194D01*
G01*
X54308660Y-78391561D01*
G75*
G02*
X54308660Y-78479949I-44194J-44194D01*
G01*
X54220272Y-78568337D01*
G75*
G02*
X54131884Y-78568337I-44194J44194D01*
G01*
X53601554Y-78038007D01*
G75*
G02*
X53601554Y-77949619I44194J44194D01*
G01*
G37*
G36*
G01*
X53955107Y-77596066D02*
X54043495Y-77507678D01*
G75*
G02*
X54131883Y-77507678I44194J-44194D01*
G01*
X54662213Y-78038008D01*
G75*
G02*
X54662213Y-78126396I-44194J-44194D01*
G01*
X54573825Y-78214784D01*
G75*
G02*
X54485437Y-78214784I-44194J44194D01*
G01*
X53955107Y-77684454D01*
G75*
G02*
X53955107Y-77596066I44194J44194D01*
G01*
G37*
G36*
G01*
X54308661Y-77242512D02*
X54397049Y-77154124D01*
G75*
G02*
X54485437Y-77154124I44194J-44194D01*
G01*
X55015767Y-77684454D01*
G75*
G02*
X55015767Y-77772842I-44194J-44194D01*
G01*
X54927379Y-77861230D01*
G75*
G02*
X54838991Y-77861230I-44194J44194D01*
G01*
X54308661Y-77330900D01*
G75*
G02*
X54308661Y-77242512I44194J44194D01*
G01*
G37*
G36*
G01*
X54662214Y-76888959D02*
X54750602Y-76800571D01*
G75*
G02*
X54838990Y-76800571I44194J-44194D01*
G01*
X55369320Y-77330901D01*
G75*
G02*
X55369320Y-77419289I-44194J-44194D01*
G01*
X55280932Y-77507677D01*
G75*
G02*
X55192544Y-77507677I-44194J44194D01*
G01*
X54662214Y-76977347D01*
G75*
G02*
X54662214Y-76888959I44194J44194D01*
G01*
G37*
G36*
G01*
X55015767Y-76535405D02*
X55104155Y-76447017D01*
G75*
G02*
X55192543Y-76447017I44194J-44194D01*
G01*
X55722873Y-76977347D01*
G75*
G02*
X55722873Y-77065735I-44194J-44194D01*
G01*
X55634485Y-77154123D01*
G75*
G02*
X55546097Y-77154123I-44194J44194D01*
G01*
X55015767Y-76623793D01*
G75*
G02*
X55015767Y-76535405I44194J44194D01*
G01*
G37*
G36*
G01*
X55369321Y-76181852D02*
X55457709Y-76093464D01*
G75*
G02*
X55546097Y-76093464I44194J-44194D01*
G01*
X56076427Y-76623794D01*
G75*
G02*
X56076427Y-76712182I-44194J-44194D01*
G01*
X55988039Y-76800570D01*
G75*
G02*
X55899651Y-76800570I-44194J44194D01*
G01*
X55369321Y-76270240D01*
G75*
G02*
X55369321Y-76181852I44194J44194D01*
G01*
G37*
G36*
G01*
X55722874Y-75828299D02*
X55811262Y-75739911D01*
G75*
G02*
X55899650Y-75739911I44194J-44194D01*
G01*
X56429980Y-76270241D01*
G75*
G02*
X56429980Y-76358629I-44194J-44194D01*
G01*
X56341592Y-76447017D01*
G75*
G02*
X56253204Y-76447017I-44194J44194D01*
G01*
X55722874Y-75916687D01*
G75*
G02*
X55722874Y-75828299I44194J44194D01*
G01*
G37*
G36*
G01*
X56076428Y-75474745D02*
X56164816Y-75386357D01*
G75*
G02*
X56253204Y-75386357I44194J-44194D01*
G01*
X56783534Y-75916687D01*
G75*
G02*
X56783534Y-76005075I-44194J-44194D01*
G01*
X56695146Y-76093463D01*
G75*
G02*
X56606758Y-76093463I-44194J44194D01*
G01*
X56076428Y-75563133D01*
G75*
G02*
X56076428Y-75474745I44194J44194D01*
G01*
G37*
G36*
G01*
X56429981Y-75121192D02*
X56518369Y-75032804D01*
G75*
G02*
X56606757Y-75032804I44194J-44194D01*
G01*
X57137087Y-75563134D01*
G75*
G02*
X57137087Y-75651522I-44194J-44194D01*
G01*
X57048699Y-75739910D01*
G75*
G02*
X56960311Y-75739910I-44194J44194D01*
G01*
X56429981Y-75209580D01*
G75*
G02*
X56429981Y-75121192I44194J44194D01*
G01*
G37*
G36*
G01*
X56783534Y-74767638D02*
X56871922Y-74679250D01*
G75*
G02*
X56960310Y-74679250I44194J-44194D01*
G01*
X57490640Y-75209580D01*
G75*
G02*
X57490640Y-75297968I-44194J-44194D01*
G01*
X57402252Y-75386356D01*
G75*
G02*
X57313864Y-75386356I-44194J44194D01*
G01*
X56783534Y-74856026D01*
G75*
G02*
X56783534Y-74767638I44194J44194D01*
G01*
G37*
G36*
G01*
X58109360Y-75209580D02*
X58639690Y-74679250D01*
G75*
G02*
X58728078Y-74679250I44194J-44194D01*
G01*
X58816466Y-74767638D01*
G75*
G02*
X58816466Y-74856026I-44194J-44194D01*
G01*
X58286136Y-75386356D01*
G75*
G02*
X58197748Y-75386356I-44194J44194D01*
G01*
X58109360Y-75297968D01*
G75*
G02*
X58109360Y-75209580I44194J44194D01*
G01*
G37*
G36*
G01*
X58462913Y-75563134D02*
X58993243Y-75032804D01*
G75*
G02*
X59081631Y-75032804I44194J-44194D01*
G01*
X59170019Y-75121192D01*
G75*
G02*
X59170019Y-75209580I-44194J-44194D01*
G01*
X58639689Y-75739910D01*
G75*
G02*
X58551301Y-75739910I-44194J44194D01*
G01*
X58462913Y-75651522D01*
G75*
G02*
X58462913Y-75563134I44194J44194D01*
G01*
G37*
G36*
G01*
X58816466Y-75916687D02*
X59346796Y-75386357D01*
G75*
G02*
X59435184Y-75386357I44194J-44194D01*
G01*
X59523572Y-75474745D01*
G75*
G02*
X59523572Y-75563133I-44194J-44194D01*
G01*
X58993242Y-76093463D01*
G75*
G02*
X58904854Y-76093463I-44194J44194D01*
G01*
X58816466Y-76005075D01*
G75*
G02*
X58816466Y-75916687I44194J44194D01*
G01*
G37*
G36*
G01*
X59170020Y-76270241D02*
X59700350Y-75739911D01*
G75*
G02*
X59788738Y-75739911I44194J-44194D01*
G01*
X59877126Y-75828299D01*
G75*
G02*
X59877126Y-75916687I-44194J-44194D01*
G01*
X59346796Y-76447017D01*
G75*
G02*
X59258408Y-76447017I-44194J44194D01*
G01*
X59170020Y-76358629D01*
G75*
G02*
X59170020Y-76270241I44194J44194D01*
G01*
G37*
G36*
G01*
X59523573Y-76623794D02*
X60053903Y-76093464D01*
G75*
G02*
X60142291Y-76093464I44194J-44194D01*
G01*
X60230679Y-76181852D01*
G75*
G02*
X60230679Y-76270240I-44194J-44194D01*
G01*
X59700349Y-76800570D01*
G75*
G02*
X59611961Y-76800570I-44194J44194D01*
G01*
X59523573Y-76712182D01*
G75*
G02*
X59523573Y-76623794I44194J44194D01*
G01*
G37*
G36*
G01*
X59877127Y-76977347D02*
X60407457Y-76447017D01*
G75*
G02*
X60495845Y-76447017I44194J-44194D01*
G01*
X60584233Y-76535405D01*
G75*
G02*
X60584233Y-76623793I-44194J-44194D01*
G01*
X60053903Y-77154123D01*
G75*
G02*
X59965515Y-77154123I-44194J44194D01*
G01*
X59877127Y-77065735D01*
G75*
G02*
X59877127Y-76977347I44194J44194D01*
G01*
G37*
G36*
G01*
X60230680Y-77330901D02*
X60761010Y-76800571D01*
G75*
G02*
X60849398Y-76800571I44194J-44194D01*
G01*
X60937786Y-76888959D01*
G75*
G02*
X60937786Y-76977347I-44194J-44194D01*
G01*
X60407456Y-77507677D01*
G75*
G02*
X60319068Y-77507677I-44194J44194D01*
G01*
X60230680Y-77419289D01*
G75*
G02*
X60230680Y-77330901I44194J44194D01*
G01*
G37*
G36*
G01*
X60584233Y-77684454D02*
X61114563Y-77154124D01*
G75*
G02*
X61202951Y-77154124I44194J-44194D01*
G01*
X61291339Y-77242512D01*
G75*
G02*
X61291339Y-77330900I-44194J-44194D01*
G01*
X60761009Y-77861230D01*
G75*
G02*
X60672621Y-77861230I-44194J44194D01*
G01*
X60584233Y-77772842D01*
G75*
G02*
X60584233Y-77684454I44194J44194D01*
G01*
G37*
G36*
G01*
X60937787Y-78038008D02*
X61468117Y-77507678D01*
G75*
G02*
X61556505Y-77507678I44194J-44194D01*
G01*
X61644893Y-77596066D01*
G75*
G02*
X61644893Y-77684454I-44194J-44194D01*
G01*
X61114563Y-78214784D01*
G75*
G02*
X61026175Y-78214784I-44194J44194D01*
G01*
X60937787Y-78126396D01*
G75*
G02*
X60937787Y-78038008I44194J44194D01*
G01*
G37*
G36*
G01*
X61291340Y-78391561D02*
X61821670Y-77861231D01*
G75*
G02*
X61910058Y-77861231I44194J-44194D01*
G01*
X61998446Y-77949619D01*
G75*
G02*
X61998446Y-78038007I-44194J-44194D01*
G01*
X61468116Y-78568337D01*
G75*
G02*
X61379728Y-78568337I-44194J44194D01*
G01*
X61291340Y-78479949D01*
G75*
G02*
X61291340Y-78391561I44194J44194D01*
G01*
G37*
G36*
G01*
X61644894Y-78745114D02*
X62175224Y-78214784D01*
G75*
G02*
X62263612Y-78214784I44194J-44194D01*
G01*
X62352000Y-78303172D01*
G75*
G02*
X62352000Y-78391560I-44194J-44194D01*
G01*
X61821670Y-78921890D01*
G75*
G02*
X61733282Y-78921890I-44194J44194D01*
G01*
X61644894Y-78833502D01*
G75*
G02*
X61644894Y-78745114I44194J44194D01*
G01*
G37*
G36*
G01*
X61644894Y-79628998D02*
X61733282Y-79540610D01*
G75*
G02*
X61821670Y-79540610I44194J-44194D01*
G01*
X62352000Y-80070940D01*
G75*
G02*
X62352000Y-80159328I-44194J-44194D01*
G01*
X62263612Y-80247716D01*
G75*
G02*
X62175224Y-80247716I-44194J44194D01*
G01*
X61644894Y-79717386D01*
G75*
G02*
X61644894Y-79628998I44194J44194D01*
G01*
G37*
G36*
G01*
X61291340Y-79982551D02*
X61379728Y-79894163D01*
G75*
G02*
X61468116Y-79894163I44194J-44194D01*
G01*
X61998446Y-80424493D01*
G75*
G02*
X61998446Y-80512881I-44194J-44194D01*
G01*
X61910058Y-80601269D01*
G75*
G02*
X61821670Y-80601269I-44194J44194D01*
G01*
X61291340Y-80070939D01*
G75*
G02*
X61291340Y-79982551I44194J44194D01*
G01*
G37*
G36*
G01*
X60937787Y-80336104D02*
X61026175Y-80247716D01*
G75*
G02*
X61114563Y-80247716I44194J-44194D01*
G01*
X61644893Y-80778046D01*
G75*
G02*
X61644893Y-80866434I-44194J-44194D01*
G01*
X61556505Y-80954822D01*
G75*
G02*
X61468117Y-80954822I-44194J44194D01*
G01*
X60937787Y-80424492D01*
G75*
G02*
X60937787Y-80336104I44194J44194D01*
G01*
G37*
G36*
G01*
X60584233Y-80689658D02*
X60672621Y-80601270D01*
G75*
G02*
X60761009Y-80601270I44194J-44194D01*
G01*
X61291339Y-81131600D01*
G75*
G02*
X61291339Y-81219988I-44194J-44194D01*
G01*
X61202951Y-81308376D01*
G75*
G02*
X61114563Y-81308376I-44194J44194D01*
G01*
X60584233Y-80778046D01*
G75*
G02*
X60584233Y-80689658I44194J44194D01*
G01*
G37*
G36*
G01*
X60230680Y-81043211D02*
X60319068Y-80954823D01*
G75*
G02*
X60407456Y-80954823I44194J-44194D01*
G01*
X60937786Y-81485153D01*
G75*
G02*
X60937786Y-81573541I-44194J-44194D01*
G01*
X60849398Y-81661929D01*
G75*
G02*
X60761010Y-81661929I-44194J44194D01*
G01*
X60230680Y-81131599D01*
G75*
G02*
X60230680Y-81043211I44194J44194D01*
G01*
G37*
G36*
G01*
X59877127Y-81396765D02*
X59965515Y-81308377D01*
G75*
G02*
X60053903Y-81308377I44194J-44194D01*
G01*
X60584233Y-81838707D01*
G75*
G02*
X60584233Y-81927095I-44194J-44194D01*
G01*
X60495845Y-82015483D01*
G75*
G02*
X60407457Y-82015483I-44194J44194D01*
G01*
X59877127Y-81485153D01*
G75*
G02*
X59877127Y-81396765I44194J44194D01*
G01*
G37*
G36*
G01*
X59523573Y-81750318D02*
X59611961Y-81661930D01*
G75*
G02*
X59700349Y-81661930I44194J-44194D01*
G01*
X60230679Y-82192260D01*
G75*
G02*
X60230679Y-82280648I-44194J-44194D01*
G01*
X60142291Y-82369036D01*
G75*
G02*
X60053903Y-82369036I-44194J44194D01*
G01*
X59523573Y-81838706D01*
G75*
G02*
X59523573Y-81750318I44194J44194D01*
G01*
G37*
G36*
G01*
X59170020Y-82103871D02*
X59258408Y-82015483D01*
G75*
G02*
X59346796Y-82015483I44194J-44194D01*
G01*
X59877126Y-82545813D01*
G75*
G02*
X59877126Y-82634201I-44194J-44194D01*
G01*
X59788738Y-82722589D01*
G75*
G02*
X59700350Y-82722589I-44194J44194D01*
G01*
X59170020Y-82192259D01*
G75*
G02*
X59170020Y-82103871I44194J44194D01*
G01*
G37*
G36*
G01*
X58816466Y-82457425D02*
X58904854Y-82369037D01*
G75*
G02*
X58993242Y-82369037I44194J-44194D01*
G01*
X59523572Y-82899367D01*
G75*
G02*
X59523572Y-82987755I-44194J-44194D01*
G01*
X59435184Y-83076143D01*
G75*
G02*
X59346796Y-83076143I-44194J44194D01*
G01*
X58816466Y-82545813D01*
G75*
G02*
X58816466Y-82457425I44194J44194D01*
G01*
G37*
G36*
G01*
X58462913Y-82810978D02*
X58551301Y-82722590D01*
G75*
G02*
X58639689Y-82722590I44194J-44194D01*
G01*
X59170019Y-83252920D01*
G75*
G02*
X59170019Y-83341308I-44194J-44194D01*
G01*
X59081631Y-83429696D01*
G75*
G02*
X58993243Y-83429696I-44194J44194D01*
G01*
X58462913Y-82899366D01*
G75*
G02*
X58462913Y-82810978I44194J44194D01*
G01*
G37*
G36*
G01*
X58109360Y-83164532D02*
X58197748Y-83076144D01*
G75*
G02*
X58286136Y-83076144I44194J-44194D01*
G01*
X58816466Y-83606474D01*
G75*
G02*
X58816466Y-83694862I-44194J-44194D01*
G01*
X58728078Y-83783250D01*
G75*
G02*
X58639690Y-83783250I-44194J44194D01*
G01*
X58109360Y-83252920D01*
G75*
G02*
X58109360Y-83164532I44194J44194D01*
G01*
G37*
G36*
G01*
X56783534Y-83606474D02*
X57313864Y-83076144D01*
G75*
G02*
X57402252Y-83076144I44194J-44194D01*
G01*
X57490640Y-83164532D01*
G75*
G02*
X57490640Y-83252920I-44194J-44194D01*
G01*
X56960310Y-83783250D01*
G75*
G02*
X56871922Y-83783250I-44194J44194D01*
G01*
X56783534Y-83694862D01*
G75*
G02*
X56783534Y-83606474I44194J44194D01*
G01*
G37*
G36*
G01*
X56429981Y-83252920D02*
X56960311Y-82722590D01*
G75*
G02*
X57048699Y-82722590I44194J-44194D01*
G01*
X57137087Y-82810978D01*
G75*
G02*
X57137087Y-82899366I-44194J-44194D01*
G01*
X56606757Y-83429696D01*
G75*
G02*
X56518369Y-83429696I-44194J44194D01*
G01*
X56429981Y-83341308D01*
G75*
G02*
X56429981Y-83252920I44194J44194D01*
G01*
G37*
G36*
G01*
X56076428Y-82899367D02*
X56606758Y-82369037D01*
G75*
G02*
X56695146Y-82369037I44194J-44194D01*
G01*
X56783534Y-82457425D01*
G75*
G02*
X56783534Y-82545813I-44194J-44194D01*
G01*
X56253204Y-83076143D01*
G75*
G02*
X56164816Y-83076143I-44194J44194D01*
G01*
X56076428Y-82987755D01*
G75*
G02*
X56076428Y-82899367I44194J44194D01*
G01*
G37*
G36*
G01*
X55722874Y-82545813D02*
X56253204Y-82015483D01*
G75*
G02*
X56341592Y-82015483I44194J-44194D01*
G01*
X56429980Y-82103871D01*
G75*
G02*
X56429980Y-82192259I-44194J-44194D01*
G01*
X55899650Y-82722589D01*
G75*
G02*
X55811262Y-82722589I-44194J44194D01*
G01*
X55722874Y-82634201D01*
G75*
G02*
X55722874Y-82545813I44194J44194D01*
G01*
G37*
G36*
G01*
X55369321Y-82192260D02*
X55899651Y-81661930D01*
G75*
G02*
X55988039Y-81661930I44194J-44194D01*
G01*
X56076427Y-81750318D01*
G75*
G02*
X56076427Y-81838706I-44194J-44194D01*
G01*
X55546097Y-82369036D01*
G75*
G02*
X55457709Y-82369036I-44194J44194D01*
G01*
X55369321Y-82280648D01*
G75*
G02*
X55369321Y-82192260I44194J44194D01*
G01*
G37*
G36*
G01*
X55015767Y-81838707D02*
X55546097Y-81308377D01*
G75*
G02*
X55634485Y-81308377I44194J-44194D01*
G01*
X55722873Y-81396765D01*
G75*
G02*
X55722873Y-81485153I-44194J-44194D01*
G01*
X55192543Y-82015483D01*
G75*
G02*
X55104155Y-82015483I-44194J44194D01*
G01*
X55015767Y-81927095D01*
G75*
G02*
X55015767Y-81838707I44194J44194D01*
G01*
G37*
G36*
G01*
X54662214Y-81485153D02*
X55192544Y-80954823D01*
G75*
G02*
X55280932Y-80954823I44194J-44194D01*
G01*
X55369320Y-81043211D01*
G75*
G02*
X55369320Y-81131599I-44194J-44194D01*
G01*
X54838990Y-81661929D01*
G75*
G02*
X54750602Y-81661929I-44194J44194D01*
G01*
X54662214Y-81573541D01*
G75*
G02*
X54662214Y-81485153I44194J44194D01*
G01*
G37*
G36*
G01*
X54308661Y-81131600D02*
X54838991Y-80601270D01*
G75*
G02*
X54927379Y-80601270I44194J-44194D01*
G01*
X55015767Y-80689658D01*
G75*
G02*
X55015767Y-80778046I-44194J-44194D01*
G01*
X54485437Y-81308376D01*
G75*
G02*
X54397049Y-81308376I-44194J44194D01*
G01*
X54308661Y-81219988D01*
G75*
G02*
X54308661Y-81131600I44194J44194D01*
G01*
G37*
G36*
G01*
X53955107Y-80778046D02*
X54485437Y-80247716D01*
G75*
G02*
X54573825Y-80247716I44194J-44194D01*
G01*
X54662213Y-80336104D01*
G75*
G02*
X54662213Y-80424492I-44194J-44194D01*
G01*
X54131883Y-80954822D01*
G75*
G02*
X54043495Y-80954822I-44194J44194D01*
G01*
X53955107Y-80866434D01*
G75*
G02*
X53955107Y-80778046I44194J44194D01*
G01*
G37*
G36*
G01*
X53601554Y-80424493D02*
X54131884Y-79894163D01*
G75*
G02*
X54220272Y-79894163I44194J-44194D01*
G01*
X54308660Y-79982551D01*
G75*
G02*
X54308660Y-80070939I-44194J-44194D01*
G01*
X53778330Y-80601269D01*
G75*
G02*
X53689942Y-80601269I-44194J44194D01*
G01*
X53601554Y-80512881D01*
G75*
G02*
X53601554Y-80424493I44194J44194D01*
G01*
G37*
G36*
G01*
X53248000Y-80070940D02*
X53778330Y-79540610D01*
G75*
G02*
X53866718Y-79540610I44194J-44194D01*
G01*
X53955106Y-79628998D01*
G75*
G02*
X53955106Y-79717386I-44194J-44194D01*
G01*
X53424776Y-80247716D01*
G75*
G02*
X53336388Y-80247716I-44194J44194D01*
G01*
X53248000Y-80159328D01*
G75*
G02*
X53248000Y-80070940I44194J44194D01*
G01*
G37*
G36*
G01*
X54805071Y-79054952D02*
X55157667Y-78702356D01*
G75*
G02*
X55510263Y-78702356I176298J-176298D01*
G01*
X55862859Y-79054952D01*
G75*
G02*
X55862859Y-79407548I-176298J-176298D01*
G01*
X55510263Y-79760144D01*
G75*
G02*
X55157667Y-79760144I-176298J176298D01*
G01*
X54805071Y-79407548D01*
G75*
G02*
X54805071Y-79054952I176298J176298D01*
G01*
G37*
G36*
G01*
X55627083Y-78232940D02*
X55979679Y-77880344D01*
G75*
G02*
X56332275Y-77880344I176298J-176298D01*
G01*
X56684871Y-78232940D01*
G75*
G02*
X56684871Y-78585536I-176298J-176298D01*
G01*
X56332275Y-78938132D01*
G75*
G02*
X55979679Y-78938132I-176298J176298D01*
G01*
X55627083Y-78585536D01*
G75*
G02*
X55627083Y-78232940I176298J176298D01*
G01*
G37*
G36*
G01*
X56449094Y-77410929D02*
X56801690Y-77058333D01*
G75*
G02*
X57154286Y-77058333I176298J-176298D01*
G01*
X57506882Y-77410929D01*
G75*
G02*
X57506882Y-77763525I-176298J-176298D01*
G01*
X57154286Y-78116121D01*
G75*
G02*
X56801690Y-78116121I-176298J176298D01*
G01*
X56449094Y-77763525D01*
G75*
G02*
X56449094Y-77410929I176298J176298D01*
G01*
G37*
G36*
G01*
X57271106Y-76588917D02*
X57623702Y-76236321D01*
G75*
G02*
X57976298Y-76236321I176298J-176298D01*
G01*
X58328894Y-76588917D01*
G75*
G02*
X58328894Y-76941513I-176298J-176298D01*
G01*
X57976298Y-77294109D01*
G75*
G02*
X57623702Y-77294109I-176298J176298D01*
G01*
X57271106Y-76941513D01*
G75*
G02*
X57271106Y-76588917I176298J176298D01*
G01*
G37*
G36*
G01*
X55627083Y-79876964D02*
X55979679Y-79524368D01*
G75*
G02*
X56332275Y-79524368I176298J-176298D01*
G01*
X56684871Y-79876964D01*
G75*
G02*
X56684871Y-80229560I-176298J-176298D01*
G01*
X56332275Y-80582156D01*
G75*
G02*
X55979679Y-80582156I-176298J176298D01*
G01*
X55627083Y-80229560D01*
G75*
G02*
X55627083Y-79876964I176298J176298D01*
G01*
G37*
G36*
G01*
X56449094Y-79054952D02*
X56801690Y-78702356D01*
G75*
G02*
X57154286Y-78702356I176298J-176298D01*
G01*
X57506882Y-79054952D01*
G75*
G02*
X57506882Y-79407548I-176298J-176298D01*
G01*
X57154286Y-79760144D01*
G75*
G02*
X56801690Y-79760144I-176298J176298D01*
G01*
X56449094Y-79407548D01*
G75*
G02*
X56449094Y-79054952I176298J176298D01*
G01*
G37*
G36*
G01*
X57271106Y-78232940D02*
X57623702Y-77880344D01*
G75*
G02*
X57976298Y-77880344I176298J-176298D01*
G01*
X58328894Y-78232940D01*
G75*
G02*
X58328894Y-78585536I-176298J-176298D01*
G01*
X57976298Y-78938132D01*
G75*
G02*
X57623702Y-78938132I-176298J176298D01*
G01*
X57271106Y-78585536D01*
G75*
G02*
X57271106Y-78232940I176298J176298D01*
G01*
G37*
G36*
G01*
X58093118Y-77410929D02*
X58445714Y-77058333D01*
G75*
G02*
X58798310Y-77058333I176298J-176298D01*
G01*
X59150906Y-77410929D01*
G75*
G02*
X59150906Y-77763525I-176298J-176298D01*
G01*
X58798310Y-78116121D01*
G75*
G02*
X58445714Y-78116121I-176298J176298D01*
G01*
X58093118Y-77763525D01*
G75*
G02*
X58093118Y-77410929I176298J176298D01*
G01*
G37*
G36*
G01*
X56449094Y-80698975D02*
X56801690Y-80346379D01*
G75*
G02*
X57154286Y-80346379I176298J-176298D01*
G01*
X57506882Y-80698975D01*
G75*
G02*
X57506882Y-81051571I-176298J-176298D01*
G01*
X57154286Y-81404167D01*
G75*
G02*
X56801690Y-81404167I-176298J176298D01*
G01*
X56449094Y-81051571D01*
G75*
G02*
X56449094Y-80698975I176298J176298D01*
G01*
G37*
G36*
G01*
X57271106Y-79876964D02*
X57623702Y-79524368D01*
G75*
G02*
X57976298Y-79524368I176298J-176298D01*
G01*
X58328894Y-79876964D01*
G75*
G02*
X58328894Y-80229560I-176298J-176298D01*
G01*
X57976298Y-80582156D01*
G75*
G02*
X57623702Y-80582156I-176298J176298D01*
G01*
X57271106Y-80229560D01*
G75*
G02*
X57271106Y-79876964I176298J176298D01*
G01*
G37*
G36*
G01*
X58093118Y-79054952D02*
X58445714Y-78702356D01*
G75*
G02*
X58798310Y-78702356I176298J-176298D01*
G01*
X59150906Y-79054952D01*
G75*
G02*
X59150906Y-79407548I-176298J-176298D01*
G01*
X58798310Y-79760144D01*
G75*
G02*
X58445714Y-79760144I-176298J176298D01*
G01*
X58093118Y-79407548D01*
G75*
G02*
X58093118Y-79054952I176298J176298D01*
G01*
G37*
G36*
G01*
X58915129Y-78232940D02*
X59267725Y-77880344D01*
G75*
G02*
X59620321Y-77880344I176298J-176298D01*
G01*
X59972917Y-78232940D01*
G75*
G02*
X59972917Y-78585536I-176298J-176298D01*
G01*
X59620321Y-78938132D01*
G75*
G02*
X59267725Y-78938132I-176298J176298D01*
G01*
X58915129Y-78585536D01*
G75*
G02*
X58915129Y-78232940I176298J176298D01*
G01*
G37*
G36*
G01*
X57271106Y-81520987D02*
X57623702Y-81168391D01*
G75*
G02*
X57976298Y-81168391I176298J-176298D01*
G01*
X58328894Y-81520987D01*
G75*
G02*
X58328894Y-81873583I-176298J-176298D01*
G01*
X57976298Y-82226179D01*
G75*
G02*
X57623702Y-82226179I-176298J176298D01*
G01*
X57271106Y-81873583D01*
G75*
G02*
X57271106Y-81520987I176298J176298D01*
G01*
G37*
G36*
G01*
X58093118Y-80698975D02*
X58445714Y-80346379D01*
G75*
G02*
X58798310Y-80346379I176298J-176298D01*
G01*
X59150906Y-80698975D01*
G75*
G02*
X59150906Y-81051571I-176298J-176298D01*
G01*
X58798310Y-81404167D01*
G75*
G02*
X58445714Y-81404167I-176298J176298D01*
G01*
X58093118Y-81051571D01*
G75*
G02*
X58093118Y-80698975I176298J176298D01*
G01*
G37*
G36*
G01*
X58915129Y-79876964D02*
X59267725Y-79524368D01*
G75*
G02*
X59620321Y-79524368I176298J-176298D01*
G01*
X59972917Y-79876964D01*
G75*
G02*
X59972917Y-80229560I-176298J-176298D01*
G01*
X59620321Y-80582156D01*
G75*
G02*
X59267725Y-80582156I-176298J176298D01*
G01*
X58915129Y-80229560D01*
G75*
G02*
X58915129Y-79876964I176298J176298D01*
G01*
G37*
G36*
G01*
X59737141Y-79054952D02*
X60089737Y-78702356D01*
G75*
G02*
X60442333Y-78702356I176298J-176298D01*
G01*
X60794929Y-79054952D01*
G75*
G02*
X60794929Y-79407548I-176298J-176298D01*
G01*
X60442333Y-79760144D01*
G75*
G02*
X60089737Y-79760144I-176298J176298D01*
G01*
X59737141Y-79407548D01*
G75*
G02*
X59737141Y-79054952I176298J176298D01*
G01*
G37*
%TD*%
D12*
%TO.C,R3*%
X51643750Y-69159375D03*
X51643750Y-70809375D03*
%TD*%
%TO.C,R2*%
X53143750Y-70809375D03*
X53143750Y-69159375D03*
%TD*%
D16*
%TO.C,Y1*%
X64500000Y-73481250D03*
X63300000Y-73481250D03*
X62100000Y-73481250D03*
%TD*%
D14*
%TO.C,R1*%
X56975000Y-87481250D03*
X58625000Y-87481250D03*
%TD*%
D17*
%TO.C,C5*%
X60550000Y-72761580D03*
X60550000Y-74261580D03*
%TD*%
D18*
%TO.C,C4*%
X58550000Y-85981250D03*
X57050000Y-85981250D03*
%TD*%
%TO.C,C3*%
X64800000Y-80981250D03*
X63300000Y-80981250D03*
%TD*%
D17*
%TO.C,C2*%
X51050000Y-79981250D03*
X51050000Y-78481250D03*
%TD*%
%TO.C,C1*%
X53550000Y-72981250D03*
X53550000Y-74481250D03*
%TD*%
%TO.C,D71*%
G36*
G01*
X289409000Y-115000000D02*
X288289000Y-115000000D01*
G75*
G02*
X288049000Y-114760000I0J240000D01*
G01*
X288049000Y-114040000D01*
G75*
G02*
X288289000Y-113800000I240000J0D01*
G01*
X289409000Y-113800000D01*
G75*
G02*
X289649000Y-114040000I0J-240000D01*
G01*
X289649000Y-114760000D01*
G75*
G02*
X289409000Y-115000000I-240000J0D01*
G01*
G37*
G36*
G01*
X289409000Y-117800000D02*
X288289000Y-117800000D01*
G75*
G02*
X288049000Y-117560000I0J240000D01*
G01*
X288049000Y-116840000D01*
G75*
G02*
X288289000Y-116600000I240000J0D01*
G01*
X289409000Y-116600000D01*
G75*
G02*
X289649000Y-116840000I0J-240000D01*
G01*
X289649000Y-117560000D01*
G75*
G02*
X289409000Y-117800000I-240000J0D01*
G01*
G37*
%TD*%
%TO.C,D62*%
G36*
G01*
X297105000Y-95950000D02*
X295985000Y-95950000D01*
G75*
G02*
X295745000Y-95710000I0J240000D01*
G01*
X295745000Y-94990000D01*
G75*
G02*
X295985000Y-94750000I240000J0D01*
G01*
X297105000Y-94750000D01*
G75*
G02*
X297345000Y-94990000I0J-240000D01*
G01*
X297345000Y-95710000D01*
G75*
G02*
X297105000Y-95950000I-240000J0D01*
G01*
G37*
G36*
G01*
X297105000Y-98750000D02*
X295985000Y-98750000D01*
G75*
G02*
X295745000Y-98510000I0J240000D01*
G01*
X295745000Y-97790000D01*
G75*
G02*
X295985000Y-97550000I240000J0D01*
G01*
X297105000Y-97550000D01*
G75*
G02*
X297345000Y-97790000I0J-240000D01*
G01*
X297345000Y-98510000D01*
G75*
G02*
X297105000Y-98750000I-240000J0D01*
G01*
G37*
%TD*%
%TO.C,D60*%
G36*
G01*
X269641250Y-95950000D02*
X268521250Y-95950000D01*
G75*
G02*
X268281250Y-95710000I0J240000D01*
G01*
X268281250Y-94990000D01*
G75*
G02*
X268521250Y-94750000I240000J0D01*
G01*
X269641250Y-94750000D01*
G75*
G02*
X269881250Y-94990000I0J-240000D01*
G01*
X269881250Y-95710000D01*
G75*
G02*
X269641250Y-95950000I-240000J0D01*
G01*
G37*
G36*
G01*
X269641250Y-98750000D02*
X268521250Y-98750000D01*
G75*
G02*
X268281250Y-98510000I0J240000D01*
G01*
X268281250Y-97790000D01*
G75*
G02*
X268521250Y-97550000I240000J0D01*
G01*
X269641250Y-97550000D01*
G75*
G02*
X269881250Y-97790000I0J-240000D01*
G01*
X269881250Y-98510000D01*
G75*
G02*
X269641250Y-98750000I-240000J0D01*
G01*
G37*
%TD*%
%TO.C,D59*%
G36*
G01*
X237021500Y-95950000D02*
X235901500Y-95950000D01*
G75*
G02*
X235661500Y-95710000I0J240000D01*
G01*
X235661500Y-94990000D01*
G75*
G02*
X235901500Y-94750000I240000J0D01*
G01*
X237021500Y-94750000D01*
G75*
G02*
X237261500Y-94990000I0J-240000D01*
G01*
X237261500Y-95710000D01*
G75*
G02*
X237021500Y-95950000I-240000J0D01*
G01*
G37*
G36*
G01*
X237021500Y-98750000D02*
X235901500Y-98750000D01*
G75*
G02*
X235661500Y-98510000I0J240000D01*
G01*
X235661500Y-97790000D01*
G75*
G02*
X235901500Y-97550000I240000J0D01*
G01*
X237021500Y-97550000D01*
G75*
G02*
X237261500Y-97790000I0J-240000D01*
G01*
X237261500Y-98510000D01*
G75*
G02*
X237021500Y-98750000I-240000J0D01*
G01*
G37*
%TD*%
%TO.C,D58*%
G36*
G01*
X217971500Y-95950000D02*
X216851500Y-95950000D01*
G75*
G02*
X216611500Y-95710000I0J240000D01*
G01*
X216611500Y-94990000D01*
G75*
G02*
X216851500Y-94750000I240000J0D01*
G01*
X217971500Y-94750000D01*
G75*
G02*
X218211500Y-94990000I0J-240000D01*
G01*
X218211500Y-95710000D01*
G75*
G02*
X217971500Y-95950000I-240000J0D01*
G01*
G37*
G36*
G01*
X217971500Y-98750000D02*
X216851500Y-98750000D01*
G75*
G02*
X216611500Y-98510000I0J240000D01*
G01*
X216611500Y-97790000D01*
G75*
G02*
X216851500Y-97550000I240000J0D01*
G01*
X217971500Y-97550000D01*
G75*
G02*
X218211500Y-97790000I0J-240000D01*
G01*
X218211500Y-98510000D01*
G75*
G02*
X217971500Y-98750000I-240000J0D01*
G01*
G37*
%TD*%
%TO.C,D57*%
G36*
G01*
X198921500Y-95950000D02*
X197801500Y-95950000D01*
G75*
G02*
X197561500Y-95710000I0J240000D01*
G01*
X197561500Y-94990000D01*
G75*
G02*
X197801500Y-94750000I240000J0D01*
G01*
X198921500Y-94750000D01*
G75*
G02*
X199161500Y-94990000I0J-240000D01*
G01*
X199161500Y-95710000D01*
G75*
G02*
X198921500Y-95950000I-240000J0D01*
G01*
G37*
G36*
G01*
X198921500Y-98750000D02*
X197801500Y-98750000D01*
G75*
G02*
X197561500Y-98510000I0J240000D01*
G01*
X197561500Y-97790000D01*
G75*
G02*
X197801500Y-97550000I240000J0D01*
G01*
X198921500Y-97550000D01*
G75*
G02*
X199161500Y-97790000I0J-240000D01*
G01*
X199161500Y-98510000D01*
G75*
G02*
X198921500Y-98750000I-240000J0D01*
G01*
G37*
%TD*%
%TO.C,D56*%
G36*
G01*
X179871500Y-95950000D02*
X178751500Y-95950000D01*
G75*
G02*
X178511500Y-95710000I0J240000D01*
G01*
X178511500Y-94990000D01*
G75*
G02*
X178751500Y-94750000I240000J0D01*
G01*
X179871500Y-94750000D01*
G75*
G02*
X180111500Y-94990000I0J-240000D01*
G01*
X180111500Y-95710000D01*
G75*
G02*
X179871500Y-95950000I-240000J0D01*
G01*
G37*
G36*
G01*
X179871500Y-98750000D02*
X178751500Y-98750000D01*
G75*
G02*
X178511500Y-98510000I0J240000D01*
G01*
X178511500Y-97790000D01*
G75*
G02*
X178751500Y-97550000I240000J0D01*
G01*
X179871500Y-97550000D01*
G75*
G02*
X180111500Y-97790000I0J-240000D01*
G01*
X180111500Y-98510000D01*
G75*
G02*
X179871500Y-98750000I-240000J0D01*
G01*
G37*
%TD*%
%TO.C,D55*%
G36*
G01*
X160821500Y-95950000D02*
X159701500Y-95950000D01*
G75*
G02*
X159461500Y-95710000I0J240000D01*
G01*
X159461500Y-94990000D01*
G75*
G02*
X159701500Y-94750000I240000J0D01*
G01*
X160821500Y-94750000D01*
G75*
G02*
X161061500Y-94990000I0J-240000D01*
G01*
X161061500Y-95710000D01*
G75*
G02*
X160821500Y-95950000I-240000J0D01*
G01*
G37*
G36*
G01*
X160821500Y-98750000D02*
X159701500Y-98750000D01*
G75*
G02*
X159461500Y-98510000I0J240000D01*
G01*
X159461500Y-97790000D01*
G75*
G02*
X159701500Y-97550000I240000J0D01*
G01*
X160821500Y-97550000D01*
G75*
G02*
X161061500Y-97790000I0J-240000D01*
G01*
X161061500Y-98510000D01*
G75*
G02*
X160821500Y-98750000I-240000J0D01*
G01*
G37*
%TD*%
%TO.C,D54*%
G36*
G01*
X141771500Y-95950000D02*
X140651500Y-95950000D01*
G75*
G02*
X140411500Y-95710000I0J240000D01*
G01*
X140411500Y-94990000D01*
G75*
G02*
X140651500Y-94750000I240000J0D01*
G01*
X141771500Y-94750000D01*
G75*
G02*
X142011500Y-94990000I0J-240000D01*
G01*
X142011500Y-95710000D01*
G75*
G02*
X141771500Y-95950000I-240000J0D01*
G01*
G37*
G36*
G01*
X141771500Y-98750000D02*
X140651500Y-98750000D01*
G75*
G02*
X140411500Y-98510000I0J240000D01*
G01*
X140411500Y-97790000D01*
G75*
G02*
X140651500Y-97550000I240000J0D01*
G01*
X141771500Y-97550000D01*
G75*
G02*
X142011500Y-97790000I0J-240000D01*
G01*
X142011500Y-98510000D01*
G75*
G02*
X141771500Y-98750000I-240000J0D01*
G01*
G37*
%TD*%
%TO.C,D53*%
G36*
G01*
X122721500Y-95950000D02*
X121601500Y-95950000D01*
G75*
G02*
X121361500Y-95710000I0J240000D01*
G01*
X121361500Y-94990000D01*
G75*
G02*
X121601500Y-94750000I240000J0D01*
G01*
X122721500Y-94750000D01*
G75*
G02*
X122961500Y-94990000I0J-240000D01*
G01*
X122961500Y-95710000D01*
G75*
G02*
X122721500Y-95950000I-240000J0D01*
G01*
G37*
G36*
G01*
X122721500Y-98750000D02*
X121601500Y-98750000D01*
G75*
G02*
X121361500Y-98510000I0J240000D01*
G01*
X121361500Y-97790000D01*
G75*
G02*
X121601500Y-97550000I240000J0D01*
G01*
X122721500Y-97550000D01*
G75*
G02*
X122961500Y-97790000I0J-240000D01*
G01*
X122961500Y-98510000D01*
G75*
G02*
X122721500Y-98750000I-240000J0D01*
G01*
G37*
%TD*%
%TO.C,D52*%
G36*
G01*
X103671500Y-95950000D02*
X102551500Y-95950000D01*
G75*
G02*
X102311500Y-95710000I0J240000D01*
G01*
X102311500Y-94990000D01*
G75*
G02*
X102551500Y-94750000I240000J0D01*
G01*
X103671500Y-94750000D01*
G75*
G02*
X103911500Y-94990000I0J-240000D01*
G01*
X103911500Y-95710000D01*
G75*
G02*
X103671500Y-95950000I-240000J0D01*
G01*
G37*
G36*
G01*
X103671500Y-98750000D02*
X102551500Y-98750000D01*
G75*
G02*
X102311500Y-98510000I0J240000D01*
G01*
X102311500Y-97790000D01*
G75*
G02*
X102551500Y-97550000I240000J0D01*
G01*
X103671500Y-97550000D01*
G75*
G02*
X103911500Y-97790000I0J-240000D01*
G01*
X103911500Y-98510000D01*
G75*
G02*
X103671500Y-98750000I-240000J0D01*
G01*
G37*
%TD*%
%TO.C,D51*%
G36*
G01*
X84621500Y-95950000D02*
X83501500Y-95950000D01*
G75*
G02*
X83261500Y-95710000I0J240000D01*
G01*
X83261500Y-94990000D01*
G75*
G02*
X83501500Y-94750000I240000J0D01*
G01*
X84621500Y-94750000D01*
G75*
G02*
X84861500Y-94990000I0J-240000D01*
G01*
X84861500Y-95710000D01*
G75*
G02*
X84621500Y-95950000I-240000J0D01*
G01*
G37*
G36*
G01*
X84621500Y-98750000D02*
X83501500Y-98750000D01*
G75*
G02*
X83261500Y-98510000I0J240000D01*
G01*
X83261500Y-97790000D01*
G75*
G02*
X83501500Y-97550000I240000J0D01*
G01*
X84621500Y-97550000D01*
G75*
G02*
X84861500Y-97790000I0J-240000D01*
G01*
X84861500Y-98510000D01*
G75*
G02*
X84621500Y-98750000I-240000J0D01*
G01*
G37*
%TD*%
%TO.C,D50*%
G36*
G01*
X72715250Y-95950000D02*
X71595250Y-95950000D01*
G75*
G02*
X71355250Y-95710000I0J240000D01*
G01*
X71355250Y-94990000D01*
G75*
G02*
X71595250Y-94750000I240000J0D01*
G01*
X72715250Y-94750000D01*
G75*
G02*
X72955250Y-94990000I0J-240000D01*
G01*
X72955250Y-95710000D01*
G75*
G02*
X72715250Y-95950000I-240000J0D01*
G01*
G37*
G36*
G01*
X72715250Y-98750000D02*
X71595250Y-98750000D01*
G75*
G02*
X71355250Y-98510000I0J240000D01*
G01*
X71355250Y-97790000D01*
G75*
G02*
X71595250Y-97550000I240000J0D01*
G01*
X72715250Y-97550000D01*
G75*
G02*
X72955250Y-97790000I0J-240000D01*
G01*
X72955250Y-98510000D01*
G75*
G02*
X72715250Y-98750000I-240000J0D01*
G01*
G37*
%TD*%
%TO.C,D49*%
G36*
G01*
X70334000Y-95950000D02*
X69214000Y-95950000D01*
G75*
G02*
X68974000Y-95710000I0J240000D01*
G01*
X68974000Y-94990000D01*
G75*
G02*
X69214000Y-94750000I240000J0D01*
G01*
X70334000Y-94750000D01*
G75*
G02*
X70574000Y-94990000I0J-240000D01*
G01*
X70574000Y-95710000D01*
G75*
G02*
X70334000Y-95950000I-240000J0D01*
G01*
G37*
G36*
G01*
X70334000Y-98750000D02*
X69214000Y-98750000D01*
G75*
G02*
X68974000Y-98510000I0J240000D01*
G01*
X68974000Y-97790000D01*
G75*
G02*
X69214000Y-97550000I240000J0D01*
G01*
X70334000Y-97550000D01*
G75*
G02*
X70574000Y-97790000I0J-240000D01*
G01*
X70574000Y-98510000D01*
G75*
G02*
X70334000Y-98750000I-240000J0D01*
G01*
G37*
%TD*%
%TO.C,D45*%
G36*
G01*
X272022500Y-76900000D02*
X270902500Y-76900000D01*
G75*
G02*
X270662500Y-76660000I0J240000D01*
G01*
X270662500Y-75940000D01*
G75*
G02*
X270902500Y-75700000I240000J0D01*
G01*
X272022500Y-75700000D01*
G75*
G02*
X272262500Y-75940000I0J-240000D01*
G01*
X272262500Y-76660000D01*
G75*
G02*
X272022500Y-76900000I-240000J0D01*
G01*
G37*
G36*
G01*
X272022500Y-79700000D02*
X270902500Y-79700000D01*
G75*
G02*
X270662500Y-79460000I0J240000D01*
G01*
X270662500Y-78740000D01*
G75*
G02*
X270902500Y-78500000I240000J0D01*
G01*
X272022500Y-78500000D01*
G75*
G02*
X272262500Y-78740000I0J-240000D01*
G01*
X272262500Y-79460000D01*
G75*
G02*
X272022500Y-79700000I-240000J0D01*
G01*
G37*
%TD*%
%TO.C,D44*%
G36*
G01*
X265596500Y-76900000D02*
X264476500Y-76900000D01*
G75*
G02*
X264236500Y-76660000I0J240000D01*
G01*
X264236500Y-75940000D01*
G75*
G02*
X264476500Y-75700000I240000J0D01*
G01*
X265596500Y-75700000D01*
G75*
G02*
X265836500Y-75940000I0J-240000D01*
G01*
X265836500Y-76660000D01*
G75*
G02*
X265596500Y-76900000I-240000J0D01*
G01*
G37*
G36*
G01*
X265596500Y-79700000D02*
X264476500Y-79700000D01*
G75*
G02*
X264236500Y-79460000I0J240000D01*
G01*
X264236500Y-78740000D01*
G75*
G02*
X264476500Y-78500000I240000J0D01*
G01*
X265596500Y-78500000D01*
G75*
G02*
X265836500Y-78740000I0J-240000D01*
G01*
X265836500Y-79460000D01*
G75*
G02*
X265596500Y-79700000I-240000J0D01*
G01*
G37*
%TD*%
%TO.C,D43*%
G36*
G01*
X246546500Y-76900000D02*
X245426500Y-76900000D01*
G75*
G02*
X245186500Y-76660000I0J240000D01*
G01*
X245186500Y-75940000D01*
G75*
G02*
X245426500Y-75700000I240000J0D01*
G01*
X246546500Y-75700000D01*
G75*
G02*
X246786500Y-75940000I0J-240000D01*
G01*
X246786500Y-76660000D01*
G75*
G02*
X246546500Y-76900000I-240000J0D01*
G01*
G37*
G36*
G01*
X246546500Y-79700000D02*
X245426500Y-79700000D01*
G75*
G02*
X245186500Y-79460000I0J240000D01*
G01*
X245186500Y-78740000D01*
G75*
G02*
X245426500Y-78500000I240000J0D01*
G01*
X246546500Y-78500000D01*
G75*
G02*
X246786500Y-78740000I0J-240000D01*
G01*
X246786500Y-79460000D01*
G75*
G02*
X246546500Y-79700000I-240000J0D01*
G01*
G37*
%TD*%
%TO.C,D42*%
G36*
G01*
X227496500Y-76900000D02*
X226376500Y-76900000D01*
G75*
G02*
X226136500Y-76660000I0J240000D01*
G01*
X226136500Y-75940000D01*
G75*
G02*
X226376500Y-75700000I240000J0D01*
G01*
X227496500Y-75700000D01*
G75*
G02*
X227736500Y-75940000I0J-240000D01*
G01*
X227736500Y-76660000D01*
G75*
G02*
X227496500Y-76900000I-240000J0D01*
G01*
G37*
G36*
G01*
X227496500Y-79700000D02*
X226376500Y-79700000D01*
G75*
G02*
X226136500Y-79460000I0J240000D01*
G01*
X226136500Y-78740000D01*
G75*
G02*
X226376500Y-78500000I240000J0D01*
G01*
X227496500Y-78500000D01*
G75*
G02*
X227736500Y-78740000I0J-240000D01*
G01*
X227736500Y-79460000D01*
G75*
G02*
X227496500Y-79700000I-240000J0D01*
G01*
G37*
%TD*%
%TO.C,D41*%
G36*
G01*
X208446500Y-76900000D02*
X207326500Y-76900000D01*
G75*
G02*
X207086500Y-76660000I0J240000D01*
G01*
X207086500Y-75940000D01*
G75*
G02*
X207326500Y-75700000I240000J0D01*
G01*
X208446500Y-75700000D01*
G75*
G02*
X208686500Y-75940000I0J-240000D01*
G01*
X208686500Y-76660000D01*
G75*
G02*
X208446500Y-76900000I-240000J0D01*
G01*
G37*
G36*
G01*
X208446500Y-79700000D02*
X207326500Y-79700000D01*
G75*
G02*
X207086500Y-79460000I0J240000D01*
G01*
X207086500Y-78740000D01*
G75*
G02*
X207326500Y-78500000I240000J0D01*
G01*
X208446500Y-78500000D01*
G75*
G02*
X208686500Y-78740000I0J-240000D01*
G01*
X208686500Y-79460000D01*
G75*
G02*
X208446500Y-79700000I-240000J0D01*
G01*
G37*
%TD*%
%TO.C,D40*%
G36*
G01*
X189396500Y-76900000D02*
X188276500Y-76900000D01*
G75*
G02*
X188036500Y-76660000I0J240000D01*
G01*
X188036500Y-75940000D01*
G75*
G02*
X188276500Y-75700000I240000J0D01*
G01*
X189396500Y-75700000D01*
G75*
G02*
X189636500Y-75940000I0J-240000D01*
G01*
X189636500Y-76660000D01*
G75*
G02*
X189396500Y-76900000I-240000J0D01*
G01*
G37*
G36*
G01*
X189396500Y-79700000D02*
X188276500Y-79700000D01*
G75*
G02*
X188036500Y-79460000I0J240000D01*
G01*
X188036500Y-78740000D01*
G75*
G02*
X188276500Y-78500000I240000J0D01*
G01*
X189396500Y-78500000D01*
G75*
G02*
X189636500Y-78740000I0J-240000D01*
G01*
X189636500Y-79460000D01*
G75*
G02*
X189396500Y-79700000I-240000J0D01*
G01*
G37*
%TD*%
%TO.C,D39*%
G36*
G01*
X170346500Y-76900000D02*
X169226500Y-76900000D01*
G75*
G02*
X168986500Y-76660000I0J240000D01*
G01*
X168986500Y-75940000D01*
G75*
G02*
X169226500Y-75700000I240000J0D01*
G01*
X170346500Y-75700000D01*
G75*
G02*
X170586500Y-75940000I0J-240000D01*
G01*
X170586500Y-76660000D01*
G75*
G02*
X170346500Y-76900000I-240000J0D01*
G01*
G37*
G36*
G01*
X170346500Y-79700000D02*
X169226500Y-79700000D01*
G75*
G02*
X168986500Y-79460000I0J240000D01*
G01*
X168986500Y-78740000D01*
G75*
G02*
X169226500Y-78500000I240000J0D01*
G01*
X170346500Y-78500000D01*
G75*
G02*
X170586500Y-78740000I0J-240000D01*
G01*
X170586500Y-79460000D01*
G75*
G02*
X170346500Y-79700000I-240000J0D01*
G01*
G37*
%TD*%
%TO.C,D38*%
G36*
G01*
X151296500Y-76900000D02*
X150176500Y-76900000D01*
G75*
G02*
X149936500Y-76660000I0J240000D01*
G01*
X149936500Y-75940000D01*
G75*
G02*
X150176500Y-75700000I240000J0D01*
G01*
X151296500Y-75700000D01*
G75*
G02*
X151536500Y-75940000I0J-240000D01*
G01*
X151536500Y-76660000D01*
G75*
G02*
X151296500Y-76900000I-240000J0D01*
G01*
G37*
G36*
G01*
X151296500Y-79700000D02*
X150176500Y-79700000D01*
G75*
G02*
X149936500Y-79460000I0J240000D01*
G01*
X149936500Y-78740000D01*
G75*
G02*
X150176500Y-78500000I240000J0D01*
G01*
X151296500Y-78500000D01*
G75*
G02*
X151536500Y-78740000I0J-240000D01*
G01*
X151536500Y-79460000D01*
G75*
G02*
X151296500Y-79700000I-240000J0D01*
G01*
G37*
%TD*%
%TO.C,D37*%
G36*
G01*
X132246500Y-76900000D02*
X131126500Y-76900000D01*
G75*
G02*
X130886500Y-76660000I0J240000D01*
G01*
X130886500Y-75940000D01*
G75*
G02*
X131126500Y-75700000I240000J0D01*
G01*
X132246500Y-75700000D01*
G75*
G02*
X132486500Y-75940000I0J-240000D01*
G01*
X132486500Y-76660000D01*
G75*
G02*
X132246500Y-76900000I-240000J0D01*
G01*
G37*
G36*
G01*
X132246500Y-79700000D02*
X131126500Y-79700000D01*
G75*
G02*
X130886500Y-79460000I0J240000D01*
G01*
X130886500Y-78740000D01*
G75*
G02*
X131126500Y-78500000I240000J0D01*
G01*
X132246500Y-78500000D01*
G75*
G02*
X132486500Y-78740000I0J-240000D01*
G01*
X132486500Y-79460000D01*
G75*
G02*
X132246500Y-79700000I-240000J0D01*
G01*
G37*
%TD*%
%TO.C,D36*%
G36*
G01*
X113196500Y-76900000D02*
X112076500Y-76900000D01*
G75*
G02*
X111836500Y-76660000I0J240000D01*
G01*
X111836500Y-75940000D01*
G75*
G02*
X112076500Y-75700000I240000J0D01*
G01*
X113196500Y-75700000D01*
G75*
G02*
X113436500Y-75940000I0J-240000D01*
G01*
X113436500Y-76660000D01*
G75*
G02*
X113196500Y-76900000I-240000J0D01*
G01*
G37*
G36*
G01*
X113196500Y-79700000D02*
X112076500Y-79700000D01*
G75*
G02*
X111836500Y-79460000I0J240000D01*
G01*
X111836500Y-78740000D01*
G75*
G02*
X112076500Y-78500000I240000J0D01*
G01*
X113196500Y-78500000D01*
G75*
G02*
X113436500Y-78740000I0J-240000D01*
G01*
X113436500Y-79460000D01*
G75*
G02*
X113196500Y-79700000I-240000J0D01*
G01*
G37*
%TD*%
%TO.C,D35*%
G36*
G01*
X94146500Y-76900000D02*
X93026500Y-76900000D01*
G75*
G02*
X92786500Y-76660000I0J240000D01*
G01*
X92786500Y-75940000D01*
G75*
G02*
X93026500Y-75700000I240000J0D01*
G01*
X94146500Y-75700000D01*
G75*
G02*
X94386500Y-75940000I0J-240000D01*
G01*
X94386500Y-76660000D01*
G75*
G02*
X94146500Y-76900000I-240000J0D01*
G01*
G37*
G36*
G01*
X94146500Y-79700000D02*
X93026500Y-79700000D01*
G75*
G02*
X92786500Y-79460000I0J240000D01*
G01*
X92786500Y-78740000D01*
G75*
G02*
X93026500Y-78500000I240000J0D01*
G01*
X94146500Y-78500000D01*
G75*
G02*
X94386500Y-78740000I0J-240000D01*
G01*
X94386500Y-79460000D01*
G75*
G02*
X94146500Y-79700000I-240000J0D01*
G01*
G37*
%TD*%
%TO.C,D34*%
G36*
G01*
X82713125Y-76900000D02*
X81593125Y-76900000D01*
G75*
G02*
X81353125Y-76660000I0J240000D01*
G01*
X81353125Y-75940000D01*
G75*
G02*
X81593125Y-75700000I240000J0D01*
G01*
X82713125Y-75700000D01*
G75*
G02*
X82953125Y-75940000I0J-240000D01*
G01*
X82953125Y-76660000D01*
G75*
G02*
X82713125Y-76900000I-240000J0D01*
G01*
G37*
G36*
G01*
X82713125Y-79700000D02*
X81593125Y-79700000D01*
G75*
G02*
X81353125Y-79460000I0J240000D01*
G01*
X81353125Y-78740000D01*
G75*
G02*
X81593125Y-78500000I240000J0D01*
G01*
X82713125Y-78500000D01*
G75*
G02*
X82953125Y-78740000I0J-240000D01*
G01*
X82953125Y-79460000D01*
G75*
G02*
X82713125Y-79700000I-240000J0D01*
G01*
G37*
%TD*%
%TO.C,D33*%
G36*
G01*
X80331875Y-76900000D02*
X79211875Y-76900000D01*
G75*
G02*
X78971875Y-76660000I0J240000D01*
G01*
X78971875Y-75940000D01*
G75*
G02*
X79211875Y-75700000I240000J0D01*
G01*
X80331875Y-75700000D01*
G75*
G02*
X80571875Y-75940000I0J-240000D01*
G01*
X80571875Y-76660000D01*
G75*
G02*
X80331875Y-76900000I-240000J0D01*
G01*
G37*
G36*
G01*
X80331875Y-79700000D02*
X79211875Y-79700000D01*
G75*
G02*
X78971875Y-79460000I0J240000D01*
G01*
X78971875Y-78740000D01*
G75*
G02*
X79211875Y-78500000I240000J0D01*
G01*
X80331875Y-78500000D01*
G75*
G02*
X80571875Y-78740000I0J-240000D01*
G01*
X80571875Y-79460000D01*
G75*
G02*
X80331875Y-79700000I-240000J0D01*
G01*
G37*
%TD*%
%TO.C,D29*%
G36*
G01*
X279884000Y-57850000D02*
X278764000Y-57850000D01*
G75*
G02*
X278524000Y-57610000I0J240000D01*
G01*
X278524000Y-56890000D01*
G75*
G02*
X278764000Y-56650000I240000J0D01*
G01*
X279884000Y-56650000D01*
G75*
G02*
X280124000Y-56890000I0J-240000D01*
G01*
X280124000Y-57610000D01*
G75*
G02*
X279884000Y-57850000I-240000J0D01*
G01*
G37*
G36*
G01*
X279884000Y-60650000D02*
X278764000Y-60650000D01*
G75*
G02*
X278524000Y-60410000I0J240000D01*
G01*
X278524000Y-59690000D01*
G75*
G02*
X278764000Y-59450000I240000J0D01*
G01*
X279884000Y-59450000D01*
G75*
G02*
X280124000Y-59690000I0J-240000D01*
G01*
X280124000Y-60410000D01*
G75*
G02*
X279884000Y-60650000I-240000J0D01*
G01*
G37*
%TD*%
%TO.C,D28*%
G36*
G01*
X260834000Y-57850000D02*
X259714000Y-57850000D01*
G75*
G02*
X259474000Y-57610000I0J240000D01*
G01*
X259474000Y-56890000D01*
G75*
G02*
X259714000Y-56650000I240000J0D01*
G01*
X260834000Y-56650000D01*
G75*
G02*
X261074000Y-56890000I0J-240000D01*
G01*
X261074000Y-57610000D01*
G75*
G02*
X260834000Y-57850000I-240000J0D01*
G01*
G37*
G36*
G01*
X260834000Y-60650000D02*
X259714000Y-60650000D01*
G75*
G02*
X259474000Y-60410000I0J240000D01*
G01*
X259474000Y-59690000D01*
G75*
G02*
X259714000Y-59450000I240000J0D01*
G01*
X260834000Y-59450000D01*
G75*
G02*
X261074000Y-59690000I0J-240000D01*
G01*
X261074000Y-60410000D01*
G75*
G02*
X260834000Y-60650000I-240000J0D01*
G01*
G37*
%TD*%
%TO.C,D27*%
G36*
G01*
X241784000Y-57850000D02*
X240664000Y-57850000D01*
G75*
G02*
X240424000Y-57610000I0J240000D01*
G01*
X240424000Y-56890000D01*
G75*
G02*
X240664000Y-56650000I240000J0D01*
G01*
X241784000Y-56650000D01*
G75*
G02*
X242024000Y-56890000I0J-240000D01*
G01*
X242024000Y-57610000D01*
G75*
G02*
X241784000Y-57850000I-240000J0D01*
G01*
G37*
G36*
G01*
X241784000Y-60650000D02*
X240664000Y-60650000D01*
G75*
G02*
X240424000Y-60410000I0J240000D01*
G01*
X240424000Y-59690000D01*
G75*
G02*
X240664000Y-59450000I240000J0D01*
G01*
X241784000Y-59450000D01*
G75*
G02*
X242024000Y-59690000I0J-240000D01*
G01*
X242024000Y-60410000D01*
G75*
G02*
X241784000Y-60650000I-240000J0D01*
G01*
G37*
%TD*%
%TO.C,D26*%
G36*
G01*
X222734000Y-57850000D02*
X221614000Y-57850000D01*
G75*
G02*
X221374000Y-57610000I0J240000D01*
G01*
X221374000Y-56890000D01*
G75*
G02*
X221614000Y-56650000I240000J0D01*
G01*
X222734000Y-56650000D01*
G75*
G02*
X222974000Y-56890000I0J-240000D01*
G01*
X222974000Y-57610000D01*
G75*
G02*
X222734000Y-57850000I-240000J0D01*
G01*
G37*
G36*
G01*
X222734000Y-60650000D02*
X221614000Y-60650000D01*
G75*
G02*
X221374000Y-60410000I0J240000D01*
G01*
X221374000Y-59690000D01*
G75*
G02*
X221614000Y-59450000I240000J0D01*
G01*
X222734000Y-59450000D01*
G75*
G02*
X222974000Y-59690000I0J-240000D01*
G01*
X222974000Y-60410000D01*
G75*
G02*
X222734000Y-60650000I-240000J0D01*
G01*
G37*
%TD*%
%TO.C,D25*%
G36*
G01*
X203684000Y-57850000D02*
X202564000Y-57850000D01*
G75*
G02*
X202324000Y-57610000I0J240000D01*
G01*
X202324000Y-56890000D01*
G75*
G02*
X202564000Y-56650000I240000J0D01*
G01*
X203684000Y-56650000D01*
G75*
G02*
X203924000Y-56890000I0J-240000D01*
G01*
X203924000Y-57610000D01*
G75*
G02*
X203684000Y-57850000I-240000J0D01*
G01*
G37*
G36*
G01*
X203684000Y-60650000D02*
X202564000Y-60650000D01*
G75*
G02*
X202324000Y-60410000I0J240000D01*
G01*
X202324000Y-59690000D01*
G75*
G02*
X202564000Y-59450000I240000J0D01*
G01*
X203684000Y-59450000D01*
G75*
G02*
X203924000Y-59690000I0J-240000D01*
G01*
X203924000Y-60410000D01*
G75*
G02*
X203684000Y-60650000I-240000J0D01*
G01*
G37*
%TD*%
%TO.C,D24*%
G36*
G01*
X184634000Y-57850000D02*
X183514000Y-57850000D01*
G75*
G02*
X183274000Y-57610000I0J240000D01*
G01*
X183274000Y-56890000D01*
G75*
G02*
X183514000Y-56650000I240000J0D01*
G01*
X184634000Y-56650000D01*
G75*
G02*
X184874000Y-56890000I0J-240000D01*
G01*
X184874000Y-57610000D01*
G75*
G02*
X184634000Y-57850000I-240000J0D01*
G01*
G37*
G36*
G01*
X184634000Y-60650000D02*
X183514000Y-60650000D01*
G75*
G02*
X183274000Y-60410000I0J240000D01*
G01*
X183274000Y-59690000D01*
G75*
G02*
X183514000Y-59450000I240000J0D01*
G01*
X184634000Y-59450000D01*
G75*
G02*
X184874000Y-59690000I0J-240000D01*
G01*
X184874000Y-60410000D01*
G75*
G02*
X184634000Y-60650000I-240000J0D01*
G01*
G37*
%TD*%
%TO.C,D23*%
G36*
G01*
X165584000Y-57850000D02*
X164464000Y-57850000D01*
G75*
G02*
X164224000Y-57610000I0J240000D01*
G01*
X164224000Y-56890000D01*
G75*
G02*
X164464000Y-56650000I240000J0D01*
G01*
X165584000Y-56650000D01*
G75*
G02*
X165824000Y-56890000I0J-240000D01*
G01*
X165824000Y-57610000D01*
G75*
G02*
X165584000Y-57850000I-240000J0D01*
G01*
G37*
G36*
G01*
X165584000Y-60650000D02*
X164464000Y-60650000D01*
G75*
G02*
X164224000Y-60410000I0J240000D01*
G01*
X164224000Y-59690000D01*
G75*
G02*
X164464000Y-59450000I240000J0D01*
G01*
X165584000Y-59450000D01*
G75*
G02*
X165824000Y-59690000I0J-240000D01*
G01*
X165824000Y-60410000D01*
G75*
G02*
X165584000Y-60650000I-240000J0D01*
G01*
G37*
%TD*%
%TO.C,D22*%
G36*
G01*
X146534000Y-57850000D02*
X145414000Y-57850000D01*
G75*
G02*
X145174000Y-57610000I0J240000D01*
G01*
X145174000Y-56890000D01*
G75*
G02*
X145414000Y-56650000I240000J0D01*
G01*
X146534000Y-56650000D01*
G75*
G02*
X146774000Y-56890000I0J-240000D01*
G01*
X146774000Y-57610000D01*
G75*
G02*
X146534000Y-57850000I-240000J0D01*
G01*
G37*
G36*
G01*
X146534000Y-60650000D02*
X145414000Y-60650000D01*
G75*
G02*
X145174000Y-60410000I0J240000D01*
G01*
X145174000Y-59690000D01*
G75*
G02*
X145414000Y-59450000I240000J0D01*
G01*
X146534000Y-59450000D01*
G75*
G02*
X146774000Y-59690000I0J-240000D01*
G01*
X146774000Y-60410000D01*
G75*
G02*
X146534000Y-60650000I-240000J0D01*
G01*
G37*
%TD*%
%TO.C,D21*%
G36*
G01*
X127484000Y-57850000D02*
X126364000Y-57850000D01*
G75*
G02*
X126124000Y-57610000I0J240000D01*
G01*
X126124000Y-56890000D01*
G75*
G02*
X126364000Y-56650000I240000J0D01*
G01*
X127484000Y-56650000D01*
G75*
G02*
X127724000Y-56890000I0J-240000D01*
G01*
X127724000Y-57610000D01*
G75*
G02*
X127484000Y-57850000I-240000J0D01*
G01*
G37*
G36*
G01*
X127484000Y-60650000D02*
X126364000Y-60650000D01*
G75*
G02*
X126124000Y-60410000I0J240000D01*
G01*
X126124000Y-59690000D01*
G75*
G02*
X126364000Y-59450000I240000J0D01*
G01*
X127484000Y-59450000D01*
G75*
G02*
X127724000Y-59690000I0J-240000D01*
G01*
X127724000Y-60410000D01*
G75*
G02*
X127484000Y-60650000I-240000J0D01*
G01*
G37*
%TD*%
%TO.C,D20*%
G36*
G01*
X108434000Y-57850000D02*
X107314000Y-57850000D01*
G75*
G02*
X107074000Y-57610000I0J240000D01*
G01*
X107074000Y-56890000D01*
G75*
G02*
X107314000Y-56650000I240000J0D01*
G01*
X108434000Y-56650000D01*
G75*
G02*
X108674000Y-56890000I0J-240000D01*
G01*
X108674000Y-57610000D01*
G75*
G02*
X108434000Y-57850000I-240000J0D01*
G01*
G37*
G36*
G01*
X108434000Y-60650000D02*
X107314000Y-60650000D01*
G75*
G02*
X107074000Y-60410000I0J240000D01*
G01*
X107074000Y-59690000D01*
G75*
G02*
X107314000Y-59450000I240000J0D01*
G01*
X108434000Y-59450000D01*
G75*
G02*
X108674000Y-59690000I0J-240000D01*
G01*
X108674000Y-60410000D01*
G75*
G02*
X108434000Y-60650000I-240000J0D01*
G01*
G37*
%TD*%
%TO.C,D19*%
G36*
G01*
X89384000Y-57850000D02*
X88264000Y-57850000D01*
G75*
G02*
X88024000Y-57610000I0J240000D01*
G01*
X88024000Y-56890000D01*
G75*
G02*
X88264000Y-56650000I240000J0D01*
G01*
X89384000Y-56650000D01*
G75*
G02*
X89624000Y-56890000I0J-240000D01*
G01*
X89624000Y-57610000D01*
G75*
G02*
X89384000Y-57850000I-240000J0D01*
G01*
G37*
G36*
G01*
X89384000Y-60650000D02*
X88264000Y-60650000D01*
G75*
G02*
X88024000Y-60410000I0J240000D01*
G01*
X88024000Y-59690000D01*
G75*
G02*
X88264000Y-59450000I240000J0D01*
G01*
X89384000Y-59450000D01*
G75*
G02*
X89624000Y-59690000I0J-240000D01*
G01*
X89624000Y-60410000D01*
G75*
G02*
X89384000Y-60650000I-240000J0D01*
G01*
G37*
%TD*%
%TO.C,D18*%
G36*
G01*
X70334000Y-57850000D02*
X69214000Y-57850000D01*
G75*
G02*
X68974000Y-57610000I0J240000D01*
G01*
X68974000Y-56890000D01*
G75*
G02*
X69214000Y-56650000I240000J0D01*
G01*
X70334000Y-56650000D01*
G75*
G02*
X70574000Y-56890000I0J-240000D01*
G01*
X70574000Y-57610000D01*
G75*
G02*
X70334000Y-57850000I-240000J0D01*
G01*
G37*
G36*
G01*
X70334000Y-60650000D02*
X69214000Y-60650000D01*
G75*
G02*
X68974000Y-60410000I0J240000D01*
G01*
X68974000Y-59690000D01*
G75*
G02*
X69214000Y-59450000I240000J0D01*
G01*
X70334000Y-59450000D01*
G75*
G02*
X70574000Y-59690000I0J-240000D01*
G01*
X70574000Y-60410000D01*
G75*
G02*
X70334000Y-60650000I-240000J0D01*
G01*
G37*
%TD*%
%TO.C,D17*%
G36*
G01*
X46521500Y-57850000D02*
X45401500Y-57850000D01*
G75*
G02*
X45161500Y-57610000I0J240000D01*
G01*
X45161500Y-56890000D01*
G75*
G02*
X45401500Y-56650000I240000J0D01*
G01*
X46521500Y-56650000D01*
G75*
G02*
X46761500Y-56890000I0J-240000D01*
G01*
X46761500Y-57610000D01*
G75*
G02*
X46521500Y-57850000I-240000J0D01*
G01*
G37*
G36*
G01*
X46521500Y-60650000D02*
X45401500Y-60650000D01*
G75*
G02*
X45161500Y-60410000I0J240000D01*
G01*
X45161500Y-59690000D01*
G75*
G02*
X45401500Y-59450000I240000J0D01*
G01*
X46521500Y-59450000D01*
G75*
G02*
X46761500Y-59690000I0J-240000D01*
G01*
X46761500Y-60410000D01*
G75*
G02*
X46521500Y-60650000I-240000J0D01*
G01*
G37*
%TD*%
%TO.C,D15*%
G36*
G01*
X308459000Y-38800000D02*
X307339000Y-38800000D01*
G75*
G02*
X307099000Y-38560000I0J240000D01*
G01*
X307099000Y-37840000D01*
G75*
G02*
X307339000Y-37600000I240000J0D01*
G01*
X308459000Y-37600000D01*
G75*
G02*
X308699000Y-37840000I0J-240000D01*
G01*
X308699000Y-38560000D01*
G75*
G02*
X308459000Y-38800000I-240000J0D01*
G01*
G37*
G36*
G01*
X308459000Y-41600000D02*
X307339000Y-41600000D01*
G75*
G02*
X307099000Y-41360000I0J240000D01*
G01*
X307099000Y-40640000D01*
G75*
G02*
X307339000Y-40400000I240000J0D01*
G01*
X308459000Y-40400000D01*
G75*
G02*
X308699000Y-40640000I0J-240000D01*
G01*
X308699000Y-41360000D01*
G75*
G02*
X308459000Y-41600000I-240000J0D01*
G01*
G37*
%TD*%
%TO.C,D14*%
G36*
G01*
X276785000Y-38800000D02*
X275665000Y-38800000D01*
G75*
G02*
X275425000Y-38560000I0J240000D01*
G01*
X275425000Y-37840000D01*
G75*
G02*
X275665000Y-37600000I240000J0D01*
G01*
X276785000Y-37600000D01*
G75*
G02*
X277025000Y-37840000I0J-240000D01*
G01*
X277025000Y-38560000D01*
G75*
G02*
X276785000Y-38800000I-240000J0D01*
G01*
G37*
G36*
G01*
X276785000Y-41600000D02*
X275665000Y-41600000D01*
G75*
G02*
X275425000Y-41360000I0J240000D01*
G01*
X275425000Y-40640000D01*
G75*
G02*
X275665000Y-40400000I240000J0D01*
G01*
X276785000Y-40400000D01*
G75*
G02*
X277025000Y-40640000I0J-240000D01*
G01*
X277025000Y-41360000D01*
G75*
G02*
X276785000Y-41600000I-240000J0D01*
G01*
G37*
%TD*%
%TO.C,D13*%
G36*
G01*
X270359000Y-38800000D02*
X269239000Y-38800000D01*
G75*
G02*
X268999000Y-38560000I0J240000D01*
G01*
X268999000Y-37840000D01*
G75*
G02*
X269239000Y-37600000I240000J0D01*
G01*
X270359000Y-37600000D01*
G75*
G02*
X270599000Y-37840000I0J-240000D01*
G01*
X270599000Y-38560000D01*
G75*
G02*
X270359000Y-38800000I-240000J0D01*
G01*
G37*
G36*
G01*
X270359000Y-41600000D02*
X269239000Y-41600000D01*
G75*
G02*
X268999000Y-41360000I0J240000D01*
G01*
X268999000Y-40640000D01*
G75*
G02*
X269239000Y-40400000I240000J0D01*
G01*
X270359000Y-40400000D01*
G75*
G02*
X270599000Y-40640000I0J-240000D01*
G01*
X270599000Y-41360000D01*
G75*
G02*
X270359000Y-41600000I-240000J0D01*
G01*
G37*
%TD*%
%TO.C,D12*%
G36*
G01*
X251309000Y-38800000D02*
X250189000Y-38800000D01*
G75*
G02*
X249949000Y-38560000I0J240000D01*
G01*
X249949000Y-37840000D01*
G75*
G02*
X250189000Y-37600000I240000J0D01*
G01*
X251309000Y-37600000D01*
G75*
G02*
X251549000Y-37840000I0J-240000D01*
G01*
X251549000Y-38560000D01*
G75*
G02*
X251309000Y-38800000I-240000J0D01*
G01*
G37*
G36*
G01*
X251309000Y-41600000D02*
X250189000Y-41600000D01*
G75*
G02*
X249949000Y-41360000I0J240000D01*
G01*
X249949000Y-40640000D01*
G75*
G02*
X250189000Y-40400000I240000J0D01*
G01*
X251309000Y-40400000D01*
G75*
G02*
X251549000Y-40640000I0J-240000D01*
G01*
X251549000Y-41360000D01*
G75*
G02*
X251309000Y-41600000I-240000J0D01*
G01*
G37*
%TD*%
%TO.C,D11*%
G36*
G01*
X232259000Y-38800000D02*
X231139000Y-38800000D01*
G75*
G02*
X230899000Y-38560000I0J240000D01*
G01*
X230899000Y-37840000D01*
G75*
G02*
X231139000Y-37600000I240000J0D01*
G01*
X232259000Y-37600000D01*
G75*
G02*
X232499000Y-37840000I0J-240000D01*
G01*
X232499000Y-38560000D01*
G75*
G02*
X232259000Y-38800000I-240000J0D01*
G01*
G37*
G36*
G01*
X232259000Y-41600000D02*
X231139000Y-41600000D01*
G75*
G02*
X230899000Y-41360000I0J240000D01*
G01*
X230899000Y-40640000D01*
G75*
G02*
X231139000Y-40400000I240000J0D01*
G01*
X232259000Y-40400000D01*
G75*
G02*
X232499000Y-40640000I0J-240000D01*
G01*
X232499000Y-41360000D01*
G75*
G02*
X232259000Y-41600000I-240000J0D01*
G01*
G37*
%TD*%
%TO.C,D10*%
G36*
G01*
X213209000Y-38800000D02*
X212089000Y-38800000D01*
G75*
G02*
X211849000Y-38560000I0J240000D01*
G01*
X211849000Y-37840000D01*
G75*
G02*
X212089000Y-37600000I240000J0D01*
G01*
X213209000Y-37600000D01*
G75*
G02*
X213449000Y-37840000I0J-240000D01*
G01*
X213449000Y-38560000D01*
G75*
G02*
X213209000Y-38800000I-240000J0D01*
G01*
G37*
G36*
G01*
X213209000Y-41600000D02*
X212089000Y-41600000D01*
G75*
G02*
X211849000Y-41360000I0J240000D01*
G01*
X211849000Y-40640000D01*
G75*
G02*
X212089000Y-40400000I240000J0D01*
G01*
X213209000Y-40400000D01*
G75*
G02*
X213449000Y-40640000I0J-240000D01*
G01*
X213449000Y-41360000D01*
G75*
G02*
X213209000Y-41600000I-240000J0D01*
G01*
G37*
%TD*%
%TO.C,D9*%
G36*
G01*
X194159000Y-38800000D02*
X193039000Y-38800000D01*
G75*
G02*
X192799000Y-38560000I0J240000D01*
G01*
X192799000Y-37840000D01*
G75*
G02*
X193039000Y-37600000I240000J0D01*
G01*
X194159000Y-37600000D01*
G75*
G02*
X194399000Y-37840000I0J-240000D01*
G01*
X194399000Y-38560000D01*
G75*
G02*
X194159000Y-38800000I-240000J0D01*
G01*
G37*
G36*
G01*
X194159000Y-41600000D02*
X193039000Y-41600000D01*
G75*
G02*
X192799000Y-41360000I0J240000D01*
G01*
X192799000Y-40640000D01*
G75*
G02*
X193039000Y-40400000I240000J0D01*
G01*
X194159000Y-40400000D01*
G75*
G02*
X194399000Y-40640000I0J-240000D01*
G01*
X194399000Y-41360000D01*
G75*
G02*
X194159000Y-41600000I-240000J0D01*
G01*
G37*
%TD*%
%TO.C,D8*%
G36*
G01*
X175109000Y-38800000D02*
X173989000Y-38800000D01*
G75*
G02*
X173749000Y-38560000I0J240000D01*
G01*
X173749000Y-37840000D01*
G75*
G02*
X173989000Y-37600000I240000J0D01*
G01*
X175109000Y-37600000D01*
G75*
G02*
X175349000Y-37840000I0J-240000D01*
G01*
X175349000Y-38560000D01*
G75*
G02*
X175109000Y-38800000I-240000J0D01*
G01*
G37*
G36*
G01*
X175109000Y-41600000D02*
X173989000Y-41600000D01*
G75*
G02*
X173749000Y-41360000I0J240000D01*
G01*
X173749000Y-40640000D01*
G75*
G02*
X173989000Y-40400000I240000J0D01*
G01*
X175109000Y-40400000D01*
G75*
G02*
X175349000Y-40640000I0J-240000D01*
G01*
X175349000Y-41360000D01*
G75*
G02*
X175109000Y-41600000I-240000J0D01*
G01*
G37*
%TD*%
%TO.C,D7*%
G36*
G01*
X156059000Y-38800000D02*
X154939000Y-38800000D01*
G75*
G02*
X154699000Y-38560000I0J240000D01*
G01*
X154699000Y-37840000D01*
G75*
G02*
X154939000Y-37600000I240000J0D01*
G01*
X156059000Y-37600000D01*
G75*
G02*
X156299000Y-37840000I0J-240000D01*
G01*
X156299000Y-38560000D01*
G75*
G02*
X156059000Y-38800000I-240000J0D01*
G01*
G37*
G36*
G01*
X156059000Y-41600000D02*
X154939000Y-41600000D01*
G75*
G02*
X154699000Y-41360000I0J240000D01*
G01*
X154699000Y-40640000D01*
G75*
G02*
X154939000Y-40400000I240000J0D01*
G01*
X156059000Y-40400000D01*
G75*
G02*
X156299000Y-40640000I0J-240000D01*
G01*
X156299000Y-41360000D01*
G75*
G02*
X156059000Y-41600000I-240000J0D01*
G01*
G37*
%TD*%
%TO.C,D6*%
G36*
G01*
X137009000Y-38800000D02*
X135889000Y-38800000D01*
G75*
G02*
X135649000Y-38560000I0J240000D01*
G01*
X135649000Y-37840000D01*
G75*
G02*
X135889000Y-37600000I240000J0D01*
G01*
X137009000Y-37600000D01*
G75*
G02*
X137249000Y-37840000I0J-240000D01*
G01*
X137249000Y-38560000D01*
G75*
G02*
X137009000Y-38800000I-240000J0D01*
G01*
G37*
G36*
G01*
X137009000Y-41600000D02*
X135889000Y-41600000D01*
G75*
G02*
X135649000Y-41360000I0J240000D01*
G01*
X135649000Y-40640000D01*
G75*
G02*
X135889000Y-40400000I240000J0D01*
G01*
X137009000Y-40400000D01*
G75*
G02*
X137249000Y-40640000I0J-240000D01*
G01*
X137249000Y-41360000D01*
G75*
G02*
X137009000Y-41600000I-240000J0D01*
G01*
G37*
%TD*%
%TO.C,D5*%
G36*
G01*
X117959000Y-38800000D02*
X116839000Y-38800000D01*
G75*
G02*
X116599000Y-38560000I0J240000D01*
G01*
X116599000Y-37840000D01*
G75*
G02*
X116839000Y-37600000I240000J0D01*
G01*
X117959000Y-37600000D01*
G75*
G02*
X118199000Y-37840000I0J-240000D01*
G01*
X118199000Y-38560000D01*
G75*
G02*
X117959000Y-38800000I-240000J0D01*
G01*
G37*
G36*
G01*
X117959000Y-41600000D02*
X116839000Y-41600000D01*
G75*
G02*
X116599000Y-41360000I0J240000D01*
G01*
X116599000Y-40640000D01*
G75*
G02*
X116839000Y-40400000I240000J0D01*
G01*
X117959000Y-40400000D01*
G75*
G02*
X118199000Y-40640000I0J-240000D01*
G01*
X118199000Y-41360000D01*
G75*
G02*
X117959000Y-41600000I-240000J0D01*
G01*
G37*
%TD*%
%TO.C,D4*%
G36*
G01*
X98909000Y-38800000D02*
X97789000Y-38800000D01*
G75*
G02*
X97549000Y-38560000I0J240000D01*
G01*
X97549000Y-37840000D01*
G75*
G02*
X97789000Y-37600000I240000J0D01*
G01*
X98909000Y-37600000D01*
G75*
G02*
X99149000Y-37840000I0J-240000D01*
G01*
X99149000Y-38560000D01*
G75*
G02*
X98909000Y-38800000I-240000J0D01*
G01*
G37*
G36*
G01*
X98909000Y-41600000D02*
X97789000Y-41600000D01*
G75*
G02*
X97549000Y-41360000I0J240000D01*
G01*
X97549000Y-40640000D01*
G75*
G02*
X97789000Y-40400000I240000J0D01*
G01*
X98909000Y-40400000D01*
G75*
G02*
X99149000Y-40640000I0J-240000D01*
G01*
X99149000Y-41360000D01*
G75*
G02*
X98909000Y-41600000I-240000J0D01*
G01*
G37*
%TD*%
%TO.C,D3*%
G36*
G01*
X79859000Y-38800000D02*
X78739000Y-38800000D01*
G75*
G02*
X78499000Y-38560000I0J240000D01*
G01*
X78499000Y-37840000D01*
G75*
G02*
X78739000Y-37600000I240000J0D01*
G01*
X79859000Y-37600000D01*
G75*
G02*
X80099000Y-37840000I0J-240000D01*
G01*
X80099000Y-38560000D01*
G75*
G02*
X79859000Y-38800000I-240000J0D01*
G01*
G37*
G36*
G01*
X79859000Y-41600000D02*
X78739000Y-41600000D01*
G75*
G02*
X78499000Y-41360000I0J240000D01*
G01*
X78499000Y-40640000D01*
G75*
G02*
X78739000Y-40400000I240000J0D01*
G01*
X79859000Y-40400000D01*
G75*
G02*
X80099000Y-40640000I0J-240000D01*
G01*
X80099000Y-41360000D01*
G75*
G02*
X79859000Y-41600000I-240000J0D01*
G01*
G37*
%TD*%
%TO.C,D2*%
G36*
G01*
X60809000Y-38800000D02*
X59689000Y-38800000D01*
G75*
G02*
X59449000Y-38560000I0J240000D01*
G01*
X59449000Y-37840000D01*
G75*
G02*
X59689000Y-37600000I240000J0D01*
G01*
X60809000Y-37600000D01*
G75*
G02*
X61049000Y-37840000I0J-240000D01*
G01*
X61049000Y-38560000D01*
G75*
G02*
X60809000Y-38800000I-240000J0D01*
G01*
G37*
G36*
G01*
X60809000Y-41600000D02*
X59689000Y-41600000D01*
G75*
G02*
X59449000Y-41360000I0J240000D01*
G01*
X59449000Y-40640000D01*
G75*
G02*
X59689000Y-40400000I240000J0D01*
G01*
X60809000Y-40400000D01*
G75*
G02*
X61049000Y-40640000I0J-240000D01*
G01*
X61049000Y-41360000D01*
G75*
G02*
X60809000Y-41600000I-240000J0D01*
G01*
G37*
%TD*%
%TO.C,D1*%
G36*
G01*
X41759000Y-38800000D02*
X40639000Y-38800000D01*
G75*
G02*
X40399000Y-38560000I0J240000D01*
G01*
X40399000Y-37840000D01*
G75*
G02*
X40639000Y-37600000I240000J0D01*
G01*
X41759000Y-37600000D01*
G75*
G02*
X41999000Y-37840000I0J-240000D01*
G01*
X41999000Y-38560000D01*
G75*
G02*
X41759000Y-38800000I-240000J0D01*
G01*
G37*
G36*
G01*
X41759000Y-41600000D02*
X40639000Y-41600000D01*
G75*
G02*
X40399000Y-41360000I0J240000D01*
G01*
X40399000Y-40640000D01*
G75*
G02*
X40639000Y-40400000I240000J0D01*
G01*
X41759000Y-40400000D01*
G75*
G02*
X41999000Y-40640000I0J-240000D01*
G01*
X41999000Y-41360000D01*
G75*
G02*
X41759000Y-41600000I-240000J0D01*
G01*
G37*
%TD*%
M02*
