M48
; DRILL file {KiCad (5.1.11)-1} date 09/07/22 08:58:03
; FORMAT={-:-/ absolute / metric / decimal}
; #@! TF.CreationDate,2022-09-07T08:58:03+07:00
; #@! TF.GenerationSoftware,Kicad,Pcbnew,(5.1.11)-1
; #@! TF.FileFunction,Plated,1,2,PTH
FMAT,2
METRIC
T1C0.200
T2C0.300
T3C0.400
T4C1.800
%
G90
G05
T1
X54.512Y-79.231
X55.334Y-78.409
X55.334Y-80.053
X56.156Y-77.587
X56.156Y-79.231
X56.156Y-80.875
X56.978Y-76.765
X56.978Y-78.409
X56.978Y-80.053
X56.978Y-81.697
X57.8Y-75.943
X57.8Y-77.587
X57.8Y-79.231
X57.8Y-80.875
X57.8Y-82.519
X58.622Y-76.765
X58.622Y-78.409
X58.622Y-80.053
X58.622Y-81.697
X59.444Y-77.587
X59.444Y-79.231
X59.444Y-80.875
X60.266Y-78.409
X60.266Y-80.053
X61.088Y-79.231
T2
X40.125Y-49.45
X42.883Y-42.684
X43.453Y-42.084
X49.019Y-54.584
X49.869Y-54.584
X51.869Y-67.584
X52.05Y-81.481
X52.919Y-67.584
X55.05Y-73.981
X55.75Y-69.831
X56.35Y-69.231
X56.95Y-68.631
X57.55Y-69.231
X58.15Y-69.831
X59.425Y-64.4
X59.425Y-70.52
X62.009Y-61.734
X62.047Y-60.923
X67.627Y-69.654
X67.627Y-84.781
X76.903Y-73.431
X265.05Y-49.65
X269.175Y-79.1
X275.225Y-44.9
X275.225Y-49.65
X288.031Y-59.531
X289.344Y-46.284
X290.544Y-64.084
X294.044Y-103.884
X297.944Y-64.084
X299.444Y-72.484
X300.844Y-75.584
T3
X31.722Y-84.563
X31.722Y-117.963
X32.43Y-85.27
X32.43Y-117.199
X33.137Y-85.977
X33.137Y-98.791
X33.844Y-86.684
X33.844Y-98.084
X43.625Y-46.584
X48.244Y-53.384
X49.75Y-79.981
X50.303Y-101.984
X50.444Y-66.584
X50.55Y-78.481
X54.237Y-56.491
X56.3Y-87.481
X56.55Y-85.981
X58.244Y-54.584
X59.05Y-85.981
X60.55Y-72.231
X60.55Y-73.762
X63.3Y-72.231
X63.3Y-80.481
X64.8Y-80.481
X79.013Y-48.034
X83.641Y-101.984
X97.055Y-69.196
X107.784Y-45.112
X109.209Y-48.034
X112.15Y-102.484
X114.159Y-64.425
X121.741Y-101.984
X143.306Y-48.034
X150.316Y-101.984
X173.503Y-48.034
X181.272Y-101.984
X204.459Y-48.034
X216.991Y-101.984
X236.606Y-48.034
X240.803Y-101.984
X264.616Y-101.984
X269.503Y-47.969
X291.375Y-48.034
X293.191Y-101.984
T4
X34.29Y-35.56
X36.671Y-73.66
X36.671Y-92.71
X36.671Y-111.76
X39.052Y-54.61
X39.052Y-111.76
X40.64Y-33.02
X41.434Y-73.66
X43.021Y-71.12
X43.021Y-90.17
X43.021Y-109.22
X45.402Y-52.07
X45.402Y-109.22
X46.196Y-92.71
X47.784Y-71.12
X52.546Y-90.17
X53.34Y-35.56
X58.102Y-92.71
X59.69Y-33.02
X60.484Y-111.76
X62.865Y-54.61
X62.865Y-111.76
X64.453Y-90.17
X66.834Y-109.22
X67.627Y-73.66
X69.215Y-52.07
X69.215Y-109.22
X72.39Y-35.56
X73.977Y-71.12
X77.153Y-92.71
X78.74Y-33.02
X81.915Y-54.61
X83.502Y-90.17
X84.296Y-111.76
X86.677Y-73.66
X86.677Y-111.76
X88.265Y-52.07
X90.646Y-109.22
X91.44Y-35.56
X93.027Y-71.12
X93.027Y-109.22
X96.203Y-92.71
X97.79Y-33.02
X100.965Y-54.61
X102.552Y-90.17
X105.727Y-73.66
X107.315Y-52.07
X110.49Y-35.56
X112.078Y-71.12
X115.252Y-92.71
X116.84Y-33.02
X120.015Y-54.61
X121.602Y-90.17
X124.777Y-73.66
X126.365Y-52.07
X129.54Y-35.56
X131.127Y-71.12
X134.302Y-92.71
X135.89Y-33.02
X139.065Y-54.61
X140.653Y-90.17
X143.827Y-73.66
X145.415Y-52.07
X148.59Y-35.56
X150.177Y-71.12
X153.352Y-92.71
X154.94Y-33.02
X155.734Y-111.76
X158.115Y-54.61
X159.702Y-90.17
X162.084Y-109.22
X162.877Y-73.66
X164.465Y-52.07
X167.64Y-35.56
X167.64Y-111.76
X169.227Y-71.12
X172.403Y-92.71
X173.99Y-33.02
X173.99Y-109.22
X177.165Y-54.61
X178.752Y-90.17
X181.927Y-73.66
X183.515Y-52.07
X186.69Y-35.56
X188.278Y-71.12
X191.452Y-92.71
X193.04Y-33.02
X196.215Y-54.61
X197.802Y-90.17
X200.977Y-73.66
X202.565Y-52.07
X205.74Y-35.56
X207.327Y-71.12
X210.502Y-92.71
X212.09Y-33.02
X215.265Y-54.61
X216.852Y-90.17
X220.028Y-73.66
X221.615Y-52.07
X224.79Y-35.56
X224.79Y-111.76
X226.377Y-71.12
X227.171Y-111.76
X229.552Y-92.71
X231.14Y-33.02
X231.14Y-109.22
X233.521Y-109.22
X234.315Y-54.61
X235.903Y-90.17
X239.077Y-73.66
X240.665Y-52.07
X243.84Y-35.56
X243.84Y-111.76
X245.427Y-71.12
X248.602Y-92.71
X248.602Y-111.76
X250.19Y-33.02
X250.19Y-109.22
X250.984Y-111.76
X253.365Y-54.61
X254.952Y-90.17
X254.952Y-109.22
X255.746Y-92.71
X257.334Y-109.22
X258.127Y-73.66
X259.715Y-52.07
X262.096Y-90.17
X262.89Y-35.56
X262.89Y-111.76
X264.477Y-71.12
X269.24Y-33.02
X269.24Y-109.22
X272.415Y-54.61
X272.415Y-111.76
X274.796Y-92.71
X274.796Y-111.76
X277.178Y-73.66
X278.765Y-52.07
X278.765Y-109.22
X281.146Y-90.17
X281.146Y-109.22
X281.94Y-35.56
X281.94Y-92.71
X281.94Y-111.76
X283.527Y-71.12
X284.321Y-92.71
X288.29Y-33.02
X288.29Y-90.17
X288.29Y-109.22
X289.084Y-73.66
X290.671Y-90.17
X291.465Y-35.56
X295.434Y-71.12
X296.227Y-54.61
X296.227Y-111.76
X297.815Y-33.02
X298.609Y-111.76
X300.99Y-35.56
X300.99Y-92.71
X300.99Y-111.76
X302.577Y-52.07
X302.577Y-109.22
X304.959Y-62.865
X304.959Y-109.22
X307.34Y-33.02
X307.34Y-90.17
X307.34Y-109.22
X307.499Y-69.215
T0
M30
