%TF.GenerationSoftware,KiCad,Pcbnew,(5.1.11)-1*%
%TF.CreationDate,2022-09-07T08:58:02+07:00*%
%TF.ProjectId,Eclipse60,45636c69-7073-4653-9630-2e6b69636164,rev?*%
%TF.SameCoordinates,Original*%
%TF.FileFunction,Legend,Bot*%
%TF.FilePolarity,Positive*%
%FSLAX46Y46*%
G04 Gerber Fmt 4.6, Leading zero omitted, Abs format (unit mm)*
G04 Created by KiCad (PCBNEW (5.1.11)-1) date 2022-09-07 08:58:02*
%MOMM*%
%LPD*%
G01*
G04 APERTURE LIST*
%ADD10C,0.150000*%
%ADD11C,0.100000*%
%ADD12C,0.500000*%
%ADD13C,0.120000*%
G04 APERTURE END LIST*
D10*
%TO.C,J1*%
X95742750Y-64696000D02*
X95742750Y-65696000D01*
X98142750Y-64696000D02*
X95742750Y-64696000D01*
X99942750Y-69696000D02*
X99942750Y-65696000D01*
X95742750Y-70696000D02*
X98142750Y-70696000D01*
X95742750Y-69696000D02*
X95742750Y-70696000D01*
%TO.C,J2*%
X52113750Y-46184375D02*
X52113750Y-47184375D01*
X54513750Y-46184375D02*
X52113750Y-46184375D01*
X56313750Y-51184375D02*
X56313750Y-47184375D01*
X52113750Y-52184375D02*
X54513750Y-52184375D01*
X52113750Y-51184375D02*
X52113750Y-52184375D01*
D11*
%TO.C,D16*%
G36*
X219075000Y-116200000D02*
G01*
X219675000Y-115400000D01*
X218475000Y-115400000D01*
X219075000Y-116200000D01*
G37*
X219075000Y-116200000D02*
X219675000Y-115400000D01*
X218475000Y-115400000D01*
X219075000Y-116200000D01*
D10*
X218275000Y-118000000D02*
X219875000Y-118000000D01*
D12*
%TO.C,MX84*%
X311153750Y-78581250D02*
G75*
G03*
X311153750Y-78581250I-1750000J0D01*
G01*
X311153750Y-54768750D02*
G75*
G03*
X311153750Y-54768750I-1750000J0D01*
G01*
X292163225Y-53769801D02*
G75*
G03*
X292163750Y-55768750I2000525J-998949D01*
G01*
X292163225Y-77582301D02*
G75*
G03*
X292163750Y-79581250I2000525J-998949D01*
G01*
%TO.C,MX45*%
X306550000Y-83185000D02*
G75*
G03*
X306550000Y-83185000I-1750000J0D01*
G01*
X282737500Y-83185000D02*
G75*
G03*
X282737500Y-83185000I-1750000J0D01*
G01*
X281986449Y-65944475D02*
G75*
G03*
X279987500Y-65945000I-998949J-2000525D01*
G01*
X305798949Y-65944475D02*
G75*
G03*
X303800000Y-65945000I-998949J-2000525D01*
G01*
%TO.C,MX79*%
X230350000Y-121285000D02*
G75*
G03*
X230350000Y-121285000I-1750000J0D01*
G01*
X116050000Y-121285000D02*
G75*
G03*
X116050000Y-121285000I-1750000J0D01*
G01*
X229598949Y-104044475D02*
G75*
G03*
X227600000Y-104045000I-998949J-2000525D01*
G01*
X115298949Y-104044475D02*
G75*
G03*
X113300000Y-104045000I-998949J-2000525D01*
G01*
D13*
%TO.C,R5*%
X40825000Y-46859375D02*
X40825000Y-46009375D01*
X39425000Y-46859375D02*
X39425000Y-46009375D01*
D11*
X39925000Y-46184375D02*
X40325000Y-46084375D01*
X40325000Y-46684375D02*
X39925000Y-46584375D01*
X39925000Y-46784375D02*
X40325000Y-46684375D01*
X39925000Y-46584375D02*
X40325000Y-46484375D01*
X40325000Y-46484375D02*
X39925000Y-46384375D01*
X39925000Y-46384375D02*
X40325000Y-46284375D01*
X40325000Y-46284375D02*
X39925000Y-46184375D01*
D10*
%TO.C,D72*%
X300175000Y-117300000D02*
X300175000Y-118900000D01*
D11*
G36*
X301975000Y-118100000D02*
G01*
X302775000Y-118700000D01*
X302775000Y-117500000D01*
X301975000Y-118100000D01*
G37*
X301975000Y-118100000D02*
X302775000Y-118700000D01*
X302775000Y-117500000D01*
X301975000Y-118100000D01*
D10*
%TO.C,D70*%
X292093750Y-118000000D02*
X293693750Y-118000000D01*
D11*
G36*
X292893750Y-116200000D02*
G01*
X293493750Y-115400000D01*
X292293750Y-115400000D01*
X292893750Y-116200000D01*
G37*
X292893750Y-116200000D02*
X293493750Y-115400000D01*
X292293750Y-115400000D01*
X292893750Y-116200000D01*
D10*
%TO.C,D69*%
X173749000Y-118000000D02*
X175349000Y-118000000D01*
D11*
G36*
X174549000Y-116200000D02*
G01*
X175149000Y-115400000D01*
X173949000Y-115400000D01*
X174549000Y-116200000D01*
G37*
X174549000Y-116200000D02*
X175149000Y-115400000D01*
X173949000Y-115400000D01*
X174549000Y-116200000D01*
D10*
%TO.C,D68*%
X238595000Y-118000000D02*
X240195000Y-118000000D01*
D11*
G36*
X239395000Y-116200000D02*
G01*
X239995000Y-115400000D01*
X238795000Y-115400000D01*
X239395000Y-116200000D01*
G37*
X239395000Y-116200000D02*
X239995000Y-115400000D01*
X238795000Y-115400000D01*
X239395000Y-116200000D01*
D10*
%TO.C,D67*%
X99212500Y-118000000D02*
X100812500Y-118000000D01*
D11*
G36*
X100012500Y-116200000D02*
G01*
X100612500Y-115400000D01*
X99412500Y-115400000D01*
X100012500Y-116200000D01*
G37*
X100012500Y-116200000D02*
X100612500Y-115400000D01*
X99412500Y-115400000D01*
X100012500Y-116200000D01*
D10*
%TO.C,D66*%
X75400000Y-118000000D02*
X77000000Y-118000000D01*
D11*
G36*
X76200000Y-116200000D02*
G01*
X76800000Y-115400000D01*
X75600000Y-115400000D01*
X76200000Y-116200000D01*
G37*
X76200000Y-116200000D02*
X76800000Y-115400000D01*
X75600000Y-115400000D01*
X76200000Y-116200000D01*
D10*
%TO.C,D65*%
X51587500Y-118000000D02*
X53187500Y-118000000D01*
D11*
G36*
X52387500Y-116200000D02*
G01*
X52987500Y-115400000D01*
X51787500Y-115400000D01*
X52387500Y-116200000D01*
G37*
X52387500Y-116200000D02*
X52987500Y-115400000D01*
X51787500Y-115400000D01*
X52387500Y-116200000D01*
D10*
%TO.C,D63*%
X307099000Y-98950000D02*
X308699000Y-98950000D01*
D11*
G36*
X307899000Y-97150000D02*
G01*
X308499000Y-96350000D01*
X307299000Y-96350000D01*
X307899000Y-97150000D01*
G37*
X307899000Y-97150000D02*
X308499000Y-96350000D01*
X307299000Y-96350000D01*
X307899000Y-97150000D01*
D10*
%TO.C,D30*%
X284950000Y-60850000D02*
X286550000Y-60850000D01*
D11*
G36*
X285750000Y-59050000D02*
G01*
X286350000Y-58250000D01*
X285150000Y-58250000D01*
X285750000Y-59050000D01*
G37*
X285750000Y-59050000D02*
X286350000Y-58250000D01*
X285150000Y-58250000D01*
X285750000Y-59050000D01*
D10*
%TO.C,SW1*%
X55768750Y-58340625D02*
G75*
G03*
X55768750Y-58340625I-1000000J0D01*
G01*
X52168750Y-55740625D02*
X52168750Y-60940625D01*
X57368750Y-55740625D02*
X52168750Y-55740625D01*
X57368750Y-60940625D02*
X57368750Y-55740625D01*
X52168750Y-60940625D02*
X57368750Y-60940625D01*
D11*
%TO.C,R4*%
X54918750Y-63303125D02*
X55018750Y-62903125D01*
X54818750Y-62903125D02*
X54918750Y-63303125D01*
X54718750Y-63303125D02*
X54818750Y-62903125D01*
X54618750Y-62903125D02*
X54718750Y-63303125D01*
X54418750Y-62903125D02*
X54518750Y-63303125D01*
X54518750Y-63303125D02*
X54618750Y-62903125D01*
X55018750Y-62903125D02*
X55118750Y-63303125D01*
D13*
X54343750Y-62403125D02*
X55193750Y-62403125D01*
X54343750Y-63803125D02*
X55193750Y-63803125D01*
D11*
%TO.C,RGB18*%
G36*
X288693750Y-105784375D02*
G01*
X289493750Y-105784375D01*
X289493750Y-106584375D01*
X288693750Y-105784375D01*
G37*
X288693750Y-105784375D02*
X289493750Y-105784375D01*
X289493750Y-106584375D01*
X288693750Y-105784375D01*
D10*
X294343750Y-101734375D02*
X294343750Y-102234375D01*
X295843750Y-101234375D02*
X294843750Y-101234375D01*
X296343750Y-102234375D02*
X296343750Y-101734375D01*
X294843750Y-102734375D02*
X295843750Y-102734375D01*
X295843750Y-102734375D02*
G75*
G03*
X296343750Y-102234375I0J500000D01*
G01*
X294343750Y-102234375D02*
G75*
G03*
X294843750Y-102734375I500000J0D01*
G01*
X294843750Y-101234375D02*
G75*
G03*
X294343750Y-101734375I0J-500000D01*
G01*
X296343750Y-101734375D02*
G75*
G03*
X295843750Y-101234375I-500000J0D01*
G01*
D11*
%TO.C,RGB17*%
G36*
X260118750Y-105784375D02*
G01*
X260918750Y-105784375D01*
X260918750Y-106584375D01*
X260118750Y-105784375D01*
G37*
X260118750Y-105784375D02*
X260918750Y-105784375D01*
X260918750Y-106584375D01*
X260118750Y-105784375D01*
D10*
X265768750Y-101734375D02*
X265768750Y-102234375D01*
X267268750Y-101234375D02*
X266268750Y-101234375D01*
X267768750Y-102234375D02*
X267768750Y-101734375D01*
X266268750Y-102734375D02*
X267268750Y-102734375D01*
X267268750Y-102734375D02*
G75*
G03*
X267768750Y-102234375I0J500000D01*
G01*
X265768750Y-102234375D02*
G75*
G03*
X266268750Y-102734375I500000J0D01*
G01*
X266268750Y-101234375D02*
G75*
G03*
X265768750Y-101734375I0J-500000D01*
G01*
X267768750Y-101734375D02*
G75*
G03*
X267268750Y-101234375I-500000J0D01*
G01*
D11*
%TO.C,RGB16*%
G36*
X236306250Y-105784375D02*
G01*
X237106250Y-105784375D01*
X237106250Y-106584375D01*
X236306250Y-105784375D01*
G37*
X236306250Y-105784375D02*
X237106250Y-105784375D01*
X237106250Y-106584375D01*
X236306250Y-105784375D01*
D10*
X241956250Y-101734375D02*
X241956250Y-102234375D01*
X243456250Y-101234375D02*
X242456250Y-101234375D01*
X243956250Y-102234375D02*
X243956250Y-101734375D01*
X242456250Y-102734375D02*
X243456250Y-102734375D01*
X243456250Y-102734375D02*
G75*
G03*
X243956250Y-102234375I0J500000D01*
G01*
X241956250Y-102234375D02*
G75*
G03*
X242456250Y-102734375I500000J0D01*
G01*
X242456250Y-101234375D02*
G75*
G03*
X241956250Y-101734375I0J-500000D01*
G01*
X243956250Y-101734375D02*
G75*
G03*
X243456250Y-101234375I-500000J0D01*
G01*
D11*
%TO.C,RGB15*%
G36*
X212493750Y-105784375D02*
G01*
X213293750Y-105784375D01*
X213293750Y-106584375D01*
X212493750Y-105784375D01*
G37*
X212493750Y-105784375D02*
X213293750Y-105784375D01*
X213293750Y-106584375D01*
X212493750Y-105784375D01*
D10*
X218143750Y-101734375D02*
X218143750Y-102234375D01*
X219643750Y-101234375D02*
X218643750Y-101234375D01*
X220143750Y-102234375D02*
X220143750Y-101734375D01*
X218643750Y-102734375D02*
X219643750Y-102734375D01*
X219643750Y-102734375D02*
G75*
G03*
X220143750Y-102234375I0J500000D01*
G01*
X218143750Y-102234375D02*
G75*
G03*
X218643750Y-102734375I500000J0D01*
G01*
X218643750Y-101234375D02*
G75*
G03*
X218143750Y-101734375I0J-500000D01*
G01*
X220143750Y-101734375D02*
G75*
G03*
X219643750Y-101234375I-500000J0D01*
G01*
D11*
%TO.C,RGB14*%
G36*
X176775000Y-105784375D02*
G01*
X177575000Y-105784375D01*
X177575000Y-106584375D01*
X176775000Y-105784375D01*
G37*
X176775000Y-105784375D02*
X177575000Y-105784375D01*
X177575000Y-106584375D01*
X176775000Y-105784375D01*
D10*
X182425000Y-101734375D02*
X182425000Y-102234375D01*
X183925000Y-101234375D02*
X182925000Y-101234375D01*
X184425000Y-102234375D02*
X184425000Y-101734375D01*
X182925000Y-102734375D02*
X183925000Y-102734375D01*
X183925000Y-102734375D02*
G75*
G03*
X184425000Y-102234375I0J500000D01*
G01*
X182425000Y-102234375D02*
G75*
G03*
X182925000Y-102734375I500000J0D01*
G01*
X182925000Y-101234375D02*
G75*
G03*
X182425000Y-101734375I0J-500000D01*
G01*
X184425000Y-101734375D02*
G75*
G03*
X183925000Y-101234375I-500000J0D01*
G01*
D11*
%TO.C,RGB13*%
G36*
X145818750Y-105784375D02*
G01*
X146618750Y-105784375D01*
X146618750Y-106584375D01*
X145818750Y-105784375D01*
G37*
X145818750Y-105784375D02*
X146618750Y-105784375D01*
X146618750Y-106584375D01*
X145818750Y-105784375D01*
D10*
X151468750Y-101734375D02*
X151468750Y-102234375D01*
X152968750Y-101234375D02*
X151968750Y-101234375D01*
X153468750Y-102234375D02*
X153468750Y-101734375D01*
X151968750Y-102734375D02*
X152968750Y-102734375D01*
X152968750Y-102734375D02*
G75*
G03*
X153468750Y-102234375I0J500000D01*
G01*
X151468750Y-102234375D02*
G75*
G03*
X151968750Y-102734375I500000J0D01*
G01*
X151968750Y-101234375D02*
G75*
G03*
X151468750Y-101734375I0J-500000D01*
G01*
X153468750Y-101734375D02*
G75*
G03*
X152968750Y-101234375I-500000J0D01*
G01*
D11*
%TO.C,RGB12*%
G36*
X117243750Y-105784375D02*
G01*
X118043750Y-105784375D01*
X118043750Y-106584375D01*
X117243750Y-105784375D01*
G37*
X117243750Y-105784375D02*
X118043750Y-105784375D01*
X118043750Y-106584375D01*
X117243750Y-105784375D01*
D10*
X122893750Y-101734375D02*
X122893750Y-102234375D01*
X124393750Y-101234375D02*
X123393750Y-101234375D01*
X124893750Y-102234375D02*
X124893750Y-101734375D01*
X123393750Y-102734375D02*
X124393750Y-102734375D01*
X124393750Y-102734375D02*
G75*
G03*
X124893750Y-102234375I0J500000D01*
G01*
X122893750Y-102234375D02*
G75*
G03*
X123393750Y-102734375I500000J0D01*
G01*
X123393750Y-101234375D02*
G75*
G03*
X122893750Y-101734375I0J-500000D01*
G01*
X124893750Y-101734375D02*
G75*
G03*
X124393750Y-101234375I-500000J0D01*
G01*
D11*
%TO.C,RGB11*%
G36*
X79143750Y-105784375D02*
G01*
X79943750Y-105784375D01*
X79943750Y-106584375D01*
X79143750Y-105784375D01*
G37*
X79143750Y-105784375D02*
X79943750Y-105784375D01*
X79943750Y-106584375D01*
X79143750Y-105784375D01*
D10*
X84793750Y-101734375D02*
X84793750Y-102234375D01*
X86293750Y-101234375D02*
X85293750Y-101234375D01*
X86793750Y-102234375D02*
X86793750Y-101734375D01*
X85293750Y-102734375D02*
X86293750Y-102734375D01*
X86293750Y-102734375D02*
G75*
G03*
X86793750Y-102234375I0J500000D01*
G01*
X84793750Y-102234375D02*
G75*
G03*
X85293750Y-102734375I500000J0D01*
G01*
X85293750Y-101234375D02*
G75*
G03*
X84793750Y-101734375I0J-500000D01*
G01*
X86793750Y-101734375D02*
G75*
G03*
X86293750Y-101234375I-500000J0D01*
G01*
D11*
%TO.C,RGB10*%
G36*
X45806250Y-105784375D02*
G01*
X46606250Y-105784375D01*
X46606250Y-106584375D01*
X45806250Y-105784375D01*
G37*
X45806250Y-105784375D02*
X46606250Y-105784375D01*
X46606250Y-106584375D01*
X45806250Y-105784375D01*
D10*
X51456250Y-101734375D02*
X51456250Y-102234375D01*
X52956250Y-101234375D02*
X51956250Y-101234375D01*
X53456250Y-102234375D02*
X53456250Y-101734375D01*
X51956250Y-102734375D02*
X52956250Y-102734375D01*
X52956250Y-102734375D02*
G75*
G03*
X53456250Y-102234375I0J500000D01*
G01*
X51456250Y-102234375D02*
G75*
G03*
X51956250Y-102734375I500000J0D01*
G01*
X51956250Y-101234375D02*
G75*
G03*
X51456250Y-101734375I0J-500000D01*
G01*
X53456250Y-101734375D02*
G75*
G03*
X52956250Y-101234375I-500000J0D01*
G01*
D12*
%TO.C,MX76*%
X277975000Y-88265000D02*
G75*
G03*
X277975000Y-88265000I-1750000J0D01*
G01*
X301787500Y-88265000D02*
G75*
G03*
X301787500Y-88265000I-1750000J0D01*
G01*
X275226051Y-105505525D02*
G75*
G03*
X277225000Y-105505000I998949J2000525D01*
G01*
X299038551Y-105505525D02*
G75*
G03*
X301037500Y-105505000I998949J2000525D01*
G01*
%TO.C,MX46*%
X308931250Y-31115000D02*
G75*
G03*
X308931250Y-31115000I-1750000J0D01*
G01*
X285118750Y-31115000D02*
G75*
G03*
X285118750Y-31115000I-1750000J0D01*
G01*
X306182301Y-48355525D02*
G75*
G03*
X308181250Y-48355000I998949J2000525D01*
G01*
X282369801Y-48355525D02*
G75*
G03*
X284368750Y-48355000I998949J2000525D01*
G01*
D11*
%TO.C,RGB9*%
G36*
X299475000Y-44234375D02*
G01*
X298675000Y-44234375D01*
X298675000Y-43434375D01*
X299475000Y-44234375D01*
G37*
X299475000Y-44234375D02*
X298675000Y-44234375D01*
X298675000Y-43434375D01*
X299475000Y-44234375D01*
D10*
X293825000Y-48284375D02*
X293825000Y-47784375D01*
X292325000Y-48784375D02*
X293325000Y-48784375D01*
X291825000Y-47784375D02*
X291825000Y-48284375D01*
X293325000Y-47284375D02*
X292325000Y-47284375D01*
X291825000Y-48284375D02*
G75*
G03*
X292325000Y-48784375I500000J0D01*
G01*
X293325000Y-48784375D02*
G75*
G03*
X293825000Y-48284375I0J500000D01*
G01*
X293825000Y-47784375D02*
G75*
G03*
X293325000Y-47284375I-500000J0D01*
G01*
X292325000Y-47284375D02*
G75*
G03*
X291825000Y-47784375I0J-500000D01*
G01*
D11*
%TO.C,RGB8*%
G36*
X274471875Y-44234375D02*
G01*
X273671875Y-44234375D01*
X273671875Y-43434375D01*
X274471875Y-44234375D01*
G37*
X274471875Y-44234375D02*
X273671875Y-44234375D01*
X273671875Y-43434375D01*
X274471875Y-44234375D01*
D10*
X268821875Y-48284375D02*
X268821875Y-47784375D01*
X267321875Y-48784375D02*
X268321875Y-48784375D01*
X266821875Y-47784375D02*
X266821875Y-48284375D01*
X268321875Y-47284375D02*
X267321875Y-47284375D01*
X266821875Y-48284375D02*
G75*
G03*
X267321875Y-48784375I500000J0D01*
G01*
X268321875Y-48784375D02*
G75*
G03*
X268821875Y-48284375I0J500000D01*
G01*
X268821875Y-47784375D02*
G75*
G03*
X268321875Y-47284375I-500000J0D01*
G01*
X267321875Y-47284375D02*
G75*
G03*
X266821875Y-47784375I0J-500000D01*
G01*
D11*
%TO.C,RGB7*%
G36*
X244706250Y-44234375D02*
G01*
X243906250Y-44234375D01*
X243906250Y-43434375D01*
X244706250Y-44234375D01*
G37*
X244706250Y-44234375D02*
X243906250Y-44234375D01*
X243906250Y-43434375D01*
X244706250Y-44234375D01*
D10*
X239056250Y-48284375D02*
X239056250Y-47784375D01*
X237556250Y-48784375D02*
X238556250Y-48784375D01*
X237056250Y-47784375D02*
X237056250Y-48284375D01*
X238556250Y-47284375D02*
X237556250Y-47284375D01*
X237056250Y-48284375D02*
G75*
G03*
X237556250Y-48784375I500000J0D01*
G01*
X238556250Y-48784375D02*
G75*
G03*
X239056250Y-48284375I0J500000D01*
G01*
X239056250Y-47784375D02*
G75*
G03*
X238556250Y-47284375I-500000J0D01*
G01*
X237556250Y-47284375D02*
G75*
G03*
X237056250Y-47784375I0J-500000D01*
G01*
D11*
%TO.C,RGB6*%
G36*
X212559375Y-44234375D02*
G01*
X211759375Y-44234375D01*
X211759375Y-43434375D01*
X212559375Y-44234375D01*
G37*
X212559375Y-44234375D02*
X211759375Y-44234375D01*
X211759375Y-43434375D01*
X212559375Y-44234375D01*
D10*
X206909375Y-48284375D02*
X206909375Y-47784375D01*
X205409375Y-48784375D02*
X206409375Y-48784375D01*
X204909375Y-47784375D02*
X204909375Y-48284375D01*
X206409375Y-47284375D02*
X205409375Y-47284375D01*
X204909375Y-48284375D02*
G75*
G03*
X205409375Y-48784375I500000J0D01*
G01*
X206409375Y-48784375D02*
G75*
G03*
X206909375Y-48284375I0J500000D01*
G01*
X206909375Y-47784375D02*
G75*
G03*
X206409375Y-47284375I-500000J0D01*
G01*
X205409375Y-47284375D02*
G75*
G03*
X204909375Y-47784375I0J-500000D01*
G01*
D11*
%TO.C,RGB5*%
G36*
X181603125Y-44234375D02*
G01*
X180803125Y-44234375D01*
X180803125Y-43434375D01*
X181603125Y-44234375D01*
G37*
X181603125Y-44234375D02*
X180803125Y-44234375D01*
X180803125Y-43434375D01*
X181603125Y-44234375D01*
D10*
X175953125Y-48284375D02*
X175953125Y-47784375D01*
X174453125Y-48784375D02*
X175453125Y-48784375D01*
X173953125Y-47784375D02*
X173953125Y-48284375D01*
X175453125Y-47284375D02*
X174453125Y-47284375D01*
X173953125Y-48284375D02*
G75*
G03*
X174453125Y-48784375I500000J0D01*
G01*
X175453125Y-48784375D02*
G75*
G03*
X175953125Y-48284375I0J500000D01*
G01*
X175953125Y-47784375D02*
G75*
G03*
X175453125Y-47284375I-500000J0D01*
G01*
X174453125Y-47284375D02*
G75*
G03*
X173953125Y-47784375I0J-500000D01*
G01*
D11*
%TO.C,RGB4*%
G36*
X148265625Y-44234375D02*
G01*
X147465625Y-44234375D01*
X147465625Y-43434375D01*
X148265625Y-44234375D01*
G37*
X148265625Y-44234375D02*
X147465625Y-44234375D01*
X147465625Y-43434375D01*
X148265625Y-44234375D01*
D10*
X142615625Y-48284375D02*
X142615625Y-47784375D01*
X141115625Y-48784375D02*
X142115625Y-48784375D01*
X140615625Y-47784375D02*
X140615625Y-48284375D01*
X142115625Y-47284375D02*
X141115625Y-47284375D01*
X140615625Y-48284375D02*
G75*
G03*
X141115625Y-48784375I500000J0D01*
G01*
X142115625Y-48784375D02*
G75*
G03*
X142615625Y-48284375I0J500000D01*
G01*
X142615625Y-47784375D02*
G75*
G03*
X142115625Y-47284375I-500000J0D01*
G01*
X141115625Y-47284375D02*
G75*
G03*
X140615625Y-47784375I0J-500000D01*
G01*
D11*
%TO.C,RGB3*%
G36*
X117309375Y-44234375D02*
G01*
X116509375Y-44234375D01*
X116509375Y-43434375D01*
X117309375Y-44234375D01*
G37*
X117309375Y-44234375D02*
X116509375Y-44234375D01*
X116509375Y-43434375D01*
X117309375Y-44234375D01*
D10*
X111659375Y-48284375D02*
X111659375Y-47784375D01*
X110159375Y-48784375D02*
X111159375Y-48784375D01*
X109659375Y-47784375D02*
X109659375Y-48284375D01*
X111159375Y-47284375D02*
X110159375Y-47284375D01*
X109659375Y-48284375D02*
G75*
G03*
X110159375Y-48784375I500000J0D01*
G01*
X111159375Y-48784375D02*
G75*
G03*
X111659375Y-48284375I0J500000D01*
G01*
X111659375Y-47784375D02*
G75*
G03*
X111159375Y-47284375I-500000J0D01*
G01*
X110159375Y-47284375D02*
G75*
G03*
X109659375Y-47784375I0J-500000D01*
G01*
D11*
%TO.C,RGB2*%
G36*
X83971875Y-44234375D02*
G01*
X83171875Y-44234375D01*
X83171875Y-43434375D01*
X83971875Y-44234375D01*
G37*
X83971875Y-44234375D02*
X83171875Y-44234375D01*
X83171875Y-43434375D01*
X83971875Y-44234375D01*
D10*
X78321875Y-48284375D02*
X78321875Y-47784375D01*
X76821875Y-48784375D02*
X77821875Y-48784375D01*
X76321875Y-47784375D02*
X76321875Y-48284375D01*
X77821875Y-47284375D02*
X76821875Y-47284375D01*
X76321875Y-48284375D02*
G75*
G03*
X76821875Y-48784375I500000J0D01*
G01*
X77821875Y-48784375D02*
G75*
G03*
X78321875Y-48284375I0J500000D01*
G01*
X78321875Y-47784375D02*
G75*
G03*
X77821875Y-47284375I-500000J0D01*
G01*
X76821875Y-47284375D02*
G75*
G03*
X76321875Y-47784375I0J-500000D01*
G01*
D11*
%TO.C,RGB1*%
G36*
X48825000Y-44234375D02*
G01*
X48025000Y-44234375D01*
X48025000Y-43434375D01*
X48825000Y-44234375D01*
G37*
X48825000Y-44234375D02*
X48025000Y-44234375D01*
X48025000Y-43434375D01*
X48825000Y-44234375D01*
D10*
X43175000Y-48284375D02*
X43175000Y-47784375D01*
X41675000Y-48784375D02*
X42675000Y-48784375D01*
X41175000Y-47784375D02*
X41175000Y-48284375D01*
X42675000Y-47284375D02*
X41675000Y-47284375D01*
X41175000Y-48284375D02*
G75*
G03*
X41675000Y-48784375I500000J0D01*
G01*
X42675000Y-48784375D02*
G75*
G03*
X43175000Y-48284375I0J500000D01*
G01*
X43175000Y-47784375D02*
G75*
G03*
X42675000Y-47284375I-500000J0D01*
G01*
X41675000Y-47284375D02*
G75*
G03*
X41175000Y-47784375I0J-500000D01*
G01*
D13*
%TO.C,U1*%
X57287348Y-83823909D02*
X57800000Y-84336561D01*
X57800000Y-84336561D02*
X58312652Y-83823909D01*
X58312652Y-74638591D02*
X57800000Y-74125939D01*
X57800000Y-74125939D02*
X57287348Y-74638591D01*
X62392659Y-78718598D02*
X62905311Y-79231250D01*
X62905311Y-79231250D02*
X62392659Y-79743902D01*
X53207341Y-79743902D02*
X52694689Y-79231250D01*
D11*
%TO.C,R3*%
X51443750Y-70134375D02*
X51843750Y-70234375D01*
X51843750Y-70034375D02*
X51443750Y-70134375D01*
X51443750Y-69934375D02*
X51843750Y-70034375D01*
X51843750Y-69834375D02*
X51443750Y-69934375D01*
X51843750Y-69634375D02*
X51443750Y-69734375D01*
X51443750Y-69734375D02*
X51843750Y-69834375D01*
X51843750Y-70234375D02*
X51443750Y-70334375D01*
D13*
X52343750Y-69559375D02*
X52343750Y-70409375D01*
X50943750Y-69559375D02*
X50943750Y-70409375D01*
D11*
%TO.C,R2*%
X53343750Y-69834375D02*
X52943750Y-69734375D01*
X52943750Y-69934375D02*
X53343750Y-69834375D01*
X53343750Y-70034375D02*
X52943750Y-69934375D01*
X52943750Y-70134375D02*
X53343750Y-70034375D01*
X52943750Y-70334375D02*
X53343750Y-70234375D01*
X53343750Y-70234375D02*
X52943750Y-70134375D01*
X52943750Y-69734375D02*
X53343750Y-69634375D01*
D13*
X52443750Y-70409375D02*
X52443750Y-69559375D01*
X53843750Y-70409375D02*
X53843750Y-69559375D01*
%TO.C,Y1*%
X65300000Y-74281250D02*
X65300000Y-74681250D01*
X65100000Y-74281250D02*
X65100000Y-74681250D01*
X61500000Y-74281250D02*
X61500000Y-74681250D01*
X65300000Y-72281250D02*
X65300000Y-74281250D01*
X64100000Y-74681250D02*
X64100000Y-75081250D01*
X64100000Y-74681250D02*
X65100000Y-74681250D01*
X65100000Y-74281250D02*
X65100000Y-72281250D01*
X65100000Y-72281250D02*
X64100000Y-72281250D01*
X62300000Y-72281250D02*
X61500000Y-72281250D01*
X61500000Y-72281250D02*
X61500000Y-74281250D01*
X61500000Y-74681250D02*
X62300000Y-74681250D01*
D11*
%TO.C,R1*%
X57950000Y-87681250D02*
X58050000Y-87281250D01*
X57850000Y-87281250D02*
X57950000Y-87681250D01*
X57750000Y-87681250D02*
X57850000Y-87281250D01*
X57650000Y-87281250D02*
X57750000Y-87681250D01*
X57450000Y-87281250D02*
X57550000Y-87681250D01*
X57550000Y-87681250D02*
X57650000Y-87281250D01*
X58050000Y-87281250D02*
X58150000Y-87681250D01*
D13*
X57375000Y-86781250D02*
X58225000Y-86781250D01*
X57375000Y-88181250D02*
X58225000Y-88181250D01*
%TO.C,C5*%
X59950000Y-73161580D02*
X59950000Y-73861580D01*
X61150000Y-73861580D02*
X61150000Y-73161580D01*
%TO.C,C4*%
X58150000Y-85381250D02*
X57450000Y-85381250D01*
X57450000Y-86581250D02*
X58150000Y-86581250D01*
%TO.C,C3*%
X64400000Y-80381250D02*
X63700000Y-80381250D01*
X63700000Y-81581250D02*
X64400000Y-81581250D01*
%TO.C,C2*%
X51650000Y-79581250D02*
X51650000Y-78881250D01*
X50450000Y-78881250D02*
X50450000Y-79581250D01*
%TO.C,C1*%
X52950000Y-73381250D02*
X52950000Y-74081250D01*
X54150000Y-74081250D02*
X54150000Y-73381250D01*
D12*
%TO.C,MX31*%
X63662500Y-88265000D02*
G75*
G03*
X63662500Y-88265000I-1750000J0D01*
G01*
X39850000Y-88265000D02*
G75*
G03*
X39850000Y-88265000I-1750000J0D01*
G01*
X60913551Y-105505525D02*
G75*
G03*
X62912500Y-105505000I998949J2000525D01*
G01*
X37101051Y-105505525D02*
G75*
G03*
X39100000Y-105505000I998949J2000525D01*
G01*
D11*
%TO.C,D71*%
G36*
X288849000Y-116200000D02*
G01*
X289449000Y-115400000D01*
X288249000Y-115400000D01*
X288849000Y-116200000D01*
G37*
X288849000Y-116200000D02*
X289449000Y-115400000D01*
X288249000Y-115400000D01*
X288849000Y-116200000D01*
D10*
X288049000Y-118000000D02*
X289649000Y-118000000D01*
D12*
%TO.C,MX70*%
X111293850Y-121285000D02*
G75*
G03*
X111293850Y-121285000I-1750000J0D01*
G01*
X211293650Y-121285000D02*
G75*
G03*
X211293650Y-121285000I-1750000J0D01*
G01*
X210542599Y-104044475D02*
G75*
G03*
X208543650Y-104045000I-998949J-2000525D01*
G01*
X110542799Y-104044475D02*
G75*
G03*
X108543850Y-104045000I-998949J-2000525D01*
G01*
D11*
%TO.C,D62*%
G36*
X296545000Y-97150000D02*
G01*
X297145000Y-96350000D01*
X295945000Y-96350000D01*
X296545000Y-97150000D01*
G37*
X296545000Y-97150000D02*
X297145000Y-96350000D01*
X295945000Y-96350000D01*
X296545000Y-97150000D01*
D10*
X295745000Y-98950000D02*
X297345000Y-98950000D01*
D11*
%TO.C,D60*%
G36*
X269081250Y-97150000D02*
G01*
X269681250Y-96350000D01*
X268481250Y-96350000D01*
X269081250Y-97150000D01*
G37*
X269081250Y-97150000D02*
X269681250Y-96350000D01*
X268481250Y-96350000D01*
X269081250Y-97150000D01*
D10*
X268281250Y-98950000D02*
X269881250Y-98950000D01*
D11*
%TO.C,D59*%
G36*
X236461500Y-97150000D02*
G01*
X237061500Y-96350000D01*
X235861500Y-96350000D01*
X236461500Y-97150000D01*
G37*
X236461500Y-97150000D02*
X237061500Y-96350000D01*
X235861500Y-96350000D01*
X236461500Y-97150000D01*
D10*
X235661500Y-98950000D02*
X237261500Y-98950000D01*
D11*
%TO.C,D58*%
G36*
X217411500Y-97150000D02*
G01*
X218011500Y-96350000D01*
X216811500Y-96350000D01*
X217411500Y-97150000D01*
G37*
X217411500Y-97150000D02*
X218011500Y-96350000D01*
X216811500Y-96350000D01*
X217411500Y-97150000D01*
D10*
X216611500Y-98950000D02*
X218211500Y-98950000D01*
D11*
%TO.C,D57*%
G36*
X198361500Y-97150000D02*
G01*
X198961500Y-96350000D01*
X197761500Y-96350000D01*
X198361500Y-97150000D01*
G37*
X198361500Y-97150000D02*
X198961500Y-96350000D01*
X197761500Y-96350000D01*
X198361500Y-97150000D01*
D10*
X197561500Y-98950000D02*
X199161500Y-98950000D01*
D11*
%TO.C,D56*%
G36*
X179311500Y-97150000D02*
G01*
X179911500Y-96350000D01*
X178711500Y-96350000D01*
X179311500Y-97150000D01*
G37*
X179311500Y-97150000D02*
X179911500Y-96350000D01*
X178711500Y-96350000D01*
X179311500Y-97150000D01*
D10*
X178511500Y-98950000D02*
X180111500Y-98950000D01*
D11*
%TO.C,D55*%
G36*
X160261500Y-97150000D02*
G01*
X160861500Y-96350000D01*
X159661500Y-96350000D01*
X160261500Y-97150000D01*
G37*
X160261500Y-97150000D02*
X160861500Y-96350000D01*
X159661500Y-96350000D01*
X160261500Y-97150000D01*
D10*
X159461500Y-98950000D02*
X161061500Y-98950000D01*
D11*
%TO.C,D54*%
G36*
X141211500Y-97150000D02*
G01*
X141811500Y-96350000D01*
X140611500Y-96350000D01*
X141211500Y-97150000D01*
G37*
X141211500Y-97150000D02*
X141811500Y-96350000D01*
X140611500Y-96350000D01*
X141211500Y-97150000D01*
D10*
X140411500Y-98950000D02*
X142011500Y-98950000D01*
D11*
%TO.C,D53*%
G36*
X122161500Y-97150000D02*
G01*
X122761500Y-96350000D01*
X121561500Y-96350000D01*
X122161500Y-97150000D01*
G37*
X122161500Y-97150000D02*
X122761500Y-96350000D01*
X121561500Y-96350000D01*
X122161500Y-97150000D01*
D10*
X121361500Y-98950000D02*
X122961500Y-98950000D01*
D11*
%TO.C,D52*%
G36*
X103111500Y-97150000D02*
G01*
X103711500Y-96350000D01*
X102511500Y-96350000D01*
X103111500Y-97150000D01*
G37*
X103111500Y-97150000D02*
X103711500Y-96350000D01*
X102511500Y-96350000D01*
X103111500Y-97150000D01*
D10*
X102311500Y-98950000D02*
X103911500Y-98950000D01*
D11*
%TO.C,D51*%
G36*
X84061500Y-97150000D02*
G01*
X84661500Y-96350000D01*
X83461500Y-96350000D01*
X84061500Y-97150000D01*
G37*
X84061500Y-97150000D02*
X84661500Y-96350000D01*
X83461500Y-96350000D01*
X84061500Y-97150000D01*
D10*
X83261500Y-98950000D02*
X84861500Y-98950000D01*
D11*
%TO.C,D50*%
G36*
X72155250Y-97150000D02*
G01*
X72755250Y-96350000D01*
X71555250Y-96350000D01*
X72155250Y-97150000D01*
G37*
X72155250Y-97150000D02*
X72755250Y-96350000D01*
X71555250Y-96350000D01*
X72155250Y-97150000D01*
D10*
X71355250Y-98950000D02*
X72955250Y-98950000D01*
D11*
%TO.C,D49*%
G36*
X69774000Y-97150000D02*
G01*
X70374000Y-96350000D01*
X69174000Y-96350000D01*
X69774000Y-97150000D01*
G37*
X69774000Y-97150000D02*
X70374000Y-96350000D01*
X69174000Y-96350000D01*
X69774000Y-97150000D01*
D10*
X68974000Y-98950000D02*
X70574000Y-98950000D01*
D11*
%TO.C,D45*%
G36*
X271462500Y-78100000D02*
G01*
X272062500Y-77300000D01*
X270862500Y-77300000D01*
X271462500Y-78100000D01*
G37*
X271462500Y-78100000D02*
X272062500Y-77300000D01*
X270862500Y-77300000D01*
X271462500Y-78100000D01*
D10*
X270662500Y-79900000D02*
X272262500Y-79900000D01*
D11*
%TO.C,D44*%
G36*
X265036500Y-78100000D02*
G01*
X265636500Y-77300000D01*
X264436500Y-77300000D01*
X265036500Y-78100000D01*
G37*
X265036500Y-78100000D02*
X265636500Y-77300000D01*
X264436500Y-77300000D01*
X265036500Y-78100000D01*
D10*
X264236500Y-79900000D02*
X265836500Y-79900000D01*
D11*
%TO.C,D43*%
G36*
X245986500Y-78100000D02*
G01*
X246586500Y-77300000D01*
X245386500Y-77300000D01*
X245986500Y-78100000D01*
G37*
X245986500Y-78100000D02*
X246586500Y-77300000D01*
X245386500Y-77300000D01*
X245986500Y-78100000D01*
D10*
X245186500Y-79900000D02*
X246786500Y-79900000D01*
D11*
%TO.C,D42*%
G36*
X226936500Y-78100000D02*
G01*
X227536500Y-77300000D01*
X226336500Y-77300000D01*
X226936500Y-78100000D01*
G37*
X226936500Y-78100000D02*
X227536500Y-77300000D01*
X226336500Y-77300000D01*
X226936500Y-78100000D01*
D10*
X226136500Y-79900000D02*
X227736500Y-79900000D01*
D11*
%TO.C,D41*%
G36*
X207886500Y-78100000D02*
G01*
X208486500Y-77300000D01*
X207286500Y-77300000D01*
X207886500Y-78100000D01*
G37*
X207886500Y-78100000D02*
X208486500Y-77300000D01*
X207286500Y-77300000D01*
X207886500Y-78100000D01*
D10*
X207086500Y-79900000D02*
X208686500Y-79900000D01*
D11*
%TO.C,D40*%
G36*
X188836500Y-78100000D02*
G01*
X189436500Y-77300000D01*
X188236500Y-77300000D01*
X188836500Y-78100000D01*
G37*
X188836500Y-78100000D02*
X189436500Y-77300000D01*
X188236500Y-77300000D01*
X188836500Y-78100000D01*
D10*
X188036500Y-79900000D02*
X189636500Y-79900000D01*
D11*
%TO.C,D39*%
G36*
X169786500Y-78100000D02*
G01*
X170386500Y-77300000D01*
X169186500Y-77300000D01*
X169786500Y-78100000D01*
G37*
X169786500Y-78100000D02*
X170386500Y-77300000D01*
X169186500Y-77300000D01*
X169786500Y-78100000D01*
D10*
X168986500Y-79900000D02*
X170586500Y-79900000D01*
D11*
%TO.C,D38*%
G36*
X150736500Y-78100000D02*
G01*
X151336500Y-77300000D01*
X150136500Y-77300000D01*
X150736500Y-78100000D01*
G37*
X150736500Y-78100000D02*
X151336500Y-77300000D01*
X150136500Y-77300000D01*
X150736500Y-78100000D01*
D10*
X149936500Y-79900000D02*
X151536500Y-79900000D01*
D11*
%TO.C,D37*%
G36*
X131686500Y-78100000D02*
G01*
X132286500Y-77300000D01*
X131086500Y-77300000D01*
X131686500Y-78100000D01*
G37*
X131686500Y-78100000D02*
X132286500Y-77300000D01*
X131086500Y-77300000D01*
X131686500Y-78100000D01*
D10*
X130886500Y-79900000D02*
X132486500Y-79900000D01*
D11*
%TO.C,D36*%
G36*
X112636500Y-78100000D02*
G01*
X113236500Y-77300000D01*
X112036500Y-77300000D01*
X112636500Y-78100000D01*
G37*
X112636500Y-78100000D02*
X113236500Y-77300000D01*
X112036500Y-77300000D01*
X112636500Y-78100000D01*
D10*
X111836500Y-79900000D02*
X113436500Y-79900000D01*
D11*
%TO.C,D35*%
G36*
X93586500Y-78100000D02*
G01*
X94186500Y-77300000D01*
X92986500Y-77300000D01*
X93586500Y-78100000D01*
G37*
X93586500Y-78100000D02*
X94186500Y-77300000D01*
X92986500Y-77300000D01*
X93586500Y-78100000D01*
D10*
X92786500Y-79900000D02*
X94386500Y-79900000D01*
D11*
%TO.C,D34*%
G36*
X82153125Y-78100000D02*
G01*
X82753125Y-77300000D01*
X81553125Y-77300000D01*
X82153125Y-78100000D01*
G37*
X82153125Y-78100000D02*
X82753125Y-77300000D01*
X81553125Y-77300000D01*
X82153125Y-78100000D01*
D10*
X81353125Y-79900000D02*
X82953125Y-79900000D01*
D11*
%TO.C,D33*%
G36*
X79771875Y-78100000D02*
G01*
X80371875Y-77300000D01*
X79171875Y-77300000D01*
X79771875Y-78100000D01*
G37*
X79771875Y-78100000D02*
X80371875Y-77300000D01*
X79171875Y-77300000D01*
X79771875Y-78100000D01*
D10*
X78971875Y-79900000D02*
X80571875Y-79900000D01*
D11*
%TO.C,D29*%
G36*
X279324000Y-59050000D02*
G01*
X279924000Y-58250000D01*
X278724000Y-58250000D01*
X279324000Y-59050000D01*
G37*
X279324000Y-59050000D02*
X279924000Y-58250000D01*
X278724000Y-58250000D01*
X279324000Y-59050000D01*
D10*
X278524000Y-60850000D02*
X280124000Y-60850000D01*
D11*
%TO.C,D28*%
G36*
X260274000Y-59050000D02*
G01*
X260874000Y-58250000D01*
X259674000Y-58250000D01*
X260274000Y-59050000D01*
G37*
X260274000Y-59050000D02*
X260874000Y-58250000D01*
X259674000Y-58250000D01*
X260274000Y-59050000D01*
D10*
X259474000Y-60850000D02*
X261074000Y-60850000D01*
D11*
%TO.C,D27*%
G36*
X241224000Y-59050000D02*
G01*
X241824000Y-58250000D01*
X240624000Y-58250000D01*
X241224000Y-59050000D01*
G37*
X241224000Y-59050000D02*
X241824000Y-58250000D01*
X240624000Y-58250000D01*
X241224000Y-59050000D01*
D10*
X240424000Y-60850000D02*
X242024000Y-60850000D01*
D11*
%TO.C,D26*%
G36*
X222174000Y-59050000D02*
G01*
X222774000Y-58250000D01*
X221574000Y-58250000D01*
X222174000Y-59050000D01*
G37*
X222174000Y-59050000D02*
X222774000Y-58250000D01*
X221574000Y-58250000D01*
X222174000Y-59050000D01*
D10*
X221374000Y-60850000D02*
X222974000Y-60850000D01*
D11*
%TO.C,D25*%
G36*
X203124000Y-59050000D02*
G01*
X203724000Y-58250000D01*
X202524000Y-58250000D01*
X203124000Y-59050000D01*
G37*
X203124000Y-59050000D02*
X203724000Y-58250000D01*
X202524000Y-58250000D01*
X203124000Y-59050000D01*
D10*
X202324000Y-60850000D02*
X203924000Y-60850000D01*
D11*
%TO.C,D24*%
G36*
X184074000Y-59050000D02*
G01*
X184674000Y-58250000D01*
X183474000Y-58250000D01*
X184074000Y-59050000D01*
G37*
X184074000Y-59050000D02*
X184674000Y-58250000D01*
X183474000Y-58250000D01*
X184074000Y-59050000D01*
D10*
X183274000Y-60850000D02*
X184874000Y-60850000D01*
D11*
%TO.C,D23*%
G36*
X165024000Y-59050000D02*
G01*
X165624000Y-58250000D01*
X164424000Y-58250000D01*
X165024000Y-59050000D01*
G37*
X165024000Y-59050000D02*
X165624000Y-58250000D01*
X164424000Y-58250000D01*
X165024000Y-59050000D01*
D10*
X164224000Y-60850000D02*
X165824000Y-60850000D01*
D11*
%TO.C,D22*%
G36*
X145974000Y-59050000D02*
G01*
X146574000Y-58250000D01*
X145374000Y-58250000D01*
X145974000Y-59050000D01*
G37*
X145974000Y-59050000D02*
X146574000Y-58250000D01*
X145374000Y-58250000D01*
X145974000Y-59050000D01*
D10*
X145174000Y-60850000D02*
X146774000Y-60850000D01*
D11*
%TO.C,D21*%
G36*
X126924000Y-59050000D02*
G01*
X127524000Y-58250000D01*
X126324000Y-58250000D01*
X126924000Y-59050000D01*
G37*
X126924000Y-59050000D02*
X127524000Y-58250000D01*
X126324000Y-58250000D01*
X126924000Y-59050000D01*
D10*
X126124000Y-60850000D02*
X127724000Y-60850000D01*
D11*
%TO.C,D20*%
G36*
X107874000Y-59050000D02*
G01*
X108474000Y-58250000D01*
X107274000Y-58250000D01*
X107874000Y-59050000D01*
G37*
X107874000Y-59050000D02*
X108474000Y-58250000D01*
X107274000Y-58250000D01*
X107874000Y-59050000D01*
D10*
X107074000Y-60850000D02*
X108674000Y-60850000D01*
D11*
%TO.C,D19*%
G36*
X88824000Y-59050000D02*
G01*
X89424000Y-58250000D01*
X88224000Y-58250000D01*
X88824000Y-59050000D01*
G37*
X88824000Y-59050000D02*
X89424000Y-58250000D01*
X88224000Y-58250000D01*
X88824000Y-59050000D01*
D10*
X88024000Y-60850000D02*
X89624000Y-60850000D01*
D11*
%TO.C,D18*%
G36*
X69774000Y-59050000D02*
G01*
X70374000Y-58250000D01*
X69174000Y-58250000D01*
X69774000Y-59050000D01*
G37*
X69774000Y-59050000D02*
X70374000Y-58250000D01*
X69174000Y-58250000D01*
X69774000Y-59050000D01*
D10*
X68974000Y-60850000D02*
X70574000Y-60850000D01*
D11*
%TO.C,D17*%
G36*
X45961500Y-59050000D02*
G01*
X46561500Y-58250000D01*
X45361500Y-58250000D01*
X45961500Y-59050000D01*
G37*
X45961500Y-59050000D02*
X46561500Y-58250000D01*
X45361500Y-58250000D01*
X45961500Y-59050000D01*
D10*
X45161500Y-60850000D02*
X46761500Y-60850000D01*
D11*
%TO.C,D15*%
G36*
X307899000Y-40000000D02*
G01*
X308499000Y-39200000D01*
X307299000Y-39200000D01*
X307899000Y-40000000D01*
G37*
X307899000Y-40000000D02*
X308499000Y-39200000D01*
X307299000Y-39200000D01*
X307899000Y-40000000D01*
D10*
X307099000Y-41800000D02*
X308699000Y-41800000D01*
D11*
%TO.C,D14*%
G36*
X276225000Y-40000000D02*
G01*
X276825000Y-39200000D01*
X275625000Y-39200000D01*
X276225000Y-40000000D01*
G37*
X276225000Y-40000000D02*
X276825000Y-39200000D01*
X275625000Y-39200000D01*
X276225000Y-40000000D01*
D10*
X275425000Y-41800000D02*
X277025000Y-41800000D01*
D11*
%TO.C,D13*%
G36*
X269799000Y-40000000D02*
G01*
X270399000Y-39200000D01*
X269199000Y-39200000D01*
X269799000Y-40000000D01*
G37*
X269799000Y-40000000D02*
X270399000Y-39200000D01*
X269199000Y-39200000D01*
X269799000Y-40000000D01*
D10*
X268999000Y-41800000D02*
X270599000Y-41800000D01*
D11*
%TO.C,D12*%
G36*
X250749000Y-40000000D02*
G01*
X251349000Y-39200000D01*
X250149000Y-39200000D01*
X250749000Y-40000000D01*
G37*
X250749000Y-40000000D02*
X251349000Y-39200000D01*
X250149000Y-39200000D01*
X250749000Y-40000000D01*
D10*
X249949000Y-41800000D02*
X251549000Y-41800000D01*
D11*
%TO.C,D11*%
G36*
X231699000Y-40000000D02*
G01*
X232299000Y-39200000D01*
X231099000Y-39200000D01*
X231699000Y-40000000D01*
G37*
X231699000Y-40000000D02*
X232299000Y-39200000D01*
X231099000Y-39200000D01*
X231699000Y-40000000D01*
D10*
X230899000Y-41800000D02*
X232499000Y-41800000D01*
D11*
%TO.C,D10*%
G36*
X212649000Y-40000000D02*
G01*
X213249000Y-39200000D01*
X212049000Y-39200000D01*
X212649000Y-40000000D01*
G37*
X212649000Y-40000000D02*
X213249000Y-39200000D01*
X212049000Y-39200000D01*
X212649000Y-40000000D01*
D10*
X211849000Y-41800000D02*
X213449000Y-41800000D01*
D11*
%TO.C,D9*%
G36*
X193599000Y-40000000D02*
G01*
X194199000Y-39200000D01*
X192999000Y-39200000D01*
X193599000Y-40000000D01*
G37*
X193599000Y-40000000D02*
X194199000Y-39200000D01*
X192999000Y-39200000D01*
X193599000Y-40000000D01*
D10*
X192799000Y-41800000D02*
X194399000Y-41800000D01*
D11*
%TO.C,D8*%
G36*
X174549000Y-40000000D02*
G01*
X175149000Y-39200000D01*
X173949000Y-39200000D01*
X174549000Y-40000000D01*
G37*
X174549000Y-40000000D02*
X175149000Y-39200000D01*
X173949000Y-39200000D01*
X174549000Y-40000000D01*
D10*
X173749000Y-41800000D02*
X175349000Y-41800000D01*
D11*
%TO.C,D7*%
G36*
X155499000Y-40000000D02*
G01*
X156099000Y-39200000D01*
X154899000Y-39200000D01*
X155499000Y-40000000D01*
G37*
X155499000Y-40000000D02*
X156099000Y-39200000D01*
X154899000Y-39200000D01*
X155499000Y-40000000D01*
D10*
X154699000Y-41800000D02*
X156299000Y-41800000D01*
D11*
%TO.C,D6*%
G36*
X136449000Y-40000000D02*
G01*
X137049000Y-39200000D01*
X135849000Y-39200000D01*
X136449000Y-40000000D01*
G37*
X136449000Y-40000000D02*
X137049000Y-39200000D01*
X135849000Y-39200000D01*
X136449000Y-40000000D01*
D10*
X135649000Y-41800000D02*
X137249000Y-41800000D01*
D11*
%TO.C,D5*%
G36*
X117399000Y-40000000D02*
G01*
X117999000Y-39200000D01*
X116799000Y-39200000D01*
X117399000Y-40000000D01*
G37*
X117399000Y-40000000D02*
X117999000Y-39200000D01*
X116799000Y-39200000D01*
X117399000Y-40000000D01*
D10*
X116599000Y-41800000D02*
X118199000Y-41800000D01*
D11*
%TO.C,D4*%
G36*
X98349000Y-40000000D02*
G01*
X98949000Y-39200000D01*
X97749000Y-39200000D01*
X98349000Y-40000000D01*
G37*
X98349000Y-40000000D02*
X98949000Y-39200000D01*
X97749000Y-39200000D01*
X98349000Y-40000000D01*
D10*
X97549000Y-41800000D02*
X99149000Y-41800000D01*
D11*
%TO.C,D3*%
G36*
X79299000Y-40000000D02*
G01*
X79899000Y-39200000D01*
X78699000Y-39200000D01*
X79299000Y-40000000D01*
G37*
X79299000Y-40000000D02*
X79899000Y-39200000D01*
X78699000Y-39200000D01*
X79299000Y-40000000D01*
D10*
X78499000Y-41800000D02*
X80099000Y-41800000D01*
D11*
%TO.C,D2*%
G36*
X60249000Y-40000000D02*
G01*
X60849000Y-39200000D01*
X59649000Y-39200000D01*
X60249000Y-40000000D01*
G37*
X60249000Y-40000000D02*
X60849000Y-39200000D01*
X59649000Y-39200000D01*
X60249000Y-40000000D01*
D10*
X59449000Y-41800000D02*
X61049000Y-41800000D01*
D11*
%TO.C,D1*%
G36*
X41199000Y-40000000D02*
G01*
X41799000Y-39200000D01*
X40599000Y-39200000D01*
X41199000Y-40000000D01*
G37*
X41199000Y-40000000D02*
X41799000Y-39200000D01*
X40599000Y-39200000D01*
X41199000Y-40000000D01*
D10*
X40399000Y-41800000D02*
X41999000Y-41800000D01*
%TO.C,U1*%
X55317718Y-82791027D02*
X54745298Y-83363447D01*
X54644283Y-83397119D01*
X54576939Y-83397119D01*
X54475924Y-83363447D01*
X54341237Y-83228760D01*
X54307565Y-83127745D01*
X54307565Y-83060401D01*
X54341237Y-82959386D01*
X54913657Y-82386966D01*
X53499443Y-82386966D02*
X53903504Y-82791027D01*
X53701474Y-82588997D02*
X54408580Y-81881890D01*
X54374909Y-82050249D01*
X54374909Y-82184936D01*
X54408580Y-82285951D01*
%TO.C,Y1*%
X63776190Y-71457440D02*
X63776190Y-71933630D01*
X64109523Y-70933630D02*
X63776190Y-71457440D01*
X63442857Y-70933630D01*
X62585714Y-71933630D02*
X63157142Y-71933630D01*
X62871428Y-71933630D02*
X62871428Y-70933630D01*
X62966666Y-71076488D01*
X63061904Y-71171726D01*
X63157142Y-71219345D01*
%TD*%
M02*
