%TF.GenerationSoftware,KiCad,Pcbnew,(5.1.11)-1*%
%TF.CreationDate,2022-10-09T01:18:40+07:00*%
%TF.ProjectId,Eclipse60,45636c69-7073-4653-9630-2e6b69636164,rev?*%
%TF.SameCoordinates,Original*%
%TF.FileFunction,Profile,NP*%
%FSLAX46Y46*%
G04 Gerber Fmt 4.6, Leading zero omitted, Abs format (unit mm)*
G04 Created by KiCad (PCBNEW (5.1.11)-1) date 2022-10-09 01:18:40*
%MOMM*%
%LPD*%
G01*
G04 APERTURE LIST*
%TA.AperFunction,Profile*%
%ADD10C,1.500000*%
%TD*%
%TA.AperFunction,Profile*%
%ADD11C,0.200000*%
%TD*%
%TA.AperFunction,Profile*%
%ADD12C,0.150000*%
%TD*%
G04 APERTURE END LIST*
D10*
X131141002Y-29100002D02*
X154044995Y-29100002D01*
X160277003Y-29100002D02*
G75*
G02*
X154044995Y-29100002I-3116004J925563D01*
G01*
X310907001Y-86499997D02*
G75*
G02*
X310907000Y-84300001I-8J1099998D01*
G01*
X313800006Y-86499998D02*
X310907001Y-86499997D01*
X310907000Y-84300001D02*
X313800006Y-84300001D01*
X304841006Y-29100003D02*
G75*
G02*
X298608996Y-29100002I-3116005J925564D01*
G01*
X272128001Y-29100002D02*
G75*
G02*
X272699000Y-29671001I-881J-571880D01*
G01*
X279699000Y-29671002D02*
G75*
G02*
X272699000Y-29671001I-3500000J626658D01*
G01*
X298608996Y-29100002D02*
X295149996Y-29099997D01*
X311800006Y-29100002D02*
X304841006Y-29100003D01*
X262133998Y-29671002D02*
G75*
G02*
X252215998Y-29671001I-4959000J770501D01*
G01*
X262133997Y-29671002D02*
G75*
G02*
X262704997Y-29100002I571880J-880D01*
G01*
X272128001Y-29100002D02*
X262704997Y-29100002D01*
X279699000Y-29671002D02*
G75*
G02*
X280269999Y-29100002I571880J-880D01*
G01*
X313800005Y-121300001D02*
X313800006Y-86499998D01*
X31993001Y-86499998D02*
X29099995Y-86499998D01*
X170349992Y-123299933D02*
X211758997Y-123300001D01*
X36058995Y-29100002D02*
X31099995Y-29100002D01*
X301724994Y-120974996D02*
G75*
G02*
X304841006Y-123300001I-1532J-3252623D01*
G01*
X214874999Y-120974996D02*
X215143000Y-120974996D01*
X44549996Y-29099997D02*
X42291004Y-29100003D01*
X313800006Y-84300001D02*
X313800006Y-31100001D01*
X298268000Y-120974996D02*
G75*
G02*
X297621997Y-120707998I-2701J908467D01*
G01*
X269834002Y-123300002D02*
G75*
G02*
X269278002Y-122744001I512J556512D01*
G01*
X215632000Y-120773000D02*
G75*
G02*
X221574999Y-122729002I2443145J-2583322D01*
G01*
X222145999Y-123300001D02*
X241749992Y-123299933D01*
X259360004Y-122744001D02*
G75*
G02*
X269278002Y-122744001I4958999J-771680D01*
G01*
X51722004Y-123300000D02*
G75*
G02*
X51150997Y-122729002I-833J570174D01*
G01*
X45184000Y-120794996D02*
G75*
G02*
X51150997Y-122729002I2466475J-2562179D01*
G01*
X38058994Y-123300000D02*
G75*
G02*
X41175007Y-120974996I3117544J-927619D01*
G01*
X84096004Y-123300001D02*
G75*
G02*
X83539997Y-122744001I517J556524D01*
G01*
X127755000Y-120974997D02*
G75*
G02*
X127270000Y-120774999I750J689889D01*
G01*
X73621997Y-122744001D02*
G75*
G02*
X83539997Y-122744001I4959000J-771680D01*
G01*
X259360003Y-122744001D02*
G75*
G02*
X258803996Y-123300001I-556524J524D01*
G01*
X45184001Y-120794997D02*
G75*
G02*
X44750004Y-120974996I-430254J424181D01*
G01*
X121325000Y-122729001D02*
G75*
G02*
X127270000Y-120774999I3499597J-626677D01*
G01*
X298268000Y-120974997D02*
X301724994Y-120974997D01*
X31099995Y-123300002D02*
X38058994Y-123300000D01*
X289899992Y-123299933D02*
X291177996Y-123300001D01*
X247349992Y-123299933D02*
X258803996Y-123300001D01*
X31993000Y-84300000D02*
G75*
G02*
X31993001Y-86499998I8J-1099999D01*
G01*
X29099995Y-31100001D02*
X29099995Y-84300001D01*
X29099995Y-31100001D02*
G75*
G02*
X31099995Y-29100002I2000725J-726D01*
G01*
X304841006Y-123300001D02*
X311800006Y-123300001D01*
X41175007Y-120974996D02*
X44750004Y-120974996D01*
X29099995Y-84300001D02*
X31993000Y-84300000D01*
X51722004Y-123300000D02*
X55749992Y-123299933D01*
X31099995Y-123300002D02*
G75*
G02*
X29099995Y-121300001I-981J1999019D01*
G01*
X84096004Y-123300001D02*
X98749992Y-123299933D01*
X29099995Y-86499998D02*
X29099995Y-121300001D01*
X42291003Y-29100002D02*
G75*
G02*
X36058995Y-29100002I-3116004J925563D01*
G01*
X73621997Y-122744000D02*
G75*
G02*
X73065998Y-123300001I-556511J510D01*
G01*
X127755000Y-120974997D02*
X128025001Y-120974997D01*
X211758997Y-123300001D02*
G75*
G02*
X214874999Y-120974996I3117524J-927591D01*
G01*
X291749004Y-122729002D02*
G75*
G02*
X291177996Y-123300001I-570175J-824D01*
G01*
X121325001Y-122729001D02*
G75*
G02*
X120754001Y-123300001I-570175J-825D01*
G01*
X311800006Y-29100002D02*
G75*
G02*
X313800006Y-31100001I-725J-2000725D01*
G01*
X313800005Y-121300001D02*
G75*
G02*
X311800006Y-123300001I-1999018J-982D01*
G01*
X128025001Y-120974997D02*
G75*
G02*
X131141002Y-123300001I-1522J-3252595D01*
G01*
X291749003Y-122729001D02*
G75*
G02*
X297621997Y-120707998I3500114J-627358D01*
G01*
X215631999Y-120772999D02*
G75*
G02*
X215143000Y-120974996I-487744J487854D01*
G01*
X222145999Y-123300001D02*
G75*
G02*
X221574999Y-122729002I-825J570175D01*
G01*
X131141002Y-123300001D02*
X164749992Y-123299933D01*
X269834002Y-123300002D02*
X284299992Y-123299933D01*
X61349992Y-123299933D02*
X73065998Y-123300001D01*
X104349992Y-123299933D02*
X120754001Y-123300001D01*
X62630000Y-29100002D02*
X50149996Y-29099997D01*
X251644999Y-29100003D02*
G75*
G02*
X252215998Y-29671001I-880J-571879D01*
G01*
X80195003Y-29100003D02*
G75*
G02*
X80766002Y-29671001I-880J-571879D01*
G01*
X211758998Y-29100002D02*
X178149996Y-29099997D01*
X221574999Y-29671001D02*
G75*
G02*
X222145999Y-29100002I571880J-881D01*
G01*
X70201000Y-29671002D02*
G75*
G02*
X70771999Y-29100002I571880J-880D01*
G01*
X127235000Y-31659001D02*
G75*
G02*
X121325001Y-29671001I-2410177J2613668D01*
G01*
X238549996Y-29099997D02*
X222145999Y-29100002D01*
X221574999Y-29671001D02*
G75*
G02*
X215642001Y-31638001I-3500071J625895D01*
G01*
X127235001Y-31659001D02*
G75*
G02*
X127799000Y-31425001I565427J-566132D01*
G01*
X215129000Y-31425000D02*
G75*
G02*
X215642001Y-31638001I-2442J-730151D01*
G01*
X90684001Y-29671001D02*
G75*
G02*
X91255001Y-29100002I571880J-881D01*
G01*
X128025001Y-31425001D02*
X127799000Y-31425001D01*
X120754001Y-29100002D02*
X101149996Y-29099997D01*
X80195003Y-29100003D02*
X70771999Y-29100002D01*
X62630000Y-29100002D02*
G75*
G02*
X63201000Y-29671001I-880J-571880D01*
G01*
X70201000Y-29671002D02*
G75*
G02*
X63201000Y-29671001I-3500000J626658D01*
G01*
X90684002Y-29671001D02*
G75*
G02*
X80766002Y-29671001I-4959000J770500D01*
G01*
X215129000Y-31425001D02*
X214874999Y-31425001D01*
X251644999Y-29100003D02*
X244149996Y-29099997D01*
X172549996Y-29099996D02*
X160277003Y-29100002D01*
X214874999Y-31425001D02*
G75*
G02*
X211758998Y-29100002I-899J3249352D01*
G01*
X120754001Y-29100002D02*
G75*
G02*
X121325001Y-29671001I-880J-571880D01*
G01*
X131141002Y-29100002D02*
G75*
G02*
X128025001Y-31425001I-3115102J924353D01*
G01*
X289549996Y-29099997D02*
X280269999Y-29100002D01*
X95549996Y-29099997D02*
X91255001Y-29100002D01*
D11*
X313799993Y-125299933D02*
X289899992Y-125299933D01*
X313799993Y-125299933D02*
X313799993Y-132299933D01*
X164749992Y-125299933D02*
X104349992Y-125299933D01*
X29099992Y-132299933D02*
X29099992Y-125299933D01*
X313799993Y-132299933D02*
X29099992Y-132299933D01*
X35599992Y-128799933D02*
G75*
G03*
X35599992Y-128799933I-1500000J0D01*
G01*
X98749992Y-125299933D02*
X61349992Y-125299933D01*
X241749992Y-125299933D02*
X170349992Y-125299933D01*
X29099992Y-125299933D02*
X55749992Y-125299933D01*
X247349992Y-125299933D02*
X284299992Y-125299933D01*
X310299993Y-128799933D02*
G75*
G03*
X310299993Y-128799933I-1500000J0D01*
G01*
X95549996Y-27099996D02*
X50149996Y-27099996D01*
X178149996Y-27099996D02*
X238549996Y-27099996D01*
X35599995Y-23599996D02*
G75*
G03*
X35599995Y-23599996I-1500000J0D01*
G01*
X29099995Y-20099996D02*
X313799996Y-20099996D01*
X29099995Y-27099996D02*
X44549996Y-27099996D01*
X244149996Y-27099996D02*
X289549996Y-27099996D01*
X310299996Y-23599996D02*
G75*
G03*
X310299996Y-23599996I-1500000J0D01*
G01*
X313799996Y-20099996D02*
X313799996Y-27099996D01*
X313799996Y-27099996D02*
X295149996Y-27099996D01*
X101149996Y-27099996D02*
X172549996Y-27099996D01*
X29099995Y-27099996D02*
X29099995Y-20099996D01*
D12*
%TO.C,mouse-bite-3mm-slot*%
X289899992Y-125299933D02*
G75*
G02*
X289899992Y-123299933I0J1000000D01*
G01*
X284299992Y-123299933D02*
G75*
G02*
X284299992Y-125299933I0J-1000000D01*
G01*
X170349992Y-125299933D02*
G75*
G02*
X170349992Y-123299933I0J1000000D01*
G01*
X164749992Y-123299933D02*
G75*
G02*
X164749992Y-125299933I0J-1000000D01*
G01*
X104349992Y-125299933D02*
G75*
G02*
X104349992Y-123299933I0J1000000D01*
G01*
X98749992Y-123299933D02*
G75*
G02*
X98749992Y-125299933I0J-1000000D01*
G01*
X247349992Y-125299933D02*
G75*
G02*
X247349992Y-123299933I0J1000000D01*
G01*
X241749992Y-123299933D02*
G75*
G02*
X241749992Y-125299933I0J-1000000D01*
G01*
X55749992Y-123299933D02*
G75*
G02*
X55749992Y-125299933I0J-1000000D01*
G01*
X61349992Y-125299933D02*
G75*
G02*
X61349992Y-123299933I0J1000000D01*
G01*
X238549996Y-27099996D02*
G75*
G02*
X238549996Y-29099996I0J-1000000D01*
G01*
X244149996Y-29099996D02*
G75*
G02*
X244149996Y-27099996I0J1000000D01*
G01*
X172549996Y-27099996D02*
G75*
G02*
X172549996Y-29099996I0J-1000000D01*
G01*
X178149996Y-29099996D02*
G75*
G02*
X178149996Y-27099996I0J1000000D01*
G01*
X44549996Y-27099996D02*
G75*
G02*
X44549996Y-29099996I0J-1000000D01*
G01*
X50149996Y-29099996D02*
G75*
G02*
X50149996Y-27099996I0J1000000D01*
G01*
X95549996Y-27099996D02*
G75*
G02*
X95549996Y-29099996I0J-1000000D01*
G01*
X101149996Y-29099996D02*
G75*
G02*
X101149996Y-27099996I0J1000000D01*
G01*
X295149996Y-29099996D02*
G75*
G02*
X295149996Y-27099996I0J1000000D01*
G01*
X289549996Y-27099996D02*
G75*
G02*
X289549996Y-29099996I0J-1000000D01*
G01*
%TD*%
M02*
