%TF.GenerationSoftware,KiCad,Pcbnew,(5.1.11)-1*%
%TF.CreationDate,2022-10-09T01:18:40+07:00*%
%TF.ProjectId,Eclipse60,45636c69-7073-4653-9630-2e6b69636164,rev?*%
%TF.SameCoordinates,Original*%
%TF.FileFunction,Soldermask,Top*%
%TF.FilePolarity,Negative*%
%FSLAX46Y46*%
G04 Gerber Fmt 4.6, Leading zero omitted, Abs format (unit mm)*
G04 Created by KiCad (PCBNEW (5.1.11)-1) date 2022-10-09 01:18:40*
%MOMM*%
%LPD*%
G01*
G04 APERTURE LIST*
%ADD10C,1.000000*%
%ADD11C,0.010000*%
%ADD12C,1.750000*%
%ADD13C,3.987800*%
%ADD14C,0.500000*%
%ADD15C,3.000000*%
%ADD16C,3.048000*%
G04 APERTURE END LIST*
D10*
X154044994Y-29100001D02*
X131141002Y-29100001D01*
X160277004Y-29100002D02*
G75*
G02*
X154044994Y-29100001I-3116005J925564D01*
G01*
X121325000Y-122729002D02*
G75*
G02*
X127270000Y-120774999I3499597J-626676D01*
G01*
X211758997Y-123300001D02*
G75*
G02*
X214874999Y-120974996I3117524J-927591D01*
G01*
X70771999Y-29100001D02*
X80195003Y-29100001D01*
X29099994Y-86499998D02*
X31993000Y-86499998D01*
X44750004Y-120974996D02*
X41175007Y-120974996D01*
X45184002Y-120794996D02*
G75*
G02*
X44750004Y-120974996I-430255J424180D01*
G01*
X31992999Y-84300000D02*
G75*
G02*
X31993000Y-86499998I8J-1099999D01*
G01*
X80195003Y-29100002D02*
G75*
G02*
X80766002Y-29671000I-880J-571879D01*
G01*
X70201000Y-29671001D02*
G75*
G02*
X70771999Y-29100001I571880J-880D01*
G01*
X70201000Y-29671001D02*
G75*
G02*
X63201000Y-29671000I-3500000J626658D01*
G01*
X73621997Y-122744000D02*
G75*
G02*
X83539997Y-122744001I4959000J-771681D01*
G01*
X62630000Y-29100001D02*
G75*
G02*
X63201000Y-29671000I-880J-571880D01*
G01*
X29099994Y-31100001D02*
G75*
G02*
X31099994Y-29100001I2000725J-725D01*
G01*
X121325001Y-122729002D02*
G75*
G02*
X120754001Y-123300001I-570175J-824D01*
G01*
X120754001Y-123300001D02*
X84096004Y-123300001D01*
X29099994Y-84300001D02*
X29099994Y-31100000D01*
X73065998Y-123300001D02*
X51722004Y-123300001D01*
X38058994Y-123300000D02*
G75*
G02*
X41175007Y-120974996I3117544J-927619D01*
G01*
X31993000Y-84300001D02*
X29099994Y-84300001D01*
X45184000Y-120794996D02*
G75*
G02*
X51150997Y-122729002I2466475J-2562179D01*
G01*
X29099994Y-121300001D02*
X29099994Y-86499998D01*
X31099994Y-123300002D02*
G75*
G02*
X29099994Y-121300001I-981J1999019D01*
G01*
X51722004Y-123300000D02*
G75*
G02*
X51150997Y-122729002I-833J570174D01*
G01*
X128025001Y-120974996D02*
X127755001Y-120974996D01*
X211758998Y-123300001D02*
X131141002Y-123300001D01*
X84096004Y-123300001D02*
G75*
G02*
X83539997Y-122744001I517J556524D01*
G01*
X31099994Y-29100001D02*
X36058994Y-29100001D01*
X38058994Y-123300001D02*
X31099994Y-123300001D01*
X128025001Y-120974997D02*
G75*
G02*
X131141002Y-123300001I-1522J-3252595D01*
G01*
X42291004Y-29100001D02*
X62630001Y-29100001D01*
X127755000Y-120974997D02*
G75*
G02*
X127270000Y-120774999I750J689889D01*
G01*
X73621997Y-122744001D02*
G75*
G02*
X73065998Y-123300001I-556511J511D01*
G01*
X42291004Y-29100002D02*
G75*
G02*
X36058994Y-29100001I-3116005J925564D01*
G01*
X269834002Y-123300002D02*
G75*
G02*
X269278002Y-122744001I512J556512D01*
G01*
X313800006Y-31100000D02*
X313800006Y-84300001D01*
X291177996Y-123300001D02*
X269834002Y-123300001D01*
X291749003Y-122729002D02*
G75*
G02*
X297621997Y-120707998I3500114J-627357D01*
G01*
X304841006Y-29100001D02*
X311800006Y-29100001D01*
X301724993Y-120974996D02*
X298268000Y-120974996D01*
X280269999Y-29100001D02*
X298608996Y-29100001D01*
X301724994Y-120974996D02*
G75*
G02*
X304841006Y-123300001I-1532J-3252623D01*
G01*
X310907000Y-86499998D02*
X313800006Y-86499998D01*
X310907001Y-86499997D02*
G75*
G02*
X310907000Y-84300001I-8J1099998D01*
G01*
X214874999Y-31425000D02*
X215129000Y-31425000D01*
X251644999Y-29100002D02*
G75*
G02*
X252215998Y-29671000I-880J-571879D01*
G01*
X160277004Y-29100002D02*
X211758998Y-29100001D01*
X313800006Y-84300001D02*
X310907000Y-84300001D01*
X215129000Y-31424999D02*
G75*
G02*
X215642001Y-31638000I-2442J-730151D01*
G01*
X304841006Y-29100002D02*
G75*
G02*
X298608996Y-29100001I-3116005J925564D01*
G01*
X221574999Y-29671000D02*
G75*
G02*
X222145999Y-29100001I571880J-881D01*
G01*
X262133998Y-29671001D02*
G75*
G02*
X252215998Y-29671000I-4959000J770501D01*
G01*
X311800005Y-29100001D02*
G75*
G02*
X313800006Y-31100000I-724J-2000725D01*
G01*
X279699000Y-29671001D02*
G75*
G02*
X272699000Y-29671000I-3500000J626658D01*
G01*
X298268000Y-120974996D02*
G75*
G02*
X297621997Y-120707998I-2701J908467D01*
G01*
X279699000Y-29671001D02*
G75*
G02*
X280269999Y-29100001I571880J-880D01*
G01*
X313800005Y-121300001D02*
G75*
G02*
X311800006Y-123300001I-1999018J-982D01*
G01*
X259360004Y-122744001D02*
G75*
G02*
X269278002Y-122744001I4958999J-771680D01*
G01*
X291749004Y-122729002D02*
G75*
G02*
X291177996Y-123300001I-570175J-824D01*
G01*
X215143000Y-120974996D02*
X214874999Y-120974996D01*
X259360003Y-122744001D02*
G75*
G02*
X258803996Y-123300001I-556524J524D01*
G01*
X313800006Y-86499998D02*
X313800006Y-121300001D01*
X215631998Y-120773000D02*
G75*
G02*
X215143000Y-120974996I-487743J487855D01*
G01*
X215632000Y-120773000D02*
G75*
G02*
X221574999Y-122729002I2443145J-2583322D01*
G01*
X214874999Y-31425000D02*
G75*
G02*
X211758998Y-29100001I-899J3249352D01*
G01*
X222145999Y-123300001D02*
G75*
G02*
X221574999Y-122729002I-825J570175D01*
G01*
X258803996Y-123300001D02*
X222145999Y-123300001D01*
X272128000Y-29100001D02*
G75*
G02*
X272699000Y-29671000I-880J-571880D01*
G01*
X262133997Y-29671000D02*
G75*
G02*
X262704997Y-29100001I571880J-881D01*
G01*
X222145999Y-29100001D02*
X251644999Y-29100001D01*
X311800006Y-123300001D02*
X304841006Y-123300001D01*
X262704997Y-29100001D02*
X272128001Y-29100001D01*
X221574999Y-29671001D02*
G75*
G02*
X215642001Y-31638000I-3500071J625896D01*
G01*
X131141002Y-29100001D02*
G75*
G02*
X128025001Y-31425000I-3115102J924353D01*
G01*
X90684001Y-29671000D02*
G75*
G02*
X91255001Y-29100001I571880J-881D01*
G01*
X127799000Y-31425000D02*
X128025001Y-31425000D01*
X127235001Y-31659000D02*
G75*
G02*
X127799000Y-31425000I565427J-566132D01*
G01*
X120754001Y-29100001D02*
G75*
G02*
X121325001Y-29671000I-880J-571880D01*
G01*
X91255001Y-29100001D02*
X120754001Y-29100001D01*
X90684002Y-29671001D02*
G75*
G02*
X80766002Y-29671000I-4959000J770501D01*
G01*
X127235000Y-31659000D02*
G75*
G02*
X121325001Y-29671000I-2410177J2613668D01*
G01*
D11*
%TO.C,Eclipse*%
G36*
X129565706Y-104099114D02*
G01*
X129862866Y-104154255D01*
X129892755Y-104163708D01*
X130216023Y-104308907D01*
X130479660Y-104507796D01*
X130678333Y-104755368D01*
X130795725Y-105011161D01*
X130830346Y-105198976D01*
X130836092Y-105440260D01*
X130815099Y-105709696D01*
X130769502Y-105981970D01*
X130701437Y-106231766D01*
X130690026Y-106264078D01*
X130612459Y-106460471D01*
X130517328Y-106677633D01*
X130415043Y-106894043D01*
X130316011Y-107088179D01*
X130230641Y-107238522D01*
X130188420Y-107301245D01*
X130143269Y-107352793D01*
X130103347Y-107355268D01*
X130041196Y-107304063D01*
X130007365Y-107270883D01*
X129890951Y-107155855D01*
X130110397Y-106699383D01*
X130266877Y-106360026D01*
X130383717Y-106071824D01*
X130467770Y-105815166D01*
X130525884Y-105570447D01*
X130546739Y-105450420D01*
X130565939Y-105184692D01*
X130543492Y-104934119D01*
X130482998Y-104721548D01*
X130412412Y-104597707D01*
X130274498Y-104485629D01*
X130066399Y-104404443D01*
X129797758Y-104356836D01*
X129505250Y-104345007D01*
X129049615Y-104382097D01*
X128575991Y-104477216D01*
X128094629Y-104624212D01*
X127615781Y-104816934D01*
X127149700Y-105049230D01*
X126706635Y-105314948D01*
X126296841Y-105607936D01*
X125930568Y-105922043D01*
X125618069Y-106251117D01*
X125369594Y-106589006D01*
X125195397Y-106929558D01*
X125194563Y-106931685D01*
X125141415Y-107143632D01*
X125124806Y-107390090D01*
X125144227Y-107635242D01*
X125199165Y-107843269D01*
X125207858Y-107863460D01*
X125360319Y-108102164D01*
X125592967Y-108326955D01*
X125902111Y-108535441D01*
X126284059Y-108725233D01*
X126735119Y-108893940D01*
X126859416Y-108932895D01*
X127101889Y-109014976D01*
X127290813Y-109096923D01*
X127419401Y-109174399D01*
X127480866Y-109243064D01*
X127468419Y-109298580D01*
X127450991Y-109311049D01*
X127362810Y-109368650D01*
X127220589Y-109469940D01*
X127036384Y-109605696D01*
X126822255Y-109766699D01*
X126590261Y-109943727D01*
X126352458Y-110127560D01*
X126120906Y-110308977D01*
X125907663Y-110478758D01*
X125724787Y-110627682D01*
X125675402Y-110668796D01*
X125106995Y-111168873D01*
X124580160Y-111679810D01*
X124097987Y-112196680D01*
X123663567Y-112714561D01*
X123279988Y-113228527D01*
X122950340Y-113733654D01*
X122677713Y-114225019D01*
X122465198Y-114697696D01*
X122315882Y-115146761D01*
X122232857Y-115567291D01*
X122219212Y-115954361D01*
X122240886Y-116142653D01*
X122319501Y-116465319D01*
X122434429Y-116718965D01*
X122592716Y-116914018D01*
X122801404Y-117060905D01*
X122890358Y-117104059D01*
X123083699Y-117163613D01*
X123337006Y-117204225D01*
X123627428Y-117224565D01*
X123932117Y-117223305D01*
X124228223Y-117199113D01*
X124313908Y-117186877D01*
X124833509Y-117070213D01*
X125389300Y-116881289D01*
X125977336Y-116622396D01*
X126593675Y-116295824D01*
X127234373Y-115903863D01*
X127895486Y-115448804D01*
X128573071Y-114932938D01*
X129263184Y-114358554D01*
X129420583Y-114220782D01*
X129618754Y-114039933D01*
X129860607Y-113809914D01*
X130134701Y-113542393D01*
X130429598Y-113249035D01*
X130733856Y-112941507D01*
X131036036Y-112631477D01*
X131324699Y-112330612D01*
X131588405Y-112050577D01*
X131815713Y-111803040D01*
X131995184Y-111599668D01*
X132024083Y-111565615D01*
X132162921Y-111406145D01*
X132287487Y-111273242D01*
X132385551Y-111179246D01*
X132444887Y-111136495D01*
X132450620Y-111135190D01*
X132524223Y-111162085D01*
X132609811Y-111230885D01*
X132612377Y-111233590D01*
X132707429Y-111334768D01*
X132228172Y-111879003D01*
X131408410Y-112780142D01*
X130606248Y-113601237D01*
X129819077Y-114344463D01*
X129044289Y-115011996D01*
X128279277Y-115606011D01*
X127521433Y-116128684D01*
X126768147Y-116582190D01*
X126279503Y-116841018D01*
X125691550Y-117110141D01*
X125142204Y-117307834D01*
X124626536Y-117435281D01*
X124139615Y-117493666D01*
X123676510Y-117484172D01*
X123623597Y-117478673D01*
X123281580Y-117415666D01*
X122978367Y-117302087D01*
X122723181Y-117155711D01*
X122475586Y-116963586D01*
X122281195Y-116739982D01*
X122118685Y-116459829D01*
X122102589Y-116426083D01*
X121995400Y-116105287D01*
X121949390Y-115737732D01*
X121965168Y-115335823D01*
X122030648Y-114963578D01*
X122162820Y-114538247D01*
X122363813Y-114077622D01*
X122629185Y-113588846D01*
X122954494Y-113079063D01*
X123335298Y-112555415D01*
X123767155Y-112025047D01*
X124070701Y-111682745D01*
X124356906Y-111386304D01*
X124698917Y-111058594D01*
X125080815Y-110713339D01*
X125486683Y-110364262D01*
X125900605Y-110025087D01*
X126306662Y-109709537D01*
X126651769Y-109457412D01*
X126794947Y-109353693D01*
X126907447Y-109266831D01*
X126974194Y-109208763D01*
X126986009Y-109192745D01*
X126948856Y-109166482D01*
X126849354Y-109119534D01*
X126704877Y-109059729D01*
X126608420Y-109022647D01*
X126137112Y-108818497D01*
X125735746Y-108586877D01*
X125406113Y-108330862D01*
X125150006Y-108053527D01*
X124969218Y-107757948D01*
X124865541Y-107447200D01*
X124840768Y-107124359D01*
X124896692Y-106792500D01*
X125035106Y-106454699D01*
X125072380Y-106387499D01*
X125242771Y-106142891D01*
X125477539Y-105878321D01*
X125762616Y-105605689D01*
X126083937Y-105336891D01*
X126427434Y-105083825D01*
X126779040Y-104858391D01*
X127066015Y-104701258D01*
X127507554Y-104501316D01*
X127955230Y-104338146D01*
X128396963Y-104214043D01*
X128820674Y-104131305D01*
X129214282Y-104092229D01*
X129565706Y-104099114D01*
G37*
X129565706Y-104099114D02*
X129862866Y-104154255D01*
X129892755Y-104163708D01*
X130216023Y-104308907D01*
X130479660Y-104507796D01*
X130678333Y-104755368D01*
X130795725Y-105011161D01*
X130830346Y-105198976D01*
X130836092Y-105440260D01*
X130815099Y-105709696D01*
X130769502Y-105981970D01*
X130701437Y-106231766D01*
X130690026Y-106264078D01*
X130612459Y-106460471D01*
X130517328Y-106677633D01*
X130415043Y-106894043D01*
X130316011Y-107088179D01*
X130230641Y-107238522D01*
X130188420Y-107301245D01*
X130143269Y-107352793D01*
X130103347Y-107355268D01*
X130041196Y-107304063D01*
X130007365Y-107270883D01*
X129890951Y-107155855D01*
X130110397Y-106699383D01*
X130266877Y-106360026D01*
X130383717Y-106071824D01*
X130467770Y-105815166D01*
X130525884Y-105570447D01*
X130546739Y-105450420D01*
X130565939Y-105184692D01*
X130543492Y-104934119D01*
X130482998Y-104721548D01*
X130412412Y-104597707D01*
X130274498Y-104485629D01*
X130066399Y-104404443D01*
X129797758Y-104356836D01*
X129505250Y-104345007D01*
X129049615Y-104382097D01*
X128575991Y-104477216D01*
X128094629Y-104624212D01*
X127615781Y-104816934D01*
X127149700Y-105049230D01*
X126706635Y-105314948D01*
X126296841Y-105607936D01*
X125930568Y-105922043D01*
X125618069Y-106251117D01*
X125369594Y-106589006D01*
X125195397Y-106929558D01*
X125194563Y-106931685D01*
X125141415Y-107143632D01*
X125124806Y-107390090D01*
X125144227Y-107635242D01*
X125199165Y-107843269D01*
X125207858Y-107863460D01*
X125360319Y-108102164D01*
X125592967Y-108326955D01*
X125902111Y-108535441D01*
X126284059Y-108725233D01*
X126735119Y-108893940D01*
X126859416Y-108932895D01*
X127101889Y-109014976D01*
X127290813Y-109096923D01*
X127419401Y-109174399D01*
X127480866Y-109243064D01*
X127468419Y-109298580D01*
X127450991Y-109311049D01*
X127362810Y-109368650D01*
X127220589Y-109469940D01*
X127036384Y-109605696D01*
X126822255Y-109766699D01*
X126590261Y-109943727D01*
X126352458Y-110127560D01*
X126120906Y-110308977D01*
X125907663Y-110478758D01*
X125724787Y-110627682D01*
X125675402Y-110668796D01*
X125106995Y-111168873D01*
X124580160Y-111679810D01*
X124097987Y-112196680D01*
X123663567Y-112714561D01*
X123279988Y-113228527D01*
X122950340Y-113733654D01*
X122677713Y-114225019D01*
X122465198Y-114697696D01*
X122315882Y-115146761D01*
X122232857Y-115567291D01*
X122219212Y-115954361D01*
X122240886Y-116142653D01*
X122319501Y-116465319D01*
X122434429Y-116718965D01*
X122592716Y-116914018D01*
X122801404Y-117060905D01*
X122890358Y-117104059D01*
X123083699Y-117163613D01*
X123337006Y-117204225D01*
X123627428Y-117224565D01*
X123932117Y-117223305D01*
X124228223Y-117199113D01*
X124313908Y-117186877D01*
X124833509Y-117070213D01*
X125389300Y-116881289D01*
X125977336Y-116622396D01*
X126593675Y-116295824D01*
X127234373Y-115903863D01*
X127895486Y-115448804D01*
X128573071Y-114932938D01*
X129263184Y-114358554D01*
X129420583Y-114220782D01*
X129618754Y-114039933D01*
X129860607Y-113809914D01*
X130134701Y-113542393D01*
X130429598Y-113249035D01*
X130733856Y-112941507D01*
X131036036Y-112631477D01*
X131324699Y-112330612D01*
X131588405Y-112050577D01*
X131815713Y-111803040D01*
X131995184Y-111599668D01*
X132024083Y-111565615D01*
X132162921Y-111406145D01*
X132287487Y-111273242D01*
X132385551Y-111179246D01*
X132444887Y-111136495D01*
X132450620Y-111135190D01*
X132524223Y-111162085D01*
X132609811Y-111230885D01*
X132612377Y-111233590D01*
X132707429Y-111334768D01*
X132228172Y-111879003D01*
X131408410Y-112780142D01*
X130606248Y-113601237D01*
X129819077Y-114344463D01*
X129044289Y-115011996D01*
X128279277Y-115606011D01*
X127521433Y-116128684D01*
X126768147Y-116582190D01*
X126279503Y-116841018D01*
X125691550Y-117110141D01*
X125142204Y-117307834D01*
X124626536Y-117435281D01*
X124139615Y-117493666D01*
X123676510Y-117484172D01*
X123623597Y-117478673D01*
X123281580Y-117415666D01*
X122978367Y-117302087D01*
X122723181Y-117155711D01*
X122475586Y-116963586D01*
X122281195Y-116739982D01*
X122118685Y-116459829D01*
X122102589Y-116426083D01*
X121995400Y-116105287D01*
X121949390Y-115737732D01*
X121965168Y-115335823D01*
X122030648Y-114963578D01*
X122162820Y-114538247D01*
X122363813Y-114077622D01*
X122629185Y-113588846D01*
X122954494Y-113079063D01*
X123335298Y-112555415D01*
X123767155Y-112025047D01*
X124070701Y-111682745D01*
X124356906Y-111386304D01*
X124698917Y-111058594D01*
X125080815Y-110713339D01*
X125486683Y-110364262D01*
X125900605Y-110025087D01*
X126306662Y-109709537D01*
X126651769Y-109457412D01*
X126794947Y-109353693D01*
X126907447Y-109266831D01*
X126974194Y-109208763D01*
X126986009Y-109192745D01*
X126948856Y-109166482D01*
X126849354Y-109119534D01*
X126704877Y-109059729D01*
X126608420Y-109022647D01*
X126137112Y-108818497D01*
X125735746Y-108586877D01*
X125406113Y-108330862D01*
X125150006Y-108053527D01*
X124969218Y-107757948D01*
X124865541Y-107447200D01*
X124840768Y-107124359D01*
X124896692Y-106792500D01*
X125035106Y-106454699D01*
X125072380Y-106387499D01*
X125242771Y-106142891D01*
X125477539Y-105878321D01*
X125762616Y-105605689D01*
X126083937Y-105336891D01*
X126427434Y-105083825D01*
X126779040Y-104858391D01*
X127066015Y-104701258D01*
X127507554Y-104501316D01*
X127955230Y-104338146D01*
X128396963Y-104214043D01*
X128820674Y-104131305D01*
X129214282Y-104092229D01*
X129565706Y-104099114D01*
G36*
X137875450Y-110134482D02*
G01*
X137947261Y-110202889D01*
X137975651Y-110255178D01*
X137964913Y-110329356D01*
X137909279Y-110463455D01*
X137812817Y-110648325D01*
X137759233Y-110742116D01*
X137518860Y-111153578D01*
X137814956Y-110862141D01*
X138129083Y-110579458D01*
X138420816Y-110370880D01*
X138688092Y-110237041D01*
X138928848Y-110178572D01*
X139141020Y-110196103D01*
X139322546Y-110290268D01*
X139408159Y-110374459D01*
X139492077Y-110536798D01*
X139516778Y-110741405D01*
X139488029Y-110976278D01*
X139411598Y-111229414D01*
X139293252Y-111488809D01*
X139138760Y-111742461D01*
X138953889Y-111978367D01*
X138744406Y-112184523D01*
X138516079Y-112348927D01*
X138439078Y-112391213D01*
X138172705Y-112483779D01*
X137906384Y-112491791D01*
X137640788Y-112415358D01*
X137376590Y-112254591D01*
X137319614Y-112208667D01*
X137233819Y-112142266D01*
X137179399Y-112111001D01*
X137171917Y-112111394D01*
X137000713Y-112330251D01*
X136794686Y-112618019D01*
X136557849Y-112968371D01*
X136294215Y-113374983D01*
X136007798Y-113831531D01*
X135702613Y-114331691D01*
X135382672Y-114869138D01*
X135051989Y-115437548D01*
X134966250Y-115586998D01*
X134720962Y-116012986D01*
X134509987Y-116373509D01*
X134334332Y-116666929D01*
X134195001Y-116891613D01*
X134093002Y-117045924D01*
X134029339Y-117128226D01*
X134009727Y-117142373D01*
X133930427Y-117114155D01*
X133872144Y-117066328D01*
X133817410Y-116984489D01*
X133802083Y-116932340D01*
X133822878Y-116873142D01*
X133881846Y-116750394D01*
X133973861Y-116573303D01*
X134093797Y-116351075D01*
X134236527Y-116092917D01*
X134396925Y-115808036D01*
X134569865Y-115505639D01*
X134750221Y-115194933D01*
X134932867Y-114885124D01*
X135063238Y-114667245D01*
X135250115Y-114355745D01*
X135440069Y-114036692D01*
X135628251Y-113718447D01*
X135809811Y-113409376D01*
X135979900Y-113117842D01*
X136133666Y-112852209D01*
X136266261Y-112620840D01*
X136372835Y-112432100D01*
X136448536Y-112294352D01*
X136488516Y-112215960D01*
X136493377Y-112200927D01*
X136454869Y-112216097D01*
X136366643Y-112267954D01*
X136259091Y-112337784D01*
X136059210Y-112448460D01*
X135891920Y-112485898D01*
X135748295Y-112450652D01*
X135649356Y-112375472D01*
X135573245Y-112274110D01*
X135542987Y-112156971D01*
X135558579Y-112007357D01*
X135620015Y-111808570D01*
X135649177Y-111732298D01*
X135711783Y-111585057D01*
X135789119Y-111419551D01*
X135872010Y-111253394D01*
X135951275Y-111104200D01*
X136017738Y-110989585D01*
X136062219Y-110927162D01*
X136072049Y-110920745D01*
X136138111Y-110947821D01*
X136219462Y-111010146D01*
X136283211Y-111079363D01*
X136299750Y-111117053D01*
X136281605Y-111179510D01*
X136233040Y-111296492D01*
X136162856Y-111447488D01*
X136125232Y-111523722D01*
X136038891Y-111700926D01*
X135960974Y-111870490D01*
X135904580Y-112003598D01*
X135892607Y-112035515D01*
X135834499Y-112200209D01*
X135950708Y-112126379D01*
X136092300Y-112028585D01*
X137311043Y-112028585D01*
X137370456Y-112100033D01*
X137503373Y-112176963D01*
X137548583Y-112198571D01*
X137732220Y-112254118D01*
X137922226Y-112244585D01*
X138140483Y-112168732D01*
X138149670Y-112164505D01*
X138252468Y-112100346D01*
X138388984Y-111992998D01*
X138535606Y-111861579D01*
X138591918Y-111806431D01*
X138791084Y-111574909D01*
X138967073Y-111311834D01*
X139108005Y-111039339D01*
X139201996Y-110779556D01*
X139234203Y-110610011D01*
X139253543Y-110405112D01*
X139099563Y-110433650D01*
X138885694Y-110505712D01*
X138637902Y-110645840D01*
X138363389Y-110848092D01*
X138069358Y-111106527D01*
X137763012Y-111415202D01*
X137451554Y-111768178D01*
X137387106Y-111846231D01*
X137318728Y-111948643D01*
X137311043Y-112028585D01*
X136092300Y-112028585D01*
X136133433Y-112000176D01*
X136355948Y-111830502D01*
X136597817Y-111633392D01*
X136792108Y-111466201D01*
X136925134Y-111341355D01*
X137040353Y-111213159D01*
X137152262Y-111062450D01*
X137275356Y-110870063D01*
X137390707Y-110674855D01*
X137503198Y-110482039D01*
X137602493Y-110314916D01*
X137680131Y-110187499D01*
X137727649Y-110113798D01*
X137736469Y-110102352D01*
X137795140Y-110094551D01*
X137875450Y-110134482D01*
G37*
X137875450Y-110134482D02*
X137947261Y-110202889D01*
X137975651Y-110255178D01*
X137964913Y-110329356D01*
X137909279Y-110463455D01*
X137812817Y-110648325D01*
X137759233Y-110742116D01*
X137518860Y-111153578D01*
X137814956Y-110862141D01*
X138129083Y-110579458D01*
X138420816Y-110370880D01*
X138688092Y-110237041D01*
X138928848Y-110178572D01*
X139141020Y-110196103D01*
X139322546Y-110290268D01*
X139408159Y-110374459D01*
X139492077Y-110536798D01*
X139516778Y-110741405D01*
X139488029Y-110976278D01*
X139411598Y-111229414D01*
X139293252Y-111488809D01*
X139138760Y-111742461D01*
X138953889Y-111978367D01*
X138744406Y-112184523D01*
X138516079Y-112348927D01*
X138439078Y-112391213D01*
X138172705Y-112483779D01*
X137906384Y-112491791D01*
X137640788Y-112415358D01*
X137376590Y-112254591D01*
X137319614Y-112208667D01*
X137233819Y-112142266D01*
X137179399Y-112111001D01*
X137171917Y-112111394D01*
X137000713Y-112330251D01*
X136794686Y-112618019D01*
X136557849Y-112968371D01*
X136294215Y-113374983D01*
X136007798Y-113831531D01*
X135702613Y-114331691D01*
X135382672Y-114869138D01*
X135051989Y-115437548D01*
X134966250Y-115586998D01*
X134720962Y-116012986D01*
X134509987Y-116373509D01*
X134334332Y-116666929D01*
X134195001Y-116891613D01*
X134093002Y-117045924D01*
X134029339Y-117128226D01*
X134009727Y-117142373D01*
X133930427Y-117114155D01*
X133872144Y-117066328D01*
X133817410Y-116984489D01*
X133802083Y-116932340D01*
X133822878Y-116873142D01*
X133881846Y-116750394D01*
X133973861Y-116573303D01*
X134093797Y-116351075D01*
X134236527Y-116092917D01*
X134396925Y-115808036D01*
X134569865Y-115505639D01*
X134750221Y-115194933D01*
X134932867Y-114885124D01*
X135063238Y-114667245D01*
X135250115Y-114355745D01*
X135440069Y-114036692D01*
X135628251Y-113718447D01*
X135809811Y-113409376D01*
X135979900Y-113117842D01*
X136133666Y-112852209D01*
X136266261Y-112620840D01*
X136372835Y-112432100D01*
X136448536Y-112294352D01*
X136488516Y-112215960D01*
X136493377Y-112200927D01*
X136454869Y-112216097D01*
X136366643Y-112267954D01*
X136259091Y-112337784D01*
X136059210Y-112448460D01*
X135891920Y-112485898D01*
X135748295Y-112450652D01*
X135649356Y-112375472D01*
X135573245Y-112274110D01*
X135542987Y-112156971D01*
X135558579Y-112007357D01*
X135620015Y-111808570D01*
X135649177Y-111732298D01*
X135711783Y-111585057D01*
X135789119Y-111419551D01*
X135872010Y-111253394D01*
X135951275Y-111104200D01*
X136017738Y-110989585D01*
X136062219Y-110927162D01*
X136072049Y-110920745D01*
X136138111Y-110947821D01*
X136219462Y-111010146D01*
X136283211Y-111079363D01*
X136299750Y-111117053D01*
X136281605Y-111179510D01*
X136233040Y-111296492D01*
X136162856Y-111447488D01*
X136125232Y-111523722D01*
X136038891Y-111700926D01*
X135960974Y-111870490D01*
X135904580Y-112003598D01*
X135892607Y-112035515D01*
X135834499Y-112200209D01*
X135950708Y-112126379D01*
X136092300Y-112028585D01*
X137311043Y-112028585D01*
X137370456Y-112100033D01*
X137503373Y-112176963D01*
X137548583Y-112198571D01*
X137732220Y-112254118D01*
X137922226Y-112244585D01*
X138140483Y-112168732D01*
X138149670Y-112164505D01*
X138252468Y-112100346D01*
X138388984Y-111992998D01*
X138535606Y-111861579D01*
X138591918Y-111806431D01*
X138791084Y-111574909D01*
X138967073Y-111311834D01*
X139108005Y-111039339D01*
X139201996Y-110779556D01*
X139234203Y-110610011D01*
X139253543Y-110405112D01*
X139099563Y-110433650D01*
X138885694Y-110505712D01*
X138637902Y-110645840D01*
X138363389Y-110848092D01*
X138069358Y-111106527D01*
X137763012Y-111415202D01*
X137451554Y-111768178D01*
X137387106Y-111846231D01*
X137318728Y-111948643D01*
X137311043Y-112028585D01*
X136092300Y-112028585D01*
X136133433Y-112000176D01*
X136355948Y-111830502D01*
X136597817Y-111633392D01*
X136792108Y-111466201D01*
X136925134Y-111341355D01*
X137040353Y-111213159D01*
X137152262Y-111062450D01*
X137275356Y-110870063D01*
X137390707Y-110674855D01*
X137503198Y-110482039D01*
X137602493Y-110314916D01*
X137680131Y-110187499D01*
X137727649Y-110113798D01*
X137736469Y-110102352D01*
X137795140Y-110094551D01*
X137875450Y-110134482D01*
G36*
X137923500Y-106202299D02*
G01*
X138008694Y-106261463D01*
X138016109Y-106268720D01*
X138116442Y-106369911D01*
X137775667Y-106962578D01*
X137393412Y-107635239D01*
X137029763Y-108290727D01*
X136687190Y-108923966D01*
X136368161Y-109529880D01*
X136075146Y-110103394D01*
X135810614Y-110639433D01*
X135577033Y-111132922D01*
X135376874Y-111578785D01*
X135212604Y-111971947D01*
X135086693Y-112307332D01*
X135001610Y-112579865D01*
X134966589Y-112736865D01*
X134950982Y-112850082D01*
X134958131Y-112898595D01*
X134993061Y-112900489D01*
X135010367Y-112894418D01*
X135090136Y-112902225D01*
X135183288Y-112957457D01*
X135258149Y-113035860D01*
X135283750Y-113103761D01*
X135248794Y-113169100D01*
X135159971Y-113200481D01*
X135041341Y-113197041D01*
X134916967Y-113157916D01*
X134852621Y-113119237D01*
X134745064Y-113009319D01*
X134684388Y-112869207D01*
X134670508Y-112689920D01*
X134703340Y-112462479D01*
X134782800Y-112177905D01*
X134842144Y-112005402D01*
X134947299Y-111713888D01*
X134850941Y-111775219D01*
X134418637Y-112037855D01*
X134042550Y-112239352D01*
X133720964Y-112380316D01*
X133452166Y-112461353D01*
X133234442Y-112483070D01*
X133066078Y-112446073D01*
X133022532Y-112422054D01*
X132886759Y-112291738D01*
X132812527Y-112130006D01*
X132809780Y-111965405D01*
X132884219Y-111749758D01*
X133015245Y-111500947D01*
X133190149Y-111234452D01*
X133396220Y-110965754D01*
X133620748Y-110710334D01*
X133851024Y-110483671D01*
X134074337Y-110301247D01*
X134276192Y-110179369D01*
X134486016Y-110099692D01*
X134658370Y-110079154D01*
X134814848Y-110116229D01*
X134861263Y-110138016D01*
X134999344Y-110250142D01*
X135066276Y-110399458D01*
X135059422Y-110573410D01*
X134987880Y-110740828D01*
X134916885Y-110842250D01*
X134857942Y-110869943D01*
X134787334Y-110826914D01*
X134733869Y-110773060D01*
X134672189Y-110701582D01*
X134657904Y-110646156D01*
X134688087Y-110569540D01*
X134714050Y-110520731D01*
X134759362Y-110422890D01*
X134774755Y-110360179D01*
X134772108Y-110352659D01*
X134715663Y-110351212D01*
X134610464Y-110392865D01*
X134473598Y-110467483D01*
X134322148Y-110564930D01*
X134173200Y-110675073D01*
X134052265Y-110779666D01*
X133875494Y-110961737D01*
X133696058Y-111170202D01*
X133523377Y-111391475D01*
X133366870Y-111611968D01*
X133235955Y-111818097D01*
X133140053Y-111996275D01*
X133088581Y-112132916D01*
X133082416Y-112178588D01*
X133116493Y-112216296D01*
X133213129Y-112211565D01*
X133363932Y-112168155D01*
X133560511Y-112089824D01*
X133794472Y-111980335D01*
X134057425Y-111843445D01*
X134340978Y-111682916D01*
X134636738Y-111502507D01*
X134742353Y-111434864D01*
X135153456Y-111168173D01*
X135620456Y-110229542D01*
X135791987Y-109888920D01*
X135978310Y-109526286D01*
X136175273Y-109149148D01*
X136378722Y-108765013D01*
X136584502Y-108381390D01*
X136788461Y-108005784D01*
X136986445Y-107645705D01*
X137174299Y-107308660D01*
X137347871Y-107002156D01*
X137503006Y-106733700D01*
X137635552Y-106510801D01*
X137741354Y-106340966D01*
X137816259Y-106231703D01*
X137854874Y-106190899D01*
X137923500Y-106202299D01*
G37*
X137923500Y-106202299D02*
X138008694Y-106261463D01*
X138016109Y-106268720D01*
X138116442Y-106369911D01*
X137775667Y-106962578D01*
X137393412Y-107635239D01*
X137029763Y-108290727D01*
X136687190Y-108923966D01*
X136368161Y-109529880D01*
X136075146Y-110103394D01*
X135810614Y-110639433D01*
X135577033Y-111132922D01*
X135376874Y-111578785D01*
X135212604Y-111971947D01*
X135086693Y-112307332D01*
X135001610Y-112579865D01*
X134966589Y-112736865D01*
X134950982Y-112850082D01*
X134958131Y-112898595D01*
X134993061Y-112900489D01*
X135010367Y-112894418D01*
X135090136Y-112902225D01*
X135183288Y-112957457D01*
X135258149Y-113035860D01*
X135283750Y-113103761D01*
X135248794Y-113169100D01*
X135159971Y-113200481D01*
X135041341Y-113197041D01*
X134916967Y-113157916D01*
X134852621Y-113119237D01*
X134745064Y-113009319D01*
X134684388Y-112869207D01*
X134670508Y-112689920D01*
X134703340Y-112462479D01*
X134782800Y-112177905D01*
X134842144Y-112005402D01*
X134947299Y-111713888D01*
X134850941Y-111775219D01*
X134418637Y-112037855D01*
X134042550Y-112239352D01*
X133720964Y-112380316D01*
X133452166Y-112461353D01*
X133234442Y-112483070D01*
X133066078Y-112446073D01*
X133022532Y-112422054D01*
X132886759Y-112291738D01*
X132812527Y-112130006D01*
X132809780Y-111965405D01*
X132884219Y-111749758D01*
X133015245Y-111500947D01*
X133190149Y-111234452D01*
X133396220Y-110965754D01*
X133620748Y-110710334D01*
X133851024Y-110483671D01*
X134074337Y-110301247D01*
X134276192Y-110179369D01*
X134486016Y-110099692D01*
X134658370Y-110079154D01*
X134814848Y-110116229D01*
X134861263Y-110138016D01*
X134999344Y-110250142D01*
X135066276Y-110399458D01*
X135059422Y-110573410D01*
X134987880Y-110740828D01*
X134916885Y-110842250D01*
X134857942Y-110869943D01*
X134787334Y-110826914D01*
X134733869Y-110773060D01*
X134672189Y-110701582D01*
X134657904Y-110646156D01*
X134688087Y-110569540D01*
X134714050Y-110520731D01*
X134759362Y-110422890D01*
X134774755Y-110360179D01*
X134772108Y-110352659D01*
X134715663Y-110351212D01*
X134610464Y-110392865D01*
X134473598Y-110467483D01*
X134322148Y-110564930D01*
X134173200Y-110675073D01*
X134052265Y-110779666D01*
X133875494Y-110961737D01*
X133696058Y-111170202D01*
X133523377Y-111391475D01*
X133366870Y-111611968D01*
X133235955Y-111818097D01*
X133140053Y-111996275D01*
X133088581Y-112132916D01*
X133082416Y-112178588D01*
X133116493Y-112216296D01*
X133213129Y-112211565D01*
X133363932Y-112168155D01*
X133560511Y-112089824D01*
X133794472Y-111980335D01*
X134057425Y-111843445D01*
X134340978Y-111682916D01*
X134636738Y-111502507D01*
X134742353Y-111434864D01*
X135153456Y-111168173D01*
X135620456Y-110229542D01*
X135791987Y-109888920D01*
X135978310Y-109526286D01*
X136175273Y-109149148D01*
X136378722Y-108765013D01*
X136584502Y-108381390D01*
X136788461Y-108005784D01*
X136986445Y-107645705D01*
X137174299Y-107308660D01*
X137347871Y-107002156D01*
X137503006Y-106733700D01*
X137635552Y-106510801D01*
X137741354Y-106340966D01*
X137816259Y-106231703D01*
X137854874Y-106190899D01*
X137923500Y-106202299D01*
G36*
X141113355Y-110012840D02*
G01*
X141187020Y-110060347D01*
X141199833Y-110072069D01*
X141265681Y-110154056D01*
X141288240Y-110241869D01*
X141263057Y-110342014D01*
X141185676Y-110460999D01*
X141051643Y-110605330D01*
X140856503Y-110781513D01*
X140595802Y-110996056D01*
X140533083Y-111045978D01*
X140368017Y-111179524D01*
X140228883Y-111297277D01*
X140128427Y-111388061D01*
X140079397Y-111440698D01*
X140076776Y-111446057D01*
X140090258Y-111515798D01*
X140119109Y-111565413D01*
X140145578Y-111590424D01*
X140185216Y-111599740D01*
X140250520Y-111590113D01*
X140353984Y-111558292D01*
X140508105Y-111501027D01*
X140725378Y-111415068D01*
X140777413Y-111394186D01*
X141009887Y-111299810D01*
X141178916Y-111226932D01*
X141299924Y-111166258D01*
X141388335Y-111108494D01*
X141459573Y-111044347D01*
X141497605Y-111000657D01*
X141982408Y-111000657D01*
X141983358Y-111005411D01*
X142035208Y-110991494D01*
X142142689Y-110955024D01*
X142281199Y-110904392D01*
X142567914Y-110786871D01*
X142791526Y-110674860D01*
X142947456Y-110571530D01*
X143031122Y-110480049D01*
X143037941Y-110403587D01*
X143027717Y-110387924D01*
X142931763Y-110334050D01*
X142795130Y-110344909D01*
X142626698Y-110416583D01*
X142435346Y-110545157D01*
X142229954Y-110726716D01*
X142206575Y-110750067D01*
X142096120Y-110864889D01*
X142017444Y-110952941D01*
X141982408Y-111000657D01*
X141497605Y-111000657D01*
X141529061Y-110964523D01*
X141564932Y-110919669D01*
X141811764Y-110632246D01*
X142053245Y-110398188D01*
X142281782Y-110223284D01*
X142489782Y-110113325D01*
X142669651Y-110074102D01*
X142673742Y-110074078D01*
X142834412Y-110107056D01*
X142999756Y-110194252D01*
X143149712Y-110318055D01*
X143264217Y-110460856D01*
X143323205Y-110605045D01*
X143327083Y-110647516D01*
X143286936Y-110736216D01*
X143171750Y-110838013D01*
X142989408Y-110948904D01*
X142747792Y-111064885D01*
X142454784Y-111181950D01*
X142118268Y-111296095D01*
X141951250Y-111346456D01*
X141789347Y-111399343D01*
X141658073Y-111453105D01*
X141579852Y-111498211D01*
X141570250Y-111508377D01*
X141495426Y-111631889D01*
X141415239Y-111781346D01*
X141340941Y-111933428D01*
X141283787Y-112064816D01*
X141255031Y-112152189D01*
X141253596Y-112164533D01*
X141264908Y-112215022D01*
X141315450Y-112229659D01*
X141411500Y-112218893D01*
X141558049Y-112177349D01*
X141759844Y-112093794D01*
X142003113Y-111975265D01*
X142274087Y-111828797D01*
X142558995Y-111661425D01*
X142797916Y-111510543D01*
X142975751Y-111395373D01*
X143130427Y-111297070D01*
X143246939Y-111225035D01*
X143310286Y-111188670D01*
X143314617Y-111186739D01*
X143374946Y-111201240D01*
X143459495Y-111261939D01*
X143478833Y-111280313D01*
X143592015Y-111393495D01*
X143385466Y-111541107D01*
X143187076Y-111675921D01*
X142950909Y-111825569D01*
X142697012Y-111978371D01*
X142445433Y-112122652D01*
X142216218Y-112246733D01*
X142029415Y-112338936D01*
X141975277Y-112362545D01*
X141731785Y-112453229D01*
X141542578Y-112499083D01*
X141391681Y-112502524D01*
X141270326Y-112469171D01*
X141134822Y-112382018D01*
X141025080Y-112261164D01*
X140963004Y-112133451D01*
X140956416Y-112084525D01*
X140970401Y-111984924D01*
X141005238Y-111853419D01*
X141018038Y-111815067D01*
X141049260Y-111710141D01*
X141056596Y-111647848D01*
X141050945Y-111640411D01*
X141001027Y-111654983D01*
X140892404Y-111693884D01*
X140744942Y-111749890D01*
X140679912Y-111775316D01*
X140337593Y-111910220D01*
X140403032Y-112092196D01*
X140440528Y-112206598D01*
X140443916Y-112275304D01*
X140409577Y-112331604D01*
X140372873Y-112369769D01*
X140307889Y-112420855D01*
X140222986Y-112452659D01*
X140095081Y-112471159D01*
X139945549Y-112480430D01*
X139738434Y-112482860D01*
X139591766Y-112466185D01*
X139482952Y-112427818D01*
X139482040Y-112427348D01*
X139357695Y-112337760D01*
X139288081Y-112234329D01*
X139287461Y-112212772D01*
X139771083Y-112212772D01*
X139804646Y-112235941D01*
X139885330Y-112230214D01*
X139983131Y-112201618D01*
X140068040Y-112156182D01*
X140073310Y-112152055D01*
X140135091Y-112087692D01*
X140146340Y-112044081D01*
X140145602Y-112043269D01*
X140097961Y-112046141D01*
X140006853Y-112077765D01*
X139902168Y-112124613D01*
X139813794Y-112173158D01*
X139771620Y-112209872D01*
X139771083Y-112212772D01*
X139287461Y-112212772D01*
X139285354Y-112139632D01*
X139333932Y-112087370D01*
X139437576Y-112011917D01*
X139574899Y-111926466D01*
X139724518Y-111844213D01*
X139865047Y-111778349D01*
X139882121Y-111771446D01*
X140014325Y-111719262D01*
X139862466Y-111423279D01*
X139746927Y-111148221D01*
X139715281Y-110973831D01*
X140000337Y-110973831D01*
X140012769Y-110985528D01*
X140057168Y-110963042D01*
X140142748Y-110900799D01*
X140278722Y-110793224D01*
X140386406Y-110706159D01*
X140579755Y-110544847D01*
X140708964Y-110426934D01*
X140772322Y-110354125D01*
X140768119Y-110328120D01*
X140766442Y-110328078D01*
X140715934Y-110346657D01*
X140613435Y-110395349D01*
X140482142Y-110463081D01*
X140254056Y-110614155D01*
X140089281Y-110786830D01*
X140010661Y-110933527D01*
X140000337Y-110973831D01*
X139715281Y-110973831D01*
X139703710Y-110910071D01*
X139732642Y-110702001D01*
X139833547Y-110517182D01*
X139839174Y-110510056D01*
X139981804Y-110375581D01*
X140181592Y-110243959D01*
X140411681Y-110128525D01*
X140645216Y-110042617D01*
X140855338Y-109999570D01*
X140869459Y-109998438D01*
X141017711Y-109994480D01*
X141113355Y-110012840D01*
G37*
X141113355Y-110012840D02*
X141187020Y-110060347D01*
X141199833Y-110072069D01*
X141265681Y-110154056D01*
X141288240Y-110241869D01*
X141263057Y-110342014D01*
X141185676Y-110460999D01*
X141051643Y-110605330D01*
X140856503Y-110781513D01*
X140595802Y-110996056D01*
X140533083Y-111045978D01*
X140368017Y-111179524D01*
X140228883Y-111297277D01*
X140128427Y-111388061D01*
X140079397Y-111440698D01*
X140076776Y-111446057D01*
X140090258Y-111515798D01*
X140119109Y-111565413D01*
X140145578Y-111590424D01*
X140185216Y-111599740D01*
X140250520Y-111590113D01*
X140353984Y-111558292D01*
X140508105Y-111501027D01*
X140725378Y-111415068D01*
X140777413Y-111394186D01*
X141009887Y-111299810D01*
X141178916Y-111226932D01*
X141299924Y-111166258D01*
X141388335Y-111108494D01*
X141459573Y-111044347D01*
X141497605Y-111000657D01*
X141982408Y-111000657D01*
X141983358Y-111005411D01*
X142035208Y-110991494D01*
X142142689Y-110955024D01*
X142281199Y-110904392D01*
X142567914Y-110786871D01*
X142791526Y-110674860D01*
X142947456Y-110571530D01*
X143031122Y-110480049D01*
X143037941Y-110403587D01*
X143027717Y-110387924D01*
X142931763Y-110334050D01*
X142795130Y-110344909D01*
X142626698Y-110416583D01*
X142435346Y-110545157D01*
X142229954Y-110726716D01*
X142206575Y-110750067D01*
X142096120Y-110864889D01*
X142017444Y-110952941D01*
X141982408Y-111000657D01*
X141497605Y-111000657D01*
X141529061Y-110964523D01*
X141564932Y-110919669D01*
X141811764Y-110632246D01*
X142053245Y-110398188D01*
X142281782Y-110223284D01*
X142489782Y-110113325D01*
X142669651Y-110074102D01*
X142673742Y-110074078D01*
X142834412Y-110107056D01*
X142999756Y-110194252D01*
X143149712Y-110318055D01*
X143264217Y-110460856D01*
X143323205Y-110605045D01*
X143327083Y-110647516D01*
X143286936Y-110736216D01*
X143171750Y-110838013D01*
X142989408Y-110948904D01*
X142747792Y-111064885D01*
X142454784Y-111181950D01*
X142118268Y-111296095D01*
X141951250Y-111346456D01*
X141789347Y-111399343D01*
X141658073Y-111453105D01*
X141579852Y-111498211D01*
X141570250Y-111508377D01*
X141495426Y-111631889D01*
X141415239Y-111781346D01*
X141340941Y-111933428D01*
X141283787Y-112064816D01*
X141255031Y-112152189D01*
X141253596Y-112164533D01*
X141264908Y-112215022D01*
X141315450Y-112229659D01*
X141411500Y-112218893D01*
X141558049Y-112177349D01*
X141759844Y-112093794D01*
X142003113Y-111975265D01*
X142274087Y-111828797D01*
X142558995Y-111661425D01*
X142797916Y-111510543D01*
X142975751Y-111395373D01*
X143130427Y-111297070D01*
X143246939Y-111225035D01*
X143310286Y-111188670D01*
X143314617Y-111186739D01*
X143374946Y-111201240D01*
X143459495Y-111261939D01*
X143478833Y-111280313D01*
X143592015Y-111393495D01*
X143385466Y-111541107D01*
X143187076Y-111675921D01*
X142950909Y-111825569D01*
X142697012Y-111978371D01*
X142445433Y-112122652D01*
X142216218Y-112246733D01*
X142029415Y-112338936D01*
X141975277Y-112362545D01*
X141731785Y-112453229D01*
X141542578Y-112499083D01*
X141391681Y-112502524D01*
X141270326Y-112469171D01*
X141134822Y-112382018D01*
X141025080Y-112261164D01*
X140963004Y-112133451D01*
X140956416Y-112084525D01*
X140970401Y-111984924D01*
X141005238Y-111853419D01*
X141018038Y-111815067D01*
X141049260Y-111710141D01*
X141056596Y-111647848D01*
X141050945Y-111640411D01*
X141001027Y-111654983D01*
X140892404Y-111693884D01*
X140744942Y-111749890D01*
X140679912Y-111775316D01*
X140337593Y-111910220D01*
X140403032Y-112092196D01*
X140440528Y-112206598D01*
X140443916Y-112275304D01*
X140409577Y-112331604D01*
X140372873Y-112369769D01*
X140307889Y-112420855D01*
X140222986Y-112452659D01*
X140095081Y-112471159D01*
X139945549Y-112480430D01*
X139738434Y-112482860D01*
X139591766Y-112466185D01*
X139482952Y-112427818D01*
X139482040Y-112427348D01*
X139357695Y-112337760D01*
X139288081Y-112234329D01*
X139287461Y-112212772D01*
X139771083Y-112212772D01*
X139804646Y-112235941D01*
X139885330Y-112230214D01*
X139983131Y-112201618D01*
X140068040Y-112156182D01*
X140073310Y-112152055D01*
X140135091Y-112087692D01*
X140146340Y-112044081D01*
X140145602Y-112043269D01*
X140097961Y-112046141D01*
X140006853Y-112077765D01*
X139902168Y-112124613D01*
X139813794Y-112173158D01*
X139771620Y-112209872D01*
X139771083Y-112212772D01*
X139287461Y-112212772D01*
X139285354Y-112139632D01*
X139333932Y-112087370D01*
X139437576Y-112011917D01*
X139574899Y-111926466D01*
X139724518Y-111844213D01*
X139865047Y-111778349D01*
X139882121Y-111771446D01*
X140014325Y-111719262D01*
X139862466Y-111423279D01*
X139746927Y-111148221D01*
X139715281Y-110973831D01*
X140000337Y-110973831D01*
X140012769Y-110985528D01*
X140057168Y-110963042D01*
X140142748Y-110900799D01*
X140278722Y-110793224D01*
X140386406Y-110706159D01*
X140579755Y-110544847D01*
X140708964Y-110426934D01*
X140772322Y-110354125D01*
X140768119Y-110328120D01*
X140766442Y-110328078D01*
X140715934Y-110346657D01*
X140613435Y-110395349D01*
X140482142Y-110463081D01*
X140254056Y-110614155D01*
X140089281Y-110786830D01*
X140010661Y-110933527D01*
X140000337Y-110973831D01*
X139715281Y-110973831D01*
X139703710Y-110910071D01*
X139732642Y-110702001D01*
X139833547Y-110517182D01*
X139839174Y-110510056D01*
X139981804Y-110375581D01*
X140181592Y-110243959D01*
X140411681Y-110128525D01*
X140645216Y-110042617D01*
X140855338Y-109999570D01*
X140869459Y-109998438D01*
X141017711Y-109994480D01*
X141113355Y-110012840D01*
G36*
X136773683Y-110091454D02*
G01*
X136838559Y-110124326D01*
X136843909Y-110127552D01*
X136939102Y-110203762D01*
X136959240Y-110279223D01*
X136902639Y-110363942D01*
X136788978Y-110453430D01*
X136682078Y-110537351D01*
X136612031Y-110612234D01*
X136596083Y-110647612D01*
X136570576Y-110701990D01*
X136504796Y-110696348D01*
X136414850Y-110633827D01*
X136387964Y-110607021D01*
X136320346Y-110509848D01*
X136317682Y-110419626D01*
X136384450Y-110323433D01*
X136525129Y-110208344D01*
X136526435Y-110207405D01*
X136642947Y-110126624D01*
X136716921Y-110090097D01*
X136773683Y-110091454D01*
G37*
X136773683Y-110091454D02*
X136838559Y-110124326D01*
X136843909Y-110127552D01*
X136939102Y-110203762D01*
X136959240Y-110279223D01*
X136902639Y-110363942D01*
X136788978Y-110453430D01*
X136682078Y-110537351D01*
X136612031Y-110612234D01*
X136596083Y-110647612D01*
X136570576Y-110701990D01*
X136504796Y-110696348D01*
X136414850Y-110633827D01*
X136387964Y-110607021D01*
X136320346Y-110509848D01*
X136317682Y-110419626D01*
X136384450Y-110323433D01*
X136525129Y-110208344D01*
X136526435Y-110207405D01*
X136642947Y-110126624D01*
X136716921Y-110090097D01*
X136773683Y-110091454D01*
%TD*%
D12*
%TO.C,MX87*%
X262255000Y-114300000D03*
D13*
X257175000Y-114300000D03*
D12*
X252095000Y-114300000D03*
%TD*%
%TO.C,MX86*%
X228282500Y-114300000D03*
D13*
X233362500Y-114300000D03*
D12*
X238442500Y-114300000D03*
%TD*%
D14*
%TO.C,mouse-bite-3mm-slot*%
X287861992Y-123549933D03*
X288611992Y-123549933D03*
X287111992Y-123549933D03*
X286337992Y-123549933D03*
X285575992Y-123549933D03*
%TD*%
%TO.C,mouse-bite-3mm-slot*%
X168311992Y-123549933D03*
X169061992Y-123549933D03*
X167561992Y-123549933D03*
X166787992Y-123549933D03*
X166025992Y-123549933D03*
%TD*%
%TO.C,mouse-bite-3mm-slot*%
X102311992Y-123549933D03*
X103061992Y-123549933D03*
X101561992Y-123549933D03*
X100787992Y-123549933D03*
X100025992Y-123549933D03*
%TD*%
%TO.C,mouse-bite-3mm-slot*%
X245311992Y-123549933D03*
X246061992Y-123549933D03*
X244561992Y-123549933D03*
X243787992Y-123549933D03*
X243025992Y-123549933D03*
%TD*%
%TO.C,mouse-bite-3mm-slot*%
X57025992Y-123549933D03*
X57787992Y-123549933D03*
X58561992Y-123549933D03*
X60061992Y-123549933D03*
X59311992Y-123549933D03*
%TD*%
%TO.C,mouse-bite-3mm-slot*%
X240587996Y-28849996D03*
X239837996Y-28849996D03*
X241337996Y-28849996D03*
X242111996Y-28849996D03*
X242873996Y-28849996D03*
%TD*%
%TO.C,mouse-bite-3mm-slot*%
X174587996Y-28849996D03*
X173837996Y-28849996D03*
X175337996Y-28849996D03*
X176111996Y-28849996D03*
X176873996Y-28849996D03*
%TD*%
%TO.C,mouse-bite-3mm-slot*%
X46587996Y-28849996D03*
X45837996Y-28849996D03*
X47337996Y-28849996D03*
X48111996Y-28849996D03*
X48873996Y-28849996D03*
%TD*%
%TO.C,mouse-bite-3mm-slot*%
X97587996Y-28849996D03*
X96837996Y-28849996D03*
X98337996Y-28849996D03*
X99111996Y-28849996D03*
X99873996Y-28849996D03*
%TD*%
%TO.C,mouse-bite-3mm-slot*%
X293873996Y-28849996D03*
X293111996Y-28849996D03*
X292337996Y-28849996D03*
X290837996Y-28849996D03*
X291587996Y-28849996D03*
%TD*%
D15*
%TO.C,REF\u002A\u002A*%
X39099992Y-128799933D03*
%TD*%
%TO.C,REF\u002A\u002A*%
X303799993Y-128799933D03*
%TD*%
%TO.C,REF\u002A\u002A*%
X303799996Y-23599996D03*
%TD*%
%TO.C,REF\u002A\u002A*%
X39099995Y-23599996D03*
%TD*%
D16*
%TO.C,MX84*%
X309403750Y-78613000D03*
X309403750Y-54737000D03*
D13*
X294163750Y-78613000D03*
X294163750Y-54737000D03*
D12*
X302418750Y-61595000D03*
D13*
X302418750Y-66675000D03*
D12*
X302418750Y-71755000D03*
%TD*%
%TO.C,MX83*%
X275907500Y-76200000D03*
D13*
X280987500Y-76200000D03*
D12*
X286067500Y-76200000D03*
%TD*%
D13*
%TO.C,MX45*%
X304800000Y-67945000D03*
X280987500Y-67945000D03*
D16*
X304800000Y-83185000D03*
X280987500Y-83185000D03*
D12*
X287813750Y-76200000D03*
D13*
X292893750Y-76200000D03*
D12*
X297973750Y-76200000D03*
%TD*%
%TO.C,MX82*%
X61595000Y-114300000D03*
D13*
X66675000Y-114300000D03*
D12*
X71755000Y-114300000D03*
%TD*%
%TO.C,MX81*%
X85407500Y-114300000D03*
D13*
X90487500Y-114300000D03*
D12*
X95567500Y-114300000D03*
%TD*%
%TO.C,MX80*%
X37782500Y-114300000D03*
D13*
X42862500Y-114300000D03*
D12*
X47942500Y-114300000D03*
%TD*%
D13*
%TO.C,MX79*%
X228600000Y-106045000D03*
X114300000Y-106045000D03*
D16*
X228600000Y-121285000D03*
X114300000Y-121285000D03*
D12*
X166370000Y-114300000D03*
D13*
X171450000Y-114300000D03*
D12*
X176530000Y-114300000D03*
%TD*%
%TO.C,MX61*%
X247332500Y-114300000D03*
D13*
X252412500Y-114300000D03*
D12*
X257492500Y-114300000D03*
%TD*%
%TO.C,MX78*%
X294957500Y-114300000D03*
D13*
X300037500Y-114300000D03*
D12*
X305117500Y-114300000D03*
%TD*%
%TO.C,MX77*%
X281305000Y-114300000D03*
D13*
X276225000Y-114300000D03*
D12*
X271145000Y-114300000D03*
%TD*%
%TO.C,MX74*%
X297338750Y-114300000D03*
D13*
X302418750Y-114300000D03*
D12*
X307498750Y-114300000D03*
%TD*%
%TO.C,MX71*%
X273526250Y-114300000D03*
D13*
X278606250Y-114300000D03*
D12*
X283686250Y-114300000D03*
%TD*%
%TO.C,MX69*%
X249713750Y-114300000D03*
D13*
X254793750Y-114300000D03*
D12*
X259873750Y-114300000D03*
%TD*%
%TO.C,MX64*%
X225901250Y-114300000D03*
D13*
X230981250Y-114300000D03*
D12*
X236061250Y-114300000D03*
%TD*%
%TO.C,MX40*%
X180657500Y-76200000D03*
D13*
X185737500Y-76200000D03*
D12*
X190817500Y-76200000D03*
%TD*%
%TO.C,MX34*%
X66357500Y-76200000D03*
D13*
X71437500Y-76200000D03*
D12*
X76517500Y-76200000D03*
%TD*%
%TO.C,MX48*%
X271780000Y-114300000D03*
D13*
X266700000Y-114300000D03*
D12*
X261620000Y-114300000D03*
%TD*%
%TO.C,MX32*%
X252730000Y-114300000D03*
D13*
X247650000Y-114300000D03*
D12*
X242570000Y-114300000D03*
%TD*%
%TO.C,MX16*%
X233680000Y-114300000D03*
D13*
X228600000Y-114300000D03*
D12*
X223520000Y-114300000D03*
%TD*%
%TO.C,MX76*%
X293211250Y-95250000D03*
D13*
X288131250Y-95250000D03*
D12*
X283051250Y-95250000D03*
D16*
X276225000Y-88265000D03*
X300037500Y-88265000D03*
D13*
X276225000Y-103505000D03*
X300037500Y-103505000D03*
%TD*%
D12*
%TO.C,MX75*%
X290830000Y-95250000D03*
D13*
X285750000Y-95250000D03*
D12*
X280670000Y-95250000D03*
%TD*%
%TO.C,MX47*%
X264636250Y-95250000D03*
D13*
X259556250Y-95250000D03*
D12*
X254476250Y-95250000D03*
%TD*%
%TO.C,MX46*%
X290195000Y-38100000D03*
D13*
X295275000Y-38100000D03*
D12*
X300355000Y-38100000D03*
D13*
X307181250Y-46355000D03*
X283368750Y-46355000D03*
D16*
X307181250Y-31115000D03*
X283368750Y-31115000D03*
%TD*%
D12*
%TO.C,MX31*%
X55086250Y-95250000D03*
D13*
X50006250Y-95250000D03*
D12*
X44926250Y-95250000D03*
D16*
X38100000Y-88265000D03*
X61912500Y-88265000D03*
D13*
X38100000Y-103505000D03*
X61912500Y-103505000D03*
%TD*%
D12*
%TO.C,MX30*%
X305117500Y-57150000D03*
D13*
X300037500Y-57150000D03*
D12*
X294957500Y-57150000D03*
%TD*%
%TO.C,MX73*%
X309880000Y-114300000D03*
D13*
X304800000Y-114300000D03*
D12*
X299720000Y-114300000D03*
%TD*%
%TO.C,MX72*%
X280670000Y-114300000D03*
D13*
X285750000Y-114300000D03*
D12*
X290830000Y-114300000D03*
%TD*%
D13*
%TO.C,MX70*%
X209543650Y-106045000D03*
X109543850Y-106045000D03*
D16*
X209543650Y-121285000D03*
X109543850Y-121285000D03*
D12*
X154463750Y-114300000D03*
D13*
X159543750Y-114300000D03*
D12*
X164623750Y-114300000D03*
%TD*%
%TO.C,MX68*%
X83026250Y-114300000D03*
D13*
X88106250Y-114300000D03*
D12*
X93186250Y-114300000D03*
%TD*%
%TO.C,MX67*%
X59213750Y-114300000D03*
D13*
X64293750Y-114300000D03*
D12*
X69373750Y-114300000D03*
%TD*%
%TO.C,MX66*%
X35401250Y-114300000D03*
D13*
X40481250Y-114300000D03*
D12*
X45561250Y-114300000D03*
%TD*%
%TO.C,MX65*%
X35401250Y-76200000D03*
D13*
X40481250Y-76200000D03*
D12*
X45561250Y-76200000D03*
%TD*%
%TO.C,MX62*%
X273526250Y-95250000D03*
D13*
X278606250Y-95250000D03*
D12*
X283686250Y-95250000D03*
%TD*%
%TO.C,MX63*%
X299720000Y-95250000D03*
D13*
X304800000Y-95250000D03*
D12*
X309880000Y-95250000D03*
%TD*%
%TO.C,MX60*%
X247332500Y-95250000D03*
D13*
X252412500Y-95250000D03*
D12*
X257492500Y-95250000D03*
%TD*%
%TO.C,MX59*%
X228282500Y-95250000D03*
D13*
X233362500Y-95250000D03*
D12*
X238442500Y-95250000D03*
%TD*%
%TO.C,MX58*%
X209232500Y-95250000D03*
D13*
X214312500Y-95250000D03*
D12*
X219392500Y-95250000D03*
%TD*%
%TO.C,MX57*%
X190182500Y-95250000D03*
D13*
X195262500Y-95250000D03*
D12*
X200342500Y-95250000D03*
%TD*%
%TO.C,MX56*%
X171132500Y-95250000D03*
D13*
X176212500Y-95250000D03*
D12*
X181292500Y-95250000D03*
%TD*%
%TO.C,MX55*%
X152082500Y-95250000D03*
D13*
X157162500Y-95250000D03*
D12*
X162242500Y-95250000D03*
%TD*%
%TO.C,MX54*%
X133032500Y-95250000D03*
D13*
X138112500Y-95250000D03*
D12*
X143192500Y-95250000D03*
%TD*%
%TO.C,MX53*%
X113982500Y-95250000D03*
D13*
X119062500Y-95250000D03*
D12*
X124142500Y-95250000D03*
%TD*%
%TO.C,MX52*%
X94932500Y-95250000D03*
D13*
X100012500Y-95250000D03*
D12*
X105092500Y-95250000D03*
%TD*%
%TO.C,MX51*%
X75882500Y-95250000D03*
D13*
X80962500Y-95250000D03*
D12*
X86042500Y-95250000D03*
%TD*%
%TO.C,MX50*%
X56832500Y-95250000D03*
D13*
X61912500Y-95250000D03*
D12*
X66992500Y-95250000D03*
%TD*%
%TO.C,MX49*%
X35401250Y-95250000D03*
D13*
X40481250Y-95250000D03*
D12*
X45561250Y-95250000D03*
%TD*%
%TO.C,MX33*%
X40163750Y-76200000D03*
D13*
X45243750Y-76200000D03*
D12*
X50323750Y-76200000D03*
%TD*%
%TO.C,MX44*%
X256857500Y-76200000D03*
D13*
X261937500Y-76200000D03*
D12*
X267017500Y-76200000D03*
%TD*%
%TO.C,MX43*%
X237807500Y-76200000D03*
D13*
X242887500Y-76200000D03*
D12*
X247967500Y-76200000D03*
%TD*%
%TO.C,MX42*%
X218757500Y-76200000D03*
D13*
X223837500Y-76200000D03*
D12*
X228917500Y-76200000D03*
%TD*%
%TO.C,MX41*%
X199707500Y-76200000D03*
D13*
X204787500Y-76200000D03*
D12*
X209867500Y-76200000D03*
%TD*%
%TO.C,MX39*%
X161607500Y-76200000D03*
D13*
X166687500Y-76200000D03*
D12*
X171767500Y-76200000D03*
%TD*%
%TO.C,MX38*%
X142557500Y-76200000D03*
D13*
X147637500Y-76200000D03*
D12*
X152717500Y-76200000D03*
%TD*%
%TO.C,MX37*%
X123507500Y-76200000D03*
D13*
X128587500Y-76200000D03*
D12*
X133667500Y-76200000D03*
%TD*%
%TO.C,MX36*%
X104457500Y-76200000D03*
D13*
X109537500Y-76200000D03*
D12*
X114617500Y-76200000D03*
%TD*%
%TO.C,MX35*%
X85407500Y-76200000D03*
D13*
X90487500Y-76200000D03*
D12*
X95567500Y-76200000D03*
%TD*%
%TO.C,MX17*%
X37782500Y-57150000D03*
D13*
X42862500Y-57150000D03*
D12*
X47942500Y-57150000D03*
%TD*%
%TO.C,MX29*%
X271145000Y-57150000D03*
D13*
X276225000Y-57150000D03*
D12*
X281305000Y-57150000D03*
%TD*%
%TO.C,MX28*%
X252095000Y-57150000D03*
D13*
X257175000Y-57150000D03*
D12*
X262255000Y-57150000D03*
%TD*%
%TO.C,MX27*%
X233045000Y-57150000D03*
D13*
X238125000Y-57150000D03*
D12*
X243205000Y-57150000D03*
%TD*%
%TO.C,MX26*%
X213995000Y-57150000D03*
D13*
X219075000Y-57150000D03*
D12*
X224155000Y-57150000D03*
%TD*%
%TO.C,MX25*%
X194945000Y-57150000D03*
D13*
X200025000Y-57150000D03*
D12*
X205105000Y-57150000D03*
%TD*%
%TO.C,MX24*%
X175895000Y-57150000D03*
D13*
X180975000Y-57150000D03*
D12*
X186055000Y-57150000D03*
%TD*%
%TO.C,MX23*%
X156845000Y-57150000D03*
D13*
X161925000Y-57150000D03*
D12*
X167005000Y-57150000D03*
%TD*%
%TO.C,MX22*%
X137795000Y-57150000D03*
D13*
X142875000Y-57150000D03*
D12*
X147955000Y-57150000D03*
%TD*%
%TO.C,MX21*%
X118745000Y-57150000D03*
D13*
X123825000Y-57150000D03*
D12*
X128905000Y-57150000D03*
%TD*%
%TO.C,MX20*%
X99695000Y-57150000D03*
D13*
X104775000Y-57150000D03*
D12*
X109855000Y-57150000D03*
%TD*%
%TO.C,MX19*%
X80645000Y-57150000D03*
D13*
X85725000Y-57150000D03*
D12*
X90805000Y-57150000D03*
%TD*%
%TO.C,MX18*%
X61595000Y-57150000D03*
D13*
X66675000Y-57150000D03*
D12*
X71755000Y-57150000D03*
%TD*%
%TO.C,MX15*%
X299720000Y-38100000D03*
D13*
X304800000Y-38100000D03*
D12*
X309880000Y-38100000D03*
%TD*%
%TO.C,MX14*%
X280670000Y-38100000D03*
D13*
X285750000Y-38100000D03*
D12*
X290830000Y-38100000D03*
%TD*%
%TO.C,MX13*%
X261620000Y-38100000D03*
D13*
X266700000Y-38100000D03*
D12*
X271780000Y-38100000D03*
%TD*%
%TO.C,MX12*%
X242570000Y-38100000D03*
D13*
X247650000Y-38100000D03*
D12*
X252730000Y-38100000D03*
%TD*%
%TO.C,MX11*%
X223520000Y-38100000D03*
D13*
X228600000Y-38100000D03*
D12*
X233680000Y-38100000D03*
%TD*%
%TO.C,MX10*%
X204470000Y-38100000D03*
D13*
X209550000Y-38100000D03*
D12*
X214630000Y-38100000D03*
%TD*%
%TO.C,MX9*%
X185420000Y-38100000D03*
D13*
X190500000Y-38100000D03*
D12*
X195580000Y-38100000D03*
%TD*%
%TO.C,MX8*%
X166370000Y-38100000D03*
D13*
X171450000Y-38100000D03*
D12*
X176530000Y-38100000D03*
%TD*%
%TO.C,MX7*%
X147320000Y-38100000D03*
D13*
X152400000Y-38100000D03*
D12*
X157480000Y-38100000D03*
%TD*%
%TO.C,MX6*%
X128270000Y-38100000D03*
D13*
X133350000Y-38100000D03*
D12*
X138430000Y-38100000D03*
%TD*%
%TO.C,MX5*%
X109220000Y-38100000D03*
D13*
X114300000Y-38100000D03*
D12*
X119380000Y-38100000D03*
%TD*%
%TO.C,MX4*%
X90170000Y-38100000D03*
D13*
X95250000Y-38100000D03*
D12*
X100330000Y-38100000D03*
%TD*%
%TO.C,MX3*%
X71120000Y-38100000D03*
D13*
X76200000Y-38100000D03*
D12*
X81280000Y-38100000D03*
%TD*%
%TO.C,MX2*%
X52070000Y-38100000D03*
D13*
X57150000Y-38100000D03*
D12*
X62230000Y-38100000D03*
%TD*%
%TO.C,MX1*%
X33020000Y-38100000D03*
D13*
X38100000Y-38100000D03*
D12*
X43180000Y-38100000D03*
%TD*%
M02*
