M48
; DRILL file {KiCad (5.1.11)-1} date 10/09/22 00:56:22
; FORMAT={-:-/ absolute / metric / decimal}
; #@! TF.CreationDate,2022-10-09T00:56:22+07:00
; #@! TF.GenerationSoftware,Kicad,Pcbnew,(5.1.11)-1
; #@! TF.FileFunction,NonPlated,1,2,NPTH
FMAT,2
METRIC
T1C0.500
T2C1.750
T3C3.048
T4C3.988
%
G90
G05
T1
X45.838Y-28.85
X46.588Y-28.85
X47.338Y-28.85
X48.112Y-28.85
X48.874Y-28.85
X57.026Y-123.55
X57.788Y-123.55
X58.562Y-123.55
X59.312Y-123.55
X60.062Y-123.55
X96.838Y-28.85
X97.588Y-28.85
X98.338Y-28.85
X99.112Y-28.85
X99.874Y-28.85
X100.026Y-123.55
X100.788Y-123.55
X101.562Y-123.55
X102.312Y-123.55
X103.062Y-123.55
X166.026Y-123.55
X166.788Y-123.55
X167.562Y-123.55
X168.312Y-123.55
X169.062Y-123.55
X173.838Y-28.85
X174.588Y-28.85
X175.338Y-28.85
X176.112Y-28.85
X176.874Y-28.85
X239.838Y-28.85
X240.588Y-28.85
X241.338Y-28.85
X242.112Y-28.85
X242.874Y-28.85
X243.026Y-123.55
X243.788Y-123.55
X244.562Y-123.55
X245.312Y-123.55
X246.062Y-123.55
X285.576Y-123.55
X286.338Y-123.55
X287.112Y-123.55
X287.862Y-123.55
X288.612Y-123.55
X290.838Y-28.85
X291.588Y-28.85
X292.338Y-28.85
X293.112Y-28.85
X293.874Y-28.85
T2
X33.02Y-38.1
X35.401Y-76.2
X35.401Y-95.25
X35.401Y-114.3
X37.782Y-57.15
X37.782Y-114.3
X40.164Y-76.2
X43.18Y-38.1
X44.926Y-95.25
X45.561Y-76.2
X45.561Y-95.25
X45.561Y-114.3
X47.942Y-57.15
X47.942Y-114.3
X50.324Y-76.2
X52.07Y-38.1
X55.086Y-95.25
X56.832Y-95.25
X59.214Y-114.3
X61.595Y-57.15
X61.595Y-114.3
X62.23Y-38.1
X66.358Y-76.2
X66.992Y-95.25
X69.374Y-114.3
X71.12Y-38.1
X71.755Y-57.15
X71.755Y-114.3
X75.882Y-95.25
X76.517Y-76.2
X80.645Y-57.15
X81.28Y-38.1
X83.026Y-114.3
X85.407Y-76.2
X85.407Y-114.3
X86.042Y-95.25
X90.17Y-38.1
X90.805Y-57.15
X93.186Y-114.3
X94.932Y-95.25
X95.567Y-76.2
X95.567Y-114.3
X99.695Y-57.15
X100.33Y-38.1
X104.457Y-76.2
X105.093Y-95.25
X109.22Y-38.1
X109.855Y-57.15
X113.983Y-95.25
X114.617Y-76.2
X118.745Y-57.15
X119.38Y-38.1
X123.507Y-76.2
X124.142Y-95.25
X128.27Y-38.1
X128.905Y-57.15
X133.032Y-95.25
X133.667Y-76.2
X137.795Y-57.15
X138.43Y-38.1
X142.558Y-76.2
X143.192Y-95.25
X147.32Y-38.1
X147.955Y-57.15
X152.082Y-95.25
X152.718Y-76.2
X154.464Y-114.3
X156.845Y-57.15
X157.48Y-38.1
X161.607Y-76.2
X162.243Y-95.25
X164.624Y-114.3
X166.37Y-38.1
X166.37Y-114.3
X167.005Y-57.15
X171.132Y-95.25
X171.767Y-76.2
X175.895Y-57.15
X176.53Y-38.1
X176.53Y-114.3
X180.657Y-76.2
X181.292Y-95.25
X185.42Y-38.1
X186.055Y-57.15
X190.183Y-95.25
X190.817Y-76.2
X194.945Y-57.15
X195.58Y-38.1
X199.707Y-76.2
X200.343Y-95.25
X204.47Y-38.1
X205.105Y-57.15
X209.232Y-95.25
X209.867Y-76.2
X213.995Y-57.15
X214.63Y-38.1
X218.757Y-76.2
X219.392Y-95.25
X223.52Y-38.1
X223.52Y-114.3
X224.155Y-57.15
X225.901Y-114.3
X228.282Y-95.25
X228.282Y-114.3
X228.917Y-76.2
X233.045Y-57.15
X233.68Y-38.1
X233.68Y-114.3
X236.061Y-114.3
X237.807Y-76.2
X238.442Y-95.25
X238.442Y-114.3
X242.57Y-38.1
X242.57Y-114.3
X243.205Y-57.15
X247.332Y-95.25
X247.332Y-114.3
X247.968Y-76.2
X249.714Y-114.3
X252.095Y-57.15
X252.095Y-114.3
X252.73Y-38.1
X252.73Y-114.3
X254.476Y-95.25
X256.858Y-76.2
X257.493Y-95.25
X257.493Y-114.3
X259.874Y-114.3
X261.62Y-38.1
X261.62Y-114.3
X262.255Y-57.15
X262.255Y-114.3
X264.636Y-95.25
X267.017Y-76.2
X271.145Y-57.15
X271.145Y-114.3
X271.78Y-38.1
X271.78Y-114.3
X273.526Y-95.25
X273.526Y-114.3
X275.907Y-76.2
X280.67Y-38.1
X280.67Y-95.25
X280.67Y-114.3
X281.305Y-57.15
X281.305Y-114.3
X283.051Y-95.25
X283.686Y-95.25
X283.686Y-114.3
X286.067Y-76.2
X287.814Y-76.2
X290.195Y-38.1
X290.83Y-38.1
X290.83Y-95.25
X290.83Y-114.3
X293.211Y-95.25
X294.957Y-57.15
X294.957Y-114.3
X297.339Y-114.3
X297.974Y-76.2
X299.72Y-38.1
X299.72Y-95.25
X299.72Y-114.3
X300.355Y-38.1
X302.419Y-61.595
X302.419Y-71.755
X305.118Y-57.15
X305.118Y-114.3
X307.499Y-114.3
X309.88Y-38.1
X309.88Y-95.25
X309.88Y-114.3
T3
X38.1Y-88.265
X61.912Y-88.265
X109.544Y-121.285
X114.3Y-121.285
X209.544Y-121.285
X228.6Y-121.285
X276.225Y-88.265
X280.988Y-83.185
X283.369Y-31.115
X300.037Y-88.265
X304.8Y-83.185
X307.181Y-31.115
X309.404Y-54.737
X309.404Y-78.613
T4
X38.1Y-38.1
X38.1Y-103.505
X40.481Y-76.2
X40.481Y-95.25
X40.481Y-114.3
X42.862Y-57.15
X42.862Y-114.3
X45.244Y-76.2
X50.006Y-95.25
X57.15Y-38.1
X61.912Y-95.25
X61.912Y-103.505
X64.294Y-114.3
X66.675Y-57.15
X66.675Y-114.3
X71.438Y-76.2
X76.2Y-38.1
X80.962Y-95.25
X85.725Y-57.15
X88.106Y-114.3
X90.487Y-76.2
X90.487Y-114.3
X95.25Y-38.1
X100.012Y-95.25
X104.775Y-57.15
X109.537Y-76.2
X109.544Y-106.045
X114.3Y-38.1
X114.3Y-106.045
X119.062Y-95.25
X123.825Y-57.15
X128.588Y-76.2
X133.35Y-38.1
X138.112Y-95.25
X142.875Y-57.15
X147.637Y-76.2
X152.4Y-38.1
X157.162Y-95.25
X159.544Y-114.3
X161.925Y-57.15
X166.688Y-76.2
X171.45Y-38.1
X171.45Y-114.3
X176.213Y-95.25
X180.975Y-57.15
X185.737Y-76.2
X190.5Y-38.1
X195.262Y-95.25
X200.025Y-57.15
X204.787Y-76.2
X209.544Y-106.045
X209.55Y-38.1
X214.312Y-95.25
X219.075Y-57.15
X223.837Y-76.2
X228.6Y-38.1
X228.6Y-106.045
X228.6Y-114.3
X230.981Y-114.3
X233.362Y-95.25
X233.362Y-114.3
X238.125Y-57.15
X242.887Y-76.2
X247.65Y-38.1
X247.65Y-114.3
X252.412Y-95.25
X252.412Y-114.3
X254.794Y-114.3
X257.175Y-57.15
X257.175Y-114.3
X259.556Y-95.25
X261.938Y-76.2
X266.7Y-38.1
X266.7Y-114.3
X276.225Y-57.15
X276.225Y-103.505
X276.225Y-114.3
X278.606Y-95.25
X278.606Y-114.3
X280.988Y-67.945
X280.988Y-76.2
X283.369Y-46.355
X285.75Y-38.1
X285.75Y-95.25
X285.75Y-114.3
X288.131Y-95.25
X292.894Y-76.2
X294.164Y-54.737
X294.164Y-78.613
X295.275Y-38.1
X300.037Y-57.15
X300.037Y-103.505
X300.037Y-114.3
X302.419Y-66.675
X302.419Y-114.3
X304.8Y-38.1
X304.8Y-67.945
X304.8Y-95.25
X304.8Y-114.3
X307.181Y-46.355
T0
M30
